<svg width="95" height="107" viewBox="0 0 95 107" fill="none" xmlns="http://www.w3.org/2000/svg">
<path d="M18.816 17V15.512C19.4987 14.9467 20.16 14.3867 20.8 13.832C21.4507 13.2773 22.0267 12.728 22.528 12.184C23.04 11.64 23.4453 11.112 23.744 10.6C24.0533 10.0773 24.208 9.57067 24.208 9.08C24.208 8.62133 24.08 8.216 23.824 7.864C23.5787 7.512 23.168 7.336 22.592 7.336C22.0053 7.336 21.5627 7.528 21.264 7.912C20.9653 8.296 20.816 8.76 20.816 9.304H18.832C18.8533 8.48267 19.0347 7.8 19.376 7.256C19.7173 6.70133 20.1707 6.29067 20.736 6.024C21.3013 5.74667 21.936 5.608 22.64 5.608C23.7813 5.608 24.6667 5.92267 25.296 6.552C25.936 7.17067 26.256 7.976 26.256 8.968C26.256 9.58667 26.112 10.1893 25.824 10.776C25.5467 11.3627 25.1787 11.928 24.72 12.472C24.2613 13.016 23.7653 13.528 23.232 14.008C22.6987 14.4773 22.1813 14.9147 21.68 15.32H26.528V17H18.816ZM33.208 17V14.92H27.688V13.288L32.936 5.8H35.256V13.144H36.728V14.92H35.256V17H33.208ZM29.88 13.144H33.336V8.056L29.88 13.144ZM42.1505 17V5.8H44.1985V10.328L48.3425 5.8H50.8705L46.7425 10.248L50.9825 17H48.4705L45.2705 11.816L44.1985 12.984V17H42.1505ZM54.526 17.192C53.8433 17.192 53.2833 17.0853 52.846 16.872C52.4087 16.648 52.0833 16.3547 51.87 15.992C51.6567 15.6293 51.55 15.2293 51.55 14.792C51.55 14.056 51.838 13.4587 52.414 13C52.99 12.5413 53.854 12.312 55.006 12.312H57.022V12.12C57.022 11.576 56.8673 11.176 56.558 10.92C56.2487 10.664 55.8647 10.536 55.406 10.536C54.99 10.536 54.6273 10.6373 54.318 10.84C54.0087 11.032 53.8167 11.32 53.742 11.704H51.742C51.7953 11.128 51.9873 10.6267 52.318 10.2C52.6593 9.77333 53.0967 9.448 53.63 9.224C54.1633 8.98933 54.7607 8.872 55.422 8.872C56.5527 8.872 57.4433 9.15467 58.094 9.72C58.7447 10.2853 59.07 11.0853 59.07 12.12V17H57.326L57.134 15.72C56.8993 16.1467 56.5687 16.4987 56.142 16.776C55.726 17.0533 55.1873 17.192 54.526 17.192ZM54.99 15.592C55.5767 15.592 56.03 15.4 56.35 15.016C56.6807 14.632 56.8887 14.1573 56.974 13.592H55.23C54.686 13.592 54.2967 13.6933 54.062 13.896C53.8273 14.088 53.71 14.328 53.71 14.616C53.71 14.9253 53.8273 15.1653 54.062 15.336C54.2967 15.5067 54.606 15.592 54.99 15.592ZM61.0244 17V9.064H62.8484L63.0404 10.552C63.3284 10.04 63.7177 9.63467 64.2084 9.336C64.7097 9.02667 65.2964 8.872 65.9684 8.872V11.032H65.3924C64.9444 11.032 64.5444 11.1013 64.1924 11.24C63.8404 11.3787 63.563 11.6187 63.3604 11.96C63.1684 12.3013 63.0724 12.776 63.0724 13.384V17H61.0244ZM70.1041 17.192C69.4215 17.192 68.8615 17.0853 68.4241 16.872C67.9868 16.648 67.6615 16.3547 67.4481 15.992C67.2348 15.6293 67.1281 15.2293 67.1281 14.792C67.1281 14.056 67.4161 13.4587 67.9921 13C68.5681 12.5413 69.4321 12.312 70.5841 12.312H72.6001V12.12C72.6001 11.576 72.4455 11.176 72.1361 10.92C71.8268 10.664 71.4428 10.536 70.9841 10.536C70.5681 10.536 70.2055 10.6373 69.8961 10.84C69.5868 11.032 69.3948 11.32 69.3201 11.704H67.3201C67.3735 11.128 67.5655 10.6267 67.8961 10.2C68.2375 9.77333 68.6748 9.448 69.2081 9.224C69.7415 8.98933 70.3388 8.872 71.0001 8.872C72.1308 8.872 73.0215 9.15467 73.6721 9.72C74.3228 10.2853 74.6481 11.0853 74.6481 12.12V17H72.9041L72.7121 15.72C72.4775 16.1467 72.1468 16.4987 71.7201 16.776C71.3041 17.0533 70.7655 17.192 70.1041 17.192ZM70.5681 15.592C71.1548 15.592 71.6081 15.4 71.9281 15.016C72.2588 14.632 72.4668 14.1573 72.5521 13.592H70.8081C70.2641 13.592 69.8748 13.6933 69.6401 13.896C69.4055 14.088 69.2881 14.328 69.2881 14.616C69.2881 14.9253 69.4055 15.1653 69.6401 15.336C69.8748 15.5067 70.1841 15.592 70.5681 15.592ZM80.0291 17C79.1971 17 78.5305 16.7973 78.0291 16.392C77.5278 15.9867 77.2771 15.2667 77.2771 14.232V10.776H75.9171V9.064H77.2771L77.5171 6.936H79.3251V9.064H81.4691V10.776H79.3251V14.248C79.3251 14.632 79.4051 14.8987 79.5651 15.048C79.7358 15.1867 80.0238 15.256 80.4291 15.256H81.4211V17H80.0291Z" fill="#222739"/>
<path d="M23.3695 59.3226L21.4855 65.3508L6.64786 78.5707C6.46172 78.7345 6.32161 78.9533 6.24833 79.1898L0.0339717 99.0729C-0.131546 100.116 0.307748 100.713 1.35222 100.866H11.7876C14.0799 101.864 15.9249 103.757 16.8676 106.088L16.8912 106.146C17.3209 107.285 19.0239 107.284 19.4533 106.146L19.4763 106.089C20.4197 103.757 22.2645 101.864 24.5571 100.866H54.1144C54.8773 100.866 55.4956 100.248 55.4956 99.485C55.4956 98.722 54.8773 98.1038 54.1144 98.1038H36.8304L42.1791 80.9901L61.362 80.9835L66.7128 98.1038H61.4701C59.6455 98.1595 59.6435 100.81 61.4701 100.866H68.5917C68.9248 100.866 69.2536 100.743 69.5036 100.523L93.7957 79.1781C94.2059 78.8177 94.3653 78.2496 94.2024 77.7285L87.9888 57.848C87.8115 57.2758 87.2696 56.8765 86.6698 56.8765H77.4223L71.523 38.0008C71.3569 37.42 70.8107 37 70.1948 37H48.9831C48.6475 37 48.3235 37.1221 48.0714 37.3437L35.9253 48.016C35.3522 48.5194 35.2958 49.3923 35.7994 49.9652C36.3044 50.54 37.1778 50.5932 37.7486 50.0912L49.5038 39.7626H66.53L60.9096 44.7009C60.3562 43.9862 59.8994 43.1932 59.5612 42.3431C59.3524 41.8184 58.8452 41.4738 58.2805 41.4727C57.716 41.4715 57.2071 41.8146 56.9963 42.3382L56.9735 42.3949C55.9947 44.815 54.0549 46.7672 51.6519 47.7513C50.4728 48.16 50.4317 49.873 51.5935 50.332L51.6517 50.3557C52.2688 50.6083 52.8552 50.9252 53.4028 51.2969L45.3819 58.3446H28.3551L31.6992 55.4063C32.2723 54.903 32.3287 54.0301 31.8251 53.4571C31.3219 52.8842 30.4487 52.8274 29.8759 53.3312L23.7882 58.68C23.7157 58.7476 23.6277 58.8419 23.5452 58.9669C23.4572 59.1 23.4032 59.2254 23.3695 59.3226ZM61.8572 78.2207H55.7889L76.9368 59.6389H83.0052L61.8572 78.2207ZM58.2777 45.7754C59.1534 47.059 60.2628 48.1736 61.5406 49.0531C60.2628 49.9325 59.1534 51.0471 58.2777 52.3307C57.3923 51.0327 56.3077 49.9431 55.0151 49.0533C56.2924 48.1742 57.4021 47.0594 58.2777 45.7754ZM55.4571 53.169C56.0842 53.9292 56.5988 54.7855 56.9727 55.7097L56.9965 55.7687C57.2067 56.2912 57.713 56.6334 58.2761 56.6342H58.2779C58.8404 56.6342 59.3467 56.293 59.5579 55.772L59.5823 55.7118C60.5609 53.2918 62.5007 51.3396 64.9023 50.3561L64.9608 50.3322C66.0883 49.9012 66.0931 48.2158 64.9693 47.7778L64.8544 47.7301C64.1588 47.4409 63.5028 47.0701 62.8984 46.6306L69.5104 40.8211L74.823 57.8189L52.8013 77.1681L47.4885 60.1704L55.4571 53.169ZM44.887 61.1068L50.2358 78.2207H20.3575L25.7061 61.1068H44.887ZM19.8826 70.4789L17.463 78.2207H11.1934L19.8826 70.4789ZM18.1724 102.712C17.3087 101.45 16.2164 100.353 14.9602 99.4852C16.2164 98.6178 17.3085 97.5207 18.1724 96.2582C19.0363 97.5205 20.1284 98.6178 21.385 99.4852C20.129 100.352 19.0366 101.45 18.1724 102.712ZM24.5584 98.1036C22.2477 97.0991 20.3928 95.1843 19.4559 92.8293C19.2473 92.3048 18.7406 91.9603 18.1763 91.9586C17.6123 91.957 17.1033 92.299 16.8919 92.8219L16.8683 92.8801C15.9249 95.2124 14.0801 97.1057 11.7877 98.1032H3.23109L8.58215 80.9829L27.7649 80.9895L33.1137 98.1034H24.5584V98.1036ZM34.9722 94.7894L30.6591 80.9897H39.2852L34.9722 94.7894ZM69.2766 97.0447L63.9639 80.0469L84.8785 61.67L85.9854 60.6975L91.2982 77.6954L69.2766 97.0447Z" fill="black"/>
</svg>
