<svg width="178" height="120" viewBox="0 0 178 120" fill="none" xmlns="http://www.w3.org/2000/svg">
<path d="M50.912 28.192C50.1333 28.192 49.4773 28.0427 48.944 27.744C48.4107 27.4347 47.9947 27.0347 47.696 26.544C47.3973 26.0533 47.2213 25.5253 47.168 24.96H49.072C49.1573 25.4507 49.36 25.8293 49.68 26.096C50.0107 26.3627 50.4267 26.496 50.928 26.496C51.6427 26.496 52.2187 26.1707 52.656 25.52C53.0933 24.8587 53.328 23.856 53.36 22.512C53.104 22.9493 52.7147 23.312 52.192 23.6C51.68 23.888 51.1147 24.032 50.496 24.032C49.8773 24.032 49.296 23.8827 48.752 23.584C48.208 23.2853 47.7653 22.864 47.424 22.32C47.0827 21.776 46.912 21.136 46.912 20.4C46.912 19.728 47.0773 19.104 47.408 18.528C47.7387 17.952 48.1973 17.488 48.784 17.136C49.3707 16.784 50.0587 16.608 50.848 16.608C51.6907 16.608 52.4 16.7627 52.976 17.072C53.552 17.3813 54.0107 17.7973 54.352 18.32C54.704 18.8427 54.9547 19.424 55.104 20.064C55.264 20.704 55.344 21.36 55.344 22.032C55.344 23.28 55.168 24.368 54.816 25.296C54.4747 26.2133 53.968 26.928 53.296 27.44C52.6347 27.9413 51.84 28.192 50.912 28.192ZM50.976 22.304C51.3707 22.304 51.728 22.2187 52.048 22.048C52.368 21.8667 52.6187 21.632 52.8 21.344C52.9813 21.0453 53.072 20.7147 53.072 20.352C53.072 19.776 52.8693 19.3013 52.464 18.928C52.0693 18.5547 51.568 18.368 50.96 18.368C50.3627 18.368 49.8667 18.5547 49.472 18.928C49.0773 19.2907 48.88 19.7547 48.88 20.32C48.88 20.9173 49.0773 21.3973 49.472 21.76C49.8667 22.1227 50.368 22.304 50.976 22.304ZM61.0526 28.192C60.274 28.192 59.618 28.0427 59.0846 27.744C58.5513 27.4347 58.1353 27.0347 57.8366 26.544C57.538 26.0533 57.362 25.5253 57.3086 24.96H59.2126C59.298 25.4507 59.5006 25.8293 59.8206 26.096C60.1513 26.3627 60.5673 26.496 61.0686 26.496C61.7833 26.496 62.3593 26.1707 62.7966 25.52C63.234 24.8587 63.4686 23.856 63.5006 22.512C63.2446 22.9493 62.8553 23.312 62.3326 23.6C61.8206 23.888 61.2553 24.032 60.6366 24.032C60.018 24.032 59.4366 23.8827 58.8926 23.584C58.3486 23.2853 57.906 22.864 57.5646 22.32C57.2233 21.776 57.0526 21.136 57.0526 20.4C57.0526 19.728 57.218 19.104 57.5486 18.528C57.8793 17.952 58.338 17.488 58.9246 17.136C59.5113 16.784 60.1993 16.608 60.9886 16.608C61.8313 16.608 62.5406 16.7627 63.1166 17.072C63.6926 17.3813 64.1513 17.7973 64.4926 18.32C64.8446 18.8427 65.0953 19.424 65.2446 20.064C65.4046 20.704 65.4846 21.36 65.4846 22.032C65.4846 23.28 65.3086 24.368 64.9566 25.296C64.6153 26.2133 64.1086 26.928 63.4366 27.44C62.7753 27.9413 61.9806 28.192 61.0526 28.192ZM61.1166 22.304C61.5113 22.304 61.8686 22.2187 62.1886 22.048C62.5086 21.8667 62.7593 21.632 62.9406 21.344C63.122 21.0453 63.2126 20.7147 63.2126 20.352C63.2126 19.776 63.01 19.3013 62.6046 18.928C62.21 18.5547 61.7086 18.368 61.1006 18.368C60.5033 18.368 60.0073 18.5547 59.6126 18.928C59.218 19.2907 59.0206 19.7547 59.0206 20.32C59.0206 20.9173 59.218 21.3973 59.6126 21.76C60.0073 22.1227 60.5086 22.304 61.1166 22.304ZM67.7169 28.112C67.3435 28.112 67.0342 27.9947 66.7889 27.76C66.5542 27.5253 66.4369 27.2427 66.4369 26.912C66.4369 26.5707 66.5542 26.2827 66.7889 26.048C67.0342 25.8133 67.3435 25.696 67.7169 25.696C68.0902 25.696 68.3942 25.8133 68.6289 26.048C68.8742 26.2827 68.9969 26.5707 68.9969 26.912C68.9969 27.2427 68.8742 27.5253 68.6289 27.76C68.3942 27.9947 68.0902 28.112 67.7169 28.112ZM74.0683 28.192C73.2896 28.192 72.6336 28.0427 72.1003 27.744C71.5669 27.4347 71.1509 27.0347 70.8523 26.544C70.5536 26.0533 70.3776 25.5253 70.3243 24.96H72.2283C72.3136 25.4507 72.5163 25.8293 72.8363 26.096C73.1669 26.3627 73.5829 26.496 74.0843 26.496C74.7989 26.496 75.3749 26.1707 75.8123 25.52C76.2496 24.8587 76.4843 23.856 76.5163 22.512C76.2603 22.9493 75.8709 23.312 75.3483 23.6C74.8363 23.888 74.2709 24.032 73.6523 24.032C73.0336 24.032 72.4523 23.8827 71.9083 23.584C71.3643 23.2853 70.9216 22.864 70.5803 22.32C70.2389 21.776 70.0683 21.136 70.0683 20.4C70.0683 19.728 70.2336 19.104 70.5643 18.528C70.8949 17.952 71.3536 17.488 71.9403 17.136C72.5269 16.784 73.2149 16.608 74.0043 16.608C74.8469 16.608 75.5563 16.7627 76.1323 17.072C76.7083 17.3813 77.1669 17.7973 77.5083 18.32C77.8603 18.8427 78.1109 19.424 78.2603 20.064C78.4203 20.704 78.5003 21.36 78.5003 22.032C78.5003 23.28 78.3243 24.368 77.9722 25.296C77.6309 26.2133 77.1243 26.928 76.4523 27.44C75.7909 27.9413 74.9963 28.192 74.0683 28.192ZM74.1323 22.304C74.5269 22.304 74.8843 22.2187 75.2043 22.048C75.5243 21.8667 75.7749 21.632 75.9563 21.344C76.1376 21.0453 76.2283 20.7147 76.2283 20.352C76.2283 19.776 76.0256 19.3013 75.6203 18.928C75.2256 18.5547 74.7243 18.368 74.1163 18.368C73.5189 18.368 73.0229 18.5547 72.6283 18.928C72.2336 19.2907 72.0363 19.7547 72.0363 20.32C72.0363 20.9173 72.2336 21.3973 72.6283 21.76C73.0229 22.1227 73.5243 22.304 74.1323 22.304ZM82.6889 22.304C82.1769 22.304 81.7129 22.192 81.2969 21.968C80.8809 21.7333 80.5502 21.4027 80.3049 20.976C80.0595 20.5493 79.9369 20.0427 79.9369 19.456C79.9369 18.8693 80.0595 18.3627 80.3049 17.936C80.5502 17.5093 80.8809 17.184 81.2969 16.96C81.7129 16.7253 82.1822 16.608 82.7049 16.608C83.2169 16.608 83.6755 16.7253 84.0809 16.96C84.4969 17.184 84.8275 17.5093 85.0729 17.936C85.3182 18.3627 85.4409 18.8693 85.4409 19.456C85.4409 20.0427 85.3182 20.5493 85.0729 20.976C84.8275 21.4027 84.4969 21.7333 84.0809 21.968C83.6649 22.192 83.2009 22.304 82.6889 22.304ZM82.0809 28L88.4009 16.8H90.4009L84.0809 28H82.0809ZM82.6889 20.88C82.9982 20.88 83.2649 20.7627 83.4889 20.528C83.7129 20.2827 83.8249 19.9253 83.8249 19.456C83.8249 18.9867 83.7129 18.6293 83.4889 18.384C83.2755 18.1387 83.0089 18.016 82.6889 18.016C82.3689 18.016 82.0969 18.1387 81.8729 18.384C81.6595 18.6293 81.5529 18.9867 81.5529 19.456C81.5529 19.9253 81.6595 20.2827 81.8729 20.528C82.0969 20.7627 82.3689 20.88 82.6889 20.88ZM89.8569 28.192C89.3449 28.192 88.8809 28.08 88.4649 27.856C88.0489 27.6213 87.7182 27.2907 87.4729 26.864C87.2275 26.4373 87.1049 25.9307 87.1049 25.344C87.1049 24.7573 87.2275 24.256 87.4729 23.84C87.7182 23.4133 88.0489 23.088 88.4649 22.864C88.8809 22.6293 89.3502 22.512 89.8729 22.512C90.3849 22.512 90.8435 22.6293 91.2489 22.864C91.6649 23.088 91.9955 23.4133 92.2409 23.84C92.4862 24.256 92.6089 24.7573 92.6089 25.344C92.6089 25.9307 92.4862 26.4373 92.2409 26.864C91.9955 27.2907 91.6649 27.6213 91.2489 27.856C90.8435 28.08 90.3795 28.192 89.8569 28.192ZM89.8569 26.768C90.1769 26.768 90.4435 26.6507 90.6569 26.416C90.8809 26.1707 90.9929 25.8133 90.9929 25.344C90.9929 24.8747 90.8809 24.5173 90.6569 24.272C90.4435 24.0267 90.1769 23.904 89.8569 23.904C89.5369 23.904 89.2649 24.0267 89.0409 24.272C88.8275 24.5173 88.7209 24.8747 88.7209 25.344C88.7209 25.8133 88.8275 26.1707 89.0409 26.416C89.2649 26.6507 89.5369 26.768 89.8569 26.768ZM98.1505 28V16.8H102.295C103.191 16.8 103.932 16.9493 104.519 17.248C105.105 17.5467 105.543 17.9573 105.831 18.48C106.119 19.0027 106.263 19.5893 106.263 20.24C106.263 20.8587 106.124 21.4293 105.847 21.952C105.569 22.464 105.137 22.88 104.551 23.2C103.964 23.5093 103.212 23.664 102.295 23.664H100.199V28H98.1505ZM100.199 22H102.167C102.881 22 103.393 21.8453 103.703 21.536C104.023 21.216 104.183 20.784 104.183 20.24C104.183 19.6853 104.023 19.2533 103.703 18.944C103.393 18.624 102.881 18.464 102.167 18.464H100.199V22ZM110.797 28.192C109.805 28.192 109.037 27.8827 108.493 27.264C107.96 26.6453 107.693 25.7387 107.693 24.544V20.064H109.725V24.352C109.725 25.0347 109.864 25.5573 110.141 25.92C110.419 26.2827 110.856 26.464 111.453 26.464C112.019 26.464 112.483 26.2613 112.845 25.856C113.219 25.4507 113.405 24.8853 113.405 24.16V20.064H115.453V28H113.645L113.485 26.656C113.24 27.1253 112.883 27.4987 112.413 27.776C111.955 28.0533 111.416 28.192 110.797 28.192ZM117.556 28V20.064H119.38L119.572 21.552C119.86 21.04 120.249 20.6347 120.74 20.336C121.241 20.0267 121.828 19.872 122.5 19.872V22.032H121.924C121.476 22.032 121.076 22.1013 120.724 22.24C120.372 22.3787 120.094 22.6187 119.892 22.96C119.7 23.3013 119.604 23.776 119.604 24.384V28H117.556ZM127.615 28.192C126.815 28.192 126.105 28.0213 125.487 27.68C124.868 27.3387 124.383 26.8587 124.031 26.24C123.679 25.6213 123.503 24.9067 123.503 24.096C123.503 23.2747 123.673 22.544 124.015 21.904C124.367 21.264 124.847 20.768 125.455 20.416C126.073 20.0533 126.799 19.872 127.631 19.872C128.409 19.872 129.097 20.0427 129.695 20.384C130.292 20.7253 130.756 21.1947 131.087 21.792C131.428 22.3787 131.599 23.0347 131.599 23.76C131.599 23.8773 131.593 24 131.583 24.128C131.583 24.256 131.577 24.3893 131.567 24.528H125.535C125.577 25.1467 125.791 25.632 126.175 25.984C126.569 26.336 127.044 26.512 127.599 26.512C128.015 26.512 128.361 26.4213 128.639 26.24C128.927 26.048 129.14 25.8027 129.279 25.504H131.359C131.209 26.0053 130.959 26.464 130.607 26.88C130.265 27.2853 129.839 27.6053 129.327 27.84C128.825 28.0747 128.255 28.192 127.615 28.192ZM127.631 21.536C127.129 21.536 126.687 21.68 126.303 21.968C125.919 22.2453 125.673 22.672 125.567 23.248H129.519C129.487 22.7253 129.295 22.3093 128.943 22C128.591 21.6907 128.153 21.536 127.631 21.536Z" fill="#222739"/>
<mask id="mask0_1577_56137" style="mask-type:luminance" maskUnits="userSpaceOnUse" x="48" y="48" width="70" height="70">
<path d="M48 48H118V118H48V48Z" fill="white"/>
</mask>
<g mask="url(#mask0_1577_56137)">
<path d="M100.941 82.9995C100.941 92.9086 92.9086 100.941 82.9995 100.941C73.0905 100.941 65.0576 92.9086 65.0576 82.9995C65.0576 73.0904 73.0905 65.0577 82.9995 65.0577C92.9086 65.0577 100.941 73.0904 100.941 82.9995Z" stroke="black" stroke-width="2.2" stroke-miterlimit="10" stroke-linecap="round" stroke-linejoin="round"/>
<path d="M79.4004 52.6249C79.4004 50.6371 81.0119 49.0257 82.9996 49.0257C84.9874 49.0257 86.5988 50.6371 86.5988 52.6249C86.5988 54.6128 84.9874 56.2241 82.9996 56.2241C81.0119 56.2241 79.4004 54.6128 79.4004 52.6249Z" stroke="black" stroke-width="2.2" stroke-miterlimit="10" stroke-linecap="round" stroke-linejoin="round"/>
<path d="M83 65.0586V56.2244" stroke="black" stroke-width="2.2" stroke-miterlimit="10" stroke-linecap="round" stroke-linejoin="round"/>
<path d="M79.4004 113.375C79.4004 115.363 81.0119 116.975 82.9996 116.975C84.9874 116.975 86.5988 115.363 86.5988 113.375C86.5988 111.388 84.9874 109.776 82.9996 109.776C81.0119 109.776 79.4004 111.388 79.4004 113.375Z" stroke="black" stroke-width="2.2" stroke-miterlimit="10" stroke-linecap="round" stroke-linejoin="round"/>
<path d="M83 100.942V109.776" stroke="black" stroke-width="2.2" stroke-miterlimit="10" stroke-linecap="round" stroke-linejoin="round"/>
<path d="M58.9761 64.0664C57.5705 62.6609 57.5705 60.382 58.9761 58.9765C60.3817 57.5708 62.6605 57.5708 64.0661 58.9765C65.4717 60.382 65.4717 62.6609 64.0661 64.0664C62.6605 65.472 60.3817 65.472 58.9761 64.0664Z" stroke="black" stroke-width="2.2" stroke-miterlimit="10" stroke-linecap="round" stroke-linejoin="round"/>
<path d="M70.3132 70.313L64.0664 64.0662" stroke="black" stroke-width="2.2" stroke-miterlimit="10" stroke-linecap="round" stroke-linejoin="round"/>
<path d="M101.934 107.024C103.34 108.43 105.619 108.43 107.024 107.024C108.43 105.618 108.43 103.339 107.024 101.934C105.619 100.528 103.34 100.528 101.934 101.934C100.528 103.339 100.528 105.618 101.934 107.024Z" stroke="black" stroke-width="2.2" stroke-miterlimit="10" stroke-linecap="round" stroke-linejoin="round"/>
<path d="M95.6865 95.6868L101.933 101.934" stroke="black" stroke-width="2.2" stroke-miterlimit="10" stroke-linecap="round" stroke-linejoin="round"/>
<path d="M52.6246 86.5991C50.6369 86.5991 49.0254 84.9878 49.0254 83C49.0254 81.0122 50.6369 79.4009 52.6246 79.4009C54.6124 79.4009 56.2239 81.0122 56.2239 83C56.2239 84.9878 54.6124 86.5991 52.6246 86.5991Z" stroke="black" stroke-width="2.2" stroke-miterlimit="10" stroke-linecap="round" stroke-linejoin="round"/>
<path d="M65.058 83.0005H56.2236" stroke="black" stroke-width="2.2" stroke-miterlimit="10" stroke-linecap="round" stroke-linejoin="round"/>
<path d="M113.376 86.5991C115.364 86.5991 116.975 84.9878 116.975 83C116.975 81.0122 115.364 79.4009 113.376 79.4009C111.388 79.4009 109.776 81.0122 109.776 83C109.776 84.9878 111.388 86.5991 113.376 86.5991Z" stroke="black" stroke-width="2.2" stroke-miterlimit="10" stroke-linecap="round" stroke-linejoin="round"/>
<path d="M100.942 83.0005H109.777" stroke="black" stroke-width="2.2" stroke-miterlimit="10" stroke-linecap="round" stroke-linejoin="round"/>
<path d="M64.0661 107.024C62.6605 108.43 60.3817 108.43 58.9761 107.024C57.5705 105.618 57.5705 103.339 58.9761 101.934C60.3817 100.528 62.6605 100.528 64.0661 101.934C65.4717 103.339 65.4717 105.618 64.0661 107.024Z" stroke="black" stroke-width="2.2" stroke-miterlimit="10" stroke-linecap="round" stroke-linejoin="round"/>
<path d="M70.3132 95.6868L64.0664 101.934" stroke="black" stroke-width="2.2" stroke-miterlimit="10" stroke-linecap="round" stroke-linejoin="round"/>
<path d="M107.024 64.0664C108.43 62.6609 108.43 60.382 107.024 58.9765C105.619 57.5708 103.34 57.5708 101.934 58.9765C100.528 60.382 100.528 62.6609 101.934 64.0664C103.34 65.472 105.619 65.472 107.024 64.0664Z" stroke="black" stroke-width="2.2" stroke-miterlimit="10" stroke-linecap="round" stroke-linejoin="round"/>
<path d="M95.6865 70.313L101.933 64.0662" stroke="black" stroke-width="2.2" stroke-miterlimit="10" stroke-linecap="round" stroke-linejoin="round"/>
<path d="M80.6073 69.3101C74.0733 70.4442 69.1045 76.1414 69.1045 82.9996C69.1045 90.6738 75.3257 96.895 82.9999 96.895C90.6741 96.895 96.8953 90.6738 96.8953 82.9996C96.8953 76.1414 91.9264 70.4442 85.3925 69.3101" stroke="black" stroke-width="2.2" stroke-miterlimit="10" stroke-linecap="round" stroke-linejoin="round"/>
<path d="M85.6125 76.3576C84.648 75.0087 83.8394 73.8777 83.7252 73.718C83.3694 73.2206 82.6301 73.2206 82.2743 73.718L76.7607 81.4288C73.1313 86.5049 76.7596 93.5596 82.9998 93.5596C86.5986 93.5596 89.3281 91.2129 90.2981 88.2528H90.2984C91.0339 86.0067 90.7311 83.5163 89.2384 81.4288C89.2058 81.3834 88.8777 80.9243 88.3966 80.2514" stroke="black" stroke-width="2.2" stroke-miterlimit="10" stroke-linecap="round" stroke-linejoin="round"/>
<path d="M79.1123 86.6608L83.0002 88.9619" stroke="black" stroke-width="2.2" stroke-miterlimit="10" stroke-linecap="round" stroke-linejoin="round"/>
<path d="M86.8879 86.6608L83 88.9619" stroke="black" stroke-width="2.2" stroke-miterlimit="10" stroke-linecap="round" stroke-linejoin="round"/>
<path d="M80.5322 82.7163L82.9996 84.1768" stroke="black" stroke-width="2.2" stroke-miterlimit="10" stroke-linecap="round" stroke-linejoin="round"/>
<path d="M85.4674 82.7163L83 84.1768" stroke="black" stroke-width="2.2" stroke-miterlimit="10" stroke-linecap="round" stroke-linejoin="round"/>
<path d="M83 78.0986V96.874" stroke="black" stroke-width="2.2" stroke-miterlimit="10" stroke-linecap="round" stroke-linejoin="round"/>
</g>
<path d="M0 0H178V120H0V0Z" fill="white" fill-opacity="0.1"/>
</svg>
