<svg width="21" height="13" viewBox="0 0 21 13" fill="none" xmlns="http://www.w3.org/2000/svg">
<path fill-rule="evenodd" clip-rule="evenodd" d="M19.2088 0.68335H18.0648C17.433 0.68335 16.9208 1.19263 16.9208 1.82085V11.6792C16.9208 12.3074 17.433 12.8167 18.0648 12.8167H19.2088C19.8406 12.8167 20.3528 12.3074 20.3528 11.6792V1.82085C20.3528 1.19263 19.8406 0.68335 19.2088 0.68335ZM12.7256 3.33783H13.8696C14.5014 3.33783 15.0136 3.84711 15.0136 4.47533V11.6795C15.0136 12.3077 14.5014 12.817 13.8696 12.817H12.7256C12.0938 12.817 11.5816 12.3077 11.5816 11.6795V4.47533C11.5816 3.84711 12.0938 3.33783 12.7256 3.33783ZM8.53153 5.99115H7.38752C6.75571 5.99115 6.24352 6.50043 6.24352 7.12865V11.6787C6.24352 12.3069 6.75571 12.8162 7.38752 12.8162H8.53153C9.16334 12.8162 9.67553 12.3069 9.67553 11.6787V7.12865C9.67553 6.50043 9.16334 5.99115 8.53153 5.99115ZM3.1923 8.26626H2.0483C1.41648 8.26626 0.904297 8.77554 0.904297 9.40376V11.6788C0.904297 12.307 1.41648 12.8163 2.0483 12.8163H3.1923C3.82412 12.8163 4.3363 12.307 4.3363 11.6788V9.40376C4.3363 8.77554 3.82412 8.26626 3.1923 8.26626Z" fill="white"/>
</svg>
