<svg width="512" height="471" viewBox="0 0 512 471" fill="none" xmlns="http://www.w3.org/2000/svg">
<g clip-path="url(#clip0_63_1411)">
<rect width="512" height="471" rx="8" fill="#63BDFF" fill-opacity="0.1"/>
<rect x="0.5" y="0.5" width="511" height="470" rx="7.5" stroke="#63BDFF" stroke-opacity="0.3"/>
<path d="M329.358 240.068C326.133 234.542 323.195 228.913 318.655 224.332C317.048 222.666 315.06 221.418 312.861 220.695C311.053 220.099 305.589 221.291 308.341 218.846C308.485 218.702 308.835 218.209 308.341 218.189C306.677 218.189 305.054 218.189 303.39 218.189C302.815 218.189 297.227 218.189 301.767 217.531C301.973 217.531 302.897 216.833 302.527 216.627C297.723 213.707 292.161 212.277 286.544 212.519C284.108 212.648 281.728 213.293 279.559 214.409C278.773 214.815 278.041 215.319 277.381 215.908C274.608 218.435 278.367 214.1 279.107 213.238C279.271 213.053 279.415 212.519 278.963 212.703C276.694 213.587 274.667 214.995 273.046 216.812C272.122 217.896 271.284 219.05 270.54 220.264C268.609 223.222 271.773 216.401 272.307 215.169C272.533 214.655 272.04 214.573 271.69 214.778C266.226 217.942 260.802 222.996 258.932 229.159C257.289 234.522 263.206 239.842 268.403 238.939C261.117 245.243 256.269 253.9 254.7 263.407C254.7 263.633 255.07 263.407 255.091 263.201C256.947 254.898 261.324 247.371 267.623 241.65C265.013 247.3 264.561 255.6 269.677 259.319C274.793 263.037 285.27 266.468 291.557 263.427C291.762 263.427 292.358 262.832 292.111 262.523C291.671 261.993 291.175 261.511 290.632 261.085C291.991 261.332 293.383 261.332 294.741 261.085C294.988 261.085 295.912 260.448 295.563 260.099C294.533 259.151 293.419 258.298 292.235 257.552C301.706 257.552 311.053 256.257 318.819 249.991C318.983 249.868 319.661 249.129 319.066 249.108C318.47 249.087 317.853 249.108 317.278 249.108C320.832 246.088 323.894 242.041 328.619 241.034C328.906 240.952 329.584 240.479 329.358 240.068Z" fill="#448831"/>
<path d="M329.156 240.808C327.799 239.507 326.288 238.375 324.657 237.439C321.134 235.506 317.45 233.884 313.645 232.59C307.28 230.427 300.546 229.56 293.84 230.043C284.637 230.803 270.482 232.96 266.558 242.637C266.907 242.287 267.256 241.917 267.605 241.589C264.996 247.238 264.544 255.538 269.66 259.257C274.775 262.975 285.253 266.406 291.539 263.366C291.745 263.366 292.341 262.77 292.094 262.462C291.653 261.931 291.158 261.449 290.615 261.024C291.973 261.271 293.365 261.271 294.724 261.024C294.97 261.024 295.895 260.387 295.546 260.038C294.516 259.089 293.402 258.237 292.217 257.49C301.688 257.49 311.036 256.196 318.802 249.93C318.966 249.806 319.644 249.067 319.048 249.046C318.453 249.026 317.836 249.046 317.261 249.046C320.815 246.026 323.876 241.979 328.601 240.972C328.794 240.946 328.981 240.891 329.156 240.808Z" fill="#2F692E"/>
<path d="M263.555 244.259C258.896 249.704 255.831 256.33 254.7 263.406C254.7 263.632 255.07 263.406 255.091 263.201C256.541 256.631 259.614 250.529 264.027 245.45C263.837 245.323 263.69 245.141 263.606 244.928C263.521 244.715 263.504 244.482 263.555 244.259Z" fill="#65BC46"/>
<path d="M189.783 243.827C192.514 239.147 195.002 234.381 198.847 230.501C200.207 229.091 201.891 228.034 203.753 227.422C205.283 226.918 209.911 227.927 207.58 225.856C207.458 225.735 207.162 225.317 207.58 225.3C208.989 225.3 210.363 225.3 211.772 225.3C212.259 225.3 216.991 225.3 213.147 224.743C212.973 224.743 212.19 224.152 212.503 223.978C216.571 221.504 221.281 220.294 226.037 220.498C228.1 220.608 230.116 221.154 231.952 222.099C232.618 222.443 233.237 222.87 233.796 223.369C236.145 225.509 232.961 221.838 232.335 221.107C232.196 220.951 232.074 220.498 232.457 220.655C234.378 221.403 236.095 222.595 237.467 224.134C238.249 225.052 238.959 226.029 239.589 227.057C241.225 229.562 238.545 223.786 238.093 222.743C237.902 222.308 238.319 222.238 238.615 222.412C243.243 225.091 247.835 229.371 249.418 234.59C250.81 239.13 245.8 243.636 241.399 242.87C247.568 248.209 251.674 255.539 253.002 263.589C253.002 263.781 252.689 263.589 252.671 263.415C251.1 256.384 247.393 250.01 242.06 245.167C244.269 249.951 244.652 256.979 240.32 260.128C235.988 263.276 227.116 266.181 221.793 263.607C221.619 263.607 221.114 263.102 221.323 262.841C221.696 262.392 222.116 261.984 222.576 261.624C221.425 261.833 220.247 261.833 219.096 261.624C218.887 261.624 218.105 261.084 218.4 260.789C219.272 259.986 220.216 259.263 221.219 258.631C213.199 258.631 205.283 257.535 198.708 252.23C198.568 252.125 197.994 251.499 198.499 251.481C199.003 251.464 199.525 251.481 200.012 251.481C197.003 248.924 194.411 245.497 190.409 244.645C190.166 244.575 189.592 244.175 189.783 243.827Z" fill="#448831"/>
<path d="M189.955 244.453C191.104 243.351 192.384 242.393 193.765 241.6C196.748 239.963 199.868 238.589 203.089 237.494C208.479 235.662 214.181 234.928 219.859 235.337C227.653 235.981 239.639 237.807 242.962 246.001C242.666 245.705 242.37 245.392 242.075 245.114C244.284 249.898 244.667 256.926 240.335 260.075C236.003 263.223 227.131 266.129 221.808 263.554C221.634 263.554 221.129 263.049 221.338 262.789C221.711 262.339 222.131 261.931 222.591 261.571C221.44 261.78 220.262 261.78 219.111 261.571C218.903 261.571 218.12 261.032 218.416 260.736C219.288 259.933 220.231 259.211 221.234 258.579C213.214 258.579 205.299 257.483 198.723 252.177C198.584 252.072 198.009 251.446 198.514 251.429C199.018 251.411 199.54 251.429 200.027 251.429C197.018 248.871 194.426 245.444 190.425 244.592C190.262 244.57 190.103 244.523 189.955 244.453Z" fill="#2F692E"/>
<path d="M245.504 247.375C249.45 251.986 252.044 257.597 253.002 263.589C253.002 263.78 252.689 263.589 252.671 263.415C251.443 257.851 248.841 252.684 245.104 248.384C245.265 248.276 245.39 248.122 245.461 247.942C245.532 247.762 245.548 247.564 245.504 247.375Z" fill="#65BC46"/>
<path d="M257 402.112C257 404.259 255.653 406 254 406C252.322 406 251 404.309 251 402.112V240.871C251.102 238.691 252.322 237 254 237C255.653 237 257 238.691 257 240.871V402.112Z" fill="#008C3C"/>
<path d="M257 402.112C257 404.259 256.314 406 255.5 406C254.661 406 254 404.309 254 402.112V240.871C254 238.691 254.661 237 255.5 237C256.314 237 257 238.691 257 240.871V402.112Z" fill="#005A21"/>
<path d="M298.024 269.389H214.674H183.725L200.224 401.731H214.674H298.024H312.474L328.973 269.389H298.024Z" fill="#FD2E2E"/>
<path d="M313.858 403.301H198.814L182.021 267.819H330.756L313.858 403.301ZM201.608 400.161H311.09L327.19 271.039H185.508L201.608 400.161Z" fill="#CE4737"/>
<g style="mix-blend-mode:screen">
<path d="M221.221 269.389H211.986C214.115 290.865 218.985 379.19 220.955 401.731H227.262C225.825 381.452 222.605 293.127 221.221 269.389Z" fill="#FD2E2E"/>
</g>
<g style="mix-blend-mode:multiply" opacity="0.5">
<path d="M288.468 269.389C286.791 293.34 283.944 317.45 282.746 341.561C281.735 361.626 281.176 381.718 279.526 401.731H312.419L328.918 269.389H288.468Z" fill="#E00000"/>
</g>
<path d="M219.545 269.389H219.279V269.522L219.545 269.389Z" fill="#E86659"/>
<path d="M219.546 272.183L216.14 267.925L222.314 267.819L219.546 272.183Z" fill="#9A4138"/>
<path d="M244.134 269.389H243.921V269.522L244.134 269.389Z" fill="#E86659"/>
<path d="M244.136 272.183L240.756 267.899L246.93 267.819L244.136 272.183Z" fill="#9A4138"/>
<path d="M268.75 269.389H268.537V269.522L268.75 269.389Z" fill="#E86659"/>
<path d="M268.753 272.183L265.373 267.899L271.547 267.819L268.753 272.183Z" fill="#9A4138"/>
<path d="M293.367 269.389H293.154V269.522L293.367 269.389Z" fill="#E86659"/>
<path d="M293.286 272.13L291.982 270.454L289.96 267.899L296.294 267.819L293.286 272.13Z" fill="#9A4138"/>
<path d="M317.984 269.389H317.744V269.522L317.984 269.389Z" fill="#E86659"/>
<path d="M317.983 272.183L314.63 267.899L320.777 267.819L317.983 272.183Z" fill="#9A4138"/>
<path d="M194.929 269.389H194.689V269.522L194.929 269.389Z" fill="#E86659"/>
<path d="M194.93 272.183L191.55 267.899L197.697 267.819L194.93 272.183Z" fill="#9A4138"/>
<g style="mix-blend-mode:multiply">
<path opacity="0.5" d="M184.683 276.361L187.345 296.72C189.476 296.298 191.481 295.386 193.199 294.056C194.917 292.726 196.302 291.014 197.244 289.055C198.322 291.275 199.984 293.159 202.051 294.505C204.119 295.85 206.515 296.607 208.98 296.693C211.45 296.609 213.85 295.853 215.922 294.508C217.995 293.162 219.661 291.277 220.743 289.055C221.826 291.292 223.504 293.188 225.593 294.535C227.681 295.883 230.101 296.629 232.585 296.693C235.052 296.61 237.448 295.854 239.517 294.508C241.585 293.162 243.246 291.277 244.321 289.055C245.401 291.279 247.067 293.165 249.139 294.511C251.212 295.857 253.614 296.612 256.084 296.693C258.531 296.588 260.904 295.822 262.952 294.478C264.999 293.133 266.644 291.259 267.713 289.055C268.722 291.329 270.369 293.262 272.455 294.618C274.54 295.974 276.975 296.696 279.462 296.696C281.95 296.696 284.385 295.974 286.47 294.618C288.556 293.262 290.203 291.329 291.212 289.055C292.216 291.331 293.859 293.266 295.943 294.624C298.027 295.982 300.46 296.706 302.948 296.706C305.435 296.706 307.869 295.982 309.952 294.624C312.036 293.266 313.68 291.331 314.684 289.055C315.713 291.133 317.251 292.917 319.153 294.243C321.056 295.569 323.262 296.393 325.568 296.64L328.123 276.361H184.683Z" fill="#E70000"/>
</g>
<path d="M178.432 267.287L180.374 286.58C181.968 287.352 183.713 287.761 185.484 287.778C187.952 287.688 190.349 286.93 192.421 285.585C194.492 284.24 196.16 282.358 197.246 280.14C198.328 282.356 199.991 284.237 202.058 285.582C204.125 286.927 206.518 287.686 208.982 287.778C211.45 287.688 213.848 286.93 215.919 285.585C217.991 284.24 219.658 282.358 220.745 280.14C221.833 282.374 223.512 284.266 225.6 285.613C227.687 286.959 230.104 287.708 232.587 287.778C235.052 287.689 237.446 286.931 239.514 285.586C241.581 284.24 243.244 282.358 244.323 280.14C245.407 282.36 247.074 284.243 249.146 285.589C251.218 286.934 253.617 287.691 256.086 287.778C258.532 287.667 260.902 286.899 262.949 285.555C264.995 284.211 266.642 282.341 267.715 280.14C268.724 282.414 270.371 284.347 272.457 285.703C274.542 287.059 276.977 287.781 279.464 287.781C281.952 287.781 284.387 287.059 286.472 285.703C288.558 284.347 290.205 282.414 291.214 280.14C292.218 282.416 293.861 284.351 295.945 285.709C298.029 287.067 300.462 287.79 302.95 287.79C305.437 287.79 307.871 287.067 309.954 285.709C312.038 284.351 313.682 282.416 314.686 280.14C315.772 282.358 317.44 284.24 319.511 285.585C321.582 286.93 323.98 287.688 326.448 287.778C328.525 287.761 330.562 287.201 332.356 286.155L334.245 267.287H178.432Z" fill="#FF5454"/>
<path d="M326.446 289.348C324.129 289.304 321.856 288.711 319.812 287.62C317.767 286.528 316.01 284.968 314.684 283.068C313.396 285 311.651 286.584 309.604 287.68C307.556 288.776 305.27 289.349 302.948 289.349C300.626 289.349 298.34 288.776 296.292 287.68C294.245 286.584 292.5 285 291.212 283.068C289.921 285 288.173 286.584 286.124 287.679C284.074 288.775 281.787 289.348 279.463 289.348C277.139 289.348 274.851 288.775 272.802 287.679C270.752 286.584 269.005 285 267.714 283.068C266.422 285 264.675 286.584 262.625 287.679C260.576 288.775 258.288 289.348 255.964 289.348C253.641 289.348 251.353 288.775 249.303 287.679C247.254 286.584 245.506 285 244.215 283.068C242.927 285 241.182 286.584 239.135 287.68C237.087 288.776 234.801 289.349 232.479 289.349C230.157 289.349 227.871 288.776 225.824 287.68C223.776 286.584 222.031 285 220.743 283.068C219.419 284.97 217.662 286.531 215.617 287.622C213.572 288.714 211.298 289.306 208.981 289.348C206.667 289.306 204.396 288.714 202.356 287.622C200.316 286.53 198.564 284.969 197.245 283.068C195.376 285.83 192.59 287.841 189.38 288.747C186.171 289.653 182.745 289.395 179.707 288.018L178.909 287.645L176.7 265.717H336L333.845 287.14L333.126 287.539C331.092 288.707 328.792 289.33 326.446 289.348ZM314.684 276.814L316.094 279.475C319.208 285.277 325.329 287.885 330.864 285.277L332.514 268.963H180.186L181.836 285.623C184.533 286.511 187.464 286.362 190.057 285.206C192.65 284.05 194.719 281.968 195.861 279.369L197.245 276.708L198.629 279.369C199.563 281.347 201.022 283.031 202.847 284.237C204.673 285.443 206.794 286.125 208.981 286.208C211.159 286.118 213.27 285.434 215.086 284.228C216.902 283.022 218.352 281.341 219.28 279.369L220.69 276.708L222.074 279.369C223.02 281.371 224.504 283.071 226.36 284.278C228.217 285.486 230.372 286.154 232.586 286.208C234.772 286.125 236.893 285.443 238.719 284.237C240.544 283.031 242.004 281.347 242.938 279.369L244.322 276.708L245.705 279.369C246.646 281.348 248.111 283.031 249.94 284.237C251.77 285.442 253.895 286.124 256.084 286.208C258.269 286.119 260.388 285.435 262.212 284.23C264.037 283.025 265.497 281.344 266.436 279.369L267.82 276.708L269.204 279.369C270.075 281.395 271.522 283.121 273.364 284.335C275.206 285.548 277.364 286.194 279.569 286.194C281.775 286.194 283.932 285.548 285.775 284.335C287.617 283.121 289.063 281.395 289.935 279.369L291.318 276.708L292.702 279.369C293.569 281.397 295.012 283.126 296.852 284.341C298.692 285.556 300.849 286.204 303.054 286.204C305.26 286.204 307.417 285.556 309.257 284.341C311.097 283.126 312.54 281.397 313.407 279.369L314.684 276.814Z" fill="#FD2E2E"/>
<circle cx="256.5" cy="704.5" r="317.5" transform="rotate(90 256.5 704.5)" stroke="url(#paint0_radial_63_1411)" stroke-width="60"/>
<path d="M207.698 396V379.2H210.77V396H207.698ZM213.955 396V384.096H216.667L216.907 386.112C217.275 385.408 217.803 384.848 218.491 384.432C219.195 384.016 220.019 383.808 220.963 383.808C222.435 383.808 223.579 384.272 224.395 385.2C225.211 386.128 225.619 387.488 225.619 389.28V396H222.547V389.568C222.547 388.544 222.339 387.76 221.923 387.216C221.507 386.672 220.859 386.4 219.979 386.4C219.115 386.4 218.403 386.704 217.843 387.312C217.299 387.92 217.027 388.768 217.027 389.856V396H213.955ZM231.655 396L227.287 384.096H230.503L233.527 393.096L236.551 384.096H239.767L235.375 396H231.655ZM246.903 396.288C245.703 396.288 244.639 396.032 243.711 395.52C242.783 395.008 242.055 394.288 241.527 393.36C240.999 392.432 240.735 391.36 240.735 390.144C240.735 388.912 240.991 387.816 241.503 386.856C242.031 385.896 242.751 385.152 243.663 384.624C244.591 384.08 245.679 383.808 246.927 383.808C248.095 383.808 249.127 384.064 250.023 384.576C250.919 385.088 251.615 385.792 252.111 386.688C252.623 387.568 252.879 388.552 252.879 389.64C252.879 389.816 252.871 390 252.855 390.192C252.855 390.384 252.847 390.584 252.831 390.792H243.783C243.847 391.72 244.167 392.448 244.743 392.976C245.335 393.504 246.047 393.768 246.879 393.768C247.503 393.768 248.023 393.632 248.439 393.36C248.871 393.072 249.191 392.704 249.399 392.256H252.519C252.295 393.008 251.919 393.696 251.391 394.32C250.879 394.928 250.239 395.408 249.471 395.76C248.719 396.112 247.863 396.288 246.903 396.288ZM246.927 386.304C246.175 386.304 245.511 386.52 244.935 386.952C244.359 387.368 243.991 388.008 243.831 388.872H249.759C249.711 388.088 249.423 387.464 248.895 387C248.367 386.536 247.711 386.304 246.927 386.304ZM260.382 396.288C259.326 396.288 258.398 396.12 257.598 395.784C256.798 395.432 256.158 394.952 255.678 394.344C255.198 393.736 254.91 393.032 254.814 392.232H257.91C258.006 392.696 258.262 393.096 258.678 393.432C259.11 393.752 259.662 393.912 260.334 393.912C261.006 393.912 261.494 393.776 261.798 393.504C262.118 393.232 262.278 392.92 262.278 392.568C262.278 392.056 262.054 391.712 261.606 391.536C261.158 391.344 260.534 391.16 259.734 390.984C259.222 390.872 258.702 390.736 258.174 390.576C257.646 390.416 257.158 390.216 256.71 389.976C256.278 389.72 255.926 389.4 255.654 389.016C255.382 388.616 255.246 388.128 255.246 387.552C255.246 386.496 255.662 385.608 256.494 384.888C257.342 384.168 258.526 383.808 260.046 383.808C261.454 383.808 262.574 384.136 263.406 384.792C264.254 385.448 264.758 386.352 264.918 387.504H262.014C261.838 386.624 261.174 386.184 260.022 386.184C259.446 386.184 258.998 386.296 258.678 386.52C258.374 386.744 258.222 387.024 258.222 387.36C258.222 387.712 258.454 387.992 258.918 388.2C259.382 388.408 259.998 388.6 260.766 388.776C261.598 388.968 262.358 389.184 263.046 389.424C263.75 389.648 264.31 389.992 264.726 390.456C265.142 390.904 265.35 391.552 265.35 392.4C265.366 393.136 265.174 393.8 264.774 394.392C264.374 394.984 263.798 395.448 263.046 395.784C262.294 396.12 261.406 396.288 260.382 396.288ZM273.001 396C271.753 396 270.753 395.696 270.001 395.088C269.249 394.48 268.873 393.4 268.873 391.848V386.664H266.833V384.096H268.873L269.233 380.904H271.945V384.096H275.161V386.664H271.945V391.872C271.945 392.448 272.065 392.848 272.305 393.072C272.561 393.28 272.993 393.384 273.601 393.384H275.089V396H273.001ZM283.278 396.288C282.078 396.288 281.014 396.032 280.086 395.52C279.158 395.008 278.43 394.288 277.902 393.36C277.374 392.432 277.11 391.36 277.11 390.144C277.11 388.912 277.366 387.816 277.878 386.856C278.406 385.896 279.126 385.152 280.038 384.624C280.966 384.08 282.054 383.808 283.302 383.808C284.47 383.808 285.502 384.064 286.398 384.576C287.294 385.088 287.99 385.792 288.486 386.688C288.998 387.568 289.254 388.552 289.254 389.64C289.254 389.816 289.246 390 289.23 390.192C289.23 390.384 289.222 390.584 289.206 390.792H280.158C280.222 391.72 280.542 392.448 281.118 392.976C281.71 393.504 282.422 393.768 283.254 393.768C283.878 393.768 284.398 393.632 284.814 393.36C285.246 393.072 285.566 392.704 285.774 392.256H288.894C288.67 393.008 288.294 393.696 287.766 394.32C287.254 394.928 286.614 395.408 285.846 395.76C285.094 396.112 284.238 396.288 283.278 396.288ZM283.302 386.304C282.55 386.304 281.886 386.52 281.31 386.952C280.734 387.368 280.366 388.008 280.206 388.872H286.134C286.086 388.088 285.798 387.464 285.27 387C284.742 386.536 284.086 386.304 283.302 386.304ZM297.309 396.288C296.189 396.288 295.189 396.016 294.309 395.472C293.429 394.928 292.733 394.184 292.221 393.24C291.709 392.296 291.453 391.224 291.453 390.024C291.453 388.824 291.709 387.76 292.221 386.832C292.733 385.888 293.429 385.152 294.309 384.624C295.189 384.08 296.189 383.808 297.309 383.808C298.205 383.808 298.989 383.976 299.661 384.312C300.333 384.648 300.877 385.12 301.293 385.728V378.72H304.365V396H301.629L301.293 394.296C300.909 394.824 300.397 395.288 299.757 395.688C299.133 396.088 298.317 396.288 297.309 396.288ZM297.957 393.6C298.949 393.6 299.757 393.272 300.381 392.616C301.021 391.944 301.341 391.088 301.341 390.048C301.341 389.008 301.021 388.16 300.381 387.504C299.757 386.832 298.949 386.496 297.957 386.496C296.981 386.496 296.173 386.824 295.533 387.48C294.893 388.136 294.573 388.984 294.573 390.024C294.573 391.064 294.893 391.92 295.533 392.592C296.173 393.264 296.981 393.6 297.957 393.6Z" fill="white"/>
<g filter="url(#filter0_f_63_1411)">
<circle cx="29" cy="21" r="153" fill="#63BDFF" fill-opacity="0.15"/>
</g>
<g filter="url(#filter1_f_63_1411)">
<ellipse cx="463" cy="372.5" rx="153" ry="233.5" fill="#63BDFF" fill-opacity="0.15"/>
</g>
</g>
<defs>
<filter id="filter0_f_63_1411" x="-238" y="-246" width="534" height="534" filterUnits="userSpaceOnUse" color-interpolation-filters="sRGB">
<feFlood flood-opacity="0" result="BackgroundImageFix"/>
<feBlend mode="normal" in="SourceGraphic" in2="BackgroundImageFix" result="shape"/>
<feGaussianBlur stdDeviation="57" result="effect1_foregroundBlur_63_1411"/>
</filter>
<filter id="filter1_f_63_1411" x="226" y="55" width="474" height="635" filterUnits="userSpaceOnUse" color-interpolation-filters="sRGB">
<feFlood flood-opacity="0" result="BackgroundImageFix"/>
<feBlend mode="normal" in="SourceGraphic" in2="BackgroundImageFix" result="shape"/>
<feGaussianBlur stdDeviation="42" result="effect1_foregroundBlur_63_1411"/>
</filter>
<radialGradient id="paint0_radial_63_1411" cx="0" cy="0" r="1" gradientUnits="userSpaceOnUse" gradientTransform="translate(256.5 704.5) rotate(90) scale(347.5)">
<stop offset="0.0677083" stop-color="white"/>
<stop offset="0.677083" stop-color="white"/>
<stop offset="1" stop-color="#00A9BA"/>
</radialGradient>
<clipPath id="clip0_63_1411">
<rect width="512" height="471" fill="white"/>
</clipPath>
</defs>
</svg>
