<svg width="512" height="471" viewBox="0 0 512 471" fill="none" xmlns="http://www.w3.org/2000/svg">
<g clip-path="url(#clip0_63_1484)">
<rect width="512" height="471" rx="8" fill="#63BDFF" fill-opacity="0.1"/>
<rect x="0.5" y="0.5" width="511" height="470" rx="7.5" stroke="#63BDFF" stroke-opacity="0.3"/>
<path d="M236.19 199.187C245.496 208.976 251.616 220.89 253.875 233.613C253.875 234.019 253.136 233.613 253.095 233.244C250.198 221.431 244.062 210.459 235.247 201.329C235.626 201.1 235.92 200.772 236.089 200.39C236.257 200.007 236.293 199.588 236.19 199.187Z" fill="#65BC46"/>
<path d="M208.609 213.22C229.779 213.22 246.941 196.058 246.941 174.888C246.941 153.717 229.779 136.555 208.609 136.555C187.438 136.555 170.277 153.717 170.277 174.888C170.277 196.058 187.438 213.22 208.609 213.22Z" fill="url(#paint0_linear_63_1484)"/>
<path d="M229.91 196.19C241.676 184.424 241.676 165.348 229.91 153.583C218.145 141.817 199.069 141.817 187.303 153.583C175.538 165.348 175.538 184.424 187.303 196.19C199.069 207.955 218.145 207.955 229.91 196.19Z" fill="#FF8A00"/>
<path d="M228.371 194.651C239.287 183.735 239.287 166.037 228.371 155.121C217.456 144.205 199.757 144.205 188.841 155.121C177.925 166.037 177.925 183.735 188.841 194.651C199.757 205.567 217.456 205.567 228.371 194.651Z" fill="#FFD050"/>
<path opacity="0.63" d="M236.551 186.151C234.71 190.723 231.775 194.772 228.005 197.946C224.234 201.119 219.743 203.32 214.924 204.354C210.106 205.388 205.107 205.224 200.367 203.877C195.626 202.53 191.288 200.041 187.733 196.628C184.178 193.215 181.515 188.982 179.976 184.3C178.437 179.618 178.07 174.63 178.908 169.774C179.745 164.917 181.761 160.34 184.778 156.444C187.795 152.547 191.722 149.45 196.215 147.424C193.973 153.002 193.45 159.124 194.713 165.001C195.977 170.879 198.969 176.245 203.306 180.408C207.643 184.572 213.126 187.344 219.05 188.367C224.974 189.39 231.069 188.619 236.551 186.151Z" fill="#FFBB00"/>
<path d="M329.358 240.068C326.133 234.542 323.195 228.913 318.655 224.332C317.048 222.666 315.06 221.418 312.861 220.695C311.053 220.099 305.589 221.291 308.341 218.846C308.485 218.702 308.835 218.209 308.341 218.189C306.677 218.189 305.054 218.189 303.39 218.189C302.815 218.189 297.227 218.189 301.767 217.531C301.973 217.531 302.897 216.833 302.527 216.627C297.723 213.707 292.161 212.277 286.544 212.519C284.108 212.648 281.728 213.293 279.559 214.409C278.773 214.815 278.041 215.319 277.381 215.908C274.608 218.435 278.367 214.1 279.107 213.238C279.271 213.053 279.415 212.519 278.963 212.703C276.694 213.587 274.667 214.995 273.046 216.812C272.122 217.896 271.284 219.05 270.54 220.264C268.609 223.222 271.773 216.401 272.307 215.169C272.533 214.655 272.04 214.573 271.69 214.778C266.226 217.942 260.802 222.996 258.932 229.159C257.289 234.522 263.206 239.842 268.403 238.939C261.117 245.243 256.269 253.9 254.7 263.407C254.7 263.633 255.07 263.407 255.091 263.201C256.947 254.898 261.324 247.371 267.623 241.65C265.013 247.3 264.561 255.6 269.677 259.319C274.793 263.037 285.27 266.468 291.557 263.427C291.762 263.427 292.358 262.832 292.111 262.523C291.671 261.993 291.175 261.511 290.632 261.085C291.991 261.332 293.383 261.332 294.741 261.085C294.988 261.085 295.912 260.448 295.563 260.099C294.533 259.151 293.419 258.298 292.235 257.552C301.706 257.552 311.053 256.257 318.819 249.991C318.983 249.868 319.661 249.129 319.066 249.108C318.47 249.087 317.853 249.108 317.278 249.108C320.832 246.088 323.894 242.041 328.619 241.034C328.906 240.952 329.584 240.479 329.358 240.068Z" fill="#448831"/>
<path d="M329.156 240.808C327.799 239.507 326.288 238.375 324.657 237.439C321.134 235.506 317.45 233.884 313.645 232.59C307.28 230.427 300.546 229.56 293.84 230.043C284.637 230.803 270.482 232.96 266.558 242.637C266.907 242.287 267.256 241.917 267.605 241.589C264.996 247.238 264.544 255.538 269.66 259.257C274.775 262.975 285.253 266.406 291.539 263.366C291.745 263.366 292.341 262.77 292.094 262.462C291.653 261.931 291.158 261.449 290.615 261.024C291.973 261.271 293.365 261.271 294.724 261.024C294.97 261.024 295.895 260.387 295.546 260.038C294.516 259.089 293.402 258.237 292.217 257.49C301.688 257.49 311.036 256.196 318.802 249.93C318.966 249.806 319.644 249.067 319.048 249.046C318.453 249.026 317.836 249.046 317.261 249.046C320.815 246.026 323.876 241.979 328.601 240.972C328.794 240.946 328.981 240.891 329.156 240.808Z" fill="#2F692E"/>
<path d="M263.555 244.259C258.896 249.704 255.831 256.33 254.7 263.406C254.7 263.632 255.07 263.406 255.091 263.201C256.541 256.631 259.614 250.529 264.027 245.45C263.837 245.323 263.69 245.141 263.606 244.928C263.521 244.715 263.504 244.482 263.555 244.259Z" fill="#65BC46"/>
<path d="M189.783 243.827C192.514 239.147 195.002 234.381 198.847 230.501C200.207 229.091 201.891 228.034 203.753 227.422C205.283 226.918 209.911 227.927 207.58 225.856C207.458 225.735 207.162 225.317 207.58 225.3C208.989 225.3 210.363 225.3 211.772 225.3C212.259 225.3 216.991 225.3 213.147 224.743C212.973 224.743 212.19 224.152 212.503 223.978C216.571 221.504 221.281 220.294 226.037 220.498C228.1 220.608 230.116 221.154 231.952 222.099C232.618 222.443 233.237 222.87 233.796 223.369C236.145 225.509 232.961 221.838 232.335 221.107C232.196 220.951 232.074 220.498 232.457 220.655C234.378 221.403 236.095 222.595 237.467 224.134C238.249 225.052 238.959 226.029 239.589 227.057C241.225 229.562 238.545 223.786 238.093 222.743C237.902 222.308 238.319 222.238 238.615 222.412C243.243 225.091 247.835 229.371 249.418 234.59C250.81 239.13 245.8 243.636 241.399 242.87C247.568 248.209 251.674 255.539 253.002 263.589C253.002 263.781 252.689 263.589 252.671 263.415C251.1 256.384 247.393 250.01 242.06 245.167C244.269 249.951 244.652 256.979 240.32 260.128C235.988 263.276 227.116 266.181 221.793 263.607C221.619 263.607 221.114 263.102 221.323 262.841C221.696 262.392 222.116 261.984 222.576 261.624C221.425 261.833 220.247 261.833 219.096 261.624C218.887 261.624 218.105 261.084 218.4 260.789C219.272 259.986 220.216 259.263 221.219 258.631C213.199 258.631 205.283 257.535 198.708 252.23C198.568 252.125 197.994 251.499 198.499 251.481C199.003 251.464 199.525 251.481 200.012 251.481C197.003 248.924 194.411 245.497 190.409 244.645C190.166 244.575 189.592 244.175 189.783 243.827Z" fill="#448831"/>
<path d="M189.955 244.453C191.104 243.351 192.384 242.393 193.765 241.6C196.748 239.963 199.868 238.589 203.089 237.494C208.479 235.662 214.181 234.928 219.859 235.337C227.653 235.981 239.639 237.807 242.962 246.001C242.666 245.705 242.37 245.392 242.075 245.114C244.284 249.898 244.667 256.926 240.335 260.075C236.003 263.223 227.131 266.129 221.808 263.554C221.634 263.554 221.129 263.049 221.338 262.789C221.711 262.339 222.131 261.931 222.591 261.571C221.44 261.78 220.262 261.78 219.111 261.571C218.903 261.571 218.12 261.032 218.416 260.736C219.288 259.933 220.231 259.211 221.234 258.579C213.214 258.579 205.299 257.483 198.723 252.177C198.584 252.072 198.009 251.446 198.514 251.429C199.018 251.411 199.54 251.429 200.027 251.429C197.018 248.871 194.426 245.444 190.425 244.592C190.262 244.57 190.103 244.523 189.955 244.453Z" fill="#2F692E"/>
<path d="M245.504 247.375C249.45 251.986 252.044 257.597 253.002 263.589C253.002 263.78 252.689 263.589 252.671 263.415C251.443 257.851 248.841 252.684 245.104 248.384C245.265 248.276 245.39 248.122 245.461 247.942C245.532 247.762 245.548 247.564 245.504 247.375Z" fill="#65BC46"/>
<path d="M268.341 157.999C261.847 165.073 257.576 173.683 256 182.877C256 183.17 256.515 182.877 256.544 182.61C258.566 174.074 262.848 166.145 269 159.547C268.735 159.382 268.53 159.145 268.412 158.869C268.295 158.592 268.27 158.289 268.341 157.999Z" fill="#65BC46"/>
<path d="M297.722 197.135C295.952 194.101 294.339 191.012 291.847 188.497C290.966 187.583 289.874 186.898 288.667 186.501C287.675 186.174 284.676 186.828 286.187 185.486C286.266 185.408 286.457 185.137 286.187 185.126C285.273 185.126 284.383 185.126 283.469 185.126C283.153 185.126 280.086 185.126 282.578 184.765C282.691 184.765 283.199 184.381 282.996 184.269C280.359 182.666 277.306 181.881 274.223 182.013C272.886 182.085 271.579 182.438 270.389 183.051C269.958 183.274 269.556 183.551 269.194 183.874C267.672 185.261 269.735 182.882 270.141 182.408C270.231 182.307 270.31 182.013 270.062 182.115C268.817 182.6 267.704 183.373 266.815 184.37C266.307 184.965 265.847 185.598 265.439 186.265C264.379 187.888 266.115 184.145 266.409 183.468C266.533 183.186 266.262 183.141 266.07 183.254C263.071 184.99 260.094 187.764 259.068 191.147C258.166 194.09 261.413 197.011 264.266 196.514C260.267 199.975 257.606 204.726 256.745 209.944C256.745 210.068 256.948 209.944 256.959 209.831C257.978 205.274 260.381 201.142 263.838 198.003C262.406 201.104 262.158 205.659 264.965 207.7C267.773 209.741 273.524 211.624 276.974 209.955C277.087 209.955 277.414 209.628 277.279 209.459C277.037 209.168 276.765 208.904 276.467 208.67C277.212 208.805 277.976 208.805 278.722 208.67C278.857 208.67 279.365 208.32 279.173 208.129C278.608 207.608 277.996 207.14 277.346 206.73C282.545 206.73 287.675 206.02 291.937 202.581C292.028 202.513 292.4 202.107 292.073 202.096C291.746 202.085 291.408 202.096 291.092 202.096C293.043 200.438 294.723 198.217 297.316 197.665C297.474 197.619 297.846 197.36 297.722 197.135Z" fill="#448831"/>
<path d="M297.611 197.54C296.865 196.826 296.036 196.205 295.141 195.691C293.208 194.63 291.185 193.739 289.097 193.03C285.604 191.842 281.907 191.366 278.227 191.631C273.175 192.048 265.406 193.232 263.253 198.543C263.444 198.352 263.636 198.149 263.828 197.968C262.396 201.069 262.148 205.625 264.955 207.666C267.763 209.707 273.514 211.59 276.964 209.921C277.077 209.921 277.404 209.594 277.269 209.425C277.027 209.134 276.755 208.869 276.457 208.635C277.202 208.771 277.966 208.771 278.712 208.635C278.847 208.635 279.355 208.286 279.163 208.094C278.598 207.574 277.986 207.106 277.336 206.696C282.535 206.696 287.665 205.986 291.927 202.546C292.018 202.479 292.39 202.073 292.063 202.062C291.736 202.05 291.397 202.062 291.082 202.062C293.032 200.404 294.713 198.183 297.306 197.63C297.412 197.616 297.514 197.585 297.611 197.54Z" fill="#2F692E"/>
<path d="M261.605 199.434C259.048 202.423 257.366 206.06 256.745 209.944C256.745 210.068 256.948 209.944 256.959 209.831C257.756 206.225 259.442 202.876 261.864 200.088C261.76 200.018 261.679 199.918 261.633 199.802C261.587 199.685 261.577 199.557 261.605 199.434Z" fill="#65BC46"/>
<path d="M257 271.469C257 272.867 255.653 274 254 274C252.322 274 251 272.9 251 271.469V166.52C251.102 165.1 252.322 164 254 164C255.653 164 257 165.1 257 166.52V271.469Z" fill="#008C3C"/>
<path d="M257 271.469C257 272.867 256.314 274 255.5 274C254.661 274 254 272.9 254 271.469V166.52C254 165.1 254.661 164 255.5 164C256.314 164 257 165.1 257 166.52V271.469Z" fill="#005A21"/>
<path d="M288.453 168.04C273.276 168.04 260.972 155.737 260.972 140.559C260.972 125.381 273.276 113.078 288.453 113.078C303.631 113.078 315.935 125.381 315.935 140.559C315.935 155.737 303.631 168.04 288.453 168.04Z" fill="url(#paint1_linear_63_1484)"/>
<path d="M273.181 155.831C264.746 147.396 264.746 133.72 273.181 125.285C281.616 116.85 295.292 116.85 303.727 125.285C312.162 133.72 312.162 147.396 303.727 155.831C295.292 164.266 281.616 164.266 273.181 155.831Z" fill="#FF8A00"/>
<path d="M274.284 154.728C266.459 146.902 266.459 134.214 274.284 126.388C282.11 118.562 294.799 118.562 302.625 126.388C310.451 134.214 310.451 146.902 302.625 154.728C294.799 162.554 282.11 162.554 274.284 154.728Z" fill="#FFD050"/>
<path opacity="0.63" d="M268.42 148.635C269.741 151.912 271.844 154.815 274.548 157.09C277.251 159.366 280.471 160.943 283.925 161.684C287.38 162.426 290.963 162.308 294.362 161.343C297.761 160.377 300.871 158.593 303.419 156.146C305.968 153.699 307.878 150.664 308.981 147.307C310.084 143.951 310.347 140.375 309.747 136.893C309.146 133.411 307.701 130.13 305.538 127.336C303.375 124.543 300.559 122.323 297.338 120.87C298.946 124.869 299.321 129.258 298.415 133.472C297.509 137.685 295.364 141.532 292.255 144.517C289.146 147.502 285.215 149.489 280.968 150.223C276.72 150.957 272.351 150.404 268.42 148.635Z" fill="#FFBB00"/>
<path d="M298.024 269.389H214.674H183.725L200.224 401.731H214.674H298.024H312.474L328.973 269.389H298.024Z" fill="#FD2E2E"/>
<path d="M313.858 403.301H198.814L182.021 267.819H330.756L313.858 403.301ZM201.608 400.161H311.09L327.19 271.039H185.508L201.608 400.161Z" fill="#CE4737"/>
<g style="mix-blend-mode:screen">
<path d="M221.221 269.389H211.986C214.115 290.865 218.985 379.19 220.955 401.731H227.262C225.825 381.452 222.605 293.127 221.221 269.389Z" fill="#FD2E2E"/>
</g>
<g style="mix-blend-mode:multiply" opacity="0.5">
<path d="M288.468 269.389C286.791 293.34 283.944 317.45 282.746 341.561C281.735 361.626 281.176 381.718 279.526 401.731H312.419L328.918 269.389H288.468Z" fill="#E00000"/>
</g>
<path d="M219.545 269.389H219.279V269.522L219.545 269.389Z" fill="#E86659"/>
<path d="M219.546 272.183L216.14 267.925L222.314 267.819L219.546 272.183Z" fill="#9A4138"/>
<path d="M244.134 269.389H243.921V269.522L244.134 269.389Z" fill="#E86659"/>
<path d="M244.136 272.183L240.756 267.899L246.93 267.819L244.136 272.183Z" fill="#9A4138"/>
<path d="M268.75 269.389H268.537V269.522L268.75 269.389Z" fill="#E86659"/>
<path d="M268.753 272.183L265.373 267.899L271.547 267.819L268.753 272.183Z" fill="#9A4138"/>
<path d="M293.367 269.389H293.154V269.522L293.367 269.389Z" fill="#E86659"/>
<path d="M293.286 272.13L291.982 270.454L289.96 267.899L296.294 267.819L293.286 272.13Z" fill="#9A4138"/>
<path d="M317.984 269.389H317.744V269.522L317.984 269.389Z" fill="#E86659"/>
<path d="M317.983 272.183L314.63 267.899L320.777 267.819L317.983 272.183Z" fill="#9A4138"/>
<path d="M194.929 269.389H194.689V269.522L194.929 269.389Z" fill="#E86659"/>
<path d="M194.93 272.183L191.55 267.899L197.697 267.819L194.93 272.183Z" fill="#9A4138"/>
<g style="mix-blend-mode:multiply">
<path opacity="0.5" d="M184.683 276.361L187.345 296.72C189.476 296.298 191.481 295.386 193.199 294.056C194.917 292.726 196.302 291.014 197.244 289.055C198.322 291.275 199.984 293.159 202.051 294.505C204.119 295.85 206.515 296.607 208.98 296.693C211.45 296.609 213.85 295.853 215.922 294.508C217.995 293.162 219.661 291.277 220.743 289.055C221.826 291.292 223.504 293.188 225.593 294.535C227.681 295.883 230.101 296.629 232.585 296.693C235.052 296.61 237.448 295.854 239.517 294.508C241.585 293.162 243.246 291.277 244.321 289.055C245.401 291.279 247.067 293.165 249.139 294.511C251.212 295.857 253.614 296.612 256.084 296.693C258.531 296.588 260.904 295.822 262.952 294.478C264.999 293.133 266.644 291.259 267.713 289.055C268.722 291.329 270.369 293.262 272.455 294.618C274.54 295.974 276.975 296.696 279.462 296.696C281.95 296.696 284.385 295.974 286.47 294.618C288.556 293.262 290.203 291.329 291.212 289.055C292.216 291.331 293.859 293.266 295.943 294.624C298.027 295.982 300.46 296.706 302.948 296.706C305.435 296.706 307.869 295.982 309.952 294.624C312.036 293.266 313.68 291.331 314.684 289.055C315.713 291.133 317.251 292.917 319.153 294.243C321.056 295.569 323.262 296.393 325.568 296.64L328.123 276.361H184.683Z" fill="#E70000"/>
</g>
<path d="M178.432 267.287L180.374 286.58C181.968 287.352 183.713 287.761 185.484 287.778C187.952 287.688 190.349 286.93 192.421 285.585C194.492 284.24 196.16 282.358 197.246 280.14C198.328 282.356 199.991 284.237 202.058 285.582C204.125 286.927 206.518 287.686 208.982 287.778C211.45 287.688 213.848 286.93 215.919 285.585C217.991 284.24 219.658 282.358 220.745 280.14C221.833 282.374 223.512 284.266 225.6 285.613C227.687 286.959 230.104 287.708 232.587 287.778C235.052 287.689 237.446 286.931 239.514 285.586C241.581 284.24 243.244 282.358 244.323 280.14C245.407 282.36 247.074 284.243 249.146 285.589C251.218 286.934 253.617 287.691 256.086 287.778C258.532 287.667 260.902 286.899 262.949 285.555C264.995 284.211 266.642 282.341 267.715 280.14C268.724 282.414 270.371 284.347 272.457 285.703C274.542 287.059 276.977 287.781 279.464 287.781C281.952 287.781 284.387 287.059 286.472 285.703C288.558 284.347 290.205 282.414 291.214 280.14C292.218 282.416 293.861 284.351 295.945 285.709C298.029 287.067 300.462 287.79 302.95 287.79C305.437 287.79 307.871 287.067 309.954 285.709C312.038 284.351 313.682 282.416 314.686 280.14C315.772 282.358 317.44 284.24 319.511 285.585C321.582 286.93 323.98 287.688 326.448 287.778C328.525 287.761 330.562 287.201 332.356 286.155L334.245 267.287H178.432Z" fill="#FF5454"/>
<path d="M326.446 289.348C324.129 289.304 321.856 288.711 319.812 287.62C317.767 286.528 316.01 284.968 314.684 283.068C313.396 285 311.651 286.584 309.604 287.68C307.556 288.776 305.27 289.349 302.948 289.349C300.626 289.349 298.34 288.776 296.292 287.68C294.245 286.584 292.5 285 291.212 283.068C289.921 285 288.173 286.584 286.124 287.679C284.074 288.775 281.787 289.348 279.463 289.348C277.139 289.348 274.851 288.775 272.802 287.679C270.752 286.584 269.005 285 267.714 283.068C266.422 285 264.675 286.584 262.625 287.679C260.576 288.775 258.288 289.348 255.964 289.348C253.641 289.348 251.353 288.775 249.303 287.679C247.254 286.584 245.506 285 244.215 283.068C242.927 285 241.182 286.584 239.135 287.68C237.087 288.776 234.801 289.349 232.479 289.349C230.157 289.349 227.871 288.776 225.824 287.68C223.776 286.584 222.031 285 220.743 283.068C219.419 284.97 217.662 286.531 215.617 287.622C213.572 288.714 211.298 289.306 208.981 289.348C206.667 289.306 204.396 288.714 202.356 287.622C200.316 286.53 198.564 284.969 197.245 283.068C195.376 285.83 192.59 287.841 189.38 288.747C186.171 289.653 182.745 289.395 179.707 288.018L178.909 287.645L176.7 265.717H336L333.845 287.14L333.126 287.539C331.092 288.707 328.792 289.33 326.446 289.348ZM314.684 276.814L316.094 279.475C319.208 285.277 325.329 287.885 330.864 285.277L332.514 268.963H180.186L181.836 285.623C184.533 286.511 187.464 286.362 190.057 285.206C192.65 284.05 194.719 281.968 195.861 279.369L197.245 276.708L198.629 279.369C199.563 281.347 201.022 283.031 202.847 284.237C204.673 285.443 206.794 286.125 208.981 286.208C211.159 286.118 213.27 285.434 215.086 284.228C216.902 283.022 218.352 281.341 219.28 279.369L220.69 276.708L222.074 279.369C223.02 281.371 224.504 283.071 226.36 284.278C228.217 285.486 230.372 286.154 232.586 286.208C234.772 286.125 236.893 285.443 238.719 284.237C240.544 283.031 242.004 281.347 242.938 279.369L244.322 276.708L245.705 279.369C246.646 281.348 248.111 283.031 249.94 284.237C251.77 285.442 253.895 286.124 256.084 286.208C258.269 286.119 260.388 285.435 262.212 284.23C264.037 283.025 265.497 281.344 266.436 279.369L267.82 276.708L269.204 279.369C270.075 281.395 271.522 283.121 273.364 284.335C275.206 285.548 277.364 286.194 279.569 286.194C281.775 286.194 283.932 285.548 285.775 284.335C287.617 283.121 289.063 281.395 289.935 279.369L291.318 276.708L292.702 279.369C293.569 281.397 295.012 283.126 296.852 284.341C298.692 285.556 300.849 286.204 303.054 286.204C305.26 286.204 307.417 285.556 309.257 284.341C311.097 283.126 312.54 281.397 313.407 279.369L314.684 276.814Z" fill="#FD2E2E"/>
<circle cx="256.5" cy="704.5" r="317.5" transform="rotate(-90 256.5 704.5)" stroke="url(#paint2_radial_63_1484)" stroke-width="60"/>
<path d="M216.415 396.28V394.048C217.439 393.2 218.431 392.36 219.391 391.528C220.367 390.696 221.231 389.872 221.983 389.056C222.751 388.24 223.359 387.448 223.807 386.68C224.271 385.896 224.503 385.136 224.503 384.4C224.503 383.712 224.311 383.104 223.927 382.576C223.559 382.048 222.943 381.784 222.079 381.784C221.199 381.784 220.535 382.072 220.087 382.648C219.639 383.224 219.415 383.92 219.415 384.736H216.439C216.471 383.504 216.743 382.48 217.255 381.664C217.767 380.832 218.447 380.216 219.295 379.816C220.143 379.4 221.095 379.192 222.151 379.192C223.863 379.192 225.191 379.664 226.135 380.608C227.095 381.536 227.575 382.744 227.575 384.232C227.575 385.16 227.359 386.064 226.927 386.944C226.511 387.824 225.959 388.672 225.271 389.488C224.583 390.304 223.839 391.072 223.039 391.792C222.239 392.496 221.463 393.152 220.711 393.76H227.983V396.28H216.415ZM240.597 396.28V390.304L234.957 379.48H238.437L242.157 387.232L245.853 379.48H249.285L243.669 390.304V396.28H240.597ZM254.832 396.568C253.632 396.568 252.568 396.312 251.64 395.8C250.712 395.288 249.984 394.568 249.456 393.64C248.928 392.712 248.664 391.64 248.664 390.424C248.664 389.192 248.92 388.096 249.432 387.136C249.96 386.176 250.68 385.432 251.592 384.904C252.52 384.36 253.608 384.088 254.856 384.088C256.024 384.088 257.056 384.344 257.952 384.856C258.848 385.368 259.544 386.072 260.04 386.968C260.552 387.848 260.808 388.832 260.808 389.92C260.808 390.096 260.8 390.28 260.784 390.472C260.784 390.664 260.776 390.864 260.76 391.072H251.712C251.776 392 252.096 392.728 252.672 393.256C253.264 393.784 253.976 394.048 254.808 394.048C255.432 394.048 255.952 393.912 256.368 393.64C256.8 393.352 257.12 392.984 257.328 392.536H260.448C260.224 393.288 259.848 393.976 259.32 394.6C258.808 395.208 258.168 395.688 257.4 396.04C256.648 396.392 255.792 396.568 254.832 396.568ZM254.856 386.584C254.104 386.584 253.44 386.8 252.864 387.232C252.288 387.648 251.92 388.288 251.76 389.152H257.688C257.64 388.368 257.352 387.744 256.824 387.28C256.296 386.816 255.64 386.584 254.856 386.584ZM267.496 396.568C266.472 396.568 265.632 396.408 264.976 396.088C264.32 395.752 263.832 395.312 263.512 394.768C263.192 394.224 263.032 393.624 263.032 392.968C263.032 391.864 263.464 390.968 264.328 390.28C265.192 389.592 266.488 389.248 268.216 389.248H271.24V388.96C271.24 388.144 271.008 387.544 270.544 387.16C270.08 386.776 269.504 386.584 268.816 386.584C268.192 386.584 267.648 386.736 267.184 387.04C266.72 387.328 266.432 387.76 266.32 388.336H263.32C263.4 387.472 263.688 386.72 264.184 386.08C264.696 385.44 265.352 384.952 266.152 384.616C266.952 384.264 267.848 384.088 268.84 384.088C270.536 384.088 271.872 384.512 272.848 385.36C273.824 386.208 274.312 387.408 274.312 388.96V396.28H271.696L271.408 394.36C271.056 395 270.56 395.528 269.92 395.944C269.296 396.36 268.488 396.568 267.496 396.568ZM268.192 394.168C269.072 394.168 269.752 393.88 270.232 393.304C270.728 392.728 271.04 392.016 271.168 391.168H268.552C267.736 391.168 267.152 391.32 266.8 391.624C266.448 391.912 266.272 392.272 266.272 392.704C266.272 393.168 266.448 393.528 266.8 393.784C267.152 394.04 267.616 394.168 268.192 394.168ZM277.244 396.28V384.376H279.98L280.268 386.608C280.7 385.84 281.284 385.232 282.02 384.784C282.772 384.32 283.652 384.088 284.66 384.088V387.328H283.796C283.124 387.328 282.524 387.432 281.996 387.64C281.468 387.848 281.052 388.208 280.748 388.72C280.46 389.232 280.316 389.944 280.316 390.856V396.28H277.244ZM291.679 396.568C290.623 396.568 289.695 396.4 288.895 396.064C288.095 395.712 287.455 395.232 286.975 394.624C286.495 394.016 286.207 393.312 286.111 392.512H289.207C289.303 392.976 289.559 393.376 289.975 393.712C290.407 394.032 290.959 394.192 291.631 394.192C292.303 394.192 292.791 394.056 293.095 393.784C293.415 393.512 293.575 393.2 293.575 392.848C293.575 392.336 293.351 391.992 292.903 391.816C292.455 391.624 291.831 391.44 291.031 391.264C290.519 391.152 289.999 391.016 289.471 390.856C288.943 390.696 288.455 390.496 288.007 390.256C287.575 390 287.223 389.68 286.951 389.296C286.679 388.896 286.543 388.408 286.543 387.832C286.543 386.776 286.959 385.888 287.791 385.168C288.639 384.448 289.823 384.088 291.343 384.088C292.751 384.088 293.871 384.416 294.703 385.072C295.551 385.728 296.055 386.632 296.215 387.784H293.311C293.135 386.904 292.471 386.464 291.319 386.464C290.743 386.464 290.295 386.576 289.975 386.8C289.671 387.024 289.519 387.304 289.519 387.64C289.519 387.992 289.751 388.272 290.215 388.48C290.679 388.688 291.295 388.88 292.063 389.056C292.895 389.248 293.655 389.464 294.343 389.704C295.047 389.928 295.607 390.272 296.023 390.736C296.439 391.184 296.647 391.832 296.647 392.68C296.663 393.416 296.471 394.08 296.071 394.672C295.671 395.264 295.095 395.728 294.343 396.064C293.591 396.4 292.703 396.568 291.679 396.568Z" fill="white"/>
<g filter="url(#filter0_f_63_1484)">
<circle cx="29" cy="21" r="153" fill="#63BDFF" fill-opacity="0.15"/>
</g>
<g filter="url(#filter1_f_63_1484)">
<ellipse cx="463" cy="372.5" rx="153" ry="233.5" fill="#63BDFF" fill-opacity="0.15"/>
</g>
</g>
<defs>
<filter id="filter0_f_63_1484" x="-238" y="-246" width="534" height="534" filterUnits="userSpaceOnUse" color-interpolation-filters="sRGB">
<feFlood flood-opacity="0" result="BackgroundImageFix"/>
<feBlend mode="normal" in="SourceGraphic" in2="BackgroundImageFix" result="shape"/>
<feGaussianBlur stdDeviation="57" result="effect1_foregroundBlur_63_1484"/>
</filter>
<filter id="filter1_f_63_1484" x="226" y="55" width="474" height="635" filterUnits="userSpaceOnUse" color-interpolation-filters="sRGB">
<feFlood flood-opacity="0" result="BackgroundImageFix"/>
<feBlend mode="normal" in="SourceGraphic" in2="BackgroundImageFix" result="shape"/>
<feGaussianBlur stdDeviation="42" result="effect1_foregroundBlur_63_1484"/>
</filter>
<linearGradient id="paint0_linear_63_1484" x1="208.609" y1="140.967" x2="208.609" y2="208.015" gradientUnits="userSpaceOnUse">
<stop offset="0.02" stop-color="#FFD050"/>
<stop offset="1" stop-color="#FF8A00"/>
</linearGradient>
<linearGradient id="paint1_linear_63_1484" x1="288.453" y1="116.24" x2="288.453" y2="164.309" gradientUnits="userSpaceOnUse">
<stop offset="0.02" stop-color="#FFD050"/>
<stop offset="1" stop-color="#FF8A00"/>
</linearGradient>
<radialGradient id="paint2_radial_63_1484" cx="0" cy="0" r="1" gradientUnits="userSpaceOnUse" gradientTransform="translate(256.5 704.5) rotate(90) scale(347.5)">
<stop offset="0.0677083" stop-color="white"/>
<stop offset="0.677083" stop-color="white"/>
<stop offset="1" stop-color="#00A9BA"/>
</radialGradient>
<clipPath id="clip0_63_1484">
<rect width="512" height="471" fill="white"/>
</clipPath>
</defs>
</svg>
