<svg id="ei35QUCP47y1" xmlns="http://www.w3.org/2000/svg" xmlns:xlink="http://www.w3.org/1999/xlink" viewBox="0 0 512 471" shape-rendering="geometricPrecision" text-rendering="geometricPrecision"><defs><linearGradient id="ei35QUCP47y18-fill" x1="208.609" y1="280.967" x2="208.609" y2="348.015" spreadMethod="pad" gradientUnits="userSpaceOnUse" gradientTransform="translate(0 0)"><stop id="ei35QUCP47y18-fill-0" offset="2%" stop-color="#ffd050"/><stop id="ei35QUCP47y18-fill-1" offset="100%" stop-color="#ff8a00"/></linearGradient><linearGradient id="ei35QUCP47y32-fill" x1="288.453" y1="256.24" x2="288.453" y2="304.309" spreadMethod="pad" gradientUnits="userSpaceOnUse" gradientTransform="translate(0 0)"><stop id="ei35QUCP47y32-fill-0" offset="2%" stop-color="#ffd050"/><stop id="ei35QUCP47y32-fill-1" offset="100%" stop-color="#ff8a00"/></linearGradient><linearGradient id="ei35QUCP47y38-fill" x1="254.545" y1="174.859" x2="254.545" y2="235.517" spreadMethod="pad" gradientUnits="userSpaceOnUse" gradientTransform="translate(0 0)"><stop id="ei35QUCP47y38-fill-0" offset="2%" stop-color="#ffd050"/><stop id="ei35QUCP47y38-fill-1" offset="100%" stop-color="#ff8a00"/></linearGradient><radialGradient id="ei35QUCP47y66-stroke" cx="0" cy="0" r="1" spreadMethod="pad" gradientUnits="userSpaceOnUse" gradientTransform="matrix(0 347.5 -347.5 0 0 0)"><stop id="ei35QUCP47y66-stroke-0" offset="6.77083%" stop-color="#fff"/><stop id="ei35QUCP47y66-stroke-1" offset="67.7083%" stop-color="#fff"/><stop id="ei35QUCP47y66-stroke-2" offset="100%" stop-color="#00a9ba"/></radialGradient><radialGradient id="ei35QUCP47y73-fill" cx="0" cy="0" r="1" spreadMethod="pad" gradientUnits="userSpaceOnUse" gradientTransform="matrix(0 153 -153 0 0 0)"><stop id="ei35QUCP47y73-fill-0" offset="0%" stop-color="#63bdff"/><stop id="ei35QUCP47y73-fill-1" offset="100%" stop-color="rgba(99,189,255,0)"/></radialGradient><radialGradient id="ei35QUCP47y75-fill" cx="0" cy="0" r="1" spreadMethod="pad" gradientUnits="userSpaceOnUse" gradientTransform="matrix(0 233.5 -153 0 0 0)"><stop id="ei35QUCP47y75-fill-0" offset="0%" stop-color="#63bdff"/><stop id="ei35QUCP47y75-fill-1" offset="100%" stop-color="rgba(99,189,255,0)"/></radialGradient></defs><g clip-path="url(#ei35QUCP47y77)"><g><rect width="512" height="471" rx="8" ry="8" fill="#63bdff" fill-opacity="0.1"/><rect width="511" height="470" rx="7.5" ry="7.5" transform="translate(.5 0.5)" fill="none" stroke="#63bdff" stroke-opacity="0.3"/><g><path d="M329.358,240.068c-3.225-5.526-6.163-11.155-10.703-15.736-1.607-1.666-3.595-2.914-5.794-3.637-1.808-.596-7.272.596-4.52-1.849.144-.144.494-.637,0-.657-1.664,0-3.287,0-4.951,0-.575,0-6.163,0-1.623-.658.206,0,1.13-.698.76-.904-4.804-2.92-10.366-4.35-15.983-4.108-2.436.129-4.816.774-6.985,1.89-.786.406-1.518.91-2.178,1.499-2.773,2.527.986-1.808,1.726-2.67.164-.185.308-.719-.144-.535-2.269.884-4.296,2.292-5.917,4.109-.924,1.084-1.762,2.238-2.506,3.452-1.931,2.958,1.233-3.863,1.767-5.095.226-.514-.267-.596-.617-.391-5.464,3.164-10.888,8.218-12.758,14.381-1.643,5.363,4.274,10.683,9.471,9.78-7.286,6.304-12.134,14.961-13.703,24.468c0,.226.37,0,.391-.206c1.856-8.303,6.233-15.83,12.532-21.551-2.61,5.65-3.062,13.95,2.054,17.669c5.116,3.718,15.593,7.149,21.88,4.108.205,0,.801-.595.554-.904-.44-.53-.936-1.012-1.479-1.438c1.359.247,2.751.247,4.109,0c.247,0,1.171-.637.822-.986-1.03-.948-2.144-1.801-3.328-2.547c9.471,0,18.818-1.295,26.584-7.561.164-.123.842-.862.247-.883-.596-.021-1.213,0-1.788,0c3.554-3.02,6.616-7.067,11.341-8.074.287-.082.965-.555.739-.966Z" fill="#448831"/><path d="M329.156,240.808c-1.357-1.301-2.868-2.433-4.499-3.369-3.523-1.933-7.207-3.555-11.012-4.849-6.365-2.163-13.099-3.03-19.805-2.547-9.203.76-23.358,2.917-27.282,12.594.349-.35.698-.72,1.047-1.048-2.609,5.649-3.061,13.949,2.055,17.668c5.115,3.718,15.593,7.149,21.879,4.109.206,0,.802-.596.555-.904-.441-.531-.936-1.013-1.479-1.438c1.358.247,2.75.247,4.109,0c.246,0,1.171-.637.822-.986-1.03-.949-2.144-1.801-3.329-2.548c9.471,0,18.819-1.294,26.585-7.56.164-.124.842-.863.246-.884-.595-.02-1.212,0-1.787,0c3.554-3.02,6.615-7.067,11.34-8.074.193-.026.38-.081.555-.164Z" fill="#2f692e"/><path d="M263.555,244.259c-4.659,5.445-7.724,12.071-8.855,19.147c0,.226.37,0,.391-.205c1.45-6.57,4.523-12.672,8.936-17.751-.19-.127-.337-.309-.421-.522-.085-.213-.102-.446-.051-.669Z" fill="#65bc46"/></g><g><path d="M189.783,243.827c2.731-4.68,5.219-9.446,9.064-13.326c1.36-1.41,3.044-2.467,4.906-3.079c1.53-.504,6.158.505,3.827-1.566-.122-.121-.418-.539,0-.556c1.409,0,2.783,0,4.192,0c.487,0,5.219,0,1.375-.557-.174,0-.957-.591-.644-.765c4.068-2.474,8.778-3.684,13.534-3.48c2.063.11,4.079.656,5.915,1.601.666.344,1.285.771,1.844,1.27c2.349,2.14-.835-1.531-1.461-2.262-.139-.156-.261-.609.122-.452c1.921.748,3.638,1.94,5.01,3.479.782.918,1.492,1.895,2.122,2.923c1.636,2.505-1.044-3.271-1.496-4.314-.191-.435.226-.505.522-.331c4.628,2.679,9.22,6.959,10.803,12.178c1.392,4.54-3.618,9.046-8.019,8.28c6.169,5.339,10.275,12.669,11.603,20.719c0,.192-.313,0-.331-.174-1.571-7.031-5.278-13.405-10.611-18.248c2.209,4.784,2.592,11.812-1.74,14.961-4.332,3.148-13.204,6.053-18.527,3.479-.174,0-.679-.505-.47-.766.373-.449.793-.857,1.253-1.217-1.151.209-2.329.209-3.48,0-.209,0-.991-.54-.696-.835.872-.803,1.816-1.526,2.819-2.158-8.02,0-15.936-1.096-22.511-6.401-.14-.105-.714-.731-.209-.749.504-.017,1.026,0,1.513,0-3.009-2.557-5.601-5.984-9.603-6.836-.243-.07-.817-.47-.626-.818Z" fill="#448831"/><path d="M189.955,244.453c1.149-1.102,2.429-2.06,3.81-2.853c2.983-1.637,6.103-3.011,9.324-4.106c5.39-1.832,11.092-2.566,16.77-2.157c7.794.644,19.78,2.47,23.103,10.664-.296-.296-.592-.609-.887-.887c2.209,4.784,2.592,11.812-1.74,14.961-4.332,3.148-13.204,6.054-18.527,3.479-.174,0-.679-.505-.47-.765.373-.45.793-.858,1.253-1.218-1.151.209-2.329.209-3.48,0-.208,0-.991-.539-.696-.835.873-.803,1.816-1.525,2.819-2.157-8.02,0-15.935-1.096-22.511-6.402-.139-.105-.714-.731-.209-.748.504-.018,1.026,0,1.513,0-3.009-2.558-5.601-5.985-9.602-6.837-.163-.022-.322-.069-.47-.139Z" fill="#2f692e"/><path d="M245.504,247.375c3.946,4.611,6.54,10.222,7.498,16.214c0,.191-.313,0-.33-.174-1.229-5.564-3.831-10.731-7.568-15.031.161-.108.286-.262.357-.442.072-.18.087-.378.043-.567Z" fill="#65bc46"/></g><g id="ei35QUCP47y14" transform="translate(0-20)"><path d="M257,402.112c0,2.147-1.347,3.888-3,3.888-1.678,0-3-1.691-3-3.888v-161.241c.102-2.18,1.322-3.871,3-3.871c1.653,0,3,1.691,3,3.871v161.241Z" fill="#008c3c"/><path d="M257,402.112c0,2.147-.686,3.888-1.5,3.888-.839,0-1.5-1.691-1.5-3.888v-161.241c0-2.18.661-3.871,1.5-3.871.814,0,1.5,1.691,1.5,3.871v161.241Z" fill="#005a21"/></g><g id="ei35QUCP47y17" transform="matrix(.046837 0 0 0.046837 198.837902 310.139111)"><path d="M208.609,353.22c21.17,0,38.332-17.162,38.332-38.332c0-21.171-17.162-38.333-38.332-38.333-21.171,0-38.333,17.162-38.333,38.333c0,21.17,17.162,38.332,38.333,38.332Z" fill="url(#ei35QUCP47y18-fill)"/><path d="M229.91,336.19c11.766-11.766,11.766-30.842,0-42.607-11.765-11.766-30.841-11.766-42.607,0-11.765,11.765-11.765,30.841,0,42.607c11.766,11.765,30.842,11.765,42.607,0Z" fill="#ff8a00"/><path d="M228.371,334.651c10.916-10.916,10.916-28.614,0-39.53-10.915-10.916-28.614-10.916-39.53,0s-10.916,28.614,0,39.53s28.615,10.916,39.53,0Z" fill="#ffd050"/><path d="M236.551,326.151c-1.841,4.572-4.776,8.621-8.546,11.795-3.771,3.173-8.262,5.374-13.081,6.408-4.818,1.034-9.817.87-14.557-.477-4.741-1.347-9.079-3.836-12.634-7.249s-6.218-7.646-7.757-12.328-1.906-9.67-1.068-14.526c.837-4.857,2.853-9.434,5.87-13.33c3.017-3.897,6.944-6.994,11.437-9.02-2.242,5.578-2.765,11.7-1.502,17.577c1.264,5.878,4.256,11.244,8.593,15.407c4.337,4.164,9.82,6.936,15.744,7.959s12.019.252,17.501-2.216Z" opacity="0.63" fill="#fb0"/><path d="M236.19,339.187c9.306,9.789,15.426,21.703,17.685,34.426c0,.406-.739,0-.78-.369-2.897-11.813-9.033-22.785-17.848-31.915.379-.229.673-.557.842-.939.168-.383.204-.802.101-1.203Z" fill="#65bc46"/></g><g id="ei35QUCP47y23" transform="matrix(.339421 0 0 0.339421 183.142837 232.151259)"><path d="M297.722,337.135c-1.77-3.034-3.383-6.123-5.875-8.638-.881-.914-1.973-1.599-3.18-1.996-.992-.327-3.991.327-2.48-1.015.079-.078.27-.349,0-.36-.914,0-1.804,0-2.718,0-.316,0-3.383,0-.891-.361.113,0,.621-.384.418-.496-2.637-1.603-5.69-2.388-8.773-2.256-1.337.072-2.644.425-3.834,1.038-.431.223-.833.5-1.195.823-1.522,1.387.541-.992.947-1.466.09-.101.169-.395-.079-.293-1.245.485-2.358,1.258-3.247,2.255-.508.595-.968,1.228-1.376,1.895-1.06,1.623.676-2.12.97-2.797.124-.282-.147-.327-.339-.214-2.999,1.736-5.976,4.51-7.002,7.893-.902,2.943,2.345,5.864,5.198,5.367-3.999,3.461-6.66,8.212-7.521,13.43c0,.124.203,0,.214-.113c1.019-4.557,3.422-8.689,6.879-11.828-1.432,3.101-1.68,7.656,1.127,9.697c2.808,2.041,8.559,3.924,12.009,2.255.113,0,.44-.327.305-.496-.242-.291-.514-.555-.812-.789.745.135,1.509.135,2.255,0c.135,0,.643-.35.451-.541-.565-.521-1.177-.989-1.827-1.399c5.199,0,10.329-.71,14.591-4.149.091-.068.463-.474.136-.485s-.665,0-.981,0c1.951-1.658,3.631-3.879,6.224-4.431.158-.046.53-.305.406-.53Z" fill="#448831"/><path d="M297.611,337.54c-.746-.714-1.575-1.335-2.47-1.849-1.933-1.061-3.956-1.952-6.044-2.661-3.493-1.188-7.19-1.664-10.87-1.399-5.052.417-12.821,1.601-14.974,6.912.191-.191.383-.394.575-.575-1.432,3.101-1.68,7.657,1.127,9.698c2.808,2.041,8.559,3.924,12.009,2.255.113,0,.44-.327.305-.496-.242-.291-.514-.556-.812-.79.745.136,1.509.136,2.255,0c.135,0,.643-.349.451-.541-.565-.52-1.177-.988-1.827-1.398c5.199,0,10.329-.71,14.591-4.15.091-.067.463-.473.136-.484-.327-.012-.666,0-.981,0c1.95-1.658,3.631-3.879,6.224-4.432.106-.014.208-.045.305-.09Z" fill="#2f692e"/><path d="M261.605,339.434c-2.557,2.989-4.239,6.626-4.86,10.51c0,.124.203,0,.214-.113.797-3.606,2.483-6.955,4.905-9.743-.104-.07-.185-.17-.231-.286-.046-.117-.056-.245-.028-.368Z" fill="#65bc46"/></g><g id="ei35QUCP47y27" transform="matrix(.1308 0 0 0.1308 201.342086 280.653314)"><path d="M210.882,263.54c.745-.714,1.574-1.335,2.469-1.849c1.934-1.061,3.956-1.952,6.044-2.661c3.494-1.188,7.19-1.664,10.87-1.399c5.052.417,12.821,1.601,14.975,6.912-.192-.191-.384-.394-.575-.575c1.432,3.101,1.68,7.657-1.128,9.698s-8.559,3.924-12.009,2.255c-.113,0-.44-.327-.304-.496.241-.291.514-.556.811-.79-.745.136-1.509.136-2.255,0-.135,0-.643-.349-.451-.541.565-.52,1.177-.988,1.827-1.398-5.198,0-10.329-.71-14.591-4.15-.09-.067-.463-.473-.136-.484.327-.012.666,0,.981,0-1.95-1.658-3.63-3.879-6.224-4.432-.105-.014-.208-.045-.304-.09Z" fill="#2f692e"/><path d="M246.887,265.434c2.557,2.989,4.239,6.626,4.86,10.51c0,.124-.203,0-.214-.113-.796-3.606-2.483-6.955-4.905-9.743.104-.07.185-.17.231-.286.046-.117.056-.245.028-.368Z" fill="#65bc46"/><path d="M210.77,263.135c1.77-3.034,3.383-6.123,5.875-8.638.882-.914,1.973-1.599,3.18-1.996.992-.327,3.991.327,2.48-1.015-.078-.078-.27-.349,0-.36.914,0,1.805,0,2.718,0c.316,0,3.383,0,.891-.361-.113,0-.62-.384-.417-.496c2.636-1.603,5.689-2.388,8.772-2.256c1.337.072,2.644.425,3.834,1.038.432.223.833.5,1.195.823c1.523,1.387-.541-.992-.947-1.466-.09-.101-.169-.395.079-.293c1.245.485,2.358,1.258,3.248,2.255.507.595.967,1.228,1.375,1.895c1.06,1.623-.676-2.12-.969-2.797-.124-.282.146-.327.338-.214c2.999,1.736,5.976,4.51,7.002,7.893.902,2.943-2.345,5.864-5.198,5.367c3.999,3.461,6.66,8.212,7.521,13.43c0,.124-.203,0-.214-.113-1.019-4.557-3.421-8.689-6.879-11.828c1.433,3.101,1.681,7.656-1.127,9.697s-8.559,3.924-12.009,2.255c-.113,0-.44-.327-.305-.496.242-.291.515-.555.812-.789-.745.135-1.509.135-2.255,0-.135,0-.643-.35-.451-.541.565-.521,1.177-.989,1.827-1.399-5.198,0-10.329-.71-14.591-4.149-.091-.068-.463-.474-.136-.485s.666,0,.981,0c-1.95-1.658-3.63-3.879-6.224-4.431-.158-.046-.53-.305-.406-.53Z" fill="#448831"/></g><g id="ei35QUCP47y31" transform="matrix(.130929 0 0 0.130929 250.686565 281.826642)"><path d="M288.453,308.04c-15.177,0-27.481-12.303-27.481-27.481s12.304-27.481,27.481-27.481c15.178,0,27.482,12.303,27.482,27.481s-12.304,27.481-27.482,27.481Z" fill="url(#ei35QUCP47y32-fill)"/><path d="M273.181,295.831c-8.435-8.435-8.435-22.111,0-30.546s22.111-8.435,30.546,0s8.435,22.111,0,30.546-22.111,8.435-30.546,0Z" fill="#ff8a00"/><path d="M274.284,294.728c-7.825-7.826-7.825-20.514,0-28.34c7.826-7.826,20.515-7.826,28.341,0s7.826,20.514,0,28.34-20.515,7.826-28.341,0Z" fill="#ffd050"/><path d="M268.42,288.635c1.321,3.277,3.424,6.18,6.128,8.455c2.703,2.276,5.923,3.853,9.377,4.594c3.455.742,7.038.624,10.437-.341c3.399-.966,6.509-2.75,9.057-5.197c2.549-2.447,4.459-5.482,5.562-8.839c1.103-3.356,1.366-6.932.766-10.414-.601-3.482-2.046-6.763-4.209-9.557-2.163-2.793-4.979-5.013-8.2-6.466c1.608,3.999,1.983,8.388,1.077,12.602-.906,4.213-3.051,8.06-6.16,11.045s-7.04,4.972-11.287,5.706c-4.248.734-8.617.181-12.548-1.588Z" opacity="0.63" fill="#fb0"/><path d="M268.341,297.999c-6.494,7.074-10.765,15.684-12.341,24.878c0,.293.515,0,.544-.267c2.022-8.536,6.304-16.465,12.456-23.063-.265-.165-.47-.402-.588-.678-.117-.277-.142-.58-.071-.87Z" fill="#65bc46"/></g><g id="ei35QUCP47y37" transform="matrix(.070792 0 0 0.070792 236.525249 300.995453)"><path d="M254.545,240.225c-19.153,0-34.679-15.526-34.679-34.678c0-19.153,15.526-34.679,34.679-34.679c19.152,0,34.679,15.526,34.679,34.679c0,19.152-15.527,34.678-34.679,34.678Z" fill="url(#ei35QUCP47y38-fill)"/><path d="M235.273,224.819c-10.645-10.645-10.644-27.902,0-38.546c10.644-10.645,27.902-10.645,38.546,0c10.644,10.644,10.644,27.901,0,38.546-10.644,10.644-27.902,10.644-38.546,0Z" fill="#ff8a00"/><path d="M236.666,223.427c-9.876-9.876-9.876-25.887,0-35.763c9.875-9.875,25.887-9.875,35.762,0c9.876,9.876,9.876,25.887,0,35.763-9.875,9.875-25.887,9.875-35.762,0Z" fill="#ffd050"/><path d="M229.266,215.737c1.666,4.136,4.321,7.8,7.732,10.671s7.474,4.861,11.833,5.797c4.36.935,8.882.787,13.171-.431c4.288-1.219,8.213-3.471,11.429-6.559c3.216-3.087,5.626-6.917,7.018-11.153c1.392-4.235,1.724-8.748.966-13.141-.757-4.394-2.581-8.535-5.31-12.06-2.73-3.525-6.283-6.327-10.348-8.16c2.029,5.047,2.502,10.584,1.359,15.902-1.143,5.317-3.85,10.172-7.774,13.938-3.923,3.767-8.883,6.275-14.243,7.201-5.359.926-10.873.227-15.833-2.005Z" opacity="0.63" fill="#fb0"/></g><path d="M298.323,269.389h-83.349-30.95l16.5,132.342h14.45h83.349h14.451l16.499-132.342h-30.95Z" fill="#fd2e2e"/><path d="M314.158,403.301h-115.044L182.321,267.819h148.735L314.158,403.301Zm-112.25-3.14h109.482l16.1-129.122h-141.683l16.101,129.122Z" fill="#ce4737"/><g style="mix-blend-mode:screen"><path d="M221.521,269.389h-9.235c2.129,21.476,6.999,109.801,8.968,132.342h6.307c-1.437-20.279-4.657-108.604-6.04-132.342Z" fill="#fd2e2e"/></g><g style="mix-blend-mode:multiply" opacity="0.5"><path d="M288.768,269.389c-1.677,23.951-4.524,48.061-5.722,72.172-1.011,20.065-1.57,40.157-3.22,60.17h32.893l16.499-132.342h-40.45Z" fill="#e00000"/></g><g><path d="M219.845,269.389h-.266v.133l.266-.133Z" fill="#e86659"/><path d="M219.846,272.183l-3.407-4.258l6.174-.106-2.767,4.364Z" fill="#9a4138"/><path d="M244.434,269.389h-.213v.133l.213-.133Z" fill="#e86659"/><path d="M244.435,272.183l-3.379-4.284l6.174-.08-2.795,4.364Z" fill="#9a4138"/><path d="M269.05,269.389h-.213v.133l.213-.133Z" fill="#e86659"/><path d="M269.052,272.183l-3.379-4.284l6.174-.08-2.795,4.364Z" fill="#9a4138"/><path d="M293.667,269.389h-.213v.133l.213-.133Z" fill="#e86659"/><path d="M293.586,272.13l-1.304-1.676-2.022-2.555l6.333-.08-3.007,4.311Z" fill="#9a4138"/><path d="M318.283,269.389h-.239v.133l.239-.133Z" fill="#e86659"/><path d="M318.283,272.183l-3.353-4.284l6.147-.08-2.794,4.364Z" fill="#9a4138"/><path d="M195.229,269.389h-.24v.133l.24-.133Z" fill="#e86659"/><path d="M195.229,272.183l-3.379-4.284l6.147-.08-2.768,4.364Z" fill="#9a4138"/></g><g style="mix-blend-mode:multiply"><path d="M184.983,276.361l2.661,20.359c2.132-.422,4.137-1.334,5.855-2.664s3.103-3.042,4.045-5.001c1.077,2.22,2.739,4.104,4.807,5.45c2.068,1.345,4.463,2.102,6.929,2.188c2.47-.084,4.87-.84,6.942-2.185c2.072-1.346,3.739-3.231,4.821-5.453c1.083,2.237,2.761,4.133,4.849,5.48c2.089,1.348,4.508,2.094,6.993,2.158c2.466-.083,4.863-.839,6.931-2.185c2.069-1.346,3.73-3.231,4.805-5.453c1.079,2.224,2.745,4.11,4.818,5.456s4.474,2.101,6.945,2.182c2.447-.105,4.82-.871,6.867-2.215c2.048-1.345,3.693-3.219,4.762-5.423c1.009,2.274,2.656,4.207,4.742,5.563c2.085,1.356,4.519,2.078,7.007,2.078s4.922-.722,7.008-2.078c2.085-1.356,3.733-3.289,4.741-5.563c1.004,2.276,2.648,4.211,4.732,5.569s4.517,2.082,7.004,2.082c2.488,0,4.921-.724,7.005-2.082s3.727-3.293,4.731-5.569c1.03,2.078,2.568,3.862,4.47,5.188c1.903,1.326,4.109,2.15,6.415,2.397l2.554-20.279h-143.439Z" opacity="0.5" fill="#e70000"/></g><path d="M178.731,267.287l1.943,19.293c1.594.772,3.339,1.181,5.11,1.198c2.468-.09,4.865-.848,6.937-2.193c2.071-1.345,3.739-3.227,4.825-5.445c1.082,2.216,2.745,4.097,4.812,5.442s4.46,2.104,6.924,2.196c2.468-.09,4.866-.848,6.937-2.193c2.072-1.345,3.739-3.227,4.826-5.445c1.088,2.234,2.767,4.126,4.854,5.473c2.088,1.346,4.505,2.095,6.988,2.165c2.465-.089,4.859-.847,6.927-2.192c2.067-1.346,3.729-3.228,4.809-5.446c1.084,2.22,2.751,4.103,4.823,5.449c2.072,1.345,4.471,2.102,6.94,2.189c2.445-.111,4.816-.879,6.863-2.223c2.046-1.344,3.693-3.214,4.766-5.415c1.009,2.274,2.656,4.207,4.742,5.563c2.085,1.356,4.519,2.078,7.007,2.078s4.922-.722,7.008-2.078c2.085-1.356,3.733-3.289,4.741-5.563c1.004,2.276,2.648,4.211,4.732,5.569s4.517,2.081,7.004,2.081c2.488,0,4.921-.723,7.005-2.081s3.727-3.293,4.731-5.569c1.087,2.218,2.754,4.1,4.826,5.445c2.071,1.345,4.469,2.103,6.937,2.193c2.077-.017,4.114-.577,5.908-1.623l1.889-18.868h-155.814Z" fill="#ff5454"/><path d="M326.746,289.348c-2.317-.044-4.59-.637-6.635-1.728-2.044-1.092-3.801-2.652-5.127-4.552-1.288,1.932-3.033,3.516-5.081,4.612-2.047,1.096-4.333,1.669-6.655,1.669s-4.608-.573-6.656-1.669c-2.047-1.096-3.792-2.68-5.08-4.612-1.291,1.932-3.039,3.516-5.088,4.611-2.05,1.096-4.338,1.669-6.661,1.669-2.324,0-4.612-.573-6.661-1.669-2.05-1.095-3.798-2.679-5.089-4.611-1.291,1.932-3.038,3.516-5.088,4.611-2.049,1.096-4.337,1.669-6.661,1.669s-4.612-.573-6.661-1.669c-2.049-1.095-3.797-2.679-5.088-4.611-1.288,1.932-3.033,3.516-5.08,4.612-2.048,1.096-4.334,1.669-6.656,1.669s-4.608-.573-6.656-1.669c-2.047-1.096-3.792-2.68-5.08-4.612-1.325,1.902-3.081,3.463-5.126,4.554-2.045,1.092-4.319,1.684-6.637,1.726-2.313-.042-4.584-.634-6.624-1.726-2.041-1.092-3.792-2.653-5.111-4.554-1.87,2.762-4.655,4.773-7.865,5.679-3.209.906-6.636.648-9.673-.729l-.798-.373L177,265.717h159.3l-2.156,21.423-.718.399c-2.034,1.168-4.335,1.791-6.68,1.809Zm-11.762-12.534l1.41,2.661c3.114,5.802,9.235,8.41,14.77,5.802l1.65-16.314h-152.328l1.65,16.66c2.697.888,5.628.739,8.221-.417s4.662-3.238,5.804-5.837l1.384-2.661l1.383,2.661c.934,1.978,2.394,3.662,4.219,4.868c1.826,1.206,3.947,1.888,6.133,1.971c2.178-.09,4.29-.774,6.106-1.98c1.815-1.206,3.266-2.887,4.193-4.859l1.411-2.661l1.384,2.661c.946,2.002,2.43,3.702,4.286,4.909c1.856,1.208,4.012,1.876,6.225,1.93c2.187-.083,4.308-.765,6.134-1.971c1.825-1.206,3.285-2.89,4.219-4.868l1.383-2.661l1.384,2.661c.941,1.979,2.406,3.662,4.235,4.868c1.83,1.205,3.954,1.887,6.144,1.971c2.185-.089,4.304-.773,6.128-1.978c1.825-1.205,3.285-2.886,4.224-4.861l1.384-2.661l1.384,2.661c.871,2.026,2.317,3.752,4.16,4.966c1.842,1.213,3.999,1.859,6.205,1.859s4.363-.646,6.205-1.859c1.843-1.214,3.289-2.94,4.16-4.966l1.384-2.661l1.384,2.661c.866,2.028,2.309,3.757,4.15,4.972c1.84,1.215,3.997,1.863,6.202,1.863c2.206,0,4.362-.648,6.203-1.863c1.84-1.215,3.283-2.944,4.149-4.972l1.278-2.555Z" fill="#fd2e2e"/><g id="ei35QUCP47y65"><circle r="317.5" transform="matrix(0 1-1 0 256.5 702.995792)" fill="none" stroke="url(#ei35QUCP47y66-stroke)" stroke-width="60"/><g><path d="M207.698,396v-16.8h3.072v16.8h-3.072Zm6.257,0v-11.904h2.712l.24,2.016c.368-.704.896-1.264,1.584-1.68.704-.416,1.528-.624,2.472-.624c1.472,0,2.616.464,3.432,1.392s1.224,2.288,1.224,4.08v6.72h-3.072v-6.432c0-1.024-.208-1.808-.624-2.352s-1.064-.816-1.944-.816c-.864,0-1.576.304-2.136.912-.544.608-.816,1.456-.816,2.544v6.144h-3.072Zm17.7,0l-4.368-11.904h3.216l3.024,9l3.024-9h3.216L235.375,396h-3.72Zm15.248.288c-1.2,0-2.264-.256-3.192-.768s-1.656-1.232-2.184-2.16-.792-2-.792-3.216c0-1.232.256-2.328.768-3.288.528-.96,1.248-1.704,2.16-2.232.928-.544,2.016-.816,3.264-.816c1.168,0,2.2.256,3.096.768s1.592,1.216,2.088,2.112c.512.88.768,1.864.768,2.952c0,.176-.008.36-.024.552c0,.192-.008.392-.024.6h-9.048c.064.928.384,1.656.96,2.184.592.528,1.304.792,2.136.792.624,0,1.144-.136,1.56-.408.432-.288.752-.656.96-1.104h3.12c-.224.752-.6,1.44-1.128,2.064-.512.608-1.152,1.088-1.92,1.44-.752.352-1.608.528-2.568.528Zm.024-9.984c-.752,0-1.416.216-1.992.648-.576.416-.944,1.056-1.104,1.92h5.928c-.048-.784-.336-1.408-.864-1.872s-1.184-.696-1.968-.696Zm13.455,9.984c-1.056,0-1.984-.168-2.784-.504-.8-.352-1.44-.832-1.92-1.44s-.768-1.312-.864-2.112h3.096c.096.464.352.864.768,1.2.432.32.984.48,1.656.48s1.16-.136,1.464-.408c.32-.272.48-.584.48-.936c0-.512-.224-.856-.672-1.032-.448-.192-1.072-.376-1.872-.552-.512-.112-1.032-.248-1.56-.408s-1.016-.36-1.464-.6c-.432-.256-.784-.576-1.056-.96-.272-.4-.408-.888-.408-1.464c0-1.056.416-1.944,1.248-2.664.848-.72,2.032-1.08,3.552-1.08c1.408,0,2.528.328,3.36.984.848.656,1.352,1.56,1.512,2.712h-2.904c-.176-.88-.84-1.32-1.992-1.32-.576,0-1.024.112-1.344.336-.304.224-.456.504-.456.84c0,.352.232.632.696.84s1.08.4,1.848.576c.832.192,1.592.408,2.28.648.704.224,1.264.568,1.68,1.032.416.448.624,1.096.624,1.944.016.736-.176,1.4-.576,1.992s-.976,1.056-1.728,1.392-1.64.504-2.664.504ZM273.001,396c-1.248,0-2.248-.304-3-.912s-1.128-1.688-1.128-3.24v-5.184h-2.04v-2.568h2.04l.36-3.192h2.712v3.192h3.216v2.568h-3.216v5.208c0,.576.12.976.36,1.2.256.208.688.312,1.296.312h1.488v2.616h-2.088Zm10.277.288c-1.2,0-2.264-.256-3.192-.768s-1.656-1.232-2.184-2.16-.792-2-.792-3.216c0-1.232.256-2.328.768-3.288.528-.96,1.248-1.704,2.16-2.232.928-.544,2.016-.816,3.264-.816c1.168,0,2.2.256,3.096.768s1.592,1.216,2.088,2.112c.512.88.768,1.864.768,2.952c0,.176-.008.36-.024.552c0,.192-.008.392-.024.6h-9.048c.064.928.384,1.656.96,2.184.592.528,1.304.792,2.136.792.624,0,1.144-.136,1.56-.408.432-.288.752-.656.96-1.104h3.12c-.224.752-.6,1.44-1.128,2.064-.512.608-1.152,1.088-1.92,1.44-.752.352-1.608.528-2.568.528Zm.024-9.984c-.752,0-1.416.216-1.992.648-.576.416-.944,1.056-1.104,1.92h5.928c-.048-.784-.336-1.408-.864-1.872s-1.184-.696-1.968-.696Zm14.007,9.984c-1.12,0-2.12-.272-3-.816s-1.576-1.288-2.088-2.232-.768-2.016-.768-3.216.256-2.264.768-3.192c.512-.944,1.208-1.68,2.088-2.208.88-.544,1.88-.816,3-.816.896,0,1.68.168,2.352.504s1.216.808,1.632,1.416v-7.008h3.072v17.28h-2.736l-.336-1.704c-.384.528-.896.992-1.536,1.392-.624.4-1.44.6-2.448.6Zm.648-2.688c.992,0,1.8-.328,2.424-.984.64-.672.96-1.528.96-2.568s-.32-1.888-.96-2.544c-.624-.672-1.432-1.008-2.424-1.008-.976,0-1.784.328-2.424.984s-.96,1.504-.96,2.544.32,1.896.96,2.568s1.448,1.008,2.424,1.008Z" fill="#fff"/><path d="M483.53,88.151c0-1.264.232-2.328.696-3.192s1.088-1.56,1.872-2.088s1.656-.912,2.616-1.152c.96-.224,1.944-.336,2.952-.336c1.872,0,3.496.264,4.872.792c1.392.528,2.464,1.288,3.216,2.28.768.992,1.152,2.192,1.152,3.6c0,1.152-.232,2.128-.696,2.928-.448.816-1.04,1.448-1.776,1.896s-1.528.712-2.376.792v-2.856c.736-.144,1.304-.456,1.704-.936s.6-1.096.6-1.848c0-1.072-.496-1.936-1.488-2.592-.976-.656-2.472-1.008-4.488-1.056.656.384,1.2.96,1.632,1.728s.648,1.624.648,2.568c0,.928-.224,1.8-.672,2.616s-1.08,1.472-1.896,1.968c-.816.512-1.776.768-2.88.768-1.008,0-1.944-.248-2.808-.744-.864-.48-1.56-1.168-2.088-2.064-.528-.88-.792-1.904-.792-3.072Zm2.64-.168c0,.896.272,1.632.816,2.208.56.592,1.264.888,2.112.888.896,0,1.616-.296,2.16-.888s.816-1.344.816-2.256c0-.592-.136-1.128-.408-1.608-.256-.464-.608-.832-1.056-1.104-.432-.272-.92-.408-1.464-.408-.864,0-1.576.296-2.136.888-.56.608-.84,1.368-.84,2.28Zm-2.352,14.786h16.8v3.648l-10.656,5.352l10.656,5.28v3.648h-16.8v-3.072h11.592l-9.192-4.68v-2.424l9.192-4.68h-11.592v-3.072Zm-.288,26.827c0-1.152.264-2.192.792-3.12.528-.912,1.256-1.64,2.184-2.184.944-.528,2.032-.792,3.264-.792s2.312.272,3.24.816c.944.544,1.68,1.272,2.208,2.184.528.928.792,1.968.792,3.12c0,1.136-.264,2.16-.792,3.072-.528.928-1.264,1.656-2.208,2.184-.928.544-2.008.816-3.24.816s-2.32-.272-3.264-.816c-.928-.528-1.656-1.256-2.184-2.184s-.792-1.96-.792-3.096Zm2.664,0c0,.8.296,1.496.888,2.088.608.592,1.504.888,2.688.888s2.072-.296,2.664-.888c.608-.592.912-1.28.912-2.064c0-.816-.304-1.52-.912-2.112-.592-.576-1.48-.864-2.664-.864s-2.08.288-2.688.864c-.592.592-.888,1.288-.888,2.088Zm-2.376,8.843h11.904v2.712l-2.016.24c.704.368,1.264.896,1.68,1.584.416.704.624,1.528.624,2.472c0,1.472-.464,2.616-1.392,3.432s-2.288,1.224-4.08,1.224h-6.72v-3.072h6.432c1.024,0,1.808-.208,2.352-.624s.816-1.064.816-1.944c0-.864-.304-1.576-.912-2.136-.608-.544-1.456-.816-2.544-.816h-6.144v-3.072Zm0,19.905c0-1.248.304-2.248.912-3s1.688-1.128,3.24-1.128h5.184v-2.04h2.568v2.04l3.192.36v2.712h-3.192v3.216h-2.568v-3.216h-5.208c-.576,0-.976.12-1.2.36-.208.256-.312.688-.312,1.296v1.488h-2.616v-2.088Zm0,4.798h17.28v3.072h-7.2c.656.4,1.168.936,1.536,1.608.384.688.576,1.472.576,2.352c0,1.472-.464,2.608-1.392,3.408-.928.816-2.288,1.224-4.08,1.224h-6.72v-3.048h6.432c1.024,0,1.808-.208,2.352-.624.544-.4.816-1.04.816-1.92c0-.864-.304-1.584-.912-2.16-.608-.56-1.456-.84-2.544-.84h-6.144v-3.072Zm-.288,19.522c0-1.056.168-1.984.504-2.784.352-.8.832-1.44,1.44-1.92s1.312-.768,2.112-.864v3.096c-.464.096-.864.352-1.2.768-.32.432-.48.984-.48,1.656s.136,1.16.408,1.464c.272.32.584.48.936.48.512,0,.856-.224,1.032-.672.192-.448.376-1.072.552-1.872.112-.512.248-1.032.408-1.56s.36-1.016.6-1.464c.256-.432.576-.784.96-1.056.4-.272.888-.408,1.464-.408c1.056,0,1.944.416,2.664,1.248.72.848,1.08,2.032,1.08,3.552c0,1.408-.328,2.528-.984,3.36-.656.848-1.56,1.352-2.712,1.512v-2.904c.88-.176,1.32-.84,1.32-1.992c0-.576-.112-1.024-.336-1.344-.224-.304-.504-.456-.84-.456-.352,0-.632.232-.84.696s-.4,1.08-.576,1.848c-.192.832-.408,1.592-.648,2.28-.224.704-.568,1.264-1.032,1.68-.448.416-1.096.624-1.944.624-.736.016-1.4-.176-1.992-.576s-1.056-.976-1.392-1.728-.504-1.64-.504-2.664Z" transform="translate(74 558)" fill="#fff"/><path d="M296.585,442.72v2.232c-1.024.848-2.016,1.688-2.976,2.52-.976.832-1.84,1.656-2.592,2.472-.768.816-1.376,1.608-1.824,2.376-.464.784-.696,1.544-.696,2.28c0,.688.192,1.296.576,1.824.368.528.984.792,1.848.792.88,0,1.544-.288,1.992-.864s.672-1.272.672-2.088h2.976c-.032,1.232-.304,2.256-.816,3.072-.512.832-1.192,1.448-2.04,1.848-.848.416-1.8.624-2.856.624-1.712,0-3.04-.472-3.984-1.416-.96-.928-1.44-2.136-1.44-3.624c0-.928.216-1.832.648-2.712.416-.88.968-1.728,1.656-2.544s1.432-1.584,2.232-2.304c.8-.704,1.576-1.36,2.328-1.968h-7.272v-2.52h11.568Zm-24.182,0v5.976l5.64,10.824h-3.48l-3.72-7.752-3.696,7.752h-3.432l5.616-10.824v-5.976h3.072Zm-14.235-.288c1.2,0,2.264.256,3.192.768s1.656,1.232,2.184,2.16.792,2,.792,3.216c0,1.232-.256,2.328-.768,3.288-.528.96-1.248,1.704-2.16,2.232-.928.544-2.016.816-3.264.816-1.168,0-2.2-.256-3.096-.768s-1.592-1.216-2.088-2.112c-.512-.88-.768-1.864-.768-2.952c0-.176.008-.36.024-.552c0-.192.008-.392.024-.6h9.048c-.064-.928-.384-1.656-.96-2.184-.592-.528-1.304-.792-2.136-.792-.624,0-1.144.136-1.56.408-.432.288-.752.656-.96,1.104h-3.12c.224-.752.6-1.44,1.128-2.064.512-.608,1.152-1.088,1.92-1.44.752-.352,1.608-.528,2.568-.528Zm-.024,9.984c.752,0,1.416-.216,1.992-.648.576-.416.944-1.056,1.104-1.92h-5.928c.048.784.336,1.408.864,1.872s1.184.696,1.968.696Zm-12.64-9.984c1.024,0,1.864.16,2.52.48.656.336,1.144.776,1.464,1.32s.48,1.144.48,1.8c0,1.104-.432,2-1.296,2.688s-2.16,1.032-3.888,1.032h-3.024v.288c0,.816.232,1.416.696,1.8s1.04.576,1.728.576c.624,0,1.168-.152,1.632-.456.464-.288.752-.72.864-1.296h3c-.08.864-.368,1.616-.864,2.256-.512.64-1.168,1.128-1.968,1.464-.8.352-1.696.528-2.688.528-1.696,0-3.032-.424-4.008-1.272s-1.464-2.048-1.464-3.6v-7.32h2.616l.288,1.92c.352-.64.848-1.168,1.488-1.584.624-.416,1.432-.624,2.424-.624Zm-.696,2.4c-.88,0-1.56.288-2.04.864-.496.576-.808,1.288-.936,2.136h2.616c.816,0,1.4-.152,1.752-.456.352-.288.528-.648.528-1.08c0-.464-.176-.824-.528-1.08s-.816-.384-1.392-.384Zm-9.052-2.112v11.904h-2.736l-.288-2.232c-.432.768-1.016,1.376-1.752,1.824-.752.464-1.632.696-2.64.696v-3.24h.864c.672,0,1.272-.104,1.8-.312s.944-.568,1.248-1.08c.288-.512.432-1.224.432-2.136v-5.424h3.072Zm-14.435-.288c1.056,0,1.984.168,2.784.504.8.352,1.44.832,1.92,1.44s.768,1.312.864,2.112h-3.096c-.096-.464-.352-.864-.768-1.2-.432-.32-.984-.48-1.656-.48s-1.16.136-1.464.408c-.32.272-.48.584-.48.936c0,.512.224.856.672,1.032.448.192,1.072.376,1.872.552.512.112,1.032.248,1.56.408s1.016.36,1.464.6c.432.256.784.576,1.056.96.272.4.408.888.408,1.464c0,1.056-.416,1.944-1.248,2.664-.848.72-2.032,1.08-3.552,1.08-1.408,0-2.528-.328-3.36-.984-.848-.656-1.352-1.56-1.512-2.712h2.904c.176.88.84,1.32,1.992,1.32.576,0,1.024-.112,1.344-.336.304-.224.456-.504.456-.84c0-.352-.232-.632-.696-.84s-1.08-.4-1.848-.576c-.832-.192-1.592-.408-2.28-.648-.704-.224-1.264-.568-1.68-1.032-.416-.448-.624-1.096-.624-1.944-.016-.736.176-1.4.576-1.992s.976-1.056,1.728-1.392s1.64-.504,2.664-.504Z" transform="translate(.001221 564)" fill="#fff"/><path d="M25.2392,169.239c0,1.232-.216,2.296-.648,3.192-.432.88-1.024,1.576-1.776,2.088-.768.496-1.632.784-2.592.864v-3c.688-.144,1.264-.496,1.728-1.056.448-.56.672-1.256.672-2.088c0-.896-.328-1.624-.984-2.184-.656-.576-1.472-.864-2.448-.864-1.008,0-1.808.288-2.4.864-.592.56-.888,1.272-.888,2.136c0,.72.176,1.344.528,1.872s.792.904,1.32,1.128v2.952l-9.60003-1.44v-9.312h2.68803v7.008l3.888.768c-.384-.352-.696-.832-.936-1.44-.256-.608-.384-1.288-.384-2.04c0-1.2.272-2.2.816-3c.528-.8,1.232-1.408,2.112-1.824.864-.416,1.808-.624,2.832-.624c1.168,0,2.208.256,3.12.768.912.496,1.632,1.2,2.16,2.112.528.896.792,1.936.792,3.12Zm-.288-18.922h-5.976l-10.82403,5.64v-3.48l7.75203-3.72-7.75203-3.696.00001-3.432l10.82402,5.616h5.976v3.072Zm.288-14.235c0,1.2-.256,2.264-.768,3.192s-1.232,1.656-2.16,2.184-2,.792-3.216.792c-1.232,0-2.328-.256-3.288-.768-.96-.528-1.704-1.248-2.232-2.16-.544-.928-.816-2.016-.816-3.264c0-1.168.256-2.2.768-3.096s1.216-1.592,2.112-2.088c.88-.512,1.864-.768,2.952-.768.176,0,.36.008.552.024.192,0,.392.008.6.024v9.048c.928-.064,1.656-.384,2.184-.96.528-.592.792-1.304.792-2.136c0-.624-.136-1.144-.408-1.56-.288-.432-.656-.752-1.104-.96v-3.12c.752.224,1.44.6,2.064,1.128.608.512,1.088,1.152,1.44,1.92.352.752.528,1.608.528,2.568Zm-9.984-.024c0,.752.216,1.416.648,1.992.416.576,1.056.944,1.92,1.104v-5.928c-.784.048-1.408.336-1.872.864s-.696,1.184-.696,1.968Zm9.984-12.64c0,1.024-.16,1.864-.48,2.52-.336.656-.776,1.144-1.32,1.464s-1.144.48-1.8.48c-1.104,0-2-.432-2.688-1.296s-1.032-2.16-1.032-3.888v-3.024h-.288c-.816,0-1.416.232-1.8.696s-.576,1.04-.576,1.728c0,.624.152,1.168.456,1.632.288.464.72.752,1.296.864v3c-.864-.08-1.616-.368-2.256-.864-.64-.512-1.128-1.168-1.464-1.968-.352-.8-.528-1.696-.528-2.688c0-1.696.424-3.032,1.272-4.008s2.048-1.464,3.6-1.464h7.32v2.616l-1.92.288c.64.352,1.168.848,1.584,1.488.416.624.624,1.432.624,2.424Zm-2.4-.696c0-.88-.288-1.56-.864-2.04-.576-.496-1.288-.808-2.136-.936v2.616c0,.816.152,1.4.456,1.752.288.352.648.528,1.08.528.464,0,.824-.176,1.08-.528s.384-.816.384-1.392Zm2.112-9.052h-11.904v-2.736l2.232-.288c-.768-.432-1.376-1.016-1.824-1.752-.464-.752-.696-1.632-.696-2.64h3.24v.864c0,.672.104,1.272.312,1.8s.568.944,1.08,1.248c.512.288,1.224.432,2.136.432h5.424v3.072Zm.288-14.4352c0,1.0562-.168,1.9842-.504,2.7842-.352.8-.832,1.44-1.44,1.92s-1.312.768-2.112.864v-3.096c.464-.096.864-.352,1.2-.768.32-.432.48-.9842.48-1.6562s-.136-1.16-.408-1.464c-.272-.32-.584-.48-.936-.48-.512,0-.856.224-1.032.672-.192.448-.376,1.072-.552,1.872-.112.5122-.248,1.0322-.408,1.5602s-.36,1.016-.6,1.464c-.256.432-.576.784-.96,1.056-.4.272-.888.408-1.464.408-1.056,0-1.944-.416-2.664-1.248-.72-.848-1.08-2.032-1.08-3.5522c0-1.408.328-2.528.984-3.36.656-.848,1.56-1.352,2.712-1.512v2.904c-.88.176-1.32.84-1.32,1.992c0,.5762.112,1.0242.336,1.3442.224.304.504.456.84.456.352,0,.632-.232.84-.696s.4-1.0802.576-1.8482c.192-.832.408-1.592.648-2.28.224-.704.568-1.264,1.032-1.68.448-.416,1.096-.624,1.944-.624.736-.016,1.4.176,1.992.576s1.056.976,1.392,1.728.504,1.64.504,2.664Z" transform="translate(-75 563)" fill="#fff"/></g></g><g><circle r="153" transform="translate(29 21)" fill="url(#ei35QUCP47y73-fill)" fill-opacity="0.15"/></g><g><ellipse rx="153" ry="233.5" transform="translate(463 372.5)" fill="url(#ei35QUCP47y75-fill)" fill-opacity="0.15"/></g><path d="M256,367l-6.928-12h13.856L256,367Z" transform="matrix(1.841803 0 0 1.841803-215.501575-303.890883)" fill="#fd2e2e"/></g><clipPath id="ei35QUCP47y77"><rect width="512" height="471" rx="0" ry="0" fill="#fff"/></clipPath></g>
<script><![CDATA[
!function(t,n){"object"==typeof exports&&"undefined"!=typeof module?module.exports=n():"function"==typeof __SVGATOR_DEFINE__&&__SVGATOR_DEFINE__.amd?__SVGATOR_DEFINE__(n):((t="undefined"!=typeof globalThis?globalThis:t||self).__SVGATOR_PLAYER__=t.__SVGATOR_PLAYER__||{},t.__SVGATOR_PLAYER__["7c8cb2ed"]=n())}(this,(function(){"use strict";function t(t,n){var e=Object.keys(t);if(Object.getOwnPropertySymbols){var r=Object.getOwnPropertySymbols(t);n&&(r=r.filter((function(n){return Object.getOwnPropertyDescriptor(t,n).enumerable}))),e.push.apply(e,r)}return e}function n(n){for(var e=1;e<arguments.length;e++){var r=null!=arguments[e]?arguments[e]:{};e%2?t(Object(r),!0).forEach((function(t){o(n,t,r[t])})):Object.getOwnPropertyDescriptors?Object.defineProperties(n,Object.getOwnPropertyDescriptors(r)):t(Object(r)).forEach((function(t){Object.defineProperty(n,t,Object.getOwnPropertyDescriptor(r,t))}))}return n}function e(t){return(e="function"==typeof Symbol&&"symbol"==typeof Symbol.iterator?function(t){return typeof t}:function(t){return t&&"function"==typeof Symbol&&t.constructor===Symbol&&t!==Symbol.prototype?"symbol":typeof t})(t)}function r(t,n){if(!(t instanceof n))throw new TypeError("Cannot call a class as a function")}function i(t,n){for(var e=0;e<n.length;e++){var r=n[e];r.enumerable=r.enumerable||!1,r.configurable=!0,"value"in r&&(r.writable=!0),Object.defineProperty(t,r.key,r)}}function u(t,n,e){return n&&i(t.prototype,n),e&&i(t,e),t}function o(t,n,e){return n in t?Object.defineProperty(t,n,{value:e,enumerable:!0,configurable:!0,writable:!0}):t[n]=e,t}function a(t){return(a=Object.setPrototypeOf?Object.getPrototypeOf:function(t){return t.__proto__||Object.getPrototypeOf(t)})(t)}function l(t,n){return(l=Object.setPrototypeOf||function(t,n){return t.__proto__=n,t})(t,n)}function f(){if("undefined"==typeof Reflect||!Reflect.construct)return!1;if(Reflect.construct.sham)return!1;if("function"==typeof Proxy)return!0;try{return Boolean.prototype.valueOf.call(Reflect.construct(Boolean,[],(function(){}))),!0}catch(t){return!1}}function s(t,n,e){return(s=f()?Reflect.construct:function(t,n,e){var r=[null];r.push.apply(r,n);var i=new(Function.bind.apply(t,r));return e&&l(i,e.prototype),i}).apply(null,arguments)}function c(t,n){if(n&&("object"==typeof n||"function"==typeof n))return n;if(void 0!==n)throw new TypeError("Derived constructors may only return object or undefined");return function(t){if(void 0===t)throw new ReferenceError("this hasn't been initialised - super() hasn't been called");return t}(t)}function h(t,n,e){return(h="undefined"!=typeof Reflect&&Reflect.get?Reflect.get:function(t,n,e){var r=function(t,n){for(;!Object.prototype.hasOwnProperty.call(t,n)&&null!==(t=a(t)););return t}(t,n);if(r){var i=Object.getOwnPropertyDescriptor(r,n);return i.get?i.get.call(e):i.value}})(t,n,e||t)}function v(t){return function(t){if(Array.isArray(t))return y(t)}(t)||function(t){if("undefined"!=typeof Symbol&&null!=t[Symbol.iterator]||null!=t["@@iterator"])return Array.from(t)}(t)||function(t,n){if(!t)return;if("string"==typeof t)return y(t,n);var e=Object.prototype.toString.call(t).slice(8,-1);"Object"===e&&t.constructor&&(e=t.constructor.name);if("Map"===e||"Set"===e)return Array.from(t);if("Arguments"===e||/^(?:Ui|I)nt(?:8|16|32)(?:Clamped)?Array$/.test(e))return y(t,n)}(t)||function(){throw new TypeError("Invalid attempt to spread non-iterable instance.\nIn order to be iterable, non-array objects must have a [Symbol.iterator]() method.")}()}function y(t,n){(null==n||n>t.length)&&(n=t.length);for(var e=0,r=new Array(n);e<n;e++)r[e]=t[e];return r}Number.isInteger||(Number.isInteger=function(t){return"number"==typeof t&&isFinite(t)&&Math.floor(t)===t}),Number.EPSILON||(Number.EPSILON=2220446049250313e-31);var g=d(Math.pow(10,-6));function d(t){var n=arguments.length>1&&void 0!==arguments[1]?arguments[1]:6;if(Number.isInteger(t))return t;var e=Math.pow(10,n);return Math.round((+t+Number.EPSILON)*e)/e}function p(t,n){var e=arguments.length>2&&void 0!==arguments[2]?arguments[2]:g;return Math.abs(t-n)<e}var m=Math.PI/180;function b(t){return t}function A(t,n,e){var r=1-e;return 3*e*r*(t*r+n*e)+e*e*e}function w(){var t=arguments.length>0&&void 0!==arguments[0]?arguments[0]:0,n=arguments.length>1&&void 0!==arguments[1]?arguments[1]:0,e=arguments.length>2&&void 0!==arguments[2]?arguments[2]:1,r=arguments.length>3&&void 0!==arguments[3]?arguments[3]:1;return t<0||t>1||e<0||e>1?null:p(t,n)&&p(e,r)?b:function(i){if(i<=0)return t>0?i*n/t:0===n&&e>0?i*r/e:0;if(i>=1)return e<1?1+(i-1)*(r-1)/(e-1):1===e&&t<1?1+(i-1)*(n-1)/(t-1):1;for(var u,o=0,a=1;o<a;){var l=A(t,e,u=(o+a)/2);if(p(i,l))break;l<i?o=u:a=u}return A(n,r,u)}}function x(){return 1}function _(t){return 1===t?1:0}function k(){var t=arguments.length>0&&void 0!==arguments[0]?arguments[0]:1,n=arguments.length>1&&void 0!==arguments[1]?arguments[1]:0;if(1===t){if(0===n)return _;if(1===n)return x}var e=1/t;return function(t){return t>=1?1:(t+=n*e)-t%e}}var S=Math.sin,O=Math.cos,E=Math.acos,j=Math.asin,I=Math.tan,M=Math.atan2,P=Math.PI/180,R=180/Math.PI,B=Math.sqrt,F=function(){function t(){var n=arguments.length>0&&void 0!==arguments[0]?arguments[0]:1,e=arguments.length>1&&void 0!==arguments[1]?arguments[1]:0,i=arguments.length>2&&void 0!==arguments[2]?arguments[2]:0,u=arguments.length>3&&void 0!==arguments[3]?arguments[3]:1,o=arguments.length>4&&void 0!==arguments[4]?arguments[4]:0,a=arguments.length>5&&void 0!==arguments[5]?arguments[5]:0;r(this,t),this.m=[n,e,i,u,o,a],this.i=null,this.w=null,this.s=null}return u(t,[{key:"determinant",get:function(){var t=this.m;return t[0]*t[3]-t[1]*t[2]}},{key:"isIdentity",get:function(){if(null===this.i){var t=this.m;this.i=1===t[0]&&0===t[1]&&0===t[2]&&1===t[3]&&0===t[4]&&0===t[5]}return this.i}},{key:"point",value:function(t,n){var e=this.m;return{x:e[0]*t+e[2]*n+e[4],y:e[1]*t+e[3]*n+e[5]}}},{key:"translateSelf",value:function(){var t=arguments.length>0&&void 0!==arguments[0]?arguments[0]:0,n=arguments.length>1&&void 0!==arguments[1]?arguments[1]:0;if(!t&&!n)return this;var e=this.m;return e[4]+=e[0]*t+e[2]*n,e[5]+=e[1]*t+e[3]*n,this.w=this.s=this.i=null,this}},{key:"rotateSelf",value:function(){var t=arguments.length>0&&void 0!==arguments[0]?arguments[0]:0;if(t%=360){var n=S(t*=P),e=O(t),r=this.m,i=r[0],u=r[1];r[0]=i*e+r[2]*n,r[1]=u*e+r[3]*n,r[2]=r[2]*e-i*n,r[3]=r[3]*e-u*n,this.w=this.s=this.i=null}return this}},{key:"scaleSelf",value:function(){var t=arguments.length>0&&void 0!==arguments[0]?arguments[0]:1,n=arguments.length>1&&void 0!==arguments[1]?arguments[1]:1;if(1!==t||1!==n){var e=this.m;e[0]*=t,e[1]*=t,e[2]*=n,e[3]*=n,this.w=this.s=this.i=null}return this}},{key:"skewSelf",value:function(t,n){if(n%=360,(t%=360)||n){var e=this.m,r=e[0],i=e[1],u=e[2],o=e[3];t&&(t=I(t*P),e[2]+=r*t,e[3]+=i*t),n&&(n=I(n*P),e[0]+=u*n,e[1]+=o*n),this.w=this.s=this.i=null}return this}},{key:"resetSelf",value:function(){var t=arguments.length>0&&void 0!==arguments[0]?arguments[0]:1,n=arguments.length>1&&void 0!==arguments[1]?arguments[1]:0,e=arguments.length>2&&void 0!==arguments[2]?arguments[2]:0,r=arguments.length>3&&void 0!==arguments[3]?arguments[3]:1,i=arguments.length>4&&void 0!==arguments[4]?arguments[4]:0,u=arguments.length>5&&void 0!==arguments[5]?arguments[5]:0,o=this.m;return o[0]=t,o[1]=n,o[2]=e,o[3]=r,o[4]=i,o[5]=u,this.w=this.s=this.i=null,this}},{key:"recomposeSelf",value:function(){var t=arguments.length>0&&void 0!==arguments[0]?arguments[0]:null,n=arguments.length>1&&void 0!==arguments[1]?arguments[1]:null,e=arguments.length>2&&void 0!==arguments[2]?arguments[2]:null,r=arguments.length>3&&void 0!==arguments[3]?arguments[3]:null,i=arguments.length>4&&void 0!==arguments[4]?arguments[4]:null;return this.isIdentity||this.resetSelf(),t&&(t.x||t.y)&&this.translateSelf(t.x,t.y),n&&this.rotateSelf(n),e&&(e.x&&this.skewSelf(e.x,0),e.y&&this.skewSelf(0,e.y)),!r||1===r.x&&1===r.y||this.scaleSelf(r.x,r.y),i&&(i.x||i.y)&&this.translateSelf(i.x,i.y),this}},{key:"decompose",value:function(){var t=arguments.length>0&&void 0!==arguments[0]?arguments[0]:0,n=arguments.length>1&&void 0!==arguments[1]?arguments[1]:0,e=this.m,r=e[0]*e[0]+e[1]*e[1],i=[[e[0],e[1]],[e[2],e[3]]],u=B(r);if(0===u)return{origin:{x:d(e[4]),y:d(e[5])},translate:{x:d(t),y:d(n)},scale:{x:0,y:0},skew:{x:0,y:0},rotate:0};i[0][0]/=u,i[0][1]/=u;var o=e[0]*e[3]-e[1]*e[2]<0;o&&(u=-u);var a=i[0][0]*i[1][0]+i[0][1]*i[1][1];i[1][0]-=i[0][0]*a,i[1][1]-=i[0][1]*a;var l=B(i[1][0]*i[1][0]+i[1][1]*i[1][1]);if(0===l)return{origin:{x:d(e[4]),y:d(e[5])},translate:{x:d(t),y:d(n)},scale:{x:d(u),y:0},skew:{x:0,y:0},rotate:0};i[1][0]/=l,i[1][1]/=l,a/=l;var f=0;return i[1][1]<0?(f=E(i[1][1])*R,i[0][1]<0&&(f=360-f)):f=j(i[0][1])*R,o&&(f=-f),a=M(a,B(i[0][0]*i[0][0]+i[0][1]*i[0][1]))*R,o&&(a=-a),{origin:{x:d(e[4]),y:d(e[5])},translate:{x:d(t),y:d(n)},scale:{x:d(u),y:d(l)},skew:{x:d(a),y:0},rotate:d(f)}}},{key:"clone",value:function(){var t=this.m;return new this.constructor(t[0],t[1],t[2],t[3],t[4],t[5])}},{key:"toString",value:function(){var t=arguments.length>0&&void 0!==arguments[0]?arguments[0]:" ";if(null===this.s){var n=this.m.map((function(t){return d(t)}));1===n[0]&&0===n[1]&&0===n[2]&&1===n[3]?this.s="translate("+n[4]+t+n[5]+")":this.s="matrix("+n.join(t)+")"}return this.s}}],[{key:"create",value:function(t){return t?Array.isArray(t)?s(this,v(t)):t instanceof this?t.clone():(new this).recomposeSelf(t.origin,t.rotate,t.skew,t.scale,t.translate):new this}}]),t}();function N(t,n,e){return t>=.5?e:n}function T(t,n,e){return 0===t||n===e?n:t*(e-n)+n}function q(t,n,e){var r=T(t,n,e);return r<=0?0:r}function D(t,n,e){var r=T(t,n,e);return r<=0?0:r>=1?1:r}function L(t,n,e){return 0===t?n:1===t?e:{x:T(t,n.x,e.x),y:T(t,n.y,e.y)}}function C(t,n,e){return 0===t?n:1===t?e:{x:q(t,n.x,e.x),y:q(t,n.y,e.y)}}function V(t,n,e){var r=function(t,n,e){return Math.round(T(t,n,e))}(t,n,e);return r<=0?0:r>=255?255:r}function G(t,n,e){return 0===t?n:1===t?e:{r:V(t,n.r,e.r),g:V(t,n.g,e.g),b:V(t,n.b,e.b),a:T(t,null==n.a?1:n.a,null==e.a?1:e.a)}}function z(t,n,e){var r=n.length;if(r!==e.length)return N(t,n,e);for(var i=new Array(r),u=0;u<r;u++)i[u]=T(t,n[u],e[u]);return i}function Y(t,n){for(var e=[],r=0;r<t;r++)e.push(n);return e}function $(t,n){if(--n<=0)return t;var e=(t=Object.assign([],t)).length;do{for(var r=0;r<e;r++)t.push(t[r])}while(--n>0);return t}var U,Q=function(){function t(n){r(this,t),this.list=n,this.length=n.length}return u(t,[{key:"setAttribute",value:function(t,n){for(var e=this.list,r=0;r<this.length;r++)e[r].setAttribute(t,n)}},{key:"removeAttribute",value:function(t){for(var n=this.list,e=0;e<this.length;e++)n[e].removeAttribute(t)}},{key:"style",value:function(t,n){for(var e=this.list,r=0;r<this.length;r++)e[r].style[t]=n}}]),t}(),H=/-./g,J=function(t,n){return n.toUpperCase()};function Z(t){return"function"==typeof t?t:N}function K(t){return t?"function"==typeof t?t:Array.isArray(t)?function(t){var n=arguments.length>1&&void 0!==arguments[1]?arguments[1]:b;if(!Array.isArray(t))return n;switch(t.length){case 1:return k(t[0])||n;case 2:return k(t[0],t[1])||n;case 4:return w(t[0],t[1],t[2],t[3])||n}return n}(t,null):function(t,n){var e=arguments.length>2&&void 0!==arguments[2]?arguments[2]:b;switch(t){case"linear":return b;case"steps":return k(n.steps||1,n.jump||0)||e;case"bezier":case"cubic-bezier":return w(n.x1||0,n.y1||0,n.x2||0,n.y2||0)||e}return e}(t.type,t.value,null):null}function W(t,n,e){var r=arguments.length>3&&void 0!==arguments[3]&&arguments[3],i=n.length-1;if(t<=n[0].t)return r?[0,0,n[0].v]:n[0].v;if(t>=n[i].t)return r?[i,1,n[i].v]:n[i].v;var u,o=n[0],a=null;for(u=1;u<=i;u++){if(!(t>n[u].t)){a=n[u];break}o=n[u]}return null==a?r?[i,1,n[i].v]:n[i].v:o.t===a.t?r?[u,1,a.v]:a.v:(t=(t-o.t)/(a.t-o.t),o.e&&(t=o.e(t)),r?[u,t,e(t,o.v,a.v)]:e(t,o.v,a.v))}function X(t,n){var e=arguments.length>2&&void 0!==arguments[2]?arguments[2]:null;return t&&t.length?"function"!=typeof n?null:("function"!=typeof e&&(e=null),function(r){var i=W(r,t,n);return null!=i&&e&&(i=e(i)),i}):null}function tt(t,n){return t.t-n.t}function nt(t,n,r,i,u){var o,a="@"===r[0],l="#"===r[0],f=U[r],s=N;switch(a?(o=r.substr(1),r=o.replace(H,J)):l&&(r=r.substr(1)),e(f)){case"function":if(s=f(i,u,W,K,r,a,n,t),l)return s;break;case"string":s=X(i,Z(f));break;case"object":if((s=X(i,Z(f.i),f.f))&&"function"==typeof f.u)return f.u(n,s,r,a,t)}return s?function(t,n,e){if(arguments.length>3&&void 0!==arguments[3]&&arguments[3])return t instanceof Q?function(r){return t.style(n,e(r))}:function(r){return t.style[n]=e(r)};if(Array.isArray(n)){var r=n.length;return function(i){var u=e(i);if(null==u)for(var o=0;o<r;o++)t[o].removeAttribute(n);else for(var a=0;a<r;a++)t[a].setAttribute(n,u)}}return function(r){var i=e(r);null==i?t.removeAttribute(n):t.setAttribute(n,i)}}(n,r,s,a):null}function et(t,n,r,i){if(!i||"object"!==e(i))return null;var u=null,o=null;return Array.isArray(i)?o=function(t){if(!t||!t.length)return null;for(var n=0;n<t.length;n++)t[n].e&&(t[n].e=K(t[n].e));return t.sort(tt)}(i):(o=i.keys,u=i.data||null),o?nt(t,n,r,o,u):null}function rt(t,n,e){if(!e)return null;var r=[];for(var i in e)if(e.hasOwnProperty(i)){var u=et(t,n,i,e[i]);u&&r.push(u)}return r.length?r:null}function it(t,n){if(!n.settings.duration||n.settings.duration<0)return null;var e,r,i,u,o,a=function(t,n){if(!n)return null;var e=[];if(Array.isArray(n))for(var r=n.length,i=0;i<r;i++){var u=n[i];if(2===u.length){var o=null;if("string"==typeof u[0])o=t.getElementById(u[0]);else if(Array.isArray(u[0])){o=[];for(var a=0;a<u[0].length;a++)if("string"==typeof u[0][a]){var l=t.getElementById(u[0][a]);l&&o.push(l)}o=o.length?1===o.length?o[0]:new Q(o):null}if(o){var f=rt(t,o,u[1]);f&&(e=e.concat(f))}}}else for(var s in n)if(n.hasOwnProperty(s)){var c=t.getElementById(s);if(c){var h=rt(t,c,n[s]);h&&(e=e.concat(h))}}return e.length?e:null}(t,n.elements);return a?(e=a,r=n.settings,i=r.duration,u=e.length,o=null,function(t,n){var a=r.iterations||1/0,l=(r.alternate&&a%2==0)^r.direction>0?i:0,f=t%i,s=1+(t-f)/i;n*=r.direction,r.alternate&&s%2==0&&(n=-n);var c=!1;if(s>a)f=l,c=!0,-1===r.fill&&(f=r.direction>0?0:i);else if(n<0&&(f=i-f),f===o)return!1;o=f;for(var h=0;h<u;h++)e[h](f);return c}):null}function ut(t,n){if(U=n,!t||!t.root||!Array.isArray(t.animations))return null;var e=function(t){for(var n=document.getElementsByTagName("svg"),e=0;e<n.length;e++)if(n[e].id===t.root&&!n[e].svgatorAnimation)return n[e].svgatorAnimation=!0,n[e];return null}(t);if(!e)return null;var r=t.animations.map((function(t){return it(e,t)})).filter((function(t){return!!t}));return r.length?{svg:e,animations:r,animationSettings:t.animationSettings,options:t.options||void 0}:null}function ot(t){var n=arguments.length>1&&void 0!==arguments[1]?arguments[1]:null,e=arguments.length>2&&void 0!==arguments[2]?arguments[2]:Number,r=arguments.length>3&&void 0!==arguments[3]?arguments[3]:"undefined"!=typeof BigInt&&BigInt,i="0x"+(t.replace(/[^0-9a-fA-F]+/g,"")||27);return n&&r&&e.isSafeInteger&&!e.isSafeInteger(+i)?e(r(i))%n+n:+i}function at(t,n,e){return!t||!e||n>t.length?t:t.substring(0,n)+at(t.substring(n+1),e,e)}function lt(t){var n=arguments.length>1&&void 0!==arguments[1]?arguments[1]:27;return!t||t%n?t%n:[0,1].includes(n)?n:lt(t/n,n)}function ft(t,n,e){if(t&&t.length){var r=ot(e),i=lt(r)+5,u=at(t,lt(r,5),i);return u=u.replace(/\x7c$/g,"==").replace(/\x2f$/g,"="),u=function(t,n,e){var r=+("0x"+t.substring(0,4));t=t.substring(4);for(var i=ot(n,r)%r+e%27,u=[],o=0;o<t.length;o+=2)if("|"!==t[o]){var a=+("0x"+t[o]+t[o+1])-i;u.push(a)}else{var l=+("0x"+t.substring(o+1,o+1+4))-i;o+=3,u.push(l)}return String.fromCharCode.apply(String,u)}(u=(u=atob(u)).replace(/[\x41-\x5A]/g,""),n,r),u=JSON.parse(u)}}var st=[{key:"alternate",def:!1},{key:"fill",def:1},{key:"iterations",def:0},{key:"direction",def:1},{key:"speed",def:1},{key:"fps",def:100}],ct=function(){function t(n,e){var i=this,u=arguments.length>2&&void 0!==arguments[2]?arguments[2]:null;r(this,t),this._id=0,this._running=!1,this._rollingBack=!1,this._animations=n,this._settings=e,(!u||u<"2022-05-02")&&delete this._settings.speed,st.forEach((function(t){i._settings[t.key]=i._settings[t.key]||t.def})),this.duration=e.duration,this.offset=e.offset||0,this.rollbackStartOffset=0}return u(t,[{key:"alternate",get:function(){return this._settings.alternate}},{key:"fill",get:function(){return this._settings.fill}},{key:"iterations",get:function(){return this._settings.iterations}},{key:"direction",get:function(){return this._settings.direction}},{key:"speed",get:function(){return this._settings.speed}},{key:"fps",get:function(){return this._settings.fps}},{key:"maxFiniteDuration",get:function(){return this.iterations>0?this.iterations*this.duration:this.duration}},{key:"_apply",value:function(t){for(var n=arguments.length>1&&void 0!==arguments[1]?arguments[1]:{},e=this._animations,r=e.length,i=0,u=0;u<r;u++)n[u]?i++:(n[u]=e[u](t,1),n[u]&&i++);return i}},{key:"_rollback",value:function(t){var n=this,e=1/0,r=null;this.rollbackStartOffset=t,this._rollingBack=!0,this._running=!0;this._id=window.requestAnimationFrame((function i(u){if(n._rollingBack){null==r&&(r=u);var o=Math.round(t-(u-r)*n.speed);if(o>n.duration&&e!==1/0){var a=!!n.alternate&&o/n.duration%2>1,l=o%n.duration;o=(l+=a?n.duration:0)||n.duration}var f=(n.fps?1e3/n.fps:0)*n.speed,s=Math.max(0,o);s<=e-f&&(n.offset=s,e=s,n._apply(s));var c=n.iterations>0&&-1===n.fill&&o>=n.maxFiniteDuration;(o<=0||n.offset<o||c)&&n.stop(),n._id=window.requestAnimationFrame(i)}}))}},{key:"_start",value:function(){var t=this,n=arguments.length>0&&void 0!==arguments[0]?arguments[0]:0,e=-1/0,r=null,i={};this._running=!0;var u=function u(o){null==r&&(r=o);var a=Math.round((o-r)*t.speed+n),l=(t.fps?1e3/t.fps:0)*t.speed;if(a>=e+l&&!t._rollingBack&&(t.offset=a,e=a,t._apply(a,i)===t._animations.length))return void t.pause(!0);t._id=window.requestAnimationFrame(u)};this._id=window.requestAnimationFrame(u)}},{key:"_pause",value:function(){this._id&&window.cancelAnimationFrame(this._id),this._running=!1}},{key:"play",value:function(){if(!this._running)return this._rollingBack?this._rollback(this.offset):this._start(this.offset)}},{key:"stop",value:function(){this._pause(),this.offset=0,this.rollbackStartOffset=0,this._rollingBack=!1,this._apply(0)}},{key:"reachedToEnd",value:function(){return this.iterations>0&&this.offset>=this.iterations*this.duration}},{key:"restart",value:function(){var t=arguments.length>0&&void 0!==arguments[0]&&arguments[0];this.stop(t),this.play(t)}},{key:"pause",value:function(){this._pause()}},{key:"reverse",value:function(){this.direction=-this.direction}}],[{key:"build",value:function(t,n){delete t.animationSettings,t.options=ft(t.options,t.root,"7c8cb2ed"),t.animations.map((function(n){n.settings=ft(n.s,t.root,"7c8cb2ed"),delete n.s,t.animationSettings||(t.animationSettings=n.settings)}));var e=t.version;if(!(t=ut(t,n)))return null;var r=t.options||{},i=new this(t.animations,t.animationSettings,e);return{el:t.svg,options:r,player:i}}},{key:"push",value:function(t){return this.build(t)}},{key:"init",value:function(){var t=this,n=window.__SVGATOR_PLAYER__&&window.__SVGATOR_PLAYER__["7c8cb2ed"];Array.isArray(n)&&n.splice(0).forEach((function(n){return t.build(n)}))}}]),t}();function ht(t){return d(t)+""}function vt(t){var n=arguments.length>1&&void 0!==arguments[1]?arguments[1]:" ";return t&&t.length?t.map(ht).join(n):""}function yt(t){return ht(t.x)+","+ht(t.y)}function gt(t){if(!t)return"transparent";if(null==t.a||t.a>=1){var n=function(t){return 1===(t=parseInt(t).toString(16)).length?"0"+t:t},e=function(t){return t.charAt(0)===t.charAt(1)},r=n(t.r),i=n(t.g),u=n(t.b);return e(r)&&e(i)&&e(u)&&(r=r.charAt(0),i=i.charAt(0),u=u.charAt(0)),"#"+r+i+u}return"rgba("+t.r+","+t.g+","+t.b+","+t.a+")"}function dt(t){return t?"url(#"+t+")":"none"}!function(){for(var t=0,n=["ms","moz","webkit","o"],e=0;e<n.length&&!window.requestAnimationFrame;++e)window.requestAnimationFrame=window[n[e]+"RequestAnimationFrame"],window.cancelAnimationFrame=window[n[e]+"CancelAnimationFrame"]||window[n[e]+"CancelRequestAnimationFrame"];window.requestAnimationFrame||(window.requestAnimationFrame=function(n){var e=Date.now(),r=Math.max(0,16-(e-t)),i=window.setTimeout((function(){n(e+r)}),r);return t=e+r,i},window.cancelAnimationFrame=window.clearTimeout)}();var pt={f:null,i:C,u:function(t,n){return function(e){var r=n(e);t.setAttribute("rx",ht(r.x)),t.setAttribute("ry",ht(r.y))}}},mt={f:null,i:function(t,n,e){return 0===t?n:1===t?e:{width:q(t,n.width,e.width),height:q(t,n.height,e.height)}},u:function(t,n){return function(e){var r=n(e);t.setAttribute("width",ht(r.width)),t.setAttribute("height",ht(r.height))}}};Object.freeze({M:2,L:2,Z:0,H:1,V:1,C:6,Q:4,T:2,S:4,A:7});var bt={},At=null;function wt(t){var n=function(){if(At)return At;if("object"!==("undefined"==typeof document?"undefined":e(document))||!document.createElementNS)return{};var t=document.createElementNS("http://www.w3.org/2000/svg","svg");return t&&t.style?(t.style.position="absolute",t.style.opacity="0.01",t.style.zIndex="-9999",t.style.left="-9999px",t.style.width="1px",t.style.height="1px",At={svg:t}):{}}().svg;if(!n)return function(t){return null};var r=document.createElementNS(n.namespaceURI,"path");r.setAttributeNS(null,"d",t),r.setAttributeNS(null,"fill","none"),r.setAttributeNS(null,"stroke","none"),n.appendChild(r);var i=r.getTotalLength();return function(t){var n=r.getPointAtLength(i*t);return{x:n.x,y:n.y}}}function xt(t){return bt[t]?bt[t]:bt[t]=wt(t)}function _t(t,n,e,r){if(!t||!r)return!1;var i=["M",t.x,t.y];if(n&&e&&(i.push("C"),i.push(n.x),i.push(n.y),i.push(e.x),i.push(e.y)),n?!e:e){var u=n||e;i.push("Q"),i.push(u.x),i.push(u.y)}return n||e||i.push("L"),i.push(r.x),i.push(r.y),i.join(" ")}function kt(t,n,e,r){var i=arguments.length>4&&void 0!==arguments[4]?arguments[4]:1,u=_t(t,n,e,r),o=xt(u);try{return o(i)}catch(t){return null}}function St(t,n,e){return t+(n-t)*e}function Ot(t,n,e){var r=arguments.length>3&&void 0!==arguments[3]&&arguments[3],i={x:St(t.x,n.x,e),y:St(t.y,n.y,e)};return r&&(i.a=Et(t,n)),i}function Et(t,n){return Math.atan2(n.y-t.y,n.x-t.x)}function jt(t,n,e,r){var i=1-r;return i*i*t+2*i*r*n+r*r*e}function It(t,n,e,r){return 2*(1-r)*(n-t)+2*r*(e-n)}function Mt(t,n,e,r){var i=arguments.length>4&&void 0!==arguments[4]&&arguments[4],u=kt(t,n,null,e,r);return u||(u={x:jt(t.x,n.x,e.x,r),y:jt(t.y,n.y,e.y,r)}),i&&(u.a=Pt(t,n,e,r)),u}function Pt(t,n,e,r){return Math.atan2(It(t.y,n.y,e.y,r),It(t.x,n.x,e.x,r))}function Rt(t,n,e,r,i){var u=i*i;return i*u*(r-t+3*(n-e))+3*u*(t+e-2*n)+3*i*(n-t)+t}function Bt(t,n,e,r,i){var u=1-i;return 3*(u*u*(n-t)+2*u*i*(e-n)+i*i*(r-e))}function Ft(t,n,e,r,i){var u=arguments.length>5&&void 0!==arguments[5]&&arguments[5],o=kt(t,n,e,r,i);return o||(o={x:Rt(t.x,n.x,e.x,r.x,i),y:Rt(t.y,n.y,e.y,r.y,i)}),u&&(o.a=Nt(t,n,e,r,i)),o}function Nt(t,n,e,r,i){return Math.atan2(Bt(t.y,n.y,e.y,r.y,i),Bt(t.x,n.x,e.x,r.x,i))}function Tt(t,n,e){var r=arguments.length>3&&void 0!==arguments[3]&&arguments[3];if(Dt(n)){if(Lt(e))return Mt(n,e.start,e,t,r)}else if(Dt(e)){if(Ct(n))return Mt(n,n.end,e,t,r)}else{if(Ct(n))return Lt(e)?Ft(n,n.end,e.start,e,t,r):Mt(n,n.end,e,t,r);if(Lt(e))return Mt(n,e.start,e,t,r)}return Ot(n,e,t,r)}function qt(t,n,e){var r=Tt(t,n,e,!0);return r.a=function(t){return arguments.length>1&&void 0!==arguments[1]&&arguments[1]?t+Math.PI:t}(r.a)/m,r}function Dt(t){return!t.type||"corner"===t.type}function Lt(t){return null!=t.start&&!Dt(t)}function Ct(t){return null!=t.end&&!Dt(t)}var Vt=new F;var Gt={f:function(t){return t?t.join(" "):""},i:function(t,n,r){if(0===t)return n;if(1===t)return r;var i=n.length;if(i!==r.length)return N(t,n,r);for(var u,o=new Array(i),a=0;a<i;a++){if((u=e(n[a]))!==e(r[a]))return N(t,n,r);if("number"===u)o[a]=T(t,n[a],r[a]);else{if(n[a]!==r[a])return N(t,n,r);o[a]=n[a]}}return o}},zt={f:null,i:z,u:function(t,n){return function(e){var r=n(e);t.setAttribute("x1",ht(r[0])),t.setAttribute("y1",ht(r[1])),t.setAttribute("x2",ht(r[2])),t.setAttribute("y2",ht(r[3]))}}},Yt={f:ht,i:T},$t={f:ht,i:D},Ut={f:function(t){var n=arguments.length>1&&void 0!==arguments[1]?arguments[1]:" ";return t&&t.length>0&&(t=t.map((function(t){return d(t,4)}))),vt(t,n)},i:function(t,n,e){var r,i,u,o=n.length,a=e.length;if(o!==a)if(0===o)n=Y(o=a,0);else if(0===a)a=o,e=Y(o,0);else{var l=(u=(r=o)*(i=a)/function(t,n){for(var e;n;)e=n,n=t%n,t=e;return t||1}(r,i))<0?-u:u;n=$(n,Math.floor(l/o)),e=$(e,Math.floor(l/a)),o=a=l}for(var f=[],s=0;s<o;s++)f.push(d(q(t,n[s],e[s])));return f}};function Qt(t,n,e){return t.map((function(t){return function(t,n,e){var r=t.v;if(!r||"g"!==r.t||r.s||!r.v||!r.r)return t;var i=e.getElementById(r.r),u=i&&i.querySelectorAll("stop")||[];return r.s=r.v.map((function(t,n){var e=u[n]&&u[n].getAttribute("offset");return{c:t,o:e=d(parseInt(e)/100)}})),delete r.v,t}(t,0,e)}))}var Ht={gt:"gradientTransform",c:{x:"cx",y:"cy"},rd:"r",f:{x:"x1",y:"y1"},to:{x:"x2",y:"y2"}};function Jt(t,n,r,i,u,o,a,l){return Qt(t,0,l),n=function(t,n,e){for(var r,i,u,o=t.length-1,a={},l=0;l<=o;l++)(r=t[l]).e&&(r.e=n(r.e)),r.v&&"g"===(i=r.v).t&&i.r&&(u=e.getElementById(i.r))&&(a[i.r]={e:u,s:u.querySelectorAll("stop")});return a}(t,i,l),function(i){var u=r(i,t,Zt);if(!u)return"none";if("c"===u.t)return gt(u.v);if("g"===u.t){if(!n[u.r])return dt(u.r);var o=n[u.r];return function(t,n){for(var e=t.s,r=e.length;r<n.length;r++){var i=e[e.length-1].cloneNode();i.id=Xt(i.id),t.e.appendChild(i),e=t.s=t.e.querySelectorAll("stop")}for(var u=0,o=e.length,a=n.length-1;u<o;u++)e[u].setAttribute("stop-color",gt(n[Math.min(u,a)].c)),e[u].setAttribute("offset",n[Math.min(u,a)].o)}(o,u.s),Object.keys(Ht).forEach((function(t){if(void 0!==u[t])if("object"!==e(Ht[t])){var n,r="gt"===t?(n=u[t],Array.isArray(n)?"matrix("+n.join(" ")+")":""):u[t],i=Ht[t];o.e.setAttribute(i,r)}else Object.keys(Ht[t]).forEach((function(n){if(void 0!==u[t][n]){var e=u[t][n],r=Ht[t][n];o.e.setAttribute(r,e)}}))})),dt(u.r)}return"none"}}function Zt(t,e,r){if(0===t)return e;if(1===t)return r;if(e&&r){var i=e.t;if(i===r.t)switch(e.t){case"c":return{t:i,v:G(t,e.v,r.v)};case"g":if(e.r===r.r){var u={t:i,s:Kt(t,e.s,r.s),r:e.r};return e.gt&&r.gt&&(u.gt=z(t,e.gt,r.gt)),e.c?(u.c=L(t,e.c,r.c),u.rd=q(t,e.rd,r.rd)):e.f&&(u.f=L(t,e.f,r.f),u.to=L(t,e.to,r.to)),u}}if("c"===e.t&&"g"===r.t||"c"===r.t&&"g"===e.t){var o="c"===e.t?e:r,a="g"===e.t?n({},e):n({},r),l=a.s.map((function(t){return{c:o.v,o:t.o}}));return a.s="c"===e.t?Kt(t,l,a.s):Kt(t,a.s,l),a}}return N(t,e,r)}function Kt(t,n,e){if(n.length===e.length)return n.map((function(n,r){return Wt(t,n,e[r])}));for(var r=Math.max(n.length,e.length),i=[],u=0;u<r;u++){var o=Wt(t,n[Math.min(u,n.length-1)],e[Math.min(u,e.length-1)]);i.push(o)}return i}function Wt(t,n,e){return{o:D(t,n.o,e.o||0),c:G(t,n.c,e.c||{})}}function Xt(t){return t.replace(/-fill-([0-9]+)$/,(function(t,n){return"-fill-"+(+n+1)}))}var tn={blur:C,brightness:q,contrast:q,"drop-shadow":function(t,n,e){return 0===t?n:1===t?e:{blur:C(t,n.blur,e.blur),offset:L(t,n.offset,e.offset),color:G(t,n.color,e.color)}},grayscale:q,"hue-rotate":T,invert:q,opacity:q,saturate:q,sepia:q};function nn(t,n,e){if(0===t)return n;if(1===t)return e;var r=n.length;if(r!==e.length)return N(t,n,e);for(var i,u=[],o=0;o<r;o++){if(n[o].type!==e[o].type)return n;if(!(i=tn[n[o].type]))return N(t,n,e);u.push({type:n.type,value:i(t,n[o].value,e[o].value)})}return u}var en={blur:function(t){return t?function(n){t.setAttribute("stdDeviation",yt(n))}:null},brightness:function(t,n,e){return(t=un(e,n))?function(n){n=ht(n),t.map((function(t){return t.setAttribute("slope",n)}))}:null},contrast:function(t,n,e){return(t=un(e,n))?function(n){var e=ht((1-n)/2);n=ht(n),t.map((function(t){t.setAttribute("slope",n),t.setAttribute("intercept",e)}))}:null},"drop-shadow":function(t,n,e){var r=e.getElementById(n+"-blur");if(!r)return null;var i=e.getElementById(n+"-offset");if(!i)return null;var u=e.getElementById(n+"-flood");return u?function(t){r.setAttribute("stdDeviation",yt(t.blur)),i.setAttribute("dx",ht(t.offset.x)),i.setAttribute("dy",ht(t.offset.y)),u.setAttribute("flood-color",gt(t.color))}:null},grayscale:function(t){return t?function(n){t.setAttribute("values",vt(function(t){return[.2126+.7874*(t=1-t),.7152-.7152*t,.0722-.0722*t,0,0,.2126-.2126*t,.7152+.2848*t,.0722-.0722*t,0,0,.2126-.2126*t,.7152-.7152*t,.0722+.9278*t,0,0,0,0,0,1,0]}(n)))}:null},"hue-rotate":function(t){return t?function(n){return t.setAttribute("values",ht(n))}:null},invert:function(t,n,e){return(t=un(e,n))?function(n){n=ht(n)+" "+ht(1-n),t.map((function(t){return t.setAttribute("tableValues",n)}))}:null},opacity:function(t,n,e){return(t=e.getElementById(n+"-A"))?function(n){return t.setAttribute("tableValues","0 "+ht(n))}:null},saturate:function(t){return t?function(n){return t.setAttribute("values",ht(n))}:null},sepia:function(t){return t?function(n){return t.setAttribute("values",vt(function(t){return[.393+.607*(t=1-t),.769-.769*t,.189-.189*t,0,0,.349-.349*t,.686+.314*t,.168-.168*t,0,0,.272-.272*t,.534-.534*t,.131+.869*t,0,0,0,0,0,1,0]}(n)))}:null}};var rn=["R","G","B"];function un(t,n){var e=rn.map((function(e){return t.getElementById(n+"-"+e)||null}));return-1!==e.indexOf(null)?null:e}var on={fill:Jt,"fill-opacity":$t,stroke:Jt,"stroke-opacity":$t,"stroke-width":Yt,"stroke-dashoffset":{f:ht,i:T},"stroke-dasharray":Ut,opacity:$t,transform:function(t,n,r,i){if(!(t=function(t,n){if(!t||"object"!==e(t))return null;var r=!1;for(var i in t)t.hasOwnProperty(i)&&(t[i]&&t[i].length?(t[i].forEach((function(t){t.e&&(t.e=n(t.e))})),r=!0):delete t[i]);return r?t:null}(t,i)))return null;var u=function(e,i,u){var o=arguments.length>3&&void 0!==arguments[3]?arguments[3]:null;return t[e]?r(i,t[e],u):n&&n[e]?n[e]:o};return n&&n.a&&t.o?function(n){var e=r(n,t.o,qt);return Vt.recomposeSelf(e,u("r",n,T,0)+e.a,u("k",n,L),u("s",n,L),u("t",n,L)).toString()}:function(t){return Vt.recomposeSelf(u("o",t,Tt,null),u("r",t,T,0),u("k",t,L),u("s",t,L),u("t",t,L)).toString()}},"#filter":function(t,n,e,r,i,u,o,a){if(!n.items||!t||!t.length)return null;var l=function(t,n){var e=(t=t.map((function(t){return t&&en[t[0]]?(n.getElementById(t[1]),en[t[0]](n.getElementById(t[1]),t[1],n)):null}))).length;return function(n){for(var r=0;r<e;r++)t[r]&&t[r](n[r].value)}}(n.items,a);return l?(t=function(t,n){return t.map((function(t){return t.e=n(t.e),t}))}(t,r),function(n){l(e(n,t,nn))}):null},"#line":zt,points:{f:vt,i:z},d:Gt,r:Yt,"#size":mt,"#radius":pt,_:function(t,n){if(Array.isArray(t))for(var e=0;e<t.length;e++)this[t[e]]=n;else this[t]=n}},an=function(t){!function(t,n){if("function"!=typeof n&&null!==n)throw new TypeError("Super expression must either be null or a function");t.prototype=Object.create(n&&n.prototype,{constructor:{value:t,writable:!0,configurable:!0}}),n&&l(t,n)}(o,t);var n,e,i=(n=o,e=f(),function(){var t,r=a(n);if(e){var i=a(this).constructor;t=Reflect.construct(r,arguments,i)}else t=r.apply(this,arguments);return c(this,t)});function o(){return r(this,o),i.apply(this,arguments)}return u(o,null,[{key:"build",value:function(t){var n=h(a(o),"build",this).call(this,t,on);if(!n)return null;n.el,n.options,function(t,n,e){t.play()}(n.player)}}]),o}(ct);return an.init(),an}));
(function(s,i,o,w,d,a,b){w[o]=w[o]||{};w[o][s]=w[o][s]||[];w[o][s].push(i);})('7c8cb2ed',{"root":"ei35QUCP47y1","version":"2022-05-04","animations":[{"elements":{"ei35QUCP47y14":{"transform":{"data":{"t":{"x":-254,"y":-321.5}},"keys":{"o":[{"t":1000,"v":{"x":254,"y":301.5,"type":"corner"}},{"t":2000,"v":{"x":254,"y":257.5,"type":"corner"}},{"t":3000,"v":{"x":254,"y":207.5,"type":"corner"}},{"t":4000,"v":{"x":254,"y":182.5,"type":"corner"}}],"s":[{"t":0,"v":{"x":1,"y":1}},{"t":1000,"v":{"x":1.000002,"y":1.255542}}]}}},"ei35QUCP47y17":{"transform":{"data":{"t":{"x":-208.608497,"y":-314.887497}},"keys":{"o":[{"t":0,"v":{"x":208.608498,"y":324.887497,"type":"corner"}},{"t":1000,"v":{"x":208.608498,"y":164.887497,"type":"corner"}}],"s":[{"t":0,"v":{"x":0.046837,"y":0.046837}},{"t":1000,"v":{"x":0.960499,"y":0.960499}}]}}},"ei35QUCP47y23":{"transform":{"data":{"t":{"x":-277.245926,"y":-336.29779}},"keys":{"o":[{"t":0,"v":{"x":277.245926,"y":346.297791,"type":"corner"}},{"t":1000,"v":{"x":277.245926,"y":186.297791,"type":"corner"}}],"s":[{"t":0,"v":{"x":0.339421,"y":0.339421}},{"t":1000,"v":{"x":1.082382,"y":1.082382}}]}}},"ei35QUCP47y27":{"transform":{"data":{"t":{"x":-231.246063,"y":-262.297791}},"keys":{"o":[{"t":2000,"v":{"x":231.589071,"y":314.961865,"type":"corner"}},{"t":3000,"v":{"x":221.589071,"y":100.961865,"type":"corner"}}],"s":[{"t":2000,"v":{"x":0.1308,"y":0.1308}},{"t":3000,"v":{"x":1.487632,"y":1.487632}}]}}},"ei35QUCP47y31":{"transform":{"data":{"t":{"x":-288.453492,"y":-280.559006}},"keys":{"o":[{"t":1010,"v":{"x":288.453492,"y":318.559952,"type":"corner"}},{"t":2000,"v":{"x":288.453492,"y":119.959952,"type":"corner"}}],"s":[{"t":1000,"v":{"x":0.130929,"y":0.130929}},{"t":2000,"v":{"x":0.963422,"y":0.963422}}]}}},"ei35QUCP47y37":{"transform":{"data":{"t":{"x":-254.544998,"y":-205.546501}},"keys":{"o":[{"t":3000,"v":{"x":254.544998,"y":315.546501,"type":"corner"}},{"t":4000,"v":{"x":254.544998,"y":45.546501,"type":"corner"}}],"s":[{"t":3000,"v":{"x":0.070792,"y":0.070792}},{"t":4000,"v":{"x":0.977782,"y":0.977782}}]}}},"ei35QUCP47y65":{"transform":{"data":{"o":{"x":257.049011,"y":699.60791,"type":"corner"},"t":{"x":-257.049011,"y":-699.60791}},"keys":{"r":[{"t":0,"v":0},{"t":300,"v":-0.018963},{"t":1300,"v":-90},{"t":1600,"v":-90},{"t":2600,"v":-180},{"t":2900,"v":-180.190745},{"t":3900,"v":-270},{"t":4200,"v":-270.453707},{"t":5000,"v":-269.65514}]}}}},"s":"MDA1HZGM4NmZiMWMyYmZhZUxjMUNiKNmJjYmI2Zjg3ODJPN2RXN2Q3MZDc5NmZiMWI2YmZiMmIwYzFiNNmJjYmI2Zjg3N2U3OTZmYjZjLMWIyYmZSYWVjMWI2YmNiYmMwWNmY4NzdkNzk2ZmIzYjZGYjliROTZmQzg3N2U3OTZmYWViOUtjNMWIyYmZiYmFlYzFUYjI2Zjg3VYjNhZWI5YzBiMjc5NmZjMGJkVYjJiMmIxNmY4N083ZTc5NmZiNM2JkYzA2Zjg3N2U3ZDdkY2E/K"}],"options":"MDAxTMEc4ZjM2Tjg3ODg3NTg2ODgzDNlY0ZTM2ODA4M1Q3NTc4MzY5AMQ|"},'__SVGATOR_PLAYER__',window,document)
]]></script>
</svg>
