<svg id="Layer_1" data-name="Layer 1" xmlns="http://www.w3.org/2000/svg" xmlns:xlink="http://www.w3.org/1999/xlink" viewBox="0 0 176.37 123.8"><defs><style>.cls-1{fill:url(#linear-gradient);}.cls-2{fill:url(#linear-gradient-2);}.cls-3{fill:url(#linear-gradient-3);}</style><linearGradient id="linear-gradient" x1="161.6" y1="198.89" x2="337.96" y2="198.89" gradientUnits="userSpaceOnUse"><stop offset="0" stop-color="#dfb22c"/><stop offset="0.34" stop-color="#eee686"/><stop offset="0.73" stop-color="#dfb22c"/><stop offset="1" stop-color="#efe888"/></linearGradient><linearGradient id="linear-gradient-2" x1="161.6" y1="249.77" x2="337.96" y2="249.77" xlink:href="#linear-gradient"/><linearGradient id="linear-gradient-3" x1="161.6" y1="300.64" x2="337.96" y2="300.64" xlink:href="#linear-gradient"/></defs><g id="_1" data-name="1"><path class="cls-1" d="M326.94,209.92H172.62a11,11,0,0,1-11-11h0a11,11,0,0,1,11-11H326.94a11,11,0,0,1,11,11h0A11,11,0,0,1,326.94,209.92Z" transform="translate(-161.6 -187.87)"/><path class="cls-2" d="M326.94,260.79H172.62a11,11,0,0,1-11-11h0a11,11,0,0,1,11-11H326.94a11,11,0,0,1,11,11h0A11,11,0,0,1,326.94,260.79Z" transform="translate(-161.6 -187.87)"/><path class="cls-3" d="M326.94,311.67H172.62a11,11,0,0,1-11-11h0a11,11,0,0,1,11-11H326.94a11,11,0,0,1,11,11h0A11,11,0,0,1,326.94,311.67Z" transform="translate(-161.6 -187.87)"/></g></svg>