<?xml version="1.0" encoding="UTF-8"?>
<svg xmlns="http://www.w3.org/2000/svg" xmlns:xlink="http://www.w3.org/1999/xlink" viewBox="0 0 64 64" width="512" height="512"><defs><style>.cls-1{fill:url(#linear-gradient);}</style><linearGradient id="linear-gradient" x1="3.25" y1="32" x2="60.75" y2="32" gradientUnits="userSpaceOnUse"><stop offset="0" stop-color="#5bb4f6"/><stop offset="0.61" stop-color="#2191e5"/><stop offset="1" stop-color="#007edb"/></linearGradient></defs><g id="Layer_87" data-name="Layer 87"><path class="cls-1" d="M32,3.25h0A28.75,28.75,0,0,0,3.25,32h0A28.75,28.75,0,0,0,32,60.75h0A28.75,28.75,0,0,0,60.75,32h0A28.75,28.75,0,0,0,32,3.25Zm10.81,45.5a5.94,5.94,0,1,1,5.94-5.94A5.95,5.95,0,0,1,42.81,48.75ZM29.09,15.25a6.44,6.44,0,1,1-6.43,6.43A6.44,6.44,0,0,1,29.09,15.25Zm0,14.37a13.86,13.86,0,0,1,11.47,6.1,7.42,7.42,0,0,0-3.27,12.06c-6.67,1.8-16.56,1-20.42-1.74a3.21,3.21,0,0,1-1.62-2.58A13.86,13.86,0,0,1,29.09,29.62Zm17.6,13.19a.75.75,0,0,1-.75.75H43.56v2.38a.75.75,0,0,1-1.5,0V43.56H39.68a.75.75,0,0,1,0-1.5h2.38V39.68a.75.75,0,0,1,1.5,0v2.38h2.38A.75.75,0,0,1,46.69,42.81Z"/></g></svg>
