<svg width="324" height="223" viewBox="0 0 324 223" fill="none" xmlns="http://www.w3.org/2000/svg">
<path d="M122.051 139.349C124.51 128.883 128.455 118.82 133.766 109.465C144.633 90.1305 160.032 73.7053 178.649 61.5924C187.313 55.9269 196.723 51.485 206.609 48.3933C216.324 45.4399 226.168 44.1454 235.637 44.9413C245.385 45.7563 253.854 48.7097 260.794 53.4466C268.016 58.4145 273.67 65.329 277.097 73.382C280.809 81.8922 282.468 91.9462 281.737 103.017C280.997 114.355 277.755 126.672 271.749 139.315C265.622 152.092 257.506 163.822 247.703 174.071C238.335 183.959 227.501 192.356 215.578 198.968C204.286 205.167 192.658 209.185 181.434 210.705C170.493 212.182 160.057 211.266 150.775 207.713C142.312 204.559 134.981 198.969 129.711 191.652C124.806 184.829 121.738 176.621 120.492 167.612C119.295 158.839 119.805 149.254 122.051 139.349Z" fill="url(#paint0_linear_872_121640)"/>
<path d="M149.13 149.969C150.029 155.183 152.243 160.083 155.565 164.209C159.068 168.404 163.733 171.479 168.977 173.05C174.686 174.828 181 175.059 187.545 173.918C194.177 172.762 201.011 170.197 207.58 166.448C221.661 158.288 233.041 146.203 240.321 131.678C243.952 124.328 246.044 117.118 246.722 110.41C247.385 103.799 246.678 97.7096 244.75 92.4596C242.971 87.4618 239.824 83.0605 235.666 79.7543C231.635 76.5947 226.615 74.4804 220.728 73.7324C214.957 72.9749 208.855 73.5598 202.776 75.2475C196.505 77.0398 190.529 79.7322 185.035 83.2399C173.105 90.8109 163.285 101.263 156.488 113.627C153.207 119.534 150.838 125.901 149.462 132.513C148.241 138.258 148.128 144.182 149.13 149.969Z" fill="url(#paint1_linear_872_121640)"/>
<path style="mix-blend-mode:overlay" opacity="0.5" d="M122.051 139.349C124.51 128.883 128.455 118.82 133.766 109.465C144.633 90.1305 160.032 73.7053 178.649 61.5924C187.313 55.9269 196.723 51.485 206.609 48.3933C216.324 45.4399 226.168 44.1454 235.637 44.9413C245.385 45.7563 253.854 48.7097 260.794 53.4466C268.016 58.4145 273.67 65.329 277.097 73.382C280.809 81.8922 282.468 91.9462 281.737 103.017C280.997 114.355 277.755 126.672 271.749 139.315C265.622 152.092 257.506 163.822 247.703 174.071C238.335 183.959 227.501 192.356 215.578 198.968C204.286 205.167 192.658 209.185 181.434 210.705C170.493 212.182 160.057 211.266 150.775 207.713C142.312 204.559 134.981 198.969 129.711 191.652C124.806 184.829 121.738 176.621 120.492 167.612C119.295 158.839 119.805 149.254 122.051 139.349ZM120.819 167.569C122.084 176.731 125.148 184.772 129.981 191.465C135.21 198.735 142.495 204.286 150.905 207.406C155.196 209.029 159.672 210.111 164.231 210.628C169.944 211.262 175.714 211.177 181.405 210.374C192.591 208.864 204.036 204.928 215.424 198.68C227.317 192.096 238.119 183.721 247.448 173.85C257.246 163.637 265.351 151.934 271.46 139.181C277.303 126.893 280.655 114.729 281.425 102.997C282.141 92.09 280.588 82.1703 276.803 73.5067C273.414 65.4986 267.797 58.6244 260.616 53.696C254.085 49.2419 246.357 46.4659 237.643 45.4495C236.974 45.368 236.296 45.3009 235.613 45.2433C226.476 44.4762 216.732 45.6365 206.701 48.6857C196.835 51.7591 187.447 56.1887 178.808 61.8465C160.236 73.9348 144.876 90.3256 134.04 109.619C128.742 118.946 124.807 128.98 122.354 139.416C120.122 149.288 119.612 158.762 120.819 167.569Z" fill="url(#paint2_linear_872_121640)"/>
<g style="mix-blend-mode:multiply" opacity="0.2">
<path d="M134.52 136.54C136.492 127.697 139.752 119.189 144.196 111.287C153.354 94.8539 166.435 80.9243 182.279 70.7308C189.626 65.9784 197.607 62.2808 205.988 59.7467C214.164 57.3494 222.44 56.3905 230.332 57.1912C238.397 58.0111 245.38 60.648 251.049 64.7521C256.927 69.0503 261.467 74.9173 264.145 81.6765C267.03 88.8011 268.257 97.1531 267.511 106.291C266.761 115.607 264.005 125.68 259.018 135.988C248.967 156.452 232.966 173.423 213.101 184.69C203.867 189.844 194.345 193.268 185.112 194.677C176.066 196.063 167.39 195.502 159.623 192.759C152.521 190.35 146.295 185.895 141.733 179.958C137.482 174.401 134.755 167.646 133.558 160.176C132.413 152.889 132.711 144.868 134.52 136.54ZM149.866 150.41C150.763 155.624 152.978 160.524 156.3 164.65C159.802 168.848 164.467 171.923 169.713 173.49C175.421 175.269 181.736 175.499 188.281 174.358C194.913 173.203 201.746 170.643 208.316 166.889C222.401 158.731 233.787 146.645 241.071 132.119C244.706 124.769 246.793 117.563 247.471 110.856C248.14 104.244 247.428 98.1503 245.5 92.9052C243.722 87.9054 240.575 83.5022 236.415 80.1951C232.385 77.0355 227.365 74.9211 221.483 74.1732C215.712 73.4157 209.604 74.0054 203.526 75.6883C197.254 77.4823 191.278 80.1762 185.785 83.6854C173.839 91.2628 164.008 101.727 157.204 114.106C153.924 120.014 151.555 126.38 150.178 132.992C148.962 138.724 148.849 144.635 149.846 150.41H149.866ZM170.867 117.021C175.245 108.937 181.65 102.123 189.459 97.2442C193.022 94.9984 196.903 93.2983 200.972 92.2004C204.711 91.1706 208.623 90.9257 212.461 91.4812C215.894 91.9739 219.123 93.4081 221.786 95.6236C224.334 97.8218 226.22 100.681 227.235 103.884C228.386 107.553 228.715 111.429 228.197 115.238C227.584 119.849 226.175 124.319 224.032 128.451C219.458 137.406 212.422 144.877 203.747 149.993C199.888 152.289 195.669 153.923 191.267 154.826C187.39 155.653 183.373 155.571 179.533 154.586C176.176 153.712 173.149 151.879 170.824 149.312C168.61 146.782 167.099 143.72 166.438 140.428C165.705 136.748 165.705 132.961 166.438 129.281C167.262 124.991 168.75 120.856 170.848 117.021H170.867ZM183.428 130.23C183.752 131.624 184.443 132.907 185.429 133.946C186.463 135.001 187.78 135.735 189.223 136.06C190.863 136.424 192.564 136.415 194.201 136.036C196.034 135.622 197.788 134.914 199.395 133.941C202.984 131.785 205.906 128.68 207.835 124.971C208.743 123.246 209.356 121.383 209.648 119.457C209.897 117.847 209.8 116.203 209.364 114.634C208.976 113.255 208.218 112.009 207.171 111.028C206.077 110.032 204.721 109.367 203.261 109.11C201.622 108.82 199.938 108.887 198.327 109.307C196.553 109.757 194.86 110.476 193.306 111.441C189.875 113.546 187.068 116.525 185.174 120.071C184.271 121.742 183.642 123.547 183.313 125.416C183.017 127.011 183.05 128.649 183.409 130.23H183.428Z" fill="#EE8F92"/>
</g>
<path d="M133.784 136.097C135.757 127.256 139.017 118.75 143.46 110.85C152.619 94.4164 165.699 80.4868 181.544 70.2933C188.888 65.5371 196.87 61.8392 205.253 59.3092C213.428 56.9119 221.705 55.953 229.596 56.7537C237.685 57.5832 244.663 60.2105 250.333 64.3146C256.202 68.6161 260.733 74.4828 263.404 81.239C266.29 88.3636 267.516 96.7108 266.771 105.849C266.021 115.169 263.265 125.243 258.278 135.546C248.239 156.007 232.252 172.979 212.399 184.253C203.165 189.402 193.643 192.825 184.41 194.24C175.364 195.621 166.688 195.06 158.922 192.322C151.819 189.909 145.592 185.453 141.027 179.516C136.78 173.959 134.054 167.209 132.851 159.734C131.697 152.466 131.995 144.425 133.784 136.097ZM149.13 149.972C150.029 155.186 152.243 160.086 155.565 164.212C159.068 168.408 163.733 171.482 168.977 173.053C174.686 174.832 181 175.062 187.545 173.921C194.177 172.765 201.011 170.2 207.58 166.451C221.661 158.292 233.041 146.206 240.321 131.682C243.952 124.332 246.044 117.121 246.722 110.413C247.385 103.802 246.678 97.7128 244.75 92.4629C242.971 87.4651 239.824 83.0638 235.665 79.7576C231.635 76.598 226.615 74.4836 220.728 73.7357C214.957 72.9782 208.855 73.5631 202.776 75.2508C196.505 77.0431 190.529 79.7354 185.035 83.2431C173.105 90.8142 163.285 101.266 156.488 113.63C153.207 119.537 150.838 125.904 149.462 132.516C148.241 138.261 148.128 144.185 149.13 149.972ZM170.108 116.584C174.49 108.495 180.903 101.679 188.719 96.8019C192.284 94.5583 196.167 92.8598 200.237 91.7629C203.975 90.7316 207.887 90.4851 211.726 91.0389C215.158 91.5336 218.386 92.9675 221.051 95.1813C223.597 97.3829 225.482 100.244 226.499 103.447C227.651 107.115 227.979 110.991 227.461 114.8C226.845 119.412 225.432 123.882 223.287 128.014C218.713 136.968 211.677 144.44 203.002 149.555C199.154 151.845 194.949 153.476 190.561 154.383C186.685 155.211 182.67 155.129 178.831 154.144C175.473 153.271 172.444 151.437 170.117 148.87C167.909 146.342 166.4 143.286 165.736 140C164.998 136.321 164.99 132.534 165.712 128.853C166.531 124.561 168.014 120.422 170.108 116.584ZM182.693 129.788C183.015 131.184 183.705 132.469 184.694 133.508C185.727 134.563 187.045 135.298 188.488 135.623C190.128 135.986 191.829 135.978 193.465 135.599C195.298 135.182 197.052 134.475 198.659 133.503C202.249 131.347 205.17 128.242 207.099 124.533C208.008 122.807 208.621 120.942 208.912 119.015C209.161 117.405 209.065 115.761 208.629 114.191C208.248 112.786 207.471 111.52 206.389 110.544C205.307 109.567 203.966 108.921 202.526 108.683C200.886 108.397 199.203 108.466 197.592 108.884C195.818 109.331 194.124 110.049 192.571 111.013C189.141 113.12 186.335 116.099 184.439 119.643C183.536 121.313 182.908 123.116 182.578 124.984C182.29 126.576 182.329 128.211 182.693 129.788Z" fill="url(#paint3_linear_872_121640)"/>
<path style="mix-blend-mode:overlay" d="M208.629 114.191C209.065 115.761 209.162 117.405 208.913 119.015C208.621 120.942 208.008 122.807 207.1 124.533C205.171 128.242 202.249 131.347 198.66 133.503C197.052 134.475 195.299 135.182 193.466 135.599C192.284 135.861 191.07 135.943 189.864 135.843C191.225 136.019 192.608 135.954 193.947 135.651C195.779 135.238 197.532 134.531 199.136 133.556C202.724 131.4 205.645 128.297 207.576 124.591C208.484 122.864 209.097 120.999 209.389 119.072C209.64 117.463 209.544 115.818 209.105 114.249C208.725 112.845 207.948 111.579 206.867 110.602C205.786 109.626 204.446 108.979 203.007 108.74C202.704 108.683 202.396 108.644 202.084 108.615C202.233 108.615 202.382 108.654 202.526 108.683C203.966 108.921 205.307 109.567 206.389 110.544C207.471 111.52 208.248 112.786 208.629 114.191ZM178.812 154.148C175.454 153.275 172.425 151.442 170.098 148.875C167.897 146.344 166.393 143.285 165.736 140C164.998 136.321 164.99 132.534 165.712 128.853C166.532 124.561 168.014 120.422 170.108 116.584C174.49 108.495 180.903 101.679 188.719 96.8019C192.285 94.5583 196.167 92.8598 200.237 91.7629C203.646 90.8356 207.197 90.5463 210.711 90.9095C207.353 90.6264 203.97 90.9331 200.718 91.8156C196.648 92.9116 192.766 94.6085 189.2 96.8498C181.385 101.732 174.972 108.551 170.589 116.641C168.489 120.473 166.999 124.608 166.174 128.896C165.447 132.577 165.455 136.365 166.198 140.043C166.863 143.334 168.376 146.396 170.589 148.927C172.916 151.492 175.942 153.325 179.298 154.201C180.193 154.444 181.102 154.632 182.02 154.762C180.944 154.636 179.878 154.431 178.832 154.148H178.812ZM236.142 79.8343C240.306 83.1369 243.458 87.5368 245.241 92.5348C247.164 97.7847 247.881 103.874 247.212 110.485C246.534 117.197 244.447 124.389 240.816 131.749C233.533 146.277 222.145 158.363 208.057 166.518C201.473 170.272 194.658 172.832 188.022 173.993C183.959 174.731 179.811 174.878 175.706 174.429C179.656 174.815 183.64 174.654 187.546 173.95C194.178 172.794 201.011 170.229 207.581 166.48C221.665 158.313 233.046 146.217 240.321 131.682C243.952 124.332 246.044 117.121 246.722 110.413C247.386 103.802 246.679 97.7128 244.75 92.4629C242.972 87.4651 239.825 83.0638 235.666 79.7575C231.641 76.598 226.62 74.5076 220.758 73.7357L221.238 73.7884C227.11 74.5603 232.146 76.6555 236.161 79.8151L236.142 79.8343ZM133.785 136.097C135.757 127.256 139.017 118.75 143.461 110.85C152.619 94.4164 165.7 80.4868 181.544 70.2933C188.889 65.5371 196.871 61.8392 205.253 59.3092C213.428 56.9119 221.705 55.953 229.597 56.7537L230.078 56.8065C222.191 55.9962 213.933 56.9695 205.748 59.3667C197.368 61.8971 189.388 65.5933 182.044 70.346C166.197 80.5359 153.116 94.4663 143.961 110.902C139.508 118.806 136.24 127.317 134.261 136.164C132.477 144.492 132.178 152.513 133.342 159.82C134.53 167.29 137.257 174.045 141.518 179.602C146.083 185.538 152.31 189.993 159.412 192.403C162.719 193.55 166.146 194.318 169.627 194.69C165.978 194.33 162.385 193.542 158.922 192.341C151.819 189.928 145.593 185.472 141.027 179.535C136.781 173.978 134.054 167.228 132.852 159.753C131.697 152.466 131.996 144.425 133.785 136.097Z" fill="url(#paint4_linear_872_121640)"/>
<path d="M143.619 204.275C144.364 204.707 145.119 205.124 145.898 205.522C146.677 205.92 147.471 206.303 148.303 206.663C149.135 207.023 149.952 207.373 150.804 207.699C151.371 207.914 151.943 208.125 152.52 208.322L152.597 208.346L153.319 208.581C153.747 208.72 154.175 208.859 154.608 208.984L155.329 209.19C155.738 209.305 156.151 209.42 156.565 209.525L157.315 209.712C157.729 209.813 158.147 209.909 158.565 210L159.311 210.158L160.629 210.408L161.369 210.537C161.667 210.59 161.965 210.633 162.268 210.676L163.182 210.81L164.101 210.925L165.01 211.026L165.947 211.117L166.861 211.189L167.823 211.251L168.9 211.304L169.583 211.333C170.16 211.333 170.742 211.362 171.324 211.366H171.805H173.156H173.858L175.046 211.318L175.676 211.285C176.157 211.256 176.604 211.227 177.071 211.189L177.499 211.16C178.1 211.112 178.706 211.05 179.317 210.988L179.798 210.935L181.216 210.762L181.755 210.686C182.303 210.612 182.852 210.531 183.4 210.441L183.655 210.403C184.275 210.302 184.895 210.192 185.516 210.077L186.064 209.971C186.542 209.882 187.023 209.786 187.507 209.684L188.036 209.568C188.642 209.439 189.252 209.3 189.863 209.151L190.344 209.032C190.825 208.916 191.282 208.797 191.753 208.672L192.412 208.495C192.917 208.36 193.427 208.216 193.937 208.068L194.283 207.972L194.466 207.914C195.009 207.756 195.552 207.588 196.096 207.435L196.803 207.21L198.072 206.788L198.722 206.567C199.318 206.361 199.909 206.15 200.506 205.93C200.722 205.853 200.939 205.766 201.155 205.685L202.425 205.206L203.156 204.918C203.637 204.726 204.117 204.534 204.598 204.333L205.079 204.141C205.695 203.882 206.306 203.619 206.921 203.345L207.58 203.048C208.018 202.851 208.45 202.655 208.888 202.449L209.561 202.132C210.076 201.888 210.595 201.653 211.11 201.384L211.475 201.207C212.12 200.886 212.759 200.555 213.399 200.219L213.947 199.932L215.356 199.179L216.025 198.81L217.304 198.009L217.939 197.645C218.391 197.386 218.843 197.117 219.29 196.849C219.516 196.715 219.742 196.585 219.968 196.446C220.61 196.066 221.24 195.679 221.858 195.286L221.926 195.243L222.407 194.941C222.887 194.624 223.402 194.308 223.893 193.982L224.749 193.416L225.816 192.697C226.239 192.409 226.658 192.117 227.076 191.824L227.884 191.263C228.317 190.956 228.745 190.64 229.178 190.328L229.933 189.777L231.241 188.818L231.972 188.262C232.409 187.926 232.847 187.586 233.28 187.241L233.963 186.704C234.8 186.033 235.63 185.352 236.454 184.661L236.68 184.47C237.411 183.856 238.123 183.233 238.854 182.6L239.469 182.053C240.114 181.483 240.749 180.902 241.393 180.313L241.874 179.872C242.648 179.148 243.413 178.433 244.173 177.676L244.875 176.913L246.063 175.729C246.332 175.456 246.596 175.178 246.866 174.9L247.953 173.768C248.227 173.481 248.501 173.188 248.77 172.896L249.823 171.755L250.617 170.872C250.968 170.484 251.314 170.091 251.66 169.693C251.915 169.405 252.141 169.113 252.42 168.82C252.77 168.411 253.121 167.999 253.473 167.583L254.18 166.735C254.541 166.298 254.897 165.862 255.253 165.421L255.907 164.606C256.272 164.127 256.638 163.676 256.999 163.206L257.59 162.439C257.97 161.96 258.345 161.442 258.715 160.938C258.889 160.703 259.066 160.459 259.24 160.229C259.634 159.692 260.019 159.15 260.403 158.603L260.846 157.985C261.264 157.386 261.678 156.777 262.091 156.168L262.404 155.688C262.901 154.95 263.382 154.205 263.847 153.454L263.904 153.373C264.414 152.577 264.914 151.771 265.405 150.975C265.895 150.18 266.367 149.384 266.848 148.578L267.107 148.099C267.478 147.461 267.838 146.819 268.199 146.181L268.646 145.356C268.93 144.829 269.218 144.301 269.497 143.769C269.671 143.438 269.839 143.108 270.007 142.777C270.252 142.297 270.488 141.818 270.743 141.339C271.08 140.662 271.416 139.982 271.743 139.296C272.181 138.366 272.609 137.441 273.018 136.515C273.157 136.208 273.282 135.902 273.417 135.595C273.686 134.976 273.951 134.358 274.206 133.744C274.359 133.38 274.504 133.015 274.648 132.651C274.872 132.095 275.094 131.539 275.312 130.982L275.744 129.837C275.951 129.271 276.163 128.705 276.36 128.144C276.466 127.842 276.572 127.545 276.673 127.248C276.899 126.586 277.12 125.929 277.331 125.272C277.399 125.057 277.476 124.841 277.543 124.63C277.812 123.77 278.07 122.913 278.317 122.06L278.49 121.432C278.683 120.756 278.866 120.08 279.039 119.409C279.092 119.193 279.149 118.977 279.202 118.766C279.404 117.956 279.601 117.146 279.779 116.34C279.782 116.316 279.782 116.292 279.779 116.268C279.962 115.453 280.126 114.643 280.284 113.833C280.328 113.622 280.366 113.411 280.405 113.2C280.554 112.409 280.698 111.618 280.823 110.831C280.823 110.831 280.823 110.803 280.823 110.783C280.948 109.997 281.059 109.211 281.16 108.429C281.184 108.262 281.208 108.089 281.227 107.916C281.328 107.144 281.414 106.377 281.487 105.62C281.487 105.49 281.487 105.361 281.525 105.231C281.592 104.484 281.655 103.74 281.703 103.002V102.825C281.751 102.057 281.785 101.295 281.809 100.538V100.101C281.809 99.363 281.842 98.6343 281.842 97.9055C281.842 97.776 281.842 97.6466 281.842 97.5123C281.842 96.7692 281.842 96.0261 281.799 95.2877C281.799 95.2254 281.799 95.1583 281.799 95.0911C281.77 94.3912 281.732 93.6912 281.684 92.996V92.7275C281.629 92.0275 281.567 91.3323 281.496 90.6419L281.453 90.2487C281.376 89.5727 281.294 88.8967 281.198 88.2303C281.198 88.1104 281.164 87.9905 281.145 87.8707C281.044 87.1803 280.934 86.4947 280.808 85.8139V85.7372C280.683 85.0659 280.549 84.4043 280.409 83.7522C280.385 83.6468 280.366 83.5461 280.342 83.4454C280.198 82.8029 280.044 82.1653 279.861 81.5276L279.76 81.1393C279.592 80.5064 279.414 79.8783 279.226 79.2598L279.154 79.0393C278.976 78.4544 278.789 77.879 278.591 77.3085C278.558 77.203 278.524 77.1023 278.486 76.9969C278.279 76.4071 278.062 75.827 277.836 75.2469C277.788 75.1222 277.735 74.9976 277.687 74.8681C277.461 74.3072 277.206 73.7558 276.99 73.2044C276.99 73.1757 276.99 73.1421 276.952 73.1133C276.697 72.5428 276.437 71.9818 276.163 71.4257C276.096 71.2818 276.023 71.138 275.946 70.9894C275.711 70.5099 275.466 70.0305 275.211 69.5511L275.086 69.3161C274.797 68.7887 274.499 68.2709 274.191 67.7579C274.095 67.5901 273.989 67.4271 273.888 67.2785C273.657 66.8981 273.422 66.5242 273.181 66.1566L272.854 65.6532C272.57 65.236 272.287 64.8237 271.993 64.4162L271.791 64.1333C271.407 63.6059 271.012 63.0833 270.604 62.5703L271.989 64.3107L272.037 64.373L272.176 64.5456L272.316 64.723L272.585 65.0586L273.133 65.7443L273.383 66.0607L274.119 66.986L274.403 67.3408L274.884 67.9593L275.307 68.4963L276.11 69.5127L276.495 69.9921L276.701 70.2606C276.759 70.3278 276.822 70.4045 276.879 70.4812L277.024 70.6586L277.63 71.4209L278.111 72.0442L278.466 72.4901L278.534 72.5764L278.938 73.0846L279.313 73.564L279.645 73.9811L279.909 74.312L279.957 74.3743L280.005 74.4366L280.058 74.4989L280.106 74.5613C280.429 74.9688 280.741 75.3859 281.068 75.8078C281.087 75.8293 281.105 75.8517 281.121 75.8749L281.318 76.153C281.539 76.4647 281.761 76.7715 281.977 77.1119C282.049 77.2126 282.112 77.3181 282.179 77.4188C282.246 77.5194 282.4 77.7544 282.511 77.9222C282.622 78.09 282.737 78.2578 282.848 78.4304C282.958 78.603 283.098 78.8379 283.223 79.0393L283.526 79.5187C283.579 79.6002 283.631 79.6818 283.68 79.7681C283.92 80.1708 284.16 80.5783 284.382 80.9858L284.425 81.0673L284.55 81.3023C284.718 81.6091 284.887 81.9208 285.031 82.2324L285.276 82.7118L285.493 83.1433C285.55 83.2584 285.613 83.3735 285.671 83.4933C285.877 83.92 286.079 84.3516 286.276 84.7926V84.8214L286.32 84.9173C286.483 85.2785 286.644 85.6429 286.801 86.0104C286.878 86.1926 286.955 86.3844 287.027 86.5666C287.099 86.7488 287.132 86.8207 287.181 86.9454C287.229 87.07 287.267 87.1467 287.306 87.2522C287.469 87.6693 287.628 88.0912 287.787 88.5131L287.844 88.6857C287.859 88.7168 287.872 88.7489 287.883 88.7816L287.955 88.9926L288.234 89.7981C288.335 90.1001 288.431 90.407 288.527 90.709L288.599 90.9296C288.599 90.9631 288.623 91.0015 288.638 91.0398C288.763 91.4569 288.888 91.8741 289.008 92.296C289.056 92.4638 289.099 92.6316 289.147 92.7754L289.248 93.159C289.287 93.2932 289.325 93.4227 289.359 93.5569C289.47 93.9836 289.58 94.4199 289.681 94.8514L289.725 95.0528C289.725 95.1535 289.773 95.2542 289.792 95.3501C289.854 95.609 289.912 95.8678 289.97 96.1315C290.052 96.5247 290.133 96.9178 290.21 97.3158V97.3973V97.4213C290.297 97.8576 290.374 98.2938 290.451 98.7349C290.489 98.9651 290.523 99.2144 290.561 99.4349L290.619 99.7897C290.619 99.8808 290.648 99.9671 290.662 100.058C290.725 100.499 290.787 100.94 290.845 101.386L290.888 101.784C290.888 101.914 290.922 102.043 290.936 102.173C290.951 102.302 290.98 102.547 290.999 102.729C291.047 103.179 291.09 103.635 291.134 104.09C291.134 104.138 291.134 104.191 291.134 104.239C291.134 104.287 291.134 104.412 291.134 104.503C291.134 104.819 291.187 105.14 291.206 105.462C291.225 105.783 291.249 106.205 291.268 106.574C291.268 106.622 291.268 106.67 291.268 106.718C291.266 106.734 291.266 106.75 291.268 106.766C291.266 106.798 291.266 106.83 291.268 106.862C291.268 107.341 291.307 107.82 291.316 108.271C291.316 108.501 291.316 108.751 291.316 108.962C291.316 109.091 291.316 109.22 291.316 109.35C291.316 109.479 291.316 109.58 291.316 109.7C291.316 110.179 291.316 110.659 291.316 111.138C291.316 111.263 291.316 111.388 291.316 111.517C291.316 111.646 291.316 111.8 291.316 111.944C291.316 112.174 291.316 112.399 291.316 112.629C291.316 113.109 291.283 113.631 291.254 114.135V114.197V114.379C291.254 114.801 291.206 115.228 291.177 115.65C291.153 115.957 291.129 116.268 291.1 116.575L291.071 116.954C291.071 117.031 291.071 117.107 291.071 117.184C291.023 117.721 290.97 118.263 290.908 118.805C290.908 118.944 290.874 119.078 290.86 119.217C290.845 119.356 290.821 119.552 290.797 119.725C290.773 119.898 290.744 120.205 290.715 120.439C290.643 120.972 290.571 121.504 290.489 122.041C290.489 122.041 290.489 122.07 290.489 122.084C290.403 122.635 290.316 123.191 290.22 123.748C290.181 123.968 290.143 124.189 290.1 124.414C290.056 124.639 290.028 124.826 289.989 125.033C289.951 125.239 289.927 125.392 289.893 125.57C289.777 126.183 289.652 126.797 289.523 127.411V127.53C289.523 127.53 289.523 127.569 289.523 127.588C289.398 128.173 289.268 128.763 289.128 129.352C289.08 129.559 289.027 129.765 288.974 129.971C288.921 130.177 288.873 130.393 288.82 130.604C288.768 130.815 288.724 131.011 288.671 131.217C288.556 131.673 288.431 132.128 288.306 132.589C288.248 132.795 288.195 133.001 288.142 133.207C288.142 133.265 288.109 133.322 288.094 133.38C287.892 134.104 287.681 134.818 287.459 135.561L287.402 135.729C287.339 135.94 287.272 136.151 287.205 136.357C287.06 136.837 286.916 137.287 286.762 137.752C286.704 137.934 286.637 138.117 286.579 138.299L286.276 139.176C286.19 139.435 286.103 139.699 286.012 139.958L285.69 140.835C285.555 141.209 285.416 141.583 285.276 141.962C285.209 142.134 285.151 142.302 285.089 142.475C284.944 142.849 284.79 143.223 284.641 143.597C284.492 143.971 284.367 144.306 284.218 144.666C284.175 144.781 284.132 144.891 284.083 145.006C283.886 145.486 283.67 145.989 283.458 146.478C283.333 146.78 283.208 147.077 283.078 147.38L283.006 147.547C282.636 148.401 282.251 149.249 281.852 150.103L281.65 150.525L281.448 150.951L281.246 151.373L281.044 151.8C280.991 151.901 280.938 152.001 280.89 152.102C280.659 152.582 280.409 153.061 280.178 153.516C280.015 153.842 279.856 154.164 279.698 154.475C279.428 154.988 279.154 155.501 278.88 156.014L278.447 156.834C278.101 157.473 277.75 158.098 277.394 158.709C277.312 158.857 277.23 159.011 277.144 159.16C276.235 160.742 275.288 162.309 274.311 163.849L274.249 163.949C273.768 164.673 273.316 165.388 272.845 166.112C272.744 166.26 272.638 166.409 272.537 166.562C272.138 167.157 271.738 167.746 271.33 168.336L270.902 168.945C270.531 169.472 270.156 170 269.776 170.522L269.632 170.729L269.267 171.208C268.906 171.687 268.545 172.167 268.175 172.646C267.987 172.9 267.79 173.15 267.598 173.399C267.247 173.879 266.896 174.31 266.54 174.761L265.905 175.557L264.866 176.832L264.179 177.661L263.149 178.87C263.015 179.023 262.885 179.186 262.75 179.349L262.418 179.718C262.082 180.107 261.74 180.49 261.399 180.869C261.144 181.157 260.889 181.444 260.629 181.727L259.605 182.835C259.341 183.117 259.076 183.405 258.812 183.683L258.542 183.971C258.283 184.244 258.013 184.513 257.749 184.786C257.484 185.059 257.234 185.323 256.97 185.587C256.585 185.98 256.195 186.363 255.811 186.747L255.224 187.327L255.118 187.428C254.378 188.152 253.627 188.866 252.872 189.566L252.747 189.686L252.401 189.993C251.785 190.565 251.163 191.127 250.535 191.68L250.218 191.968L249.934 192.213C249.232 192.826 248.528 193.429 247.823 194.02L247.64 194.173L247.597 194.212C246.789 194.883 245.981 195.54 245.163 196.187L245.024 196.302L244.495 196.715C244.072 197.045 243.648 197.376 243.22 197.702L243.042 197.841L242.499 198.244L241.229 199.203L241.037 199.347L240.479 199.745C240.061 200.047 239.642 200.349 239.224 200.641L239.017 200.79L238.431 201.193L237.204 202.032L236.978 202.185C236.704 202.372 236.425 202.549 236.151 202.732L235.324 203.273L235.199 203.355C234.756 203.643 234.314 203.921 233.867 204.199L233.323 204.539C232.756 204.894 232.183 205.244 231.606 205.584L231.491 205.656L230.822 206.045L229.798 206.644L229.505 206.807L228.875 207.162L228.144 207.574L227.552 207.895L227.187 208.097L226.898 208.25L226.485 208.475C226.162 208.643 225.84 208.811 225.523 208.955L224.989 209.238L224.826 209.319C224.272 209.602 223.715 209.88 223.157 210.153L223.094 210.182L222.738 210.355L221.579 210.911L221.219 211.074L220.56 211.376L219.997 211.635L219.271 211.956L218.627 212.239L218.42 212.33C217.891 212.555 217.362 212.781 216.833 212.997L216.386 213.179L215.323 213.605L214.972 213.74L214.26 214.013L213.779 214.19L212.985 214.478C212.774 214.555 212.567 214.636 212.355 214.708L212.254 214.747L210.725 215.279L210.6 215.317L209.97 215.523C209.72 215.605 209.489 215.691 209.225 215.768L208.71 215.931L208.018 216.142L207.729 216.233C207.287 216.367 206.839 216.496 206.397 216.621L205.916 216.76L204.762 217.077L204.411 217.168L203.766 217.331L203.285 217.46L202.386 217.671L201.905 217.786L201.804 217.81C201.323 217.92 200.842 218.031 200.323 218.131L200.107 218.179L199.587 218.28L198.851 218.429L198.173 218.553L197.64 218.649L197.356 218.702C196.875 218.788 196.36 218.865 195.865 218.942H195.802L195.557 218.975C195.168 219.033 194.773 219.095 194.379 219.143L193.932 219.201L193.677 219.234L193.398 219.268L192.917 219.33L192.013 219.421L191.532 219.469H191.373C190.864 219.517 190.359 219.56 189.849 219.594H189.743L189.315 219.618C188.988 219.642 188.661 219.666 188.353 219.68H187.954L187.334 219.709H186.853C186.622 219.709 186.372 219.709 186.155 219.709H185.468H183.65C183.121 219.709 182.592 219.694 182.063 219.666H181.938L181.26 219.632L180.49 219.589L180.192 219.565C179.879 219.565 179.572 219.522 179.259 219.493L178.725 219.455L178.35 219.412L177.422 219.316L176.975 219.268L176.518 219.205L175.609 219.081L175.243 219.033L174.7 218.942C174.407 218.899 174.109 218.851 173.815 218.798L173.531 218.75L173.075 218.659C172.637 218.577 172.204 218.491 171.771 218.4L171.42 218.333L171.026 218.237C170.612 218.141 170.199 218.045 169.79 217.94L169.348 217.834L169.04 217.748C168.626 217.642 168.222 217.527 167.813 217.407L167.308 217.268L167.097 217.196C166.664 217.067 166.241 216.928 165.818 216.789L165.303 216.621L165.091 216.549L165.014 216.52L164.803 216.449L164.322 216.266L163.841 216.084L163.36 215.892C162.514 215.562 161.682 215.216 160.864 214.847C160.047 214.478 159.258 214.099 158.484 213.697C157.709 213.294 156.945 212.877 156.204 212.445C155.464 212.014 154.761 211.563 154.035 211.093L141.498 202.813C142.171 203.356 142.878 203.844 143.619 204.275Z" fill="url(#paint5_linear_872_121640)"/>
<path style="mix-blend-mode:overlay" d="M248.54 174.545C239.179 184.435 228.351 192.833 216.434 199.447C205.142 205.647 193.518 209.664 182.289 211.179C171.348 212.661 160.908 211.745 151.631 208.192C149.153 207.246 146.756 206.099 144.465 204.764C144.946 205.023 145.398 205.287 145.879 205.536C146.658 205.934 147.452 206.318 148.284 206.677C149.116 207.037 149.933 207.387 150.785 207.713C151.352 207.929 151.924 208.14 152.501 208.336L152.578 208.36L153.3 208.595C153.728 208.734 154.156 208.873 154.589 208.998L155.31 209.204C155.719 209.319 156.132 209.434 156.546 209.54L157.296 209.727C157.71 209.827 158.128 209.923 158.547 210.014L159.292 210.173L160.61 210.422L161.35 210.551C161.648 210.604 161.947 210.647 162.25 210.69L163.163 210.825L164.082 210.94L164.991 211.04L165.929 211.132L166.842 211.203L167.804 211.266L168.881 211.318L169.564 211.347C170.141 211.347 170.723 211.376 171.305 211.381H171.786H173.137H173.84L175.027 211.333L175.657 211.299C176.138 211.271 176.586 211.242 177.052 211.203L177.48 211.175C178.081 211.127 178.687 211.064 179.298 211.002L179.779 210.949L181.197 210.777L181.736 210.7C182.284 210.626 182.833 210.545 183.381 210.455L183.636 210.417C184.256 210.316 184.876 210.206 185.497 210.091L186.045 209.986C186.523 209.896 187.004 209.8 187.488 209.698L188.017 209.583C188.623 209.453 189.234 209.314 189.844 209.166L190.325 209.046C190.806 208.931 191.263 208.811 191.734 208.686L192.393 208.509C192.898 208.375 193.408 208.231 193.918 208.082L194.264 207.986L194.447 207.929C194.99 207.771 195.533 207.603 196.077 207.449L196.784 207.224L198.053 206.802L198.703 206.582C199.299 206.375 199.891 206.164 200.487 205.944C200.703 205.867 200.92 205.781 201.136 205.699L202.406 205.22L203.137 204.932C203.618 204.74 204.098 204.549 204.579 204.347L205.06 204.156C205.676 203.897 206.287 203.633 206.902 203.36L207.561 203.062C207.999 202.866 208.432 202.669 208.869 202.463L209.542 202.147C210.057 201.902 210.576 201.667 211.091 201.399L211.456 201.221C212.101 200.9 212.74 200.569 213.38 200.234L213.928 199.946L215.337 199.193L216.006 198.824L217.304 198.009L217.939 197.645C218.391 197.386 218.843 197.117 219.291 196.849C219.517 196.715 219.743 196.585 219.969 196.446C220.61 196.066 221.24 195.679 221.859 195.286L221.926 195.243L222.407 194.941C222.888 194.624 223.402 194.308 223.893 193.982L224.749 193.416L225.816 192.697C226.24 192.409 226.658 192.117 227.076 191.824L227.884 191.263C228.317 190.956 228.745 190.64 229.178 190.328L229.933 189.777L231.241 188.818L231.972 188.262C232.41 187.926 232.847 187.586 233.28 187.241L233.963 186.704C234.8 186.033 235.63 185.352 236.454 184.661L236.68 184.47C237.411 183.856 238.123 183.233 238.854 182.6L239.47 182.053C240.114 181.483 240.749 180.902 241.393 180.313L241.874 179.872C242.648 179.148 243.413 178.433 244.173 177.676L244.875 176.913L246.063 175.729C246.332 175.456 246.597 175.178 246.866 174.9L247.953 173.768C248.227 173.481 248.501 173.188 248.77 172.896L249.824 171.755L250.617 170.872C250.968 170.484 251.314 170.091 251.661 169.693C251.916 169.405 252.142 169.113 252.421 168.82C252.77 168.411 253.121 167.999 253.474 167.583L254.181 166.735C254.541 166.298 254.897 165.862 255.253 165.421L255.907 164.606C256.273 164.127 256.638 163.676 256.999 163.206L257.59 162.439C257.97 161.96 258.345 161.442 258.716 160.938C258.889 160.703 259.067 160.459 259.24 160.229C259.634 159.692 260.019 159.15 260.404 158.603L260.846 157.985C261.264 157.386 261.678 156.777 262.092 156.168L262.404 155.688C262.901 154.95 263.382 154.205 263.847 153.454L263.905 153.373C264.414 152.577 264.915 151.771 265.405 150.975C265.896 150.18 266.367 149.384 266.848 148.578L267.108 148.099C267.478 147.461 267.839 146.819 268.199 146.181L268.646 145.356C268.93 144.829 269.219 144.301 269.498 143.769C269.671 143.438 269.839 143.108 270.007 142.777C270.253 142.297 270.488 141.818 270.743 141.339C271.08 140.662 271.417 139.982 271.744 139.296C272.181 138.366 272.609 137.441 273.018 136.515C273.157 136.208 273.282 135.902 273.417 135.595C273.686 134.976 273.951 134.358 274.206 133.744C274.36 133.38 274.504 133.015 274.648 132.651C274.873 132.095 275.094 131.539 275.312 130.982L275.745 129.837C275.952 129.271 276.163 128.705 276.36 128.144C276.466 127.842 276.572 127.545 276.673 127.248C276.899 126.586 277.12 125.929 277.332 125.272C277.399 125.057 277.476 124.841 277.543 124.63C277.813 123.77 278.071 122.913 278.318 122.06L278.491 121.432C278.683 120.756 278.866 120.08 279.039 119.409C279.092 119.193 279.15 118.977 279.203 118.766C279.404 117.956 279.602 117.146 279.78 116.34C279.782 116.316 279.782 116.292 279.78 116.268C279.962 115.453 280.126 114.643 280.285 113.833C280.328 113.622 280.366 113.411 280.405 113.2C280.554 112.409 280.698 111.618 280.823 110.831C280.823 110.831 280.823 110.803 280.823 110.783C280.948 109.997 281.059 109.211 281.16 108.429C281.184 108.262 281.208 108.089 281.227 107.916C281.328 107.144 281.415 106.377 281.487 105.62C281.487 105.49 281.487 105.361 281.525 105.231C281.593 104.484 281.655 103.74 281.703 103.002V102.825C281.751 102.058 281.785 101.295 281.809 100.538V100.101C281.809 99.363 281.843 98.6343 281.843 97.9055C281.843 97.7761 281.843 97.6466 281.843 97.5124C281.843 96.7692 281.843 96.0261 281.799 95.2877C281.799 95.2254 281.799 95.1583 281.799 95.0911C281.771 94.3912 281.732 93.6912 281.684 92.996V92.7275C281.63 92.0275 281.567 91.3323 281.496 90.6419L281.453 90.2487C281.376 89.5727 281.294 88.8967 281.198 88.2303C281.198 88.1104 281.165 87.9906 281.145 87.8707C281.044 87.1803 280.934 86.4947 280.809 85.8139V85.7372C280.684 85.0659 280.549 84.4043 280.41 83.7522C280.386 83.6468 280.366 83.5461 280.342 83.4454C280.198 82.8029 280.044 82.1653 279.861 81.5276L279.76 81.1393C279.592 80.5064 279.414 79.8783 279.227 79.2598L279.154 79.0393C278.976 78.4544 278.789 77.879 278.592 77.3085C278.558 77.203 278.524 77.1023 278.486 76.9969C278.279 76.4071 278.063 75.827 277.837 75.2469C277.789 75.1222 277.736 74.9976 277.688 74.8681C277.462 74.3072 277.207 73.7558 276.99 73.2044C276.99 73.1757 276.99 73.1421 276.952 73.1133C276.697 72.5428 276.437 71.9818 276.163 71.4257C276.096 71.2818 276.024 71.138 275.947 70.9894C275.711 70.5099 275.466 70.0305 275.211 69.5511L275.086 69.3161C274.797 68.7887 274.499 68.2709 274.191 67.7579C274.095 67.5901 273.989 67.4271 273.888 67.2785C273.658 66.8981 273.422 66.5242 273.181 66.1566L272.854 65.6532C272.571 65.236 272.287 64.8237 271.994 64.4162L271.792 64.1333C271.407 63.6059 271.013 63.0833 270.604 62.5703L271.989 64.3107L272.037 64.373L272.176 64.5456L272.316 64.723L272.585 65.0586L273.133 65.7443L273.383 66.0607L274.119 66.986L274.403 67.3408L274.831 67.8778C275.992 69.7898 277.021 71.7776 277.914 73.8277C281.631 82.3427 283.285 92.3919 282.559 103.467C281.814 114.806 278.577 127.123 272.566 139.766C266.446 152.549 258.337 164.287 248.54 174.545Z" fill="url(#paint6_linear_872_121640)"/>
<path d="M178.663 123.181C180.616 123.253 183.251 121.225 185.189 117.907C187.401 114.153 187.954 110.054 186.603 108.223L194.961 119.571C194.995 119.625 195.024 119.681 195.048 119.739C195.027 119.681 194.998 119.626 194.961 119.576C195.252 119.965 195.426 120.429 195.463 120.913C195.5 121.397 195.399 121.881 195.171 122.31C194.943 122.739 194.597 123.094 194.174 123.335C193.752 123.576 193.269 123.692 192.783 123.67L178.663 123.181Z" fill="url(#paint7_linear_872_121640)"/>
<path d="M177.321 122.736C179.245 124.222 182.746 122.083 185.174 117.941C187.603 113.799 188.031 109.263 186.136 107.777C184.241 106.291 180.712 108.429 178.278 112.571C175.845 116.714 175.426 121.225 177.321 122.736Z" fill="url(#paint8_linear_872_121640)"/>
<path style="mix-blend-mode:overlay" opacity="0.5" d="M178.283 112.546C180.717 108.418 184.232 106.275 186.141 107.752C188.051 109.229 187.623 113.788 185.18 117.916C182.736 122.044 179.245 124.197 177.321 122.735C175.398 121.272 175.855 116.674 178.283 112.546ZM177.442 122.576C177.788 122.818 178.192 122.967 178.613 123.009C179.034 123.051 179.458 122.985 179.846 122.816C181.616 122.222 183.559 120.361 185.045 117.839C187.449 113.793 187.873 109.334 186.036 107.901C185.69 107.657 185.287 107.507 184.865 107.464C184.444 107.421 184.019 107.487 183.631 107.656C181.856 108.255 179.914 110.116 178.428 112.633C176.047 116.684 175.605 121.143 177.442 122.576Z" fill="url(#paint9_linear_872_121640)"/>
<path style="mix-blend-mode:multiply" opacity="0.3" d="M180.298 117.942L183.361 112.668L186.588 114.926C186.222 115.972 185.753 116.978 185.188 117.932C184.722 118.727 184.187 119.481 183.592 120.186L180.298 117.942Z" fill="url(#paint10_linear_872_121640)"/>
<path d="M100.708 68.9846L107.224 72.427L110.109 73.9517L115.88 76.9962L119.348 78.8276L121.791 80.1174L140.681 90.0898L143.489 91.5761L175.489 108.467L176.663 109.085L183.174 112.528C183.216 112.546 183.255 112.571 183.29 112.6C183.38 112.674 183.456 112.763 183.516 112.864C183.516 112.902 183.545 112.945 183.564 112.983C183.601 113.062 183.63 113.144 183.65 113.228V113.261C183.65 113.309 183.65 113.372 183.65 113.424C183.65 113.477 183.65 113.559 183.65 113.635C183.65 113.712 183.65 113.669 183.65 113.683C183.65 113.698 183.65 113.846 183.65 113.928C183.65 114.009 183.65 114.024 183.65 114.072V114.105C183.65 114.249 183.607 114.398 183.573 114.551C183.573 114.599 183.545 114.647 183.535 114.695C183.501 114.82 183.472 114.944 183.429 115.074C183.429 115.074 183.429 115.117 183.429 115.136C183.376 115.285 183.319 115.433 183.251 115.582L183.169 115.75L183.064 115.97L182.943 116.181C182.876 116.296 182.804 116.407 182.737 116.512L182.669 116.594C182.63 116.656 182.587 116.715 182.539 116.771C182.477 116.853 182.414 116.934 182.347 117.006C182.28 117.078 182.261 117.111 182.212 117.159L182.131 117.25L182.03 117.337L181.837 117.514C181.808 117.536 181.781 117.56 181.756 117.586L181.655 117.653C181.606 117.69 181.554 117.724 181.501 117.754L181.424 117.807C181.386 117.826 181.348 117.844 181.308 117.859L181.159 117.931L181.097 117.96H180.996L180.813 118.003H180.75H180.63H180.539C180.45 117.995 180.363 117.969 180.284 117.926L97.8172 74.388L100.708 68.9846Z" fill="url(#paint11_linear_872_121640)"/>
<path d="M98.0528 70.7479C98.9088 69.3096 100.15 68.5329 100.823 69.0602C101.496 69.5876 101.347 71.189 100.486 72.6465C99.6253 74.104 98.3894 74.8615 97.7161 74.3342C97.0428 73.8068 97.1919 72.2054 98.0528 70.7479Z" fill="url(#paint12_linear_872_121640)"/>
<path style="mix-blend-mode:overlay" opacity="0.5" d="M98.0528 70.7479C98.9088 69.3096 100.15 68.5329 100.823 69.0602C101.496 69.5876 101.347 71.189 100.486 72.6465C99.6253 74.104 98.3894 74.8615 97.7161 74.3342C97.0428 73.8068 97.1919 72.2054 98.0528 70.7479ZM97.8075 74.2191C97.9268 74.3079 98.0722 74.3551 98.2211 74.3533C98.8703 74.3533 99.7311 73.639 100.361 72.5698C101.164 71.2034 101.323 69.65 100.731 69.1753C100.612 69.0865 100.467 69.0393 100.318 69.0411C99.6686 69.0411 98.8078 69.7554 98.1778 70.8246C97.3747 72.191 97.2015 73.7444 97.8075 74.2191Z" fill="url(#paint13_linear_872_121640)"/>
<path d="M99.2254 80.4354C98.5137 83.5087 99.6727 87.4881 106.117 89.9332C114.567 93.1407 124.319 87.7853 124.834 87.5024L102.674 76.082C101.457 76.2307 99.7737 78.0526 99.2254 80.4354Z" fill="url(#paint14_linear_872_121640)"/>
<path d="M105.767 90.0593C99.3233 87.6141 98.1595 83.6299 98.8712 80.5614V80.5279C99.2372 79.055 100.083 77.7448 101.276 76.8026L101.415 76.6875C101.314 76.769 101.213 76.8649 101.112 76.9608L101.006 77.0663L100.8 77.2916C100.76 77.3342 100.723 77.379 100.689 77.4258C100.622 77.5026 100.554 77.5889 100.492 77.6752C100.454 77.7211 100.419 77.7691 100.386 77.819C100.314 77.9197 100.242 78.0299 100.174 78.1402L100.102 78.2457C100.011 78.3943 99.9244 78.5525 99.8427 78.7251L99.7897 78.8402C99.7272 78.9649 99.6695 79.0943 99.6166 79.2238L99.5445 79.3964L99.4146 79.7512L99.3569 79.9381C99.304 80.106 99.2559 80.2738 99.2175 80.4464C99.179 80.619 99.1453 80.782 99.1213 80.9258C99.1213 80.9594 99.1213 80.9881 99.1213 81.0169C99.0972 81.2087 99.078 81.3957 99.0636 81.5874C99.0636 81.6737 99.0636 81.76 99.0636 81.8463C99.0636 81.9326 99.0636 82.0765 99.0636 82.1915C99.0636 82.4361 99.0924 82.671 99.1261 82.9299C99.1261 83.0114 99.1597 83.0929 99.1742 83.1744C99.1886 83.2559 99.2271 83.4621 99.2607 83.6107C99.2944 83.7593 99.3136 83.7929 99.3425 83.8792C99.3714 83.9655 99.4291 84.1573 99.482 84.2963C99.5349 84.4353 99.5589 84.5025 99.6022 84.6032L99.7416 84.9052C99.8138 85.049 99.8859 85.1929 99.9677 85.3319L100.025 85.4326C100.141 85.6244 100.266 85.8114 100.405 85.9983L100.449 86.0559C100.599 86.2587 100.759 86.454 100.93 86.6408C101.107 86.8374 101.3 87.0291 101.507 87.2209L101.559 87.2641C101.757 87.4415 101.968 87.6189 102.189 87.7915L102.276 87.8586C102.497 88.0216 102.728 88.1846 102.978 88.338L103.118 88.4243C103.377 88.5874 103.651 88.7504 103.945 88.9038H103.974C104.248 89.0524 104.541 89.1962 104.844 89.3353C104.984 89.4024 105.133 89.4647 105.277 89.5271C105.556 89.6469 105.83 89.7668 106.123 89.8771C106.417 89.9873 106.604 90.0545 106.854 90.1312C107.253 90.2606 107.657 90.3661 108.061 90.4572L108.369 90.5291L108.711 90.5962L109.153 90.6729L109.49 90.7257L109.932 90.7784L110.269 90.8168L110.721 90.8503H111.043H111.524H111.827C111.995 90.8503 112.164 90.8503 112.332 90.8503H112.592C112.818 90.8503 113.039 90.8503 113.26 90.8216H113.347L114.092 90.7592L114.337 90.7305L114.818 90.6777L115.112 90.6346L115.544 90.5723L115.847 90.5195L116.256 90.4476L116.559 90.3853L116.953 90.3038L117.252 90.2366L117.632 90.1503L117.925 90.0736L118.295 89.9777L118.574 89.901L118.935 89.8003L119.204 89.7236L119.56 89.6134L119.805 89.5319L120.166 89.412L120.382 89.3401L120.791 89.1962L120.931 89.1483L121.455 88.9517L121.57 88.9038L121.945 88.76L122.133 88.6832L122.407 88.5682L122.595 88.4915L122.83 88.386L123.008 88.3093L123.225 88.2134L123.388 88.1367L123.576 88.0504L123.725 87.9785L123.893 87.8969L124.023 87.8346L124.167 87.7627L124.273 87.71L124.403 87.6428L124.485 87.6045L124.6 87.5422L124.648 87.5182L124.744 87.4654L124.816 87.4271L124.461 87.7196C122.566 89.0141 113.395 92.9551 105.767 90.0593Z" fill="url(#paint15_linear_872_121640)"/>
<path d="M106.791 65.1496C105.214 67.6331 104.704 70.7159 105.276 71.9673L126.734 83.2822C126.672 82.5679 125.446 69.0187 118.174 63.7592C112.624 59.7462 108.82 61.9469 106.791 65.1496Z" fill="url(#paint16_linear_872_121640)"/>
<path d="M105.064 71.0126C105.064 71.0413 105.064 71.0749 105.064 71.1037C105.071 71.2018 105.084 71.2994 105.102 71.3961C105.1 71.4152 105.1 71.4346 105.102 71.4537C105.117 71.5347 105.136 71.6148 105.16 71.6934C105.16 71.7014 105.16 71.7094 105.16 71.7174C105.186 71.802 105.217 71.8853 105.252 71.9667L104.977 71.5879C104.631 70.1496 105.184 67.177 106.622 64.9092C108.652 61.7113 112.547 59.5538 118.097 63.5668C118.838 64.1074 119.518 64.7263 120.126 65.4126C120.319 65.6524 120.511 65.8921 120.689 66.1366L121.285 66.9565C120.422 65.7347 119.37 64.657 118.169 63.7633C117.88 63.5524 117.597 63.3654 117.318 63.188L117.217 63.1257C116.954 62.9627 116.694 62.814 116.438 62.6798L116.303 62.6079C116.053 62.4832 115.808 62.3682 115.567 62.2627L115.442 62.2099C115.197 62.1141 114.961 62.023 114.721 61.951L114.639 61.9271C114.37 61.8456 114.11 61.7784 113.85 61.7257H113.749C113.6 61.6969 113.456 61.673 113.307 61.6586H113.158H112.85H112.706H112.292H112.133H111.917H111.768L111.556 61.6873L111.417 61.7161C111.345 61.7161 111.277 61.7401 111.21 61.7593L111.066 61.7928L110.869 61.8456L110.729 61.8887L110.546 61.951L110.388 62.0086L110.224 62.0757L110.056 62.1476L109.907 62.2195L109.705 62.325C109.662 62.3461 109.62 62.3701 109.58 62.3969C109.469 62.4545 109.363 62.5216 109.258 62.5887L109.219 62.6127C109.075 62.7086 108.935 62.8092 108.796 62.9147L108.724 62.9723C108.503 63.1497 108.286 63.3414 108.079 63.5428L108.05 63.5716C107.814 63.8072 107.593 64.057 107.387 64.3195C107.176 64.585 106.98 64.8619 106.8 65.1489C106.598 65.4654 106.42 65.7866 106.252 66.1078V66.1366C106.156 66.3332 106.069 66.5298 105.983 66.7263L105.91 66.9037C105.838 67.0715 105.771 67.2441 105.708 67.4119C105.693 67.4479 105.681 67.4847 105.67 67.5222C105.555 67.853 105.454 68.179 105.372 68.4811C105.372 68.4811 105.372 68.4811 105.372 68.5099C105.309 68.7544 105.261 68.9893 105.218 69.229C105.218 69.2722 105.218 69.3153 105.218 69.3585C105.184 69.5503 105.16 69.7325 105.141 69.9099C105.141 69.9482 105.141 69.9818 105.141 70.0153C105.141 70.1352 105.141 70.2551 105.141 70.3701V70.5619C105.141 70.6242 105.141 70.6866 105.141 70.7441C105.141 70.8016 105.059 70.955 105.064 71.0126Z" fill="url(#paint17_linear_872_121640)"/>
<path d="M155.311 137.219C157.235 136.874 159.375 134.343 160.567 130.704C161.928 126.571 161.596 122.443 159.884 120.938L170.464 130.263C170.512 130.305 170.554 130.353 170.59 130.407C170.555 130.355 170.514 130.306 170.469 130.263C170.837 130.581 171.106 130.997 171.246 131.463C171.385 131.928 171.389 132.423 171.258 132.89C171.127 133.358 170.865 133.779 170.503 134.104C170.141 134.429 169.694 134.645 169.214 134.726L169.301 134.702L169.209 134.726L155.311 137.219Z" fill="url(#paint18_linear_872_121640)"/>
<path d="M153.912 137.035C156.091 138.085 159.072 135.247 160.568 130.702C162.064 126.157 161.53 121.592 159.332 120.566C157.134 119.54 154.172 122.355 152.672 126.905C151.171 131.455 151.729 135.99 153.912 137.035Z" fill="url(#paint19_linear_872_121640)"/>
<path style="mix-blend-mode:overlay" opacity="0.5" d="M152.672 126.904C154.172 122.354 157.149 119.516 159.332 120.566C161.516 121.616 162.064 126.152 160.568 130.701C159.072 135.251 156.091 138.085 153.912 137.035C151.734 135.985 151.176 131.449 152.672 126.904ZM153.984 136.882C154.375 137.044 154.801 137.105 155.222 137.057C155.643 137.009 156.045 136.855 156.389 136.608C157.99 135.649 159.496 133.425 160.409 130.649C161.876 126.185 161.371 121.731 159.26 120.724C158.87 120.558 158.444 120.496 158.022 120.543C157.601 120.59 157.199 120.745 156.855 120.993C155.249 121.952 153.749 124.181 152.835 126.957C151.354 131.416 151.888 135.87 153.984 136.882Z" fill="url(#paint20_linear_872_121640)"/>
<path style="mix-blend-mode:multiply" opacity="0.3" d="M155.791 131.756L157.662 125.945L161.293 127.465C161.158 128.565 160.915 129.649 160.567 130.701C160.281 131.576 159.92 132.424 159.49 133.238L155.791 131.756Z" fill="url(#paint21_linear_872_121640)"/>
<path d="M67.5837 100.766L74.6819 102.746L77.8319 103.623L84.1174 105.378L87.8733 106.433L90.5328 107.171L111.121 112.924L114.179 113.778L149.045 123.511L150.329 123.865L157.423 125.845L157.553 125.893C157.657 125.948 157.749 126.021 157.827 126.109C157.854 126.141 157.878 126.174 157.899 126.21C157.952 126.279 157.999 126.353 158.038 126.43C158.038 126.43 158.038 126.43 158.038 126.464C158.06 126.514 158.077 126.565 158.091 126.617C158.091 126.684 158.139 126.747 158.159 126.819C158.178 126.891 158.159 126.847 158.159 126.867C158.159 126.886 158.187 127.025 158.202 127.106C158.212 127.152 158.22 127.199 158.226 127.245C158.226 127.245 158.226 127.245 158.226 127.274C158.226 127.418 158.25 127.571 158.25 127.725C158.25 127.773 158.25 127.821 158.25 127.869C158.25 127.998 158.25 128.132 158.226 128.267C158.224 128.287 158.224 128.308 158.226 128.329C158.226 128.487 158.178 128.645 158.144 128.808L158.101 128.991C158.101 129.067 158.067 129.149 158.043 129.226L157.971 129.46C157.928 129.585 157.885 129.71 157.836 129.825C157.824 129.858 157.81 129.89 157.793 129.921C157.764 129.993 157.735 130.055 157.707 130.122L157.567 130.395L157.466 130.573C157.447 130.609 157.426 130.644 157.404 130.678C157.38 130.717 157.351 130.745 157.327 130.784C157.279 130.857 157.228 130.927 157.173 130.995L157.11 131.086L157.024 131.172C156.985 131.219 156.943 131.264 156.899 131.306L156.831 131.373L156.735 131.445C156.694 131.483 156.648 131.517 156.6 131.546L156.548 131.589C156.514 131.589 156.485 131.613 156.456 131.632C156.4 131.662 156.342 131.688 156.283 131.709L156.225 131.738H156.105H156.019C155.928 131.744 155.837 131.736 155.749 131.714L65.8861 106.634L67.5837 100.766Z" fill="url(#paint22_linear_872_121640)"/>
<path d="M65.366 103.077C65.8902 101.471 66.9434 100.469 67.7129 100.838C68.4823 101.207 68.6747 102.809 68.1505 104.415C67.6263 106.021 66.5683 107.023 65.7988 106.654C65.0294 106.285 64.837 104.655 65.366 103.077Z" fill="url(#paint23_linear_872_121640)"/>
<path style="mix-blend-mode:overlay" opacity="0.5" d="M65.366 103.077C65.8902 101.471 66.9434 100.469 67.7129 100.838C68.4823 101.207 68.6747 102.809 68.1505 104.415C67.6263 106.021 66.5683 107.023 65.7988 106.654C65.0294 106.285 64.837 104.655 65.366 103.077ZM65.8469 106.52C65.9821 106.583 66.1347 106.598 66.2797 106.563C66.9145 106.424 67.6023 105.542 67.987 104.372C68.4679 102.862 68.3236 101.308 67.6311 100.972C67.4958 100.91 67.3433 100.895 67.1983 100.929C66.5587 101.068 65.871 101.946 65.4862 103.12C65.0101 104.607 65.1736 106.16 65.8662 106.496L65.8469 106.52Z" fill="url(#paint24_linear_872_121640)"/>
<path d="M68.5735 112.267C68.5351 115.417 70.4972 119.065 77.3358 120.086C86.2759 121.429 94.6486 114.132 95.1055 113.748L71.0166 107.285C69.8576 107.674 68.6072 109.821 68.5735 112.267Z" fill="url(#paint25_linear_872_121640)"/>
<path d="M77.0178 120.29C70.1984 119.264 68.2123 115.62 68.2556 112.47V112.432C68.3044 110.916 68.8519 109.459 69.8137 108.284L69.9291 108.141C69.8474 108.246 69.7656 108.356 69.6887 108.471L69.6069 108.601C69.554 108.682 69.5059 108.769 69.453 108.86L69.3713 109.018C69.3232 109.109 69.2751 109.205 69.2318 109.301L69.1597 109.464C69.1116 109.579 69.0635 109.699 69.0202 109.823L68.9769 109.943C68.9192 110.111 68.8663 110.279 68.823 110.452L68.7942 110.576C68.7605 110.71 68.7317 110.849 68.7028 110.989L68.6739 111.171C68.6739 111.295 68.6355 111.42 68.621 111.545C68.6066 111.669 68.621 111.679 68.621 111.741C68.621 111.919 68.621 112.091 68.5922 112.269C68.5633 112.446 68.5922 112.609 68.5922 112.782C68.5922 112.81 68.5922 112.844 68.5922 112.873C68.5922 113.065 68.6258 113.252 68.6547 113.443C68.6547 113.53 68.6884 113.611 68.7076 113.697C68.7269 113.784 68.7461 113.923 68.7749 114.038C68.8355 114.277 68.9093 114.512 68.9962 114.743C69.025 114.819 69.0587 114.896 69.0875 114.968C69.1164 115.04 69.2029 115.241 69.2703 115.375C69.3376 115.51 69.3616 115.543 69.4049 115.625C69.4482 115.706 69.5492 115.879 69.631 116.004C69.7127 116.128 69.7512 116.186 69.8185 116.277C69.8858 116.368 69.9484 116.454 70.0157 116.545C70.083 116.636 70.2177 116.79 70.3283 116.914L70.4052 117.001C70.5591 117.159 70.7226 117.317 70.8861 117.48L70.939 117.528C71.1266 117.691 71.3238 117.845 71.5354 118.008C71.7502 118.161 71.981 118.31 72.2279 118.454L72.2856 118.487C72.5164 118.617 72.7665 118.741 73.0166 118.866L73.1128 118.909C73.3628 119.024 73.6273 119.134 73.9015 119.24L74.0554 119.297C74.3487 119.403 74.6517 119.503 74.9739 119.595H75.0027C75.3009 119.681 75.6183 119.758 75.9646 119.83L76.4455 119.925C76.7388 119.983 77.0322 120.04 77.3448 120.088C77.6574 120.136 77.8546 120.156 78.1094 120.18C78.5278 120.223 78.9462 120.242 79.3598 120.247H79.6772H80.0235H80.4707L80.8122 120.223L81.2594 120.184L81.5912 120.146L82.0433 120.084L82.3607 120.036L82.8416 119.954L83.1398 119.897L83.6207 119.786L83.8756 119.729C84.0936 119.678 84.31 119.62 84.5248 119.556H84.6066L85.3231 119.336L85.5588 119.259L86.0397 119.101L86.3186 118.995L86.7274 118.842L87.0159 118.727L87.3958 118.569L87.6796 118.444L88.0451 118.286L88.3288 118.156L88.6799 117.988L88.9492 117.854L89.2906 117.682C89.3772 117.638 89.4638 117.595 89.5455 117.547L89.8774 117.37L90.1226 117.241L90.4496 117.054L90.6709 116.929L90.9979 116.732L91.195 116.617L91.5653 116.387L91.6904 116.31L92.1713 116.008L92.2723 115.941L92.6041 115.716L92.7724 115.601L93.0177 115.433L93.1812 115.318L93.3928 115.165L93.5515 115.049L93.7391 114.91L93.8833 114.805L94.0469 114.68L94.1815 114.58L94.3258 114.465L94.4364 114.373L94.5662 114.273L94.6576 114.196L94.7682 114.11L94.8404 114.047L94.9414 113.966L94.9846 113.932L95.0664 113.86L95.1289 113.808L94.8404 114.167C93.2101 115.711 85.0875 121.503 77.0178 120.29Z" fill="url(#paint26_linear_872_121640)"/>
<path d="M72.7102 95.7324C71.7002 98.4892 71.8589 101.61 72.6861 102.713L96.0488 109.224C95.8324 108.543 91.7206 95.5598 83.5211 91.9639C77.2644 89.2119 74.0134 92.1701 72.7102 95.7324Z" fill="url(#paint27_linear_872_121640)"/>
<path d="M72.277 101.821C72.2748 101.851 72.2748 101.882 72.277 101.912C72.3058 102.008 72.3443 102.104 72.378 102.19C72.3762 102.208 72.3762 102.226 72.378 102.243C72.4116 102.32 72.4453 102.396 72.4838 102.468C72.5318 102.55 72.5799 102.627 72.628 102.694L72.277 102.382C71.6277 101.035 71.5364 98.0287 72.4597 95.5069C73.763 91.9494 77.1101 89.0151 83.3908 91.7624C84.23 92.1346 85.0265 92.596 85.7665 93.1384C86.007 93.3302 86.2475 93.5219 86.4735 93.7281L87.2285 94.3993C86.117 93.3884 84.8528 92.5584 83.4822 91.9398C83.1552 91.7959 82.8378 91.6713 82.5204 91.561L82.4098 91.5179C82.1164 91.4124 81.8327 91.3261 81.5537 91.2494L81.4095 91.2062C81.1354 91.1343 80.8709 91.0768 80.6112 91.024L80.4813 91.0001C80.2216 90.9569 79.9667 90.9233 79.7215 90.8994H79.6974C79.4272 90.8757 79.1559 90.8661 78.8847 90.8706H78.7837C78.6298 90.8706 78.4855 90.8706 78.3365 90.8994H78.1874L77.8796 90.9425L77.7401 90.9665C77.6536 90.9665 77.567 91.0048 77.4852 91.024L77.3362 91.0576C77.2833 91.0576 77.2352 91.0864 77.1823 91.1007L76.9755 91.1631L76.836 91.211C76.7673 91.2329 76.6999 91.2585 76.634 91.2877L76.4994 91.3405L76.307 91.4268L76.1772 91.4891L75.9944 91.585L75.8646 91.6569L75.7011 91.7528L75.5616 91.8439L75.4125 91.9446L75.2634 92.0548L75.1336 92.1555L74.9605 92.2994L74.8498 92.3952C74.7536 92.4767 74.6671 92.563 74.5757 92.6493C74.5671 92.6628 74.5556 92.6743 74.5421 92.6829C74.4218 92.8076 74.3064 92.937 74.1958 93.0665L74.1381 93.1384C73.9547 93.36 73.7845 93.5922 73.6283 93.8336V93.8671C73.4531 94.1496 73.2926 94.4408 73.1474 94.7397C72.997 95.0519 72.8637 95.372 72.7482 95.6986C72.6232 96.0438 72.5126 96.3986 72.4212 96.7534C72.4212 96.7534 72.4212 96.7534 72.4212 96.787C72.3635 96.9979 72.3202 97.2089 72.277 97.4198C72.277 97.4822 72.2529 97.5445 72.2433 97.602C72.2096 97.7842 72.1808 97.9664 72.1567 98.1438V98.2637C72.1135 98.6089 72.0846 98.9493 72.075 99.2801V99.3089C72.075 99.563 72.075 99.7883 72.075 100.047C72.0774 100.09 72.0774 100.134 72.075 100.177C72.075 100.368 72.099 100.555 72.1183 100.733C72.1203 100.768 72.1203 100.803 72.1183 100.838C72.1183 100.958 72.1519 101.073 72.1711 101.188C72.1904 101.303 72.2 101.313 72.2096 101.375C72.2192 101.438 72.2385 101.5 72.2481 101.557C72.2577 101.615 72.2529 101.749 72.277 101.821Z" fill="url(#paint28_linear_872_121640)"/>
<path d="M149.117 55.4223L148.318 56.9278C148.044 57.4461 147.627 57.8753 147.116 58.1647L145.649 58.9894C145.636 58.997 145.625 59.0079 145.618 59.0209C145.611 59.0339 145.607 59.0487 145.607 59.0637C145.607 59.0787 145.611 59.0934 145.618 59.1065C145.625 59.1195 145.636 59.1304 145.649 59.138L147.116 59.9579C147.626 60.2488 148.043 60.6776 148.318 61.1948L149.117 62.7003C149.122 62.715 149.132 62.7276 149.145 62.7366C149.158 62.7455 149.173 62.7503 149.189 62.7503C149.204 62.7503 149.22 62.7455 149.233 62.7366C149.245 62.7276 149.255 62.715 149.261 62.7003L150.064 61.1948C150.337 60.6756 150.754 60.246 151.266 59.9579L152.733 59.138C152.745 59.1296 152.755 59.1185 152.761 59.1055C152.768 59.0926 152.771 59.0782 152.771 59.0637C152.771 59.0491 152.768 59.0348 152.761 59.0219C152.755 59.0089 152.745 58.9978 152.733 58.9894L151.266 58.1647C150.753 57.8779 150.335 57.448 150.064 56.9278L149.261 55.4223C149.254 55.4093 149.243 55.3984 149.231 55.3908C149.218 55.3832 149.203 55.3792 149.189 55.3792C149.174 55.3792 149.159 55.3832 149.147 55.3908C149.134 55.3984 149.123 55.4093 149.117 55.4223Z" fill="white"/>
<path d="M295.819 147.566L294.992 149.071C294.708 149.595 294.276 150.025 293.751 150.308L292.261 151.133C292.248 151.14 292.237 151.15 292.229 151.163C292.221 151.176 292.217 151.19 292.217 151.205C292.217 151.22 292.221 151.234 292.229 151.247C292.237 151.259 292.248 151.27 292.261 151.277L293.771 152.101C294.295 152.387 294.725 152.816 295.011 153.338L295.819 154.858C295.827 154.871 295.838 154.882 295.851 154.889C295.864 154.897 295.879 154.901 295.894 154.901C295.909 154.901 295.924 154.897 295.937 154.889C295.95 154.882 295.961 154.871 295.968 154.858L296.791 153.353C297.076 152.826 297.506 152.392 298.032 152.101L299.542 151.277C299.556 151.271 299.569 151.262 299.578 151.249C299.587 151.236 299.592 151.221 299.592 151.205C299.592 151.189 299.587 151.174 299.578 151.161C299.569 151.148 299.556 151.138 299.542 151.133L298.032 150.308C297.508 150.023 297.077 149.594 296.791 149.071L295.968 147.566C295.961 147.553 295.95 147.542 295.937 147.535C295.924 147.527 295.909 147.523 295.894 147.523C295.879 147.523 295.864 147.527 295.851 147.535C295.838 147.542 295.827 147.553 295.819 147.566Z" fill="white"/>
<path d="M104.257 125.754L103.43 127.259C103.144 127.781 102.713 128.211 102.189 128.496L100.679 129.316C100.666 129.323 100.655 129.334 100.648 129.347C100.64 129.36 100.636 129.375 100.636 129.39C100.636 129.405 100.64 129.42 100.648 129.433C100.655 129.446 100.666 129.457 100.679 129.464L102.189 130.289C102.714 130.573 103.145 131.003 103.43 131.526L104.257 133.032C104.265 133.044 104.275 133.055 104.289 133.063C104.302 133.07 104.316 133.074 104.331 133.074C104.347 133.074 104.361 133.07 104.374 133.063C104.387 133.055 104.398 133.044 104.406 133.032L105.228 131.526C105.514 131.004 105.945 130.574 106.469 130.289L107.979 129.45C107.994 129.444 108.006 129.433 108.014 129.42C108.023 129.407 108.027 129.391 108.027 129.376C108.027 129.36 108.023 129.345 108.014 129.332C108.006 129.318 107.994 129.308 107.979 129.301L106.469 128.482C105.946 128.195 105.516 127.766 105.228 127.245L104.406 125.739C104.397 125.727 104.385 125.717 104.371 125.711C104.358 125.705 104.342 125.702 104.327 125.704C104.312 125.705 104.298 125.71 104.285 125.719C104.273 125.728 104.263 125.74 104.257 125.754Z" fill="white"/>
<path d="M310.799 88.5006L310.492 89.0712C310.382 89.2743 310.214 89.441 310.011 89.5506L309.438 89.8623C309.434 89.8659 309.431 89.8703 309.429 89.8753C309.427 89.8802 309.425 89.8856 309.425 89.891C309.425 89.8965 309.427 89.9019 309.429 89.9068C309.431 89.9118 309.434 89.9162 309.438 89.9198L310.011 90.2314C310.215 90.3402 310.382 90.5071 310.492 90.7109L310.799 91.2766C310.802 91.2816 310.807 91.2857 310.812 91.2886C310.817 91.2914 310.822 91.2929 310.828 91.2929C310.834 91.2929 310.84 91.2914 310.845 91.2886C310.85 91.2857 310.854 91.2816 310.857 91.2766L311.17 90.7109C311.277 90.506 311.445 90.3387 311.651 90.2314L312.218 89.9198C312.223 89.9168 312.227 89.9126 312.23 89.9076C312.233 89.9025 312.234 89.8968 312.234 89.891C312.234 89.8853 312.233 89.8796 312.23 89.8745C312.227 89.8695 312.223 89.8653 312.218 89.8623L311.651 89.5506C311.446 89.4424 311.278 89.2754 311.17 89.0712L310.857 88.5006C310.854 88.4957 310.85 88.4916 310.845 88.4887C310.84 88.4859 310.834 88.4844 310.828 88.4844C310.822 88.4844 310.817 88.4859 310.812 88.4887C310.807 88.4916 310.802 88.4957 310.799 88.5006Z" fill="white"/>
<path d="M135.208 69.1813L134.804 69.9196C134.664 70.1744 134.454 70.384 134.198 70.5237L133.457 70.9312C133.45 70.934 133.444 70.9389 133.439 70.9453C133.435 70.9517 133.432 70.9594 133.432 70.9672C133.432 70.975 133.435 70.9827 133.439 70.9891C133.444 70.9955 133.45 71.0004 133.457 71.0032L134.198 71.4059C134.454 71.5456 134.664 71.7552 134.804 72.01L135.208 72.7483C135.211 72.7557 135.216 72.762 135.222 72.7665C135.229 72.7709 135.236 72.7733 135.244 72.7733C135.252 72.7733 135.26 72.7709 135.266 72.7665C135.272 72.762 135.277 72.7557 135.28 72.7483L135.684 72.01C135.827 71.7559 136.039 71.5467 136.295 71.4059L137.035 71.0032C137.043 71.0004 137.049 70.9955 137.054 70.9891C137.058 70.9827 137.061 70.975 137.061 70.9672C137.061 70.9594 137.058 70.9517 137.054 70.9453C137.049 70.9389 137.043 70.934 137.035 70.9312L136.295 70.5237C136.039 70.3829 135.827 70.1737 135.684 69.9196L135.28 69.1813C135.277 69.1739 135.272 69.1676 135.266 69.1631C135.26 69.1586 135.252 69.1562 135.244 69.1562C135.236 69.1562 135.229 69.1586 135.222 69.1631C135.216 69.1676 135.211 69.1739 135.208 69.1813Z" fill="white"/>
<path d="M105.642 41.5074L105.234 42.2457C105.094 42.5005 104.883 42.7101 104.628 42.8498L103.887 43.2525C103.88 43.2553 103.873 43.2602 103.869 43.2666C103.864 43.273 103.862 43.2807 103.862 43.2885C103.862 43.2963 103.864 43.304 103.869 43.3104C103.873 43.3168 103.88 43.3217 103.887 43.3245L104.628 43.732C104.883 43.8717 105.094 44.0813 105.234 44.3361L105.642 45.0649C105.645 45.0722 105.65 45.0785 105.657 45.083C105.663 45.0875 105.671 45.0899 105.679 45.0899C105.686 45.0899 105.694 45.0875 105.701 45.083C105.707 45.0785 105.712 45.0722 105.715 45.0649L106.119 44.3265C106.259 44.0717 106.469 43.8621 106.725 43.7224L107.465 43.3149C107.473 43.3122 107.479 43.3072 107.483 43.3008C107.488 43.2944 107.49 43.2867 107.49 43.2789C107.49 43.2711 107.488 43.2634 107.483 43.257C107.479 43.2506 107.473 43.2457 107.465 43.243L106.725 42.8402C106.469 42.7005 106.259 42.4909 106.119 42.2361L105.715 41.4978C105.711 41.4906 105.705 41.4848 105.698 41.481C105.691 41.4773 105.683 41.4758 105.675 41.4769C105.667 41.478 105.66 41.4815 105.654 41.4869C105.648 41.4924 105.644 41.4995 105.642 41.5074Z" fill="white"/>
<path d="M309.38 139.373L308.803 140.423C308.603 140.788 308.303 141.087 307.937 141.286L306.884 141.857C306.875 141.863 306.868 141.87 306.863 141.88C306.858 141.889 306.855 141.899 306.855 141.91C306.855 141.92 306.858 141.931 306.863 141.94C306.868 141.949 306.875 141.957 306.884 141.962L307.937 142.538C308.303 142.735 308.603 143.033 308.803 143.396L309.38 144.451C309.385 144.46 309.392 144.467 309.401 144.472C309.41 144.478 309.42 144.48 309.431 144.48C309.441 144.48 309.451 144.478 309.46 144.472C309.469 144.467 309.476 144.46 309.481 144.451L310.058 143.396C310.259 143.034 310.56 142.736 310.924 142.538L311.977 141.962C311.987 141.958 311.996 141.951 312.002 141.941C312.008 141.932 312.012 141.921 312.012 141.91C312.012 141.898 312.008 141.888 312.002 141.878C311.996 141.869 311.987 141.861 311.977 141.857L310.924 141.286C310.559 141.086 310.259 140.787 310.058 140.423L309.481 139.373C309.476 139.364 309.469 139.357 309.46 139.352C309.451 139.347 309.441 139.344 309.431 139.344C309.42 139.344 309.41 139.347 309.401 139.352C309.392 139.357 309.385 139.364 309.38 139.373Z" fill="white"/>
<path d="M115.16 102.899C115.16 103.062 115.209 103.221 115.3 103.357C115.39 103.493 115.52 103.598 115.671 103.661C115.822 103.723 115.988 103.739 116.149 103.708C116.309 103.676 116.456 103.597 116.572 103.482C116.688 103.367 116.767 103.22 116.799 103.06C116.83 102.9 116.814 102.734 116.751 102.583C116.689 102.433 116.583 102.304 116.447 102.213C116.311 102.123 116.151 102.074 115.987 102.074C115.768 102.074 115.558 102.161 115.402 102.316C115.247 102.47 115.16 102.68 115.16 102.899Z" fill="white"/>
<path d="M311.015 122.766C311.015 122.887 311.051 123.006 311.119 123.107C311.186 123.208 311.282 123.287 311.395 123.333C311.507 123.379 311.631 123.392 311.751 123.368C311.87 123.344 311.98 123.286 312.066 123.2C312.152 123.114 312.211 123.005 312.234 122.886C312.258 122.767 312.246 122.643 312.199 122.531C312.153 122.419 312.074 122.323 311.973 122.256C311.871 122.188 311.752 122.152 311.631 122.152C311.467 122.152 311.311 122.217 311.195 122.332C311.08 122.447 311.015 122.603 311.015 122.766Z" fill="white"/>
<path d="M271.855 186.286C271.855 186.449 271.904 186.608 271.995 186.744C272.086 186.879 272.215 186.985 272.366 187.047C272.517 187.11 272.684 187.126 272.844 187.094C273.004 187.063 273.152 186.984 273.267 186.869C273.383 186.753 273.462 186.606 273.494 186.446C273.526 186.287 273.509 186.121 273.447 185.97C273.384 185.819 273.278 185.691 273.142 185.6C273.006 185.509 272.846 185.461 272.683 185.461C272.463 185.461 272.253 185.548 272.098 185.702C271.943 185.857 271.855 186.067 271.855 186.286Z" fill="white"/>
<path d="M295.626 167.755C295.627 167.822 295.648 167.888 295.686 167.943C295.724 167.998 295.777 168.041 295.84 168.066C295.902 168.091 295.971 168.098 296.037 168.084C296.103 168.07 296.163 168.037 296.21 167.99C296.258 167.942 296.29 167.881 296.302 167.815C296.315 167.749 296.308 167.681 296.282 167.619C296.256 167.557 296.212 167.504 296.156 167.467C296.1 167.43 296.035 167.41 295.967 167.41C295.922 167.41 295.877 167.419 295.835 167.437C295.794 167.454 295.756 167.479 295.724 167.512C295.692 167.544 295.667 167.582 295.65 167.624C295.633 167.665 295.625 167.71 295.626 167.755Z" fill="white"/>
<path d="M290.774 165.743C290.585 165.743 290.432 165.591 290.432 165.403C290.432 165.215 290.585 165.062 290.774 165.062C290.962 165.062 291.115 165.215 291.115 165.403C291.115 165.591 290.962 165.743 290.774 165.743Z" fill="white"/>
<path d="M303.62 93.8413C303.621 93.9084 303.642 93.9737 303.68 94.0291C303.718 94.0844 303.771 94.1273 303.834 94.1524C303.896 94.1774 303.965 94.1834 304.031 94.1698C304.097 94.1561 304.157 94.1233 304.204 94.0755C304.252 94.0277 304.284 93.9671 304.297 93.9012C304.309 93.8353 304.302 93.7671 304.276 93.7051C304.25 93.6432 304.207 93.5903 304.151 93.5531C304.094 93.516 304.029 93.4961 303.961 93.4961C303.916 93.4961 303.871 93.5051 303.83 93.5225C303.788 93.5399 303.75 93.5654 303.718 93.5975C303.686 93.6296 303.661 93.6677 303.644 93.7096C303.628 93.7514 303.619 93.7962 303.62 93.8413Z" fill="white"/>
<path d="M282.208 58.0551C282.208 58.1765 282.244 58.2951 282.312 58.396C282.38 58.497 282.476 58.5756 282.588 58.6221C282.701 58.6685 282.825 58.6807 282.944 58.657C283.063 58.6333 283.173 58.5749 283.259 58.489C283.345 58.4032 283.404 58.2939 283.428 58.1748C283.451 58.0558 283.439 57.9324 283.393 57.8202C283.346 57.7081 283.267 57.6123 283.166 57.5448C283.065 57.4774 282.946 57.4414 282.824 57.4414C282.661 57.4414 282.504 57.5061 282.389 57.6212C282.273 57.7362 282.208 57.8923 282.208 58.0551Z" fill="white"/>
<path d="M173.84 39.9745C173.744 40.0504 173.674 40.1526 173.637 40.2683C173.601 40.384 173.599 40.5079 173.633 40.6245C173.667 40.741 173.735 40.8449 173.828 40.9231C173.921 41.0012 174.035 41.0501 174.156 41.0635C174.277 41.0769 174.4 41.0542 174.508 40.9984C174.616 40.9425 174.705 40.856 174.763 40.7497C174.822 40.6434 174.848 40.5221 174.838 40.4012C174.827 40.2803 174.781 40.1652 174.705 40.0704C174.655 40.0074 174.592 39.955 174.521 39.916C174.45 39.8771 174.373 39.8525 174.292 39.8436C174.212 39.8347 174.13 39.8417 174.053 39.8641C173.975 39.8866 173.903 39.9241 173.84 39.9745Z" fill="white"/>
<path d="M322.177 163.409C322.005 163.547 321.877 163.733 321.81 163.943C321.743 164.154 321.74 164.379 321.801 164.591C321.862 164.803 321.986 164.993 322.155 165.135C322.324 165.277 322.532 165.366 322.752 165.391C322.972 165.416 323.194 165.375 323.391 165.274C323.588 165.173 323.75 165.016 323.858 164.823C323.965 164.629 324.013 164.409 323.994 164.189C323.976 163.969 323.893 163.759 323.755 163.586C323.663 163.471 323.55 163.375 323.421 163.304C323.292 163.233 323.15 163.188 323.003 163.171C322.857 163.155 322.708 163.167 322.567 163.208C322.425 163.249 322.293 163.317 322.177 163.409Z" fill="white"/>
<path d="M172.513 36.9491C172.523 37.0331 172.564 37.1104 172.627 37.1666C172.691 37.2227 172.773 37.2537 172.857 37.2537C172.942 37.2537 173.024 37.2227 173.087 37.1666C173.151 37.1104 173.191 37.0331 173.201 36.9491C173.191 36.8652 173.151 36.7878 173.087 36.7317C173.024 36.6755 172.942 36.6445 172.857 36.6445C172.773 36.6445 172.691 36.6755 172.627 36.7317C172.564 36.7878 172.523 36.8652 172.513 36.9491Z" fill="white"/>
<path d="M308.505 172.819C308.505 172.942 308.542 173.063 308.611 173.165C308.68 173.268 308.778 173.348 308.893 173.395C309.007 173.442 309.133 173.454 309.254 173.43C309.376 173.405 309.487 173.345 309.574 173.258C309.662 173.17 309.721 173.058 309.744 172.937C309.768 172.816 309.755 172.691 309.707 172.577C309.659 172.463 309.578 172.366 309.474 172.298C309.371 172.23 309.25 172.194 309.126 172.195C308.961 172.197 308.803 172.263 308.687 172.38C308.571 172.496 308.505 172.654 308.505 172.819Z" fill="white"/>
<path d="M110.816 99.7499C110.826 99.8338 110.867 99.9112 110.93 99.9673C110.993 100.023 111.075 100.054 111.16 100.054C111.245 100.054 111.327 100.023 111.39 99.9673C111.453 99.9112 111.494 99.8338 111.504 99.7499C111.494 99.666 111.453 99.5886 111.39 99.5325C111.327 99.4763 111.245 99.4453 111.16 99.4453C111.075 99.4453 110.993 99.4763 110.93 99.5325C110.867 99.5886 110.826 99.666 110.816 99.7499Z" fill="white"/>
<path d="M310.313 124.883C310.313 124.951 310.333 125.017 310.371 125.072C310.408 125.128 310.462 125.172 310.524 125.198C310.586 125.224 310.655 125.23 310.721 125.217C310.787 125.204 310.848 125.172 310.896 125.124C310.944 125.076 310.976 125.016 310.99 124.95C311.003 124.884 310.996 124.815 310.97 124.753C310.944 124.691 310.9 124.638 310.844 124.6C310.788 124.563 310.722 124.543 310.655 124.543C310.564 124.543 310.477 124.579 310.413 124.643C310.349 124.707 310.313 124.793 310.313 124.883Z" fill="white"/>
<path d="M43.4313 84.3327L43.1187 84.9032C43.0116 85.1085 42.8437 85.2759 42.6378 85.3827L42.0703 85.6943C42.0653 85.6973 42.0612 85.7015 42.0583 85.7065C42.0555 85.7116 42.054 85.7173 42.054 85.7231C42.054 85.7289 42.0555 85.7346 42.0583 85.7396C42.0612 85.7446 42.0653 85.7489 42.0703 85.7518L42.6378 86.0635C42.8437 86.1703 43.0116 86.3377 43.1187 86.5429L43.4313 87.1135C43.4343 87.1184 43.4385 87.1225 43.4436 87.1254C43.4486 87.1282 43.4543 87.1297 43.4601 87.1297C43.466 87.1297 43.4716 87.1282 43.4767 87.1254C43.4818 87.1225 43.486 87.1184 43.489 87.1135L43.8016 86.5429C43.9094 86.3382 44.0772 86.171 44.2825 86.0635L44.8548 85.7518C44.8598 85.7489 44.8639 85.7446 44.8667 85.7396C44.8696 85.7346 44.8711 85.7289 44.8711 85.7231C44.8711 85.7173 44.8696 85.7116 44.8667 85.7065C44.8639 85.7015 44.8598 85.6973 44.8548 85.6943L44.2825 85.3827C44.0772 85.2751 43.9094 85.1079 43.8016 84.9032L43.489 84.3327C43.486 84.3277 43.4818 84.3236 43.4767 84.3208C43.4716 84.3179 43.466 84.3164 43.4601 84.3164C43.4543 84.3164 43.4486 84.3179 43.4436 84.3208C43.4385 84.3236 43.4343 84.3277 43.4313 84.3327Z" fill="white"/>
<path d="M68.207 45.7582C68.207 45.9213 68.2555 46.0808 68.3464 46.2164C68.4373 46.352 68.5665 46.4577 68.7176 46.5201C68.8688 46.5825 69.0351 46.5989 69.1955 46.567C69.356 46.5352 69.5034 46.4567 69.619 46.3414C69.7347 46.226 69.8135 46.0791 69.8454 45.9191C69.8774 45.7592 69.861 45.5933 69.7984 45.4427C69.7357 45.292 69.6297 45.1632 69.4937 45.0726C69.3577 44.982 69.1978 44.9336 69.0342 44.9336C68.8148 44.9336 68.6044 45.0205 68.4493 45.1751C68.2941 45.3298 68.207 45.5395 68.207 45.7582Z" fill="white"/>
<path d="M36.2507 89.6529C36.2507 89.7432 36.2867 89.8298 36.3507 89.8936C36.4147 89.9575 36.5016 89.9933 36.5921 89.9933C36.6827 89.9933 36.7696 89.9575 36.8336 89.8936C36.8976 89.8298 36.9336 89.7432 36.9336 89.6529C36.9336 89.5626 36.8976 89.476 36.8336 89.4122C36.7696 89.3484 36.6827 89.3125 36.5921 89.3125C36.5016 89.3125 36.4147 89.3484 36.3507 89.4122C36.2867 89.476 36.2507 89.5626 36.2507 89.6529Z" fill="white"/>
<path d="M63.0568 64.6226C62.993 64.6725 62.9399 64.7346 62.9005 64.8053C62.8611 64.8759 62.8362 64.9537 62.8273 65.034C62.8183 65.1143 62.8255 65.1956 62.8484 65.2731C62.8713 65.3507 62.9094 65.4229 62.9606 65.4856C63.0367 65.5803 63.1392 65.6504 63.2552 65.687C63.3713 65.7237 63.4956 65.7252 63.6125 65.6914C63.7294 65.6576 63.8337 65.59 63.912 65.4971C63.9904 65.4043 64.0394 65.2904 64.0529 65.1697C64.0663 65.0491 64.0436 64.9273 63.9876 64.8195C63.9315 64.7118 63.8447 64.623 63.7381 64.5645C63.6315 64.5059 63.5099 64.4802 63.3886 64.4905C63.2673 64.5009 63.1519 64.5468 63.0568 64.6226Z" fill="white"/>
<path d="M65.405 63.2857C65.405 63.353 65.425 63.4189 65.4625 63.4748C65.5001 63.5308 65.5534 63.5745 65.6158 63.6002C65.6782 63.626 65.7468 63.6327 65.8131 63.6196C65.8793 63.6065 65.9401 63.574 65.9879 63.5264C66.0357 63.4788 66.0682 63.4182 66.0813 63.3521C66.0945 63.2861 66.0877 63.2177 66.0619 63.1555C66.0361 63.0933 65.9923 63.0401 65.9362 63.0027C65.88 62.9653 65.814 62.9453 65.7464 62.9453C65.6559 62.9453 65.5691 62.9812 65.505 63.045C65.441 63.1089 65.405 63.1954 65.405 63.2857Z" fill="white"/>
<path d="M81.0241 83.3131C81.0241 83.3804 81.0442 83.4462 81.0817 83.5022C81.1192 83.5582 81.1725 83.6018 81.2349 83.6276C81.2973 83.6533 81.366 83.6601 81.4322 83.6469C81.4984 83.6338 81.5593 83.6014 81.607 83.5538C81.6548 83.5062 81.6873 83.4455 81.7005 83.3795C81.7136 83.3134 81.7069 83.245 81.681 83.1828C81.6552 83.1206 81.6114 83.0674 81.5553 83.03C81.4991 82.9926 81.4331 82.9727 81.3656 82.9727C81.275 82.9727 81.1882 83.0085 81.1241 83.0724C81.0601 83.1362 81.0241 83.2228 81.0241 83.3131Z" fill="white"/>
<path d="M74.6671 140.448L73.84 141.954C73.5553 142.477 73.1243 142.907 72.5992 143.191L71.0892 144.015C71.0761 144.022 71.0652 144.033 71.0575 144.045C71.0499 144.058 71.0459 144.072 71.0459 144.087C71.0459 144.102 71.0499 144.116 71.0575 144.129C71.0652 144.142 71.0761 144.152 71.0892 144.159L72.5992 144.984C73.1233 145.269 73.554 145.698 73.84 146.221L74.6671 147.726C74.6748 147.739 74.6857 147.75 74.6988 147.757C74.7119 147.765 74.7266 147.769 74.7417 147.769C74.7567 147.769 74.7715 147.765 74.7846 147.757C74.7977 147.75 74.8086 147.739 74.8162 147.726L75.6434 146.23C75.9294 145.708 76.3601 145.278 76.8842 144.993L78.3942 144.169C78.4073 144.162 78.4182 144.151 78.4258 144.139C78.4335 144.126 78.4375 144.111 78.4375 144.097C78.4375 144.082 78.4335 144.067 78.4258 144.055C78.4182 144.042 78.4073 144.032 78.3942 144.025L76.8842 143.2C76.3591 142.916 75.9281 142.487 75.6434 141.963L74.8162 140.458C74.8094 140.444 74.7993 140.433 74.7867 140.425C74.7741 140.416 74.7595 140.411 74.7445 140.41C74.7294 140.409 74.7143 140.412 74.7007 140.419C74.6872 140.426 74.6756 140.436 74.6671 140.448Z" fill="white"/>
<path d="M94.986 154.457C94.891 154.533 94.8207 154.635 94.7839 154.751C94.7472 154.866 94.7456 154.99 94.7795 155.107C94.8135 155.223 94.8813 155.327 94.9744 155.406C95.0675 155.484 95.1818 155.533 95.3028 155.546C95.4237 155.559 95.546 155.537 95.6541 155.481C95.7621 155.425 95.8512 155.338 95.9099 155.232C95.9686 155.126 95.9945 155.005 95.9841 154.884C95.9737 154.763 95.9276 154.648 95.8516 154.553C95.8015 154.489 95.7392 154.436 95.6684 154.397C95.5975 154.358 95.5195 154.333 95.439 154.324C95.3584 154.315 95.2768 154.322 95.1991 154.345C95.1213 154.368 95.0489 154.406 94.986 154.457Z" fill="white"/>
<path d="M80.6595 186.424C80.487 186.563 80.3594 186.749 80.293 186.96C80.2265 187.17 80.2242 187.396 80.2863 187.608C80.3484 187.82 80.4721 188.009 80.6417 188.151C80.8114 188.293 81.0195 188.381 81.2396 188.405C81.4598 188.429 81.6822 188.388 81.8787 188.286C82.0752 188.184 82.2371 188.027 82.3438 187.833C82.4505 187.64 82.4973 187.419 82.4783 187.199C82.4593 186.979 82.3753 186.769 82.2369 186.597C82.1452 186.482 82.0315 186.386 81.9023 186.315C81.7731 186.243 81.6311 186.198 81.4844 186.182C81.3376 186.166 81.1892 186.18 81.0476 186.221C80.906 186.263 80.7741 186.332 80.6595 186.424Z" fill="white"/>
<path d="M56.7379 149.432C56.7379 149.555 56.7747 149.676 56.8436 149.779C56.9125 149.881 57.0104 149.961 57.1249 150.008C57.2395 150.055 57.3654 150.067 57.4868 150.043C57.6082 150.018 57.7196 149.959 57.8069 149.871C57.8941 149.783 57.9533 149.672 57.9768 149.551C58.0004 149.429 57.9874 149.304 57.9393 149.19C57.8912 149.076 57.8104 148.979 57.7069 148.911C57.6035 148.843 57.4821 148.808 57.3583 148.809C57.1933 148.81 57.0355 148.876 56.9193 148.993C56.8031 149.11 56.7379 149.267 56.7379 149.432Z" fill="white"/>
<defs>
<linearGradient id="paint0_linear_872_121640" x1="242.235" y1="187.663" x2="159.055" y2="67.0171" gradientUnits="userSpaceOnUse">
<stop offset="0.07" stop-color="#005BC3"/>
<stop offset="0.27" stop-color="#2075D1"/>
<stop offset="0.71" stop-color="#6FB8F4"/>
<stop offset="0.82" stop-color="#83C8FD"/>
</linearGradient>
<linearGradient id="paint1_linear_872_121640" x1="237.936" y1="182.1" x2="170.67" y2="84.3848" gradientUnits="userSpaceOnUse">
<stop offset="0.22" stop-color="#005BC3"/>
<stop offset="0.48" stop-color="#157ADB"/>
<stop offset="0.6" stop-color="#208BE8"/>
<stop offset="0.97" stop-color="#32A5FC"/>
</linearGradient>
<linearGradient id="paint2_linear_872_121640" x1="251.297" y1="175.989" x2="154.008" y2="82.8887" gradientUnits="userSpaceOnUse">
<stop stop-color="white" stop-opacity="0"/>
<stop offset="1" stop-color="white"/>
</linearGradient>
<linearGradient id="paint3_linear_872_121640" x1="252.725" y1="170.425" x2="161.39" y2="93.1229" gradientUnits="userSpaceOnUse">
<stop stop-color="#CEB9FF"/>
<stop offset="0.04" stop-color="#D0BCFF"/>
<stop offset="1" stop-color="#F2F9FF"/>
</linearGradient>
<linearGradient id="paint4_linear_872_121640" x1="235.644" y1="160.895" x2="158.439" y2="95.5573" gradientUnits="userSpaceOnUse">
<stop stop-color="white"/>
<stop offset="1" stop-color="white"/>
</linearGradient>
<linearGradient id="paint5_linear_872_121640" x1="297.186" y1="91.7203" x2="172.22" y2="213.889" gradientUnits="userSpaceOnUse">
<stop stop-color="#71B8F5"/>
<stop offset="0.06" stop-color="#509EE7"/>
<stop offset="0.21" stop-color="#0361C8"/>
<stop offset="0.33" stop-color="#1973D1"/>
<stop offset="0.57" stop-color="#51A0E8"/>
<stop offset="0.68" stop-color="#6CB5F3"/>
<stop offset="0.77" stop-color="#4E99E0"/>
<stop offset="1" stop-color="#0150B1"/>
</linearGradient>
<linearGradient id="paint6_linear_872_121640" x1="297.141" y1="78.2132" x2="157.875" y2="228.828" gradientUnits="userSpaceOnUse">
<stop stop-color="white" stop-opacity="0.8"/>
<stop offset="0.01" stop-color="white" stop-opacity="0.68"/>
<stop offset="0.03" stop-color="white" stop-opacity="0.52"/>
<stop offset="0.05" stop-color="white" stop-opacity="0.38"/>
<stop offset="0.07" stop-color="white" stop-opacity="0.26"/>
<stop offset="0.09" stop-color="white" stop-opacity="0.17"/>
<stop offset="0.11" stop-color="white" stop-opacity="0.09"/>
<stop offset="0.14" stop-color="white" stop-opacity="0.04"/>
<stop offset="0.18" stop-color="white" stop-opacity="0.01"/>
<stop offset="0.25" stop-color="white" stop-opacity="0"/>
<stop offset="0.3" stop-color="white" stop-opacity="0.11"/>
<stop offset="0.39" stop-color="white" stop-opacity="0.4"/>
<stop offset="0.52" stop-color="white" stop-opacity="0.8"/>
<stop offset="0.54" stop-color="white" stop-opacity="0.71"/>
<stop offset="0.61" stop-color="white" stop-opacity="0.49"/>
<stop offset="0.68" stop-color="white" stop-opacity="0.32"/>
<stop offset="0.75" stop-color="white" stop-opacity="0.18"/>
<stop offset="0.81" stop-color="white" stop-opacity="0.08"/>
<stop offset="0.87" stop-color="white" stop-opacity="0.02"/>
<stop offset="0.91" stop-color="white" stop-opacity="0"/>
</linearGradient>
<linearGradient id="paint7_linear_872_121640" x1="203.786" y1="101.717" x2="179.286" y2="127.782" gradientUnits="userSpaceOnUse">
<stop offset="0.01" stop-color="#FFFF54"/>
<stop offset="0.02" stop-color="#F5E24E"/>
<stop offset="0.03" stop-color="#ECC749"/>
<stop offset="0.04" stop-color="#E6B345"/>
<stop offset="0.06" stop-color="#E1A442"/>
<stop offset="0.07" stop-color="#DE9C41"/>
<stop offset="0.1" stop-color="#DD9940"/>
<stop offset="0.14" stop-color="#D0863B"/>
<stop offset="0.21" stop-color="#B65D31"/>
<stop offset="0.22" stop-color="#B75F31"/>
<stop offset="0.23" stop-color="#C87E39"/>
<stop offset="0.25" stop-color="#D7993F"/>
<stop offset="0.27" stop-color="#E3AF44"/>
<stop offset="0.29" stop-color="#EDC048"/>
<stop offset="0.32" stop-color="#F3CB4B"/>
<stop offset="0.36" stop-color="#F7D24D"/>
<stop offset="0.47" stop-color="#F8D44D"/>
<stop offset="0.48" stop-color="#EEC149"/>
<stop offset="0.52" stop-color="#DA9D40"/>
<stop offset="0.55" stop-color="#CA8139"/>
<stop offset="0.58" stop-color="#BF6D35"/>
<stop offset="0.62" stop-color="#B86132"/>
<stop offset="0.65" stop-color="#B65D31"/>
<stop offset="0.71" stop-color="#C77B38"/>
<stop offset="0.8" stop-color="#DCA241"/>
<stop offset="0.88" stop-color="#EBBD48"/>
<stop offset="0.95" stop-color="#F5CE4C"/>
<stop offset="1" stop-color="#F8D44D"/>
</linearGradient>
<linearGradient id="paint8_linear_872_121640" x1="177.545" y1="112.502" x2="184.684" y2="117.221" gradientUnits="userSpaceOnUse">
<stop stop-color="#FFFF7C"/>
<stop offset="1" stop-color="#F1B747"/>
</linearGradient>
<linearGradient id="paint9_linear_872_121640" x1="185.946" y1="118.475" x2="178.786" y2="112.964" gradientUnits="userSpaceOnUse">
<stop offset="0.16" stop-color="white" stop-opacity="0"/>
<stop offset="1" stop-color="white"/>
</linearGradient>
<linearGradient id="paint10_linear_872_121640" x1="182.608" y1="115.976" x2="186.671" y2="118.171" gradientUnits="userSpaceOnUse">
<stop offset="0.02" stop-color="#7A0B21"/>
<stop offset="1" stop-color="#EE8D91" stop-opacity="0.6"/>
</linearGradient>
<linearGradient id="paint11_linear_872_121640" x1="142.995" y1="90.3663" x2="139.524" y2="97.0328" gradientUnits="userSpaceOnUse">
<stop offset="0.09" stop-color="#32A5FC"/>
<stop offset="0.2" stop-color="#2490EC"/>
<stop offset="0.39" stop-color="#1073D6"/>
<stop offset="0.55" stop-color="#0461C8"/>
<stop offset="0.67" stop-color="#005BC3"/>
<stop offset="0.75" stop-color="#0867CC"/>
<stop offset="0.88" stop-color="#1D85E4"/>
<stop offset="1" stop-color="#32A5FC"/>
</linearGradient>
<linearGradient id="paint12_linear_872_121640" x1="102.36" y1="75.9324" x2="98.1013" y2="70.0921" gradientUnits="userSpaceOnUse">
<stop offset="0.22" stop-color="#005BC3"/>
<stop offset="0.48" stop-color="#157ADB"/>
<stop offset="0.6" stop-color="#208BE8"/>
<stop offset="0.97" stop-color="#32A5FC"/>
</linearGradient>
<linearGradient id="paint13_linear_872_121640" x1="101.246" y1="71.6972" x2="97.2929" y2="71.6972" gradientUnits="userSpaceOnUse">
<stop stop-color="white" stop-opacity="0"/>
<stop offset="1" stop-color="white"/>
</linearGradient>
<linearGradient id="paint14_linear_872_121640" x1="105.495" y1="97.0227" x2="114.403" y2="78.8315" gradientUnits="userSpaceOnUse">
<stop stop-color="#FFFF7C"/>
<stop offset="0.91" stop-color="#F1B747"/>
</linearGradient>
<linearGradient id="paint15_linear_872_121640" x1="117.228" y1="95.9373" x2="105.454" y2="73.6133" gradientUnits="userSpaceOnUse">
<stop offset="0.32" stop-color="#B65D31"/>
<stop offset="0.43" stop-color="#B86132"/>
<stop offset="0.73" stop-color="#BC6733"/>
<stop offset="0.96" stop-color="#DD9940"/>
<stop offset="0.98" stop-color="#E6AC44"/>
<stop offset="1" stop-color="#F8D44D"/>
</linearGradient>
<linearGradient id="paint16_linear_872_121640" x1="112.956" y1="95.3211" x2="117.507" y2="66.2768" gradientUnits="userSpaceOnUse">
<stop stop-color="#FFFF7C"/>
<stop offset="1" stop-color="#F1B747"/>
</linearGradient>
<linearGradient id="paint17_linear_872_121640" x1="114.629" y1="64.0366" x2="111.271" y2="72.549" gradientUnits="userSpaceOnUse">
<stop stop-color="#FFFF7C"/>
<stop offset="1" stop-color="#F1B747"/>
</linearGradient>
<linearGradient id="paint18_linear_872_121640" x1="175.272" y1="110.913" x2="156.868" y2="141.57" gradientUnits="userSpaceOnUse">
<stop offset="0.01" stop-color="#FFFF54"/>
<stop offset="0.02" stop-color="#F5E24E"/>
<stop offset="0.03" stop-color="#ECC749"/>
<stop offset="0.04" stop-color="#E6B345"/>
<stop offset="0.06" stop-color="#E1A442"/>
<stop offset="0.07" stop-color="#DE9C41"/>
<stop offset="0.1" stop-color="#DD9940"/>
<stop offset="0.14" stop-color="#D0863B"/>
<stop offset="0.21" stop-color="#B65D31"/>
<stop offset="0.22" stop-color="#B75F31"/>
<stop offset="0.23" stop-color="#C87E39"/>
<stop offset="0.25" stop-color="#D7993F"/>
<stop offset="0.27" stop-color="#E3AF44"/>
<stop offset="0.29" stop-color="#EDC048"/>
<stop offset="0.32" stop-color="#F3CB4B"/>
<stop offset="0.36" stop-color="#F7D24D"/>
<stop offset="0.47" stop-color="#F8D44D"/>
<stop offset="0.48" stop-color="#EEC149"/>
<stop offset="0.52" stop-color="#DA9D40"/>
<stop offset="0.55" stop-color="#CA8139"/>
<stop offset="0.58" stop-color="#BF6D35"/>
<stop offset="0.62" stop-color="#B86132"/>
<stop offset="0.65" stop-color="#B65D31"/>
<stop offset="0.71" stop-color="#C77B38"/>
<stop offset="0.8" stop-color="#DCA241"/>
<stop offset="0.88" stop-color="#EBBD48"/>
<stop offset="0.95" stop-color="#F5CE4C"/>
<stop offset="1" stop-color="#F8D44D"/>
</linearGradient>
<linearGradient id="paint19_linear_872_121640" x1="151.894" y1="127.025" x2="159.877" y2="130.119" gradientUnits="userSpaceOnUse">
<stop stop-color="#FFFF7C"/>
<stop offset="1" stop-color="#F1B747"/>
</linearGradient>
<linearGradient id="paint20_linear_872_121640" x1="161.375" y1="131.084" x2="153.202" y2="127.219" gradientUnits="userSpaceOnUse">
<stop offset="0.16" stop-color="white" stop-opacity="0"/>
<stop offset="1" stop-color="white"/>
</linearGradient>
<linearGradient id="paint21_linear_872_121640" x1="157.582" y1="129.352" x2="162.021" y2="130.632" gradientUnits="userSpaceOnUse">
<stop offset="0.02" stop-color="#7A0B21"/>
<stop offset="1" stop-color="#EE8D91" stop-opacity="0.6"/>
</linearGradient>
<linearGradient id="paint22_linear_872_121640" x1="113.418" y1="112.714" x2="111.439" y2="119.961" gradientUnits="userSpaceOnUse">
<stop offset="0.09" stop-color="#32A5FC"/>
<stop offset="0.2" stop-color="#2490EC"/>
<stop offset="0.39" stop-color="#1073D6"/>
<stop offset="0.55" stop-color="#0461C8"/>
<stop offset="0.67" stop-color="#005BC3"/>
<stop offset="0.75" stop-color="#0867CC"/>
<stop offset="0.88" stop-color="#1D85E4"/>
<stop offset="1" stop-color="#32A5FC"/>
</linearGradient>
<linearGradient id="paint23_linear_872_121640" x1="70.64" y1="107.211" x2="65.2346" y2="102.405" gradientUnits="userSpaceOnUse">
<stop offset="0.22" stop-color="#005BC3"/>
<stop offset="0.48" stop-color="#157ADB"/>
<stop offset="0.6" stop-color="#208BE8"/>
<stop offset="0.97" stop-color="#32A5FC"/>
</linearGradient>
<linearGradient id="paint24_linear_872_121640" x1="68.6728" y1="103.293" x2="64.8156" y2="104.133" gradientUnits="userSpaceOnUse">
<stop stop-color="white" stop-opacity="0"/>
<stop offset="1" stop-color="white"/>
</linearGradient>
<linearGradient id="paint25_linear_872_121640" x1="78.1954" y1="127.152" x2="83.0447" y2="107.495" gradientUnits="userSpaceOnUse">
<stop stop-color="#FFFF7C"/>
<stop offset="0.91" stop-color="#F1B747"/>
</linearGradient>
<linearGradient id="paint26_linear_872_121640" x1="89.4515" y1="123.598" x2="73.2004" y2="104.268" gradientUnits="userSpaceOnUse">
<stop offset="0.32" stop-color="#B65D31"/>
<stop offset="0.43" stop-color="#B86132"/>
<stop offset="0.73" stop-color="#BC6733"/>
<stop offset="0.96" stop-color="#DD9940"/>
<stop offset="0.98" stop-color="#E6AC44"/>
<stop offset="1" stop-color="#F8D44D"/>
</linearGradient>
<linearGradient id="paint27_linear_872_121640" x1="85.1481" y1="123.897" x2="83.4468" y2="94.5497" gradientUnits="userSpaceOnUse">
<stop stop-color="#FFFF7C"/>
<stop offset="1" stop-color="#F1B747"/>
</linearGradient>
<linearGradient id="paint28_linear_872_121640" x1="80.1197" y1="92.9724" x2="78.6411" y2="102" gradientUnits="userSpaceOnUse">
<stop stop-color="#FFFF7C"/>
<stop offset="1" stop-color="#F1B747"/>
</linearGradient>
</defs>
</svg>
