<svg width="542" height="441" viewBox="0 0 542 441" fill="none" xmlns="http://www.w3.org/2000/svg">
<g opacity="0.75">
<g style="mix-blend-mode:color-burn" opacity="0.3" filter="url(#filter0_f_73_2995)">
<path d="M207.314 110.954C228.464 89.8033 228.464 55.5121 207.314 34.3619C186.164 13.2117 151.873 13.2117 130.723 34.3619C109.572 55.5121 109.572 89.8033 130.723 110.954C151.873 132.104 186.164 132.104 207.314 110.954Z" fill="#EDEDED"/>
</g>
<g style="mix-blend-mode:color-burn" opacity="0.6" filter="url(#filter1_f_73_2995)">
<path d="M173.612 279.69C193.22 279.69 209.116 263.795 209.116 244.186C209.116 224.578 193.22 208.682 173.612 208.682C154.004 208.682 138.108 224.578 138.108 244.186C138.108 263.795 154.004 279.69 173.612 279.69Z" fill="#EDEDED"/>
</g>
<g style="mix-blend-mode:color-burn" opacity="0.3" filter="url(#filter2_f_73_2995)">
<path d="M503.94 388.647C517.805 374.782 517.805 352.302 503.94 338.437C490.075 324.572 467.595 324.572 453.73 338.437C439.865 352.302 439.865 374.782 453.73 388.647C467.595 402.512 490.075 402.512 503.94 388.647Z" fill="#EDEDED"/>
</g>
<g style="mix-blend-mode:color-burn" opacity="0.3" filter="url(#filter3_f_73_2995)">
<path d="M369.753 261.292C410.579 261.292 443.676 228.196 443.676 187.369C443.676 146.543 410.579 113.447 369.753 113.447C328.926 113.447 295.83 146.543 295.83 187.369C295.83 228.196 328.926 261.292 369.753 261.292Z" fill="#EDEDED"/>
</g>
<g style="mix-blend-mode:color-burn" opacity="0.6" filter="url(#filter4_f_73_2995)">
<path d="M394.221 79.808C408.247 65.7822 408.247 43.042 394.221 29.0162C380.195 14.9905 357.455 14.9905 343.429 29.0162C329.403 43.042 329.403 65.7822 343.429 79.808C357.455 93.8337 380.195 93.8337 394.221 79.808Z" fill="#EDEDED"/>
</g>
<g style="mix-blend-mode:color-burn" opacity="0.3" filter="url(#filter5_f_73_2995)">
<path d="M148.799 164.94C156.563 157.176 156.563 144.589 148.799 136.825C141.035 129.061 128.448 129.061 120.684 136.825C112.92 144.589 112.92 157.176 120.684 164.94C128.448 172.704 141.035 172.704 148.799 164.94Z" fill="#EDEDED"/>
</g>
<g style="mix-blend-mode:color-burn" opacity="0.3" filter="url(#filter6_f_73_2995)">
<path d="M100.911 217.185C107.286 210.811 107.286 200.476 100.911 194.102C94.5372 187.728 84.2026 187.728 77.8284 194.102C71.4543 200.476 71.4543 210.811 77.8284 217.185C84.2026 223.559 94.5372 223.559 100.911 217.185Z" fill="#EDEDED"/>
</g>
<g style="mix-blend-mode:color-burn" opacity="0.3" filter="url(#filter7_f_73_2995)">
<path d="M486.287 191.72C497.267 191.72 506.168 182.819 506.168 171.84C506.168 160.86 497.267 151.959 486.287 151.959C475.308 151.959 466.407 160.86 466.407 171.84C466.407 182.819 475.308 191.72 486.287 191.72Z" fill="#EDEDED"/>
</g>
<g style="mix-blend-mode:color-burn" opacity="0.3" filter="url(#filter8_f_73_2995)">
<path d="M59.5787 369.126C77.6518 369.126 92.3029 354.475 92.3029 336.402C92.3029 318.329 77.6518 303.678 59.5787 303.678C41.5056 303.678 26.8545 318.329 26.8545 336.402C26.8545 354.475 41.5056 369.126 59.5787 369.126Z" fill="#EDEDED"/>
</g>
<g style="mix-blend-mode:color-burn" opacity="0.3" filter="url(#filter9_f_73_2995)">
<path d="M158.137 339.685C168.037 329.785 168.037 313.734 158.137 303.833C148.236 293.933 132.185 293.933 122.284 303.833C112.384 313.734 112.384 329.785 122.284 339.685C132.185 349.586 148.236 349.586 158.137 339.685Z" fill="#EDEDED"/>
</g>
</g>
<path d="M374.498 43.2553V403.221C374.498 412.557 366.769 420.123 357.23 420.123H176.939C167.402 420.123 159.67 412.557 159.67 403.221V43.2553C159.67 33.9197 167.399 26.3535 176.939 26.3535H357.235C366.767 26.3535 374.498 33.9197 374.498 43.2553Z" fill="#323A7B"/>
<path d="M366.911 50.5314V391.346C366.908 393.451 366.491 395.535 365.683 397.479C364.875 399.423 363.693 401.188 362.202 402.675C360.712 404.162 358.944 405.34 356.998 406.144C355.052 406.947 352.967 407.359 350.862 407.356H183.308C179.057 407.361 174.978 405.677 171.968 402.674C168.959 399.672 167.265 395.597 167.259 391.346V50.5314C167.265 46.2804 168.959 42.2056 171.968 39.2033C174.978 36.201 179.057 34.5169 183.308 34.5213H350.862C352.967 34.5187 355.052 34.9308 356.998 35.734C358.944 36.5372 360.712 37.7158 362.202 39.2025C363.693 40.6892 364.875 42.4548 365.683 44.3987C366.491 46.3425 366.908 48.4264 366.911 50.5314Z" fill="url(#paint0_linear_73_2995)"/>
<g opacity="0.43">
<path d="M173.351 37.969V403.909C171.447 402.415 169.908 400.508 168.85 398.331C167.792 396.155 167.244 393.766 167.245 391.346V50.5314C167.243 48.1115 167.792 45.7228 168.85 43.5463C169.908 41.3698 171.447 39.4625 173.351 37.969Z" fill="#323A7B"/>
</g>
<g opacity="0.17">
<path d="M322.716 91.3379H239.008C231.858 91.3379 226.062 97.1341 226.062 104.284V367.9C226.062 375.049 231.858 380.846 239.008 380.846H322.716C329.866 380.846 335.662 375.049 335.662 367.9V104.284C335.662 97.1341 329.866 91.3379 322.716 91.3379Z" fill="#323A7B"/>
</g>
<path d="M310.336 364.093C308.155 389.312 303.159 407.354 303.159 407.354H216.878C216.878 407.354 216.845 373.978 218.6 348.006C219.517 334.46 220.919 322.928 223.067 319.171C225.711 314.544 238.897 308.681 253.754 305.184C274.109 300.384 297.586 299.986 301.37 313.172C301.37 313.159 312.519 338.877 310.336 364.093Z" fill="url(#paint1_linear_73_2995)"/>
<path opacity="0.48" d="M257.995 308.61L253.785 407.34H242.992C244.207 394.159 244.326 379.344 241.099 367.59C236.859 352.149 226.745 348.329 218.602 347.992C219.518 334.447 220.92 322.914 223.068 319.157C225.712 314.531 238.899 308.668 253.755 305.17C256.394 307.133 257.995 308.61 257.995 308.61Z" fill="#1A1535"/>
<path opacity="0.48" d="M235.253 319.157C236.189 321.343 260.279 328.283 253.433 328.283C246.587 328.283 236.559 326.743 244.351 330.491C252.144 334.24 257.703 332.542 252.147 334.251C246.59 335.96 234.756 332.97 241.105 335.962C247.454 338.955 253.872 340.655 253.438 344.081C253.005 347.506 253.438 407.335 253.438 407.335H258.004C258.004 407.335 258.586 344.95 260.925 342.372C263.263 339.794 288.053 336.898 282.295 336.815C276.537 336.732 258.948 334.679 264.311 334.251C269.675 333.823 283.91 331.687 278.293 330.834C272.675 329.981 258.609 326.737 266.638 326.141C274.668 325.545 297.185 319.403 291.338 310.592C285.492 301.781 223.491 291.656 235.253 319.157Z" fill="#1A1535"/>
<path d="M239.768 316.32C239.768 316.32 246.655 318.848 260.195 319.143C273.734 319.439 286.418 314.876 286.418 314.876L282.3 307.365C282.3 307.365 240.24 296.972 239.768 316.32Z" fill="url(#paint2_linear_73_2995)"/>
<path d="M293.25 171.955L268.959 163.643L260.33 160.69C260.33 160.69 268.752 154.203 268.087 139.987C267.811 134.268 272.084 129.379 277.384 126.246C285.264 121.584 295.428 120.802 296.394 126.983C296.394 126.983 288.745 143.228 291.003 157.587L293.25 171.955Z" fill="url(#paint3_linear_73_2995)"/>
<path d="M292.135 132.299C292.135 132.299 283.954 155.983 270.262 163.064C269.836 163.283 269.397 163.477 268.948 163.643L260.319 160.69C260.319 160.69 268.741 154.203 268.076 139.987C267.8 134.267 272.073 129.379 277.373 126.246C286.455 127.623 292.135 132.299 292.135 132.299Z" fill="#F078A5"/>
<path d="M252.471 96.3867C252.471 96.3867 244.646 97.7669 244.646 84.7103C244.646 71.6538 259.607 58.0507 290.346 71.6538C321.086 85.2569 313.467 116.808 307.483 125.511C301.498 134.215 292.301 136.354 292.301 136.354L252.471 96.3867Z" fill="#152E51"/>
<path d="M303.494 120.993C303.425 124.62 295.715 127.618 295.715 127.618C295.715 127.618 291.934 137.654 290.341 140.848C289.104 143.313 273.251 146.468 264.628 147.236C264.611 147.238 264.595 147.238 264.578 147.236C258.594 147.481 259.864 142.64 257.169 138.924C254.373 135.06 251.701 124.926 251.533 124.294C251.532 124.283 251.532 124.272 251.533 124.261C251.382 123.103 251.313 121.936 251.326 120.769C251.538 113.923 254.086 110.959 252.035 106.857C249.984 102.755 253.073 94.54 253.073 94.54H261.153C261.153 94.54 264.346 98.642 274.035 98.8711C283.724 99.1002 291.702 95.4537 293.082 96.1328C294.462 96.8118 291.26 107.31 291.26 110.73C291.26 114.15 289.204 116.433 292.168 116.662C295.133 116.891 298.097 110.037 301.744 111.188C305.39 112.339 303.566 117.363 303.494 120.993Z" fill="url(#paint4_linear_73_2995)"/>
<path d="M258.431 116.537C259.456 116.537 260.286 115.258 260.286 113.68C260.286 112.103 259.456 110.823 258.431 110.823C257.407 110.823 256.576 112.103 256.576 113.68C256.576 115.258 257.407 116.537 258.431 116.537Z" fill="#152E51"/>
<path d="M276.497 117.352C277.521 117.352 278.352 116.073 278.352 114.495C278.352 112.917 277.521 111.638 276.497 111.638C275.472 111.638 274.642 112.917 274.642 114.495C274.642 116.073 275.472 117.352 276.497 117.352Z" fill="#152E51"/>
<path opacity="0.36" d="M263.243 116.982C265.128 120.267 261.153 120.902 260.535 123.425C260.135 125.062 261.512 125.15 262.125 126.257C262.602 127.124 263.781 126.257 263.295 125.393C262.994 124.841 261.915 124.264 262.075 123.552C262.155 123.215 263.066 122.475 263.265 122.265C263.723 121.82 264.157 121.351 264.565 120.86C265.686 119.378 265.288 117.636 264.413 116.115C263.922 115.257 262.757 116.115 263.243 116.982Z" fill="#C14276"/>
<path d="M254.982 108.306C254.8 108.403 256.478 106.335 257.635 106.131C258.792 105.927 259.945 105.791 260.285 106.407C260.624 107.023 260.967 107.834 260.285 107.834C259.603 107.834 256.683 107.423 254.982 108.306Z" fill="#152E51"/>
<path d="M274.657 107.136C274.657 107.136 274.381 108.375 274.657 108.715C274.933 109.054 276.269 108.579 277.737 109.396C279.206 110.214 280.498 110.824 280.498 110.824C280.498 110.824 279.755 108.919 278.8 107.831C277.845 106.744 274.759 106.026 274.657 107.136Z" fill="#152E51"/>
<path d="M260.68 111.795C260.68 111.986 260.624 112.173 260.517 112.332C260.411 112.491 260.26 112.615 260.084 112.688C259.907 112.761 259.713 112.78 259.526 112.743C259.338 112.706 259.166 112.614 259.031 112.478C258.896 112.343 258.804 112.171 258.767 111.984C258.729 111.796 258.748 111.602 258.822 111.426C258.895 111.249 259.019 111.098 259.177 110.992C259.336 110.886 259.523 110.829 259.714 110.829C259.97 110.829 260.216 110.931 260.397 111.112C260.579 111.293 260.68 111.539 260.68 111.795Z" fill="white"/>
<path d="M278.629 112.756C278.629 112.947 278.572 113.134 278.466 113.293C278.359 113.452 278.208 113.575 278.031 113.649C277.855 113.722 277.66 113.741 277.473 113.703C277.285 113.666 277.113 113.573 276.978 113.438C276.843 113.302 276.751 113.13 276.715 112.942C276.678 112.755 276.697 112.561 276.771 112.384C276.844 112.208 276.968 112.057 277.128 111.951C277.287 111.845 277.474 111.789 277.665 111.79C277.921 111.79 278.166 111.892 278.347 112.074C278.527 112.255 278.629 112.5 278.629 112.756Z" fill="white"/>
<path d="M271.417 135.788C270.624 136.356 269.766 136.827 268.861 137.191C266.277 138.264 263.71 138.082 261.698 137.014C260.112 136.18 258.892 134.788 258.272 133.108C258.218 132.969 258.199 132.818 258.216 132.67C258.234 132.521 258.287 132.379 258.372 132.256C258.457 132.133 258.571 132.033 258.704 131.964C258.836 131.895 258.984 131.859 259.133 131.86C259.198 131.848 259.264 131.848 259.329 131.86C261.212 132.244 263.144 132.321 265.051 132.09C268.394 131.72 272.336 129.854 274.125 129.47C274.749 129.337 275.11 129.387 275.099 129.746C275.077 130.858 274.423 133.633 271.417 135.788Z" fill="#C14276"/>
<path d="M274.129 129.492L274.019 130.707C273.994 130.983 271.013 132.658 266.911 133.191C262.809 133.724 260.314 133.191 259.734 133.08C259.477 133.034 259.281 132.476 259.141 131.866C259.205 131.854 259.272 131.854 259.337 131.866C261.219 132.249 263.152 132.327 265.059 132.095C268.399 131.742 272.341 129.876 274.129 129.492Z" fill="white"/>
<path opacity="0.38" d="M271.417 135.788C270.623 136.356 269.765 136.827 268.86 137.191C266.277 138.264 263.71 138.082 261.697 137.014C262.732 135.394 265.156 134.392 267.867 134.64C269.122 134.748 270.336 135.14 271.417 135.788Z" fill="url(#paint5_linear_73_2995)"/>
<path d="M296.648 118.972C296.648 118.972 300.171 112.347 301.198 113.341C302.224 114.335 302.801 116.239 302.553 118.227C302.304 120.214 301.131 122.944 299.897 123.441C298.664 123.938 296.124 123.607 296.648 122.862C297.173 122.116 299.74 121.539 299.243 120.377C298.746 119.215 296.464 120.303 296.648 118.972Z" fill="#F078A5"/>
<path d="M387.28 183.858C387.28 183.858 390.021 177.188 391.28 173.329C392.539 169.47 390.678 167.607 391.28 162.923C391.882 158.239 393.088 156.132 391.28 153.676C389.472 151.219 389.582 149.463 391.28 149.463C392.978 149.463 395.608 148.936 396.704 151.569C397.8 154.203 398.896 159.817 398.896 159.817C398.896 159.817 406.125 144.55 408.538 140.688C410.95 136.826 419.933 126.298 420.808 126.826C421.683 127.353 420.808 129.459 420.808 131.916C420.808 134.372 413.139 145.441 413.139 145.441C413.139 145.441 417.959 142.634 419.712 143.335C421.465 144.036 421.197 148.072 421.197 148.072C421.197 148.072 424.095 148.776 424.973 150.178C425.851 151.581 421.247 158.777 421.247 158.777C421.247 158.777 423.877 160.601 424.095 162.937C424.313 165.272 421.028 171.588 414.892 177.015C408.756 182.441 404.811 186.14 401.524 191.404C398.236 196.668 387.28 183.858 387.28 183.858Z" fill="url(#paint6_linear_73_2995)"/>
<path d="M178.115 148.398C178.115 148.398 177.911 143.192 178.115 139.344C178.32 135.496 181.251 129.942 181.98 127.662C182.709 125.382 196.196 118.972 203.715 122.533C211.234 126.094 215.792 123.245 219.924 125.953C224.056 128.661 225.196 130.37 222.488 131.51C219.78 132.65 216.22 131.51 213.227 134.359C210.235 137.207 206.879 141.48 203.715 142.62C200.552 143.76 199.122 141.48 196.985 143.333C194.849 145.185 192.428 149.461 192.428 149.461L178.115 148.398Z" fill="url(#paint7_linear_73_2995)"/>
<path d="M226.01 166.854L224.569 181.539L221.63 211.445C221.63 211.445 215.253 214.205 209.183 216.667C204.595 218.52 200.187 220.181 198.834 220.328C195.701 220.664 194.561 190.93 194.846 187.653C195.13 184.377 226.01 166.854 226.01 166.854Z" fill="url(#paint8_linear_73_2995)"/>
<path opacity="0.58" d="M224.569 181.538L221.629 211.444C221.629 211.444 215.253 214.205 209.183 216.667L222.573 181.155C223.248 181.226 223.916 181.354 224.569 181.538Z" fill="#0D1942"/>
<path d="M288.539 157.786L288.337 165.065L284.318 310.594C284.318 310.594 277.541 314.086 265.385 314.76C263.221 314.884 260.885 314.914 258.39 314.82C253.615 314.644 250.07 314.213 247.448 313.697C243.95 313.01 242.082 312.157 241.099 311.522C240.271 310.989 240.086 310.605 240.086 310.605L241.466 214.569L241.588 205.993L245.151 198.062L264.278 155.437L269.368 159.025L271.402 160.46L288.539 157.786Z" fill="url(#paint9_linear_73_2995)"/>
<g opacity="0.27">
<path d="M269.368 159.031C269.131 162.56 268.696 166.693 268.063 171.43C268.063 171.43 263.259 162.453 260.695 173.567C258.131 184.68 250.435 262.89 250.435 262.89L241.085 311.511C240.257 310.978 240.072 310.594 240.072 310.594L241.453 214.558C242.717 208.866 243.959 203.332 245.138 198.051L264.278 155.437L269.368 159.031Z" fill="#323A7B"/>
</g>
<g opacity="0.27">
<path d="M288.337 165.07L284.318 310.594C284.318 310.594 277.541 314.086 265.384 314.76V271.866L247.442 313.697C243.944 313.01 242.076 312.157 241.093 311.522C255.974 275.527 264.299 197.853 264.299 197.853L277.759 163.279C277.759 163.279 282.005 163.138 288.337 165.07Z" fill="#323A7B"/>
</g>
<path d="M266.795 153.733L266.632 153.913C252.805 169.354 249.697 235.313 249.697 256.875C249.697 263.599 249.123 274.693 248.256 286.894C246.324 313.99 243.011 346.554 241.435 348.911C239.519 351.785 218.287 350.636 208.683 347.995C206.856 347.492 205.451 346.937 204.678 346.338C199.836 342.634 214.651 309.297 218.071 289.635C218.662 286.253 219.037 283.258 219.258 280.454C219.402 278.662 219.482 276.945 219.515 275.256C219.719 264.198 217.859 254.186 218.071 230.651C218.347 197.883 223.2 177.652 225.196 168.543C227.067 159.986 262.025 154.446 266.358 153.791L266.795 153.733Z" fill="url(#paint10_linear_73_2995)"/>
<path d="M403.186 193.558C403.144 193.937 403.08 194.34 402.996 194.767C401.856 200.464 365.099 238.361 357.405 241.781C349.712 245.201 315.509 222.975 315.509 222.975C315.509 222.975 305.535 256.599 306.399 287.943C307.169 316.099 314.371 335.051 314.592 341.099C314.644 341.626 314.57 342.158 314.377 342.651C312.668 346.071 282.18 351.208 279.615 349.204C277.631 347.661 272.234 311.155 269.631 288.639C268.869 282.055 268.345 276.667 268.218 273.699C267.646 260.593 268.494 212.143 273.062 189.643C275.165 179.271 279.176 169.379 284.893 160.472C287.725 156.088 289.862 153.739 289.862 153.739C289.862 153.739 321.206 169.981 323.202 173.117C325.197 176.253 323.77 176.534 327.475 179.67C331.179 182.806 336.877 190.783 344.57 197.337C347.468 199.804 349.033 201.386 350.055 202.305C350.455 202.719 350.921 203.064 351.435 203.324C352.144 203.6 352.757 203.324 354.261 202.739C357.966 201.314 388.741 175.963 389.594 177.095C390.447 178.227 396.434 182.792 396.719 184.788C396.945 186.378 394.814 189.964 393.958 191.349C395.115 189.61 398.679 184.504 399.865 185.928C401.179 187.515 403.716 188.854 403.186 193.558Z" fill="url(#paint11_linear_73_2995)"/>
<path opacity="0.58" d="M266.345 153.811L266.621 153.913C252.795 169.354 249.686 235.314 249.686 256.875C249.686 263.599 249.112 274.693 248.245 286.894C246.313 313.99 243.001 346.554 241.425 348.911C239.509 351.785 218.276 350.636 208.673 347.995C209.012 348.033 230.184 350.512 235.244 341.922C240.34 333.271 240.425 301.176 240.061 293.196C239.697 285.216 219.245 280.454 219.245 280.454L219.499 275.256C219.758 275.386 236.461 283.499 240.058 282.085C243.655 280.672 241.847 277.241 238.43 253.306C235.012 229.37 238.43 196.318 238.43 191.473C238.43 186.629 246.987 182.64 247.539 181.216C248.091 179.791 244.712 176.664 243.572 174.392C242.432 172.12 266.345 153.811 266.345 153.811Z" fill="#0D1942"/>
<path opacity="0.58" d="M314.377 342.651C312.668 346.071 282.18 351.208 279.615 349.204C277.631 347.661 272.234 311.155 269.631 288.638C268.869 282.055 268.345 276.667 268.218 273.699C267.646 260.593 268.494 212.143 273.062 189.643C275.165 179.27 279.176 169.379 284.893 160.472L288.046 161.603C288.046 161.603 294.458 178.273 294.549 184.686C294.64 191.098 283.577 189.378 283.577 189.378C283.577 189.378 290.185 206.043 290.185 208.182C290.185 210.321 273.943 276.137 273.943 279.557C273.943 282.977 279.756 335.667 281.305 340.227C282.006 342.295 297.608 342.016 314.592 341.097C314.645 341.624 314.571 342.157 314.377 342.651Z" fill="#0D1942"/>
<path d="M266.795 153.733C252.833 168.835 249.697 235.228 249.697 256.883C249.697 263.607 249.123 274.701 248.256 286.902C247.721 286.074 247.205 284.815 246.716 283.076C236.362 246.087 240.941 186.06 241.955 183.703C242.968 181.345 249.499 178.789 249.926 177.492C250.354 176.195 244.792 174.284 244.792 170.218C244.792 166.152 266.345 153.8 266.345 153.8L266.795 153.733Z" fill="#716EB7"/>
<path d="M294.458 178.268C293.602 181.26 284.2 182.541 284.2 184.68C284.2 186.819 290.273 196.207 289.373 200.69C288.473 205.173 270.023 261.366 269.631 288.622C268.869 282.038 268.345 276.65 268.218 273.683C267.646 260.576 268.494 212.126 273.062 189.627C277.631 167.127 289.873 153.722 289.873 153.722C289.873 153.722 295.314 175.284 294.458 178.268Z" fill="#716EB7"/>
<path opacity="0.58" d="M315.511 222.974C315.511 222.974 310.145 202.506 310.335 206.495C310.525 210.484 311.646 238.822 311.646 238.822L315.511 222.974Z" fill="#0D1942"/>
<path d="M283.461 294.866C283.461 294.866 285.029 296.02 290.158 295.826C295.286 295.633 301.271 292.851 301.699 294.292C302.127 295.732 306.391 301.3 304.407 302.261C302.422 303.221 285.6 305.046 284.176 303.702C282.752 302.357 281.131 294.123 283.461 294.866Z" fill="#716EB7"/>
<path d="M217.073 289.698C217.073 289.698 233.977 294.64 233.789 296.539C233.602 298.438 231.128 301.667 227.717 301.477C224.305 301.287 211.19 299.959 212.14 296.539C213.089 293.119 216.073 289.748 217.073 289.698Z" fill="#716EB7"/>
<path d="M396.349 191.134C396.71 189.603 395.762 188.068 394.231 187.707C392.699 187.346 391.165 188.294 390.804 189.825C390.442 191.356 391.391 192.891 392.922 193.252C394.453 193.613 395.987 192.665 396.349 191.134Z" fill="#716EB7"/>
<path d="M385.898 200.698C387.472 200.698 388.747 199.423 388.747 197.85C388.747 196.276 387.472 195.001 385.898 195.001C384.325 195.001 383.05 196.276 383.05 197.85C383.05 199.423 384.325 200.698 385.898 200.698Z" fill="#716EB7"/>
<path d="M278.221 295.891C278.489 294.755 277.785 293.616 276.648 293.347C275.512 293.079 274.373 293.783 274.105 294.92C273.837 296.056 274.54 297.195 275.677 297.463C276.814 297.731 277.952 297.028 278.221 295.891Z" fill="#716EB7"/>
<path d="M280.335 313.18C280.603 312.043 279.899 310.904 278.763 310.636C277.626 310.368 276.487 311.072 276.219 312.208C275.951 313.345 276.655 314.484 277.791 314.752C278.928 315.02 280.067 314.316 280.335 313.18Z" fill="#716EB7"/>
<path opacity="0.38" d="M403.188 193.557C403.146 193.937 403.083 194.34 402.998 194.767C401.858 200.464 365.101 238.361 357.408 241.781C349.715 245.201 315.511 222.975 315.511 222.975L310.335 206.498C310.335 206.498 307.867 187.97 310.335 195.001C312.803 202.032 319.359 221.407 317.65 215.152C315.941 208.897 313.946 197.386 315.511 200.715C317.076 204.044 323.919 219.428 329.616 224.272C335.314 229.117 344.15 232.25 345.574 229.97C346.998 227.689 350.06 202.324 350.06 202.324L351.44 203.343L354.266 202.758C354.266 202.758 349.281 229.97 354.266 233.398C357.797 235.791 386.61 209.292 403.188 193.557Z" fill="#0D1942"/>
<path d="M289.875 228.247C292.445 229.508 295.277 230.143 298.139 230.099C302.696 229.956 304.549 228.689 304.833 230.099C305.117 231.51 304.833 233.514 304.833 233.514C304.833 233.514 292.295 233.939 289.875 232.799C287.454 231.659 288.864 227.783 289.875 228.247Z" fill="#716EB7"/>
<path d="M221.382 222.439C221.382 222.439 224.788 224.432 228.981 224.291C233.174 224.151 234.875 222.881 235.137 224.291C235.399 225.702 235.137 227.706 235.137 227.706C235.137 227.706 223.61 228.131 221.382 226.991C219.154 225.851 220.452 221.975 221.382 222.439Z" fill="#716EB7"/>
<path d="M272.254 177.906C272.254 177.906 271.859 181.831 271.189 188.136C269.143 207.354 264.528 248.688 260.666 268.424C255.537 294.648 241.86 312.709 241.86 312.709H221.629L227.702 299.029C227.702 299.029 233.788 296.544 243.284 278.398C251.14 263.395 261.654 203.591 265.063 183.328C265.776 179.085 266.167 176.576 266.167 176.576L272.254 177.906Z" fill="url(#paint12_linear_73_2995)"/>
<path d="M200.214 212.797C199.955 215.77 199.51 218.335 198.834 220.316C198.834 220.316 178.603 220.736 171.194 216.656C163.786 212.576 162.637 206.021 164.641 190.491C166.645 174.961 174.899 139.059 177.463 140.779C178.678 141.591 179.191 142.463 179.948 143.219C180.776 144.061 181.899 144.754 184.602 145.055C189.73 145.624 194.774 144.484 194.815 147.904C194.84 150.885 202.058 191.937 200.214 212.797Z" fill="url(#paint13_linear_73_2995)"/>
<path opacity="0.38" d="M200.214 212.797C199.955 215.77 199.51 218.335 198.834 220.316C198.834 220.316 178.603 220.736 171.194 216.656C163.786 212.576 162.637 206.021 164.641 190.491C166.645 174.961 174.899 139.059 177.463 140.779C178.678 141.591 179.191 142.463 179.948 143.219C175.18 156.469 167.888 179.347 167.504 196.345C167.035 216.568 189.929 214.666 200.214 212.797Z" fill="#0D1942"/>
<path opacity="0.63" d="M419.957 167.306C419.618 167.629 414.097 172.783 408.207 173.548C402.134 174.337 399.001 176.708 399.329 174.732C399.658 172.755 403.075 160.957 404.607 157.753C403.519 160.53 403.503 162.625 405.631 162.625C407.958 162.625 409.915 161.49 411.378 160.212L411.654 160.425C410.531 162.02 409.752 163.213 409.67 163.547C409.341 164.861 412.794 166.177 412.794 166.177C412.794 166.177 411.138 168.284 413.286 169.733C414.804 170.751 418.119 168.659 419.957 167.306Z" fill="#F078A5"/>
<path d="M421.216 166.335C421.1 166.431 420.634 166.81 419.974 167.293C419.974 167.293 419.974 167.293 419.958 167.306C418.119 168.648 414.804 170.751 413.299 169.733C411.163 168.284 412.808 166.177 412.808 166.177C412.808 166.177 409.355 164.861 409.683 163.547C409.766 163.213 410.545 162.02 411.668 160.425C412.055 159.873 412.496 159.257 412.946 158.622C412.465 159.192 411.941 159.723 411.378 160.212C409.915 161.49 407.958 162.625 405.631 162.625C403.506 162.625 403.52 160.53 404.607 157.753C404.611 157.739 404.616 157.726 404.624 157.714C406.263 153.56 410.28 147.904 413.128 145.436C412.935 145.693 407.707 152.674 405.99 157.261C405.463 158.642 405.267 159.823 405.631 160.519C406.437 162.051 408.668 161.071 410.652 159.691C411.95 158.785 413.18 157.786 414.332 156.701C417.368 152.53 420.86 147.942 421.178 147.52C420.783 148.097 415.105 156.411 412.861 161.322C412.09 163.014 411.732 164.303 412.143 164.731C412.756 165.371 414.177 164.698 415.731 163.608C418.031 161.984 420.598 159.423 421.142 158.871C420.617 159.423 418.191 161.973 416.369 164.138C415.265 165.438 414.404 166.597 414.29 167.099C413.962 168.546 414.663 169.6 416.612 168.943C417.769 168.495 418.873 167.919 419.902 167.226C420.584 166.788 421.086 166.423 421.216 166.335Z" fill="#F078A5"/>
<path d="M229.836 113.332L228.434 115.443C227.313 117.131 227.772 119.408 229.46 120.529L230.479 121.205C232.167 122.326 234.444 121.867 235.564 120.179L236.966 118.068C238.087 116.38 237.628 114.103 235.94 112.982L234.921 112.306C233.234 111.185 230.957 111.644 229.836 113.332Z" fill="url(#paint14_linear_73_2995)"/>
<path d="M210.762 124.048C210.762 124.048 192.64 150.388 190.059 150.029C187.478 149.67 175.603 143.111 175.793 141.56C175.984 140.009 178.595 136.086 179.818 136.271C181.041 136.456 180.116 136.095 185.173 133.685C190.23 131.275 199.803 115.51 199.803 115.51L210.762 124.048Z" fill="#C4336B"/>
<path d="M178.988 142.612C178.861 142.899 178.768 143.2 178.712 143.509C178.507 145.049 189.894 151.293 192.434 151.619C194.973 151.945 213.1 125.597 213.1 125.597L207.157 120.946L202.437 117.261C202.437 117.261 201.49 118.815 200.038 121.02C196.867 125.843 191.28 133.784 187.854 135.465C182.861 137.917 183.956 138.391 182.745 138.226C182.607 138.212 182.468 138.235 182.342 138.292C181.265 138.714 179.636 141.033 178.988 142.612Z" fill="url(#paint15_linear_73_2995)"/>
<path d="M178.988 142.612C178.861 142.899 178.768 143.2 178.712 143.509C178.507 145.049 189.894 151.293 192.434 151.619C194.973 151.945 213.1 125.597 213.1 125.597L207.157 120.946L202.437 117.261C202.437 117.261 201.49 118.815 200.038 121.02C196.867 125.843 191.28 133.784 187.854 135.465C182.861 137.917 183.956 138.391 182.745 138.226C182.607 138.212 182.468 138.235 182.342 138.292C181.265 138.714 179.636 141.033 178.988 142.612Z" fill="url(#paint16_linear_73_2995)"/>
<path opacity="0.49" d="M182.342 138.295C187.691 142.032 188.76 141.295 190.333 141.497C192.127 141.726 201.681 128.661 207.146 120.957L202.437 117.261C202.437 117.261 201.49 118.815 200.038 121.02C196.867 125.843 191.28 133.784 187.854 135.465C182.861 137.917 183.956 138.391 182.745 138.226C182.607 138.213 182.468 138.236 182.342 138.295Z" fill="white"/>
<path opacity="0.53" d="M178.988 142.612C178.861 142.899 178.768 143.2 178.712 143.509C178.507 145.049 189.894 151.293 192.434 151.616C194.973 151.939 213.1 125.597 213.1 125.597L202.445 117.263C202.445 117.263 201.499 118.818 200.047 121.023C203.464 124.636 207.331 128.876 207.196 129.434C206.956 130.43 191.79 149.4 191.589 149.267C191.47 149.193 187.981 148.232 178.988 142.612Z" fill="#C4336B"/>
<path d="M153.92 100.533H154.168H154.411C156.327 100.577 163.725 100.875 173.474 102.741C184.855 104.927 197.862 115.108 197.862 115.108C197.862 115.108 204.738 111.624 210.488 104.259C213.974 99.7676 216.579 94.6578 218.168 89.1987C218.168 89.1987 216.909 88.0615 215.473 86.7586L214.317 85.7069C212.953 84.4619 211.678 83.2915 211.391 82.9989C209.644 81.2213 206.119 77.4782 203.223 73.4122C201.771 71.3723 200.242 67.585 198.884 63.5825C198.608 62.7323 198.315 61.8738 198.056 61.0209C197.379 58.8871 196.766 56.7837 196.25 54.948C195.403 51.9116 194.82 49.5929 194.663 48.9498C194.635 48.8283 194.619 48.7676 194.619 48.7676L188.728 56.2675L181.551 65.4016L168.042 82.6015L160.037 92.7845L153.92 100.533Z" fill="url(#paint17_linear_73_2995)"/>
<path style="mix-blend-mode:multiply" opacity="0.18" d="M153.921 100.533H154.169C155.61 100.558 163.248 100.787 173.475 102.741C184.856 104.93 197.863 115.108 197.863 115.108C197.863 115.108 204.736 111.624 210.489 104.259C213.975 99.7669 216.58 94.6562 218.168 89.1961C218.168 89.1961 216.159 87.3825 214.304 85.707C212.659 90.9532 209.956 95.8065 206.362 99.9671C196.124 111.779 174.618 95.1834 174.618 95.1834C174.618 95.1834 192.185 77.3458 198.045 61.0044C197.369 58.8707 196.756 56.7673 196.24 54.9316C195.393 51.8952 194.81 49.5765 194.653 48.9333C194.625 48.8119 194.609 48.7539 194.609 48.7539L188.718 56.2511L181.541 65.3851L168.032 82.585L160.027 92.768L153.921 100.533Z" fill="url(#paint18_linear_73_2995)"/>
<path d="M141.861 93.1959C141.775 96.4117 142.551 98.9154 144.298 100.373C146.506 102.239 149.998 102.178 154.169 100.53C161.517 97.629 171.007 89.8061 179.501 78.9717C187.995 68.1372 193.402 56.9688 194.653 48.9223C195.368 44.3235 194.719 40.7543 192.486 38.88C192.378 38.789 192.265 38.7034 192.152 38.6233C185.803 34.0604 170.345 43.592 157.286 60.284C155.486 62.5778 153.824 64.891 152.317 67.1849C152.292 67.2208 152.264 67.2594 152.242 67.2981C151.718 68.0931 151.214 68.8844 150.73 69.672C150.729 69.6784 150.729 69.6849 150.73 69.6913C145.195 78.6708 142.018 87.1838 141.861 93.1959Z" fill="url(#paint19_linear_73_2995)"/>
<path d="M145.47 97.4935C149.172 100.61 158.524 95.3487 168.382 85.2816C171.228 82.359 173.913 79.284 176.425 76.0703C179.174 72.5762 181.711 68.9215 184.025 65.1254C191.097 53.4518 193.907 43.3378 190.296 40.3014C185.587 36.3402 171.733 45.9325 159.355 61.7274C146.978 77.5222 140.778 93.5324 145.47 97.4935Z" fill="url(#paint20_linear_73_2995)"/>
<path opacity="0.63" d="M145.47 97.4935C149.172 100.61 158.524 95.3487 168.382 85.2816C171.228 82.359 173.913 79.284 176.425 76.0703C179.174 72.5762 181.711 68.9215 184.025 65.1254C191.097 53.4518 193.907 43.3378 190.296 40.3014C185.587 36.3402 171.733 45.9325 159.355 61.7274C146.978 77.5222 140.778 93.5324 145.47 97.4935Z" fill="#C4336B"/>
<path d="M146.713 82.3173C143.58 89.624 142.912 95.3408 145.474 97.4994C149.175 100.619 158.527 95.3546 168.385 85.2875C171.232 82.3651 173.917 79.2892 176.428 76.0734C179.177 72.5803 181.714 68.9264 184.028 65.1313C191.1 53.4521 193.907 43.3381 190.297 40.3017C190.167 40.1919 190.029 40.0931 189.883 40.0063C188.426 43.3393 186.741 46.5675 184.839 49.6676C182.525 53.4629 179.987 57.1176 177.24 60.6125C174.732 63.8204 172.051 66.8898 169.21 69.8073C159.703 79.5183 150.66 84.7575 146.713 82.3173Z" fill="#AD255C"/>
<path d="M161.629 74.693C162.312 75.0903 162.966 75.5349 163.586 76.0235C167.553 79.1483 168.356 82.8582 168.381 85.2956C171.228 82.3733 173.913 79.2973 176.425 76.0815C179.173 72.5884 181.71 68.9346 184.024 65.1394C183.068 65.3332 182.092 65.4175 181.117 65.3906C175.527 65.2332 172.121 61.3301 172.121 61.3301L161.629 74.693Z" fill="url(#paint21_linear_73_2995)"/>
<path d="M169.628 70.1301C172.497 66.4152 173.585 62.448 172.059 61.2692C170.533 60.0904 166.97 62.1463 164.1 65.8613C161.231 69.5763 160.143 73.5435 161.669 74.7223C163.195 75.9011 166.758 73.8451 169.628 70.1301Z" fill="url(#paint22_linear_73_2995)"/>
<path opacity="0.53" d="M163.596 76.0261C167.554 79.1481 168.357 82.858 168.382 85.2954C171.229 82.373 173.915 79.2971 176.426 76.0813C179.174 72.5882 181.712 68.9343 184.025 65.1392C183.069 65.333 182.094 65.4172 181.119 65.3904C176.837 71.557 169.972 79.1619 163.596 76.0261Z" fill="#C4336B"/>
<path style="mix-blend-mode:multiply" opacity="0.18" d="M149.405 100.508C151.039 100.414 152.66 100.334 154.098 100.293C156.425 100.221 158.321 100.237 159.152 100.417C162.23 101.088 179.154 87.7467 188.622 71.1569C194.847 60.2424 195.487 54.0785 195.197 51.1331C195.048 49.6343 194.645 48.9718 194.645 48.9414C194.645 48.9414 189.293 69.5862 176.151 83.0292C166.155 93.2619 160.546 97.328 154.937 99.2271C153.178 99.8008 151.372 100.219 149.541 100.478L149.405 100.508Z" fill="url(#paint23_linear_73_2995)"/>
<g opacity="0.37">
<path d="M147.792 99.4341C149.426 99.3403 151.046 99.2602 152.498 99.216C154.828 99.1443 156.722 99.1608 157.553 99.343C160.63 100.014 177.554 86.6701 187.022 70.0831C193.247 59.1713 193.887 53.0047 193.597 50.0621C193.448 48.5632 193.045 47.898 193.045 47.8704C193.045 47.8704 187.693 68.5152 174.551 81.961C164.553 92.1937 158.947 96.2569 153.337 98.1588C151.571 98.7382 149.758 99.164 147.919 99.4313L147.792 99.4341Z" fill="#323A7B"/>
</g>
<path opacity="0.6" d="M198.884 63.5715C198.263 64.6177 197.736 65.8406 197.653 67.0579C197.441 70.2213 198.031 75.4881 202.511 80.8211C206.992 86.1541 212.173 87.2445 212.173 87.2445C214.144 87.907 214.312 85.6987 214.312 85.6987C212.946 84.451 211.673 83.2833 211.386 82.9907C209.639 81.2131 206.114 77.47 203.218 73.404C201.783 71.3641 200.242 67.5768 198.884 63.5715Z" fill="white"/>
<g opacity="0.37">
<path d="M154.411 100.544C156.327 100.588 163.725 100.886 173.474 102.752C184.855 104.927 197.862 115.108 197.862 115.108C197.862 115.108 204.738 111.624 210.488 104.259C213.974 99.7676 216.579 94.6578 218.168 89.1987C218.168 89.1987 216.909 88.0614 215.473 86.7585C214.339 91.3076 212.252 97.5764 208.766 101.389C202.806 107.903 196.835 111.05 189.416 107.436C181.996 103.823 175.385 97.4246 168.453 98.6033C161.522 99.782 165.329 93.6346 165.329 93.6346C165.329 93.6346 158.941 98.6116 154.411 100.544Z" fill="#323A7B"/>
</g>
<path d="M196.026 115.047L214.6 127.383C215.267 127.829 216.025 128.123 216.818 128.243C217.611 128.364 218.421 128.309 219.191 128.081C220.082 127.813 220.952 127.478 221.794 127.079C224.262 125.923 227.411 123.883 230.887 120.272C231.383 119.753 231.853 119.226 232.294 118.691C236.482 113.617 238.149 107.953 238.812 104.386C238.999 103.36 238.891 102.302 238.5 101.336C238.109 100.369 237.451 99.5333 236.603 98.9263L226.072 91.338L218.931 86.2093C218.743 86.0713 218.53 85.9693 218.305 85.9084C218.04 85.8386 217.763 85.826 217.493 85.8714C217.223 85.9168 216.965 86.0191 216.738 86.1715C216.51 86.324 216.317 86.5231 216.173 86.7556C216.028 86.9882 215.934 87.2489 215.898 87.5204C215.267 91.878 213.751 96.0602 211.442 99.8096C207.697 105.764 200.304 109.385 196.133 111.77C195.85 111.935 195.613 112.169 195.444 112.45C195.276 112.731 195.182 113.051 195.171 113.379C195.16 113.706 195.233 114.032 195.383 114.323C195.532 114.615 195.753 114.864 196.026 115.047Z" fill="url(#paint24_linear_73_2995)"/>
<path d="M224.892 100.403C223.689 102.651 222.352 104.826 220.889 106.915C220.627 107.286 220.442 107.706 220.344 108.151C220.247 108.595 220.24 109.054 220.323 109.501C220.407 109.948 220.579 110.374 220.83 110.753C221.081 111.132 221.405 111.458 221.784 111.709L232.295 118.696C236.483 113.622 238.15 107.958 238.812 104.392C239 103.366 238.892 102.308 238.501 101.341C238.11 100.374 237.452 99.5387 236.604 98.9317L226.073 91.3379C226.418 94.4047 226.308 97.7861 224.892 100.403Z" fill="#FDB6A7"/>
<g opacity="0.27">
<path d="M196.027 115.047L214.601 127.383C215.268 127.829 216.025 128.123 216.819 128.243C217.612 128.364 218.422 128.309 219.192 128.081C220.083 127.813 220.953 127.478 221.795 127.079L205.558 116.295C205.215 116.067 204.929 115.765 204.721 115.41C204.512 115.056 204.387 114.658 204.354 114.248C204.322 113.838 204.383 113.426 204.533 113.043C204.683 112.66 204.919 112.317 205.221 112.038C207.982 109.496 212.315 104.958 215.2 99.2106C218.115 93.4 219.037 88.9503 218.292 85.9084C218.027 85.8386 217.75 85.826 217.48 85.8714C217.21 85.9168 216.952 86.0191 216.725 86.1715C216.497 86.324 216.304 86.5231 216.16 86.7556C216.015 86.9882 215.921 87.2489 215.885 87.5204C215.258 91.8769 213.747 96.0591 211.443 99.8096C207.697 105.764 200.305 109.385 196.134 111.77C195.85 111.935 195.613 112.169 195.445 112.45C195.276 112.731 195.182 113.051 195.172 113.379C195.161 113.706 195.234 114.032 195.383 114.323C195.533 114.615 195.754 114.864 196.027 115.047Z" fill="#7A325D"/>
</g>
<path d="M179.263 134.483C179.263 134.483 179.6 128.518 179.887 126.665C180.174 124.813 181.993 123.53 181.993 123.53C181.993 123.53 180.966 121.677 181.993 119.825C183.02 117.973 184.016 117.545 184.016 117.545C183.882 116.407 184.134 115.257 184.731 114.28C185.728 112.714 187.721 112.427 187.721 112.427C187.721 112.427 188.576 110.291 189.86 110.291C191.143 110.291 198.442 110.719 200.99 112.427C203.538 114.136 212.939 125.401 212.227 126.533C211.515 127.665 206.671 126.809 206.671 126.809C206.671 126.809 207.951 129.66 207.951 130.949C207.951 132.238 204.534 131.805 202.823 130.381C201.745 129.489 200.603 128.679 199.405 127.957C199.405 127.957 202.538 134.03 201.97 135.479C201.401 136.928 200.686 138.074 198.55 136.65C196.413 135.225 193.136 132.509 193.136 132.509C193.136 132.509 196.112 137.353 195.764 138.634C195.417 139.915 193.28 140.346 192.424 139.918C191.569 139.49 186.155 134.077 185.015 134.077C183.875 134.077 181.079 136.362 181.079 136.362L179.263 134.483Z" fill="url(#paint25_linear_73_2995)"/>
<path d="M206.672 126.806C206.672 126.806 203.536 119.248 199.406 116.549C195.277 113.849 187.722 112.408 187.722 112.408C187.722 112.408 195.594 112.267 200.991 116.684C206.387 121.1 206.672 126.806 206.672 126.806Z" fill="#F078A5"/>
<path d="M199.407 127.946C199.407 127.946 197.982 124.269 192.994 121.478C190.148 119.856 187.14 118.537 184.018 117.545C184.018 117.545 191.57 118.202 195.766 121.65C199.962 125.097 200.991 128.976 200.991 128.976L199.407 127.946Z" fill="#F078A5"/>
<path d="M181.993 123.529C181.993 123.529 187.721 124.669 193.137 132.506L195.765 134.601C195.765 134.601 192.886 128.457 188.864 125.492C184.842 122.527 181.993 123.529 181.993 123.529Z" fill="#F078A5"/>
<path d="M262.339 313.159H253.649C253.039 313.159 252.545 313.653 252.545 314.263V318.823C252.545 319.433 253.039 319.927 253.649 319.927H262.339C262.949 319.927 263.443 319.433 263.443 318.823V314.263C263.443 313.653 262.949 313.159 262.339 313.159Z" fill="url(#paint26_linear_73_2995)"/>
<g opacity="0.27">
<path d="M272.253 177.906C272.253 177.906 271.858 181.831 271.188 188.136L265.062 183.327C265.775 179.085 266.167 176.575 266.167 176.575L272.253 177.906Z" fill="#323A7B"/>
</g>
<path d="M266.796 162.613C266.796 162.613 264.088 175.626 266.177 176.575C268.267 177.525 271.022 179.711 272.25 177.906C273.479 176.101 279.184 165.76 277.771 163.276C276.358 160.792 269.026 156.441 266.796 162.613Z" fill="url(#paint27_linear_73_2995)"/>
<path d="M264.323 154.225C264.323 154.225 266.335 150.636 267.409 150.871C270.194 151.492 272.19 158.324 272.19 158.324C272.19 158.324 289.729 147.313 291.292 149.847C292.196 151.333 293.291 152.694 294.549 153.896C294.549 153.896 283.267 171.563 280.388 168.869C277.509 166.175 272.632 159.707 272.632 159.707C272.632 159.707 266.208 168.662 264.767 166.608C263.326 164.554 264.323 154.225 264.323 154.225Z" fill="url(#paint28_linear_73_2995)"/>
<path d="M439.143 119.215C452.761 119.215 463.801 108.175 463.801 94.5568C463.801 80.9384 452.761 69.8984 439.143 69.8984C425.524 69.8984 414.484 80.9384 414.484 94.5568C414.484 108.175 425.524 119.215 439.143 119.215Z" fill="url(#paint29_linear_73_2995)"/>
<path opacity="0.46" d="M452.846 108.26C460.414 100.691 460.414 88.4204 452.846 80.8518C445.277 73.2832 433.006 73.2832 425.438 80.8518C417.869 88.4204 417.869 100.691 425.438 108.26C433.006 115.829 445.277 115.829 452.846 108.26Z" fill="#C1338B"/>
<path d="M451.856 107.27C458.878 100.248 458.878 88.8634 451.856 81.8414C444.834 74.8193 433.449 74.8193 426.427 81.8414C419.405 88.8634 419.405 100.248 426.427 107.27C433.449 114.292 444.834 114.292 451.856 107.27Z" fill="#FDE090"/>
<path opacity="0.22" d="M457.118 101.802C455.933 104.743 454.045 107.348 451.62 109.39C449.194 111.431 446.305 112.847 443.205 113.512C440.106 114.177 436.89 114.072 433.841 113.205C430.791 112.339 428.001 110.738 425.714 108.542C423.427 106.347 421.714 103.623 420.724 100.612C419.734 97.5999 419.498 94.3914 420.037 91.2672C420.575 88.143 421.872 85.1986 423.813 82.6921C425.754 80.1855 428.28 78.1934 431.17 76.8901C429.728 80.4784 429.391 84.4161 430.204 88.1971C431.017 91.9781 432.942 95.4297 435.732 98.1081C438.521 100.787 442.048 102.57 445.859 103.228C449.67 103.886 453.591 103.39 457.118 101.802Z" fill="#C1338B"/>
<path d="M111.982 139.857C121.925 139.857 129.985 131.797 129.985 121.854C129.985 111.911 121.925 103.851 111.982 103.851C102.039 103.851 93.9785 111.911 93.9785 121.854C93.9785 131.797 102.039 139.857 111.982 139.857Z" fill="url(#paint30_linear_73_2995)"/>
<path opacity="0.46" d="M111.983 136.004C119.797 136.004 126.132 129.669 126.132 121.854C126.132 114.039 119.797 107.704 111.983 107.704C104.168 107.704 97.833 114.039 97.833 121.854C97.833 129.669 104.168 136.004 111.983 136.004Z" fill="#C1338B"/>
<path d="M111.982 134.982C119.233 134.982 125.11 129.104 125.11 121.854C125.11 114.603 119.233 108.726 111.982 108.726C104.731 108.726 98.8536 114.603 98.8536 121.854C98.8536 129.104 104.731 134.982 111.982 134.982Z" fill="#FDE090"/>
<path opacity="0.22" d="M125.111 127.146C124.246 129.292 122.867 131.194 121.097 132.684C119.326 134.174 117.217 135.207 114.954 135.692C112.692 136.178 110.344 136.101 108.118 135.469C105.892 134.837 103.855 133.668 102.185 132.066C100.516 130.464 99.2643 128.476 98.541 126.278C97.8177 124.08 97.6446 121.738 98.0367 119.457C98.4288 117.176 99.3742 115.027 100.79 113.196C102.206 111.366 104.049 109.91 106.158 108.958C105.103 111.578 104.857 114.455 105.45 117.217C106.044 119.979 107.45 122.5 109.488 124.456C111.527 126.412 114.104 127.713 116.888 128.193C119.672 128.672 122.536 128.307 125.111 127.146Z" fill="#C1338B"/>
<path d="M309.652 276.92C317.084 276.92 323.109 270.896 323.109 263.464C323.109 256.032 317.084 250.007 309.652 250.007C302.22 250.007 296.195 256.032 296.195 263.464C296.195 270.896 302.22 276.92 309.652 276.92Z" fill="url(#paint31_linear_73_2995)"/>
<path opacity="0.46" d="M309.653 274.039C315.494 274.039 320.228 269.304 320.228 263.464C320.228 257.623 315.494 252.889 309.653 252.889C303.813 252.889 299.078 257.623 299.078 263.464C299.078 269.304 303.813 274.039 309.653 274.039Z" fill="#C1338B"/>
<path d="M309.652 273.277C315.072 273.277 319.465 268.884 319.465 263.464C319.465 258.044 315.072 253.651 309.652 253.651C304.232 253.651 299.839 258.044 299.839 263.464C299.839 268.884 304.232 273.277 309.652 273.277Z" fill="#FDE090"/>
<path opacity="0.22" d="M319.463 267.417C318.816 269.021 317.786 270.442 316.463 271.555C315.139 272.669 313.563 273.441 311.872 273.803C310.181 274.166 308.427 274.109 306.763 273.636C305.099 273.164 303.577 272.29 302.329 271.093C301.081 269.895 300.146 268.41 299.605 266.767C299.065 265.124 298.935 263.374 299.228 261.669C299.521 259.965 300.227 258.358 301.285 256.99C302.344 255.622 303.721 254.534 305.297 253.822C304.507 255.781 304.322 257.931 304.765 259.996C305.208 262.062 306.259 263.947 307.783 265.409C309.307 266.872 311.234 267.845 313.316 268.202C315.397 268.56 317.538 268.286 319.463 267.417Z" fill="#C1338B"/>
<path d="M261.056 396.069C261.056 396.069 248.419 384.752 245.598 386.684C242.777 388.616 241.656 394.893 242.702 396.069C243.748 397.245 257.727 397.256 257.727 397.256L257.672 396.069C257.672 396.069 245.278 396.006 244.875 393.914C244.472 391.821 245.118 391.885 246.255 391.852C247.392 391.818 258.627 396.069 258.627 396.069H261.056Z" fill="url(#paint32_linear_73_2995)"/>
<path d="M266.071 396.069C266.071 396.069 278.708 384.752 281.529 386.684C284.35 388.616 285.474 394.893 284.428 396.069C283.381 397.245 269.403 397.256 269.403 397.256L269.455 396.069C269.455 396.069 281.849 396.006 282.252 393.914C282.655 391.821 282.012 391.885 280.872 391.852C279.732 391.818 268.497 396.069 268.497 396.069H266.071Z" fill="url(#paint33_linear_73_2995)"/>
<path d="M287.933 397.256H257.782C256.711 397.256 255.844 398.124 255.844 399.194V402.631C255.844 403.701 256.711 404.568 257.782 404.568H287.933C289.003 404.568 289.871 403.701 289.871 402.631V399.194C289.871 398.124 289.003 397.256 287.933 397.256Z" fill="url(#paint34_linear_73_2995)"/>
<path d="M284.508 428.686H261.103C260.444 428.686 259.812 428.424 259.346 427.958C258.88 427.492 258.618 426.86 258.618 426.202V404.571H286.992V426.202C286.992 426.86 286.731 427.492 286.265 427.958C285.799 428.424 285.167 428.686 284.508 428.686Z" fill="#108B8E"/>
<path d="M270.044 397.256H239.893C238.823 397.256 237.955 398.124 237.955 399.194V402.631C237.955 403.701 238.823 404.568 239.893 404.568H270.044C271.115 404.568 271.982 403.701 271.982 402.631V399.194C271.982 398.124 271.115 397.256 270.044 397.256Z" fill="#74F195"/>
<path d="M266.621 428.686H243.216C242.557 428.686 241.925 428.424 241.459 427.958C240.993 427.492 240.732 426.86 240.732 426.202V404.571H269.106V426.202C269.106 426.86 268.844 427.492 268.378 427.958C267.912 428.424 267.28 428.686 266.621 428.686Z" fill="url(#paint35_linear_73_2995)"/>
<path d="M255.844 404.568H251.731V428.686H255.844V404.568Z" fill="url(#paint36_linear_73_2995)"/>
<g opacity="0.47">
<path d="M280.515 404.568H276.402V428.686H280.515V404.568Z" fill="url(#paint37_linear_73_2995)"/>
</g>
<path d="M256.549 397.256H250.512V404.375H256.549V397.256Z" fill="url(#paint38_linear_73_2995)"/>
<g opacity="0.47">
<path d="M281.478 397.256H275.441V404.375H281.478V397.256Z" fill="url(#paint39_linear_73_2995)"/>
</g>
<path d="M269.775 394.879H257.817C257.483 394.879 257.162 395.012 256.925 395.249C256.689 395.485 256.556 395.806 256.556 396.141V397.245H271.042V396.141C271.042 395.975 271.01 395.81 270.946 395.656C270.883 395.503 270.789 395.363 270.671 395.246C270.554 395.129 270.414 395.036 270.26 394.973C270.106 394.91 269.941 394.878 269.775 394.879Z" fill="url(#paint40_linear_73_2995)"/>
<path d="M317.53 377.619C317.53 377.619 296.921 359.141 292.328 362.291C287.735 365.44 285.896 375.679 287.602 377.619C289.308 379.56 312.106 379.551 312.106 379.551L312.017 377.619C312.017 377.619 291.803 377.517 291.146 374.105C290.489 370.693 291.541 370.793 293.377 370.743C295.212 370.693 313.555 377.619 313.555 377.619H317.53Z" fill="#C4336B"/>
<path d="M325.723 377.619C325.723 377.619 346.329 359.141 350.925 362.291C355.521 365.44 357.357 375.678 355.651 377.619C353.945 379.559 331.147 379.551 331.147 379.551L331.235 377.619C331.235 377.619 351.449 377.517 352.106 374.105C352.763 370.693 351.712 370.792 349.873 370.743C348.035 370.693 329.695 377.619 329.695 377.619H325.723Z" fill="#C4336B"/>
<path d="M362.37 379.557H311.187C309.996 379.557 309.031 380.522 309.031 381.712V389.323C309.031 390.513 309.996 391.479 311.187 391.479H362.37C363.561 391.479 364.526 390.513 364.526 389.323V381.712C364.526 380.522 363.561 379.557 362.37 379.557Z" fill="url(#paint41_linear_73_2995)"/>
<path d="M357.345 430.811H316.039C315.38 430.811 314.748 430.55 314.282 430.084C313.816 429.618 313.555 428.986 313.555 428.327V391.479H359.83V428.327C359.83 428.986 359.568 429.618 359.102 430.084C358.636 430.55 358.004 430.811 357.345 430.811Z" fill="#F4736C"/>
<path d="M333.196 379.557H282.013C280.823 379.557 279.857 380.522 279.857 381.712V389.323C279.857 390.513 280.823 391.479 282.013 391.479H333.196C334.387 391.479 335.352 390.513 335.352 389.323V381.712C335.352 380.522 334.387 379.557 333.196 379.557Z" fill="#FDE090"/>
<path d="M330.656 391.479V427.609C330.656 428.458 330.319 429.273 329.718 429.873C329.118 430.474 328.303 430.811 327.454 430.811H287.586C286.737 430.811 285.923 430.473 285.322 429.873C284.722 429.272 284.385 428.458 284.384 427.609V391.479H330.656Z" fill="url(#paint42_linear_73_2995)"/>
<path d="M349.266 391.479H342.561V430.811H349.266V391.479Z" fill="#C4336B"/>
<path opacity="0.68" d="M310.182 379.557H300.336V391.17H310.182V379.557Z" fill="#C4336B"/>
<path d="M350.837 379.557H340.991V391.17H350.837V379.557Z" fill="#C4336B"/>
<path d="M312.898 375.687H331.091C331.813 375.687 332.504 375.973 333.014 376.483C333.524 376.993 333.81 377.684 333.81 378.405V379.565H310.182V378.405C310.182 377.685 310.468 376.994 310.977 376.484C311.486 375.974 312.177 375.687 312.898 375.687Z" fill="#C4336B"/>
<g opacity="0.52">
<path d="M330.656 391.479H284.384V396.271H330.656V391.479Z" fill="#F4736C"/>
</g>
<path opacity="0.68" d="M309.028 391.479H302.323V430.811H309.028V391.479Z" fill="#C4336B"/>
<path d="M86.3357 266.075C86.0597 265.68 85.8747 265.432 85.8223 265.366C85.8692 265.432 86.0486 265.694 86.3357 266.075Z" fill="white"/>
<path d="M461.381 421.785L461.427 421.919C461.427 421.919 461.458 421.864 461.381 421.785Z" fill="white"/>
<path d="M506.9 421.282L506.974 421.406C506.974 421.406 506.991 421.343 506.9 421.282Z" fill="white"/>
<path d="M483.108 265.368C483.106 265.394 483.106 265.42 483.108 265.445C483.105 265.393 483.108 265.368 483.108 265.368Z" fill="url(#paint43_linear_73_2995)"/>
<path d="M483.989 262.396C483.989 262.462 483.884 262.92 483.729 263.66C483.747 263.227 483.834 262.8 483.989 262.396Z" fill="url(#paint44_linear_73_2995)"/>
<path d="M172.116 440.729L172.064 440.878C172.064 440.878 172.028 440.815 172.116 440.729Z" fill="white"/>
<path d="M121.193 440.18L121.11 440.314C121.11 440.314 121.088 440.246 121.193 440.18Z" fill="white"/>
<path d="M126.073 216.107C135.278 216.107 142.741 208.645 142.741 199.44C142.741 190.235 135.278 182.772 126.073 182.772C116.868 182.772 109.406 190.235 109.406 199.44C109.406 208.645 116.868 216.107 126.073 216.107Z" fill="url(#paint45_linear_73_2995)"/>
<path d="M140.246 197.717C140.587 200.52 140.089 203.361 138.815 205.881C137.541 208.401 135.548 210.487 133.089 211.875C130.63 213.262 127.814 213.889 124.998 213.676C122.183 213.464 119.493 212.421 117.27 210.68C115.047 208.939 113.391 206.577 112.51 203.895C111.629 201.212 111.563 198.328 112.321 195.608C113.079 192.888 114.627 190.454 116.768 188.613C118.909 186.773 121.549 185.609 124.352 185.268C126.213 185.04 128.101 185.181 129.908 185.683C131.715 186.185 133.405 187.039 134.881 188.196C136.358 189.352 137.591 190.788 138.512 192.422C139.432 194.056 140.022 195.855 140.246 197.717Z" fill="url(#paint46_linear_73_2995)"/>
<path d="M130.758 206.73C130.44 206.808 130.11 206.822 129.786 206.771C129.463 206.721 129.152 206.607 128.873 206.437C128.594 206.266 128.351 206.042 128.158 205.777C127.966 205.513 127.828 205.213 127.752 204.894C127.722 204.76 127.65 204.64 127.547 204.549C127.443 204.459 127.314 204.404 127.177 204.392C125.4 203.97 123.622 203.55 121.85 203.106C121.719 203.068 121.581 203.071 121.452 203.113C121.323 203.156 121.21 203.236 121.127 203.343C120.844 203.622 120.5 203.832 120.122 203.956C119.744 204.081 119.343 204.116 118.949 204.059C118.555 204.002 118.18 203.854 117.853 203.628C117.526 203.402 117.256 203.103 117.063 202.755C116.811 202.301 116.7 201.782 116.745 201.265C116.79 200.747 116.988 200.255 117.315 199.851C117.642 199.439 118.09 199.138 118.595 198.989C119.101 198.841 119.64 198.853 120.138 199.023C120.285 199.089 120.448 199.11 120.606 199.081C120.765 199.052 120.911 198.976 121.025 198.863C122.399 197.742 123.786 196.638 125.184 195.55C125.321 195.463 125.425 195.334 125.481 195.182C125.537 195.03 125.541 194.863 125.494 194.708C125.218 193.392 126.153 192.183 127.63 191.874C128.242 191.761 128.874 191.879 129.403 192.205C129.932 192.532 130.322 193.043 130.495 193.64C130.785 194.703 130.575 195.625 129.75 196.34C129.384 196.668 128.933 196.885 128.448 196.967C127.963 197.049 127.465 196.993 127.012 196.804C126.911 196.778 126.805 196.775 126.703 196.794C126.601 196.813 126.504 196.854 126.418 196.914C124.965 198.073 123.52 199.249 122.085 200.442C121.958 200.547 121.809 200.781 121.855 200.9C121.897 200.987 121.956 201.065 122.029 201.128C122.102 201.19 122.188 201.237 122.281 201.264C124.083 201.734 125.897 202.17 127.696 202.645C128.044 202.736 128.196 202.553 128.406 202.369C128.76 202.014 129.211 201.772 129.702 201.673C130.194 201.575 130.703 201.625 131.166 201.816C132.27 202.222 132.767 203.092 132.822 204.196C132.848 204.67 132.734 205.142 132.493 205.552C132.253 205.962 131.897 206.292 131.47 206.501C131.239 206.596 131.001 206.673 130.758 206.73Z" fill="url(#paint47_linear_73_2995)"/>
<path d="M352.228 95.8343C359.34 88.7228 359.34 77.1928 352.228 70.0812C345.117 62.9697 333.587 62.9697 326.475 70.0812C319.364 77.1927 319.364 88.7228 326.475 95.8343C333.587 102.946 345.117 102.946 352.228 95.8343Z" fill="url(#paint48_linear_73_2995)"/>
<path d="M354.834 81.0777C355.206 84.1398 354.661 87.2433 353.269 89.9959C351.877 92.7484 349.7 95.0263 347.013 96.5416C344.326 98.0568 341.251 98.7413 338.175 98.5085C335.099 98.2758 332.162 97.1362 329.733 95.2338C327.305 93.3315 325.496 90.7519 324.534 87.8211C323.572 84.8904 323.5 81.7403 324.329 78.769C325.157 75.7977 326.848 73.1387 329.187 71.1284C331.527 69.118 334.41 67.8465 337.472 67.4746C339.506 67.2239 341.569 67.3772 343.543 67.9258C345.518 68.4743 347.364 69.4072 348.978 70.671C350.591 71.9348 351.938 73.5046 352.943 75.2905C353.949 77.0763 354.591 79.043 354.834 81.0777Z" fill="url(#paint49_linear_73_2995)"/>
<path d="M344.468 90.9211C344.121 91.0066 343.76 91.0225 343.407 90.9679C343.053 90.9133 342.714 90.7893 342.408 90.603C342.103 90.4167 341.838 90.1718 341.627 89.8825C341.417 89.5931 341.266 89.265 341.183 88.9171C341.152 88.77 341.074 88.637 340.961 88.5376C340.848 88.4381 340.707 88.3776 340.557 88.365C338.624 87.9068 336.673 87.4458 334.738 86.96C334.595 86.919 334.443 86.9218 334.302 86.968C334.161 87.0143 334.037 87.1019 333.946 87.2194C333.636 87.5246 333.261 87.7541 332.848 87.8897C332.435 88.0253 331.996 88.0635 331.566 88.0012C331.136 87.9389 330.727 87.7778 330.369 87.5306C330.012 87.2833 329.717 86.9567 329.507 86.5763C329.234 86.0817 329.114 85.5168 329.163 84.9539C329.212 84.3909 329.428 83.8554 329.783 83.4156C330.143 82.9669 330.632 82.64 331.184 82.4794C331.737 82.3189 332.325 82.3325 332.869 82.5185C333.029 82.5904 333.208 82.6123 333.38 82.5813C333.553 82.5503 333.713 82.4678 333.838 82.3446C335.34 81.119 336.853 79.9081 338.379 78.712C338.529 78.6174 338.643 78.4762 338.705 78.3102C338.767 78.1441 338.773 77.9623 338.721 77.7928C338.428 76.3518 339.442 75.0324 341.054 74.6956C341.722 74.5716 342.413 74.7007 342.992 75.0578C343.57 75.415 343.995 75.9747 344.184 76.6279C344.501 77.7928 344.269 78.8003 343.37 79.5815C342.97 79.9394 342.477 80.1769 341.948 80.2663C341.419 80.3557 340.875 80.2934 340.38 80.0866C340.27 80.0591 340.154 80.0556 340.042 80.0766C339.931 80.0976 339.824 80.1424 339.731 80.2081C338.14 81.4742 336.561 82.7623 334.995 84.0726C334.857 84.1858 334.719 84.4453 334.746 84.575C334.791 84.6702 334.855 84.7548 334.935 84.8229C335.015 84.891 335.109 84.9411 335.21 84.9697C337.178 85.4832 339.157 85.9607 341.128 86.4741C341.504 86.5707 341.68 86.372 341.901 86.1622C342.285 85.7737 342.776 85.5078 343.311 85.3983C343.846 85.2887 344.401 85.3403 344.907 85.5466C346.102 85.9911 346.657 86.9406 346.707 88.1469C346.735 88.6654 346.609 89.1807 346.346 89.6284C346.083 90.0761 345.694 90.4364 345.227 90.6644C344.982 90.771 344.728 90.8569 344.468 90.9211Z" fill="url(#paint50_linear_73_2995)"/>
<path d="M334.16 328.59C341.91 320.839 341.91 308.272 334.16 300.522C326.409 292.771 313.842 292.771 306.092 300.522C298.341 308.272 298.341 320.839 306.092 328.59C313.842 336.34 326.409 336.34 334.16 328.59Z" fill="url(#paint51_linear_73_2995)"/>
<path d="M337.003 312.504C337.409 315.842 336.816 319.226 335.299 322.227C333.782 325.228 331.41 327.712 328.481 329.364C325.553 331.017 322.2 331.764 318.847 331.511C315.494 331.258 312.291 330.016 309.644 327.943C306.996 325.87 305.023 323.058 303.974 319.863C302.925 316.669 302.846 313.235 303.749 309.995C304.651 306.756 306.494 303.857 309.044 301.665C311.594 299.473 314.737 298.087 318.075 297.681C320.292 297.407 322.541 297.574 324.693 298.171C326.845 298.769 328.858 299.785 330.617 301.162C332.375 302.539 333.845 304.25 334.941 306.197C336.036 308.143 336.737 310.287 337.003 312.504Z" fill="url(#paint52_linear_73_2995)"/>
<path d="M325.704 323.24C324.048 323.577 322.547 322.688 322.116 321.056C322.081 320.896 321.995 320.752 321.872 320.643C321.749 320.535 321.595 320.469 321.431 320.455C319.314 319.955 317.2 319.453 315.082 318.925C314.928 318.88 314.763 318.881 314.609 318.931C314.456 318.98 314.32 319.074 314.221 319.201C313.884 319.533 313.474 319.783 313.024 319.931C312.574 320.078 312.096 320.12 311.628 320.052C311.159 319.984 310.713 319.808 310.323 319.539C309.934 319.27 309.612 318.914 309.382 318.5C309.081 317.963 308.947 317.349 308.996 316.736C309.045 316.122 309.276 315.537 309.658 315.055C310.05 314.566 310.583 314.21 311.185 314.035C311.786 313.859 312.427 313.874 313.02 314.075C313.195 314.156 313.39 314.18 313.579 314.146C313.768 314.112 313.942 314.021 314.078 313.885C315.714 312.553 317.363 311.234 319.027 309.929C319.19 309.825 319.315 309.671 319.382 309.49C319.45 309.308 319.456 309.11 319.4 308.924C319.079 307.357 320.184 305.918 321.942 305.549C322.67 305.414 323.422 305.555 324.053 305.944C324.683 306.332 325.147 306.941 325.354 307.652C325.699 308.922 325.448 310.018 324.465 310.868C323.482 311.718 322.408 311.848 321.208 311.42C321.087 311.39 320.962 311.386 320.84 311.409C320.718 311.432 320.602 311.481 320.501 311.552C318.765 312.933 317.048 314.338 315.339 315.751C315.187 315.878 315.022 316.157 315.063 316.303C315.112 316.407 315.183 316.499 315.271 316.573C315.358 316.647 315.461 316.702 315.571 316.734C317.716 317.286 319.874 317.813 322.019 318.373C322.431 318.481 322.613 318.263 322.864 318.034C323.283 317.611 323.817 317.321 324.401 317.202C324.984 317.082 325.589 317.138 326.141 317.363C327.443 317.846 328.045 318.881 328.1 320.198C328.15 321.41 327.548 322.345 326.488 322.942C326.235 323.062 325.973 323.161 325.704 323.24Z" fill="url(#paint53_linear_73_2995)"/>
<defs>
<filter id="filter0_f_73_2995" x="87.8552" y="-8.50553" width="162.326" height="162.326" filterUnits="userSpaceOnUse" color-interpolation-filters="sRGB">
<feFlood flood-opacity="0" result="BackgroundImageFix"/>
<feBlend mode="normal" in="SourceGraphic" in2="BackgroundImageFix" result="shape"/>
<feGaussianBlur stdDeviation="13.5024" result="effect1_foregroundBlur_73_2995"/>
</filter>
<filter id="filter1_f_73_2995" x="111.103" y="181.678" width="125.017" height="125.017" filterUnits="userSpaceOnUse" color-interpolation-filters="sRGB">
<feFlood flood-opacity="0" result="BackgroundImageFix"/>
<feBlend mode="normal" in="SourceGraphic" in2="BackgroundImageFix" result="shape"/>
<feGaussianBlur stdDeviation="13.5024" result="effect1_foregroundBlur_73_2995"/>
</filter>
<filter id="filter2_f_73_2995" x="416.326" y="301.033" width="125.017" height="125.017" filterUnits="userSpaceOnUse" color-interpolation-filters="sRGB">
<feFlood flood-opacity="0" result="BackgroundImageFix"/>
<feBlend mode="normal" in="SourceGraphic" in2="BackgroundImageFix" result="shape"/>
<feGaussianBlur stdDeviation="13.5024" result="effect1_foregroundBlur_73_2995"/>
</filter>
<filter id="filter3_f_73_2995" x="268.825" y="86.4417" width="201.855" height="201.855" filterUnits="userSpaceOnUse" color-interpolation-filters="sRGB">
<feFlood flood-opacity="0" result="BackgroundImageFix"/>
<feBlend mode="normal" in="SourceGraphic" in2="BackgroundImageFix" result="shape"/>
<feGaussianBlur stdDeviation="13.5024" result="effect1_foregroundBlur_73_2995"/>
</filter>
<filter id="filter4_f_73_2995" x="305.905" y="-8.50797" width="125.84" height="125.84" filterUnits="userSpaceOnUse" color-interpolation-filters="sRGB">
<feFlood flood-opacity="0" result="BackgroundImageFix"/>
<feBlend mode="normal" in="SourceGraphic" in2="BackgroundImageFix" result="shape"/>
<feGaussianBlur stdDeviation="13.5024" result="effect1_foregroundBlur_73_2995"/>
</filter>
<filter id="filter5_f_73_2995" x="87.8565" y="103.998" width="93.77" height="93.7698" filterUnits="userSpaceOnUse" color-interpolation-filters="sRGB">
<feFlood flood-opacity="0" result="BackgroundImageFix"/>
<feBlend mode="normal" in="SourceGraphic" in2="BackgroundImageFix" result="shape"/>
<feGaussianBlur stdDeviation="13.5024" result="effect1_foregroundBlur_73_2995"/>
</filter>
<filter id="filter6_f_73_2995" x="46.0431" y="162.317" width="86.6538" height="86.6536" filterUnits="userSpaceOnUse" color-interpolation-filters="sRGB">
<feFlood flood-opacity="0" result="BackgroundImageFix"/>
<feBlend mode="normal" in="SourceGraphic" in2="BackgroundImageFix" result="shape"/>
<feGaussianBlur stdDeviation="13.5024" result="effect1_foregroundBlur_73_2995"/>
</filter>
<filter id="filter7_f_73_2995" x="439.402" y="124.955" width="93.77" height="93.7701" filterUnits="userSpaceOnUse" color-interpolation-filters="sRGB">
<feFlood flood-opacity="0" result="BackgroundImageFix"/>
<feBlend mode="normal" in="SourceGraphic" in2="BackgroundImageFix" result="shape"/>
<feGaussianBlur stdDeviation="13.5024" result="effect1_foregroundBlur_73_2995"/>
</filter>
<filter id="filter8_f_73_2995" x="-0.150305" y="276.673" width="119.458" height="119.458" filterUnits="userSpaceOnUse" color-interpolation-filters="sRGB">
<feFlood flood-opacity="0" result="BackgroundImageFix"/>
<feBlend mode="normal" in="SourceGraphic" in2="BackgroundImageFix" result="shape"/>
<feGaussianBlur stdDeviation="13.5024" result="effect1_foregroundBlur_73_2995"/>
</filter>
<filter id="filter9_f_73_2995" x="87.8545" y="269.403" width="104.712" height="104.712" filterUnits="userSpaceOnUse" color-interpolation-filters="sRGB">
<feFlood flood-opacity="0" result="BackgroundImageFix"/>
<feBlend mode="normal" in="SourceGraphic" in2="BackgroundImageFix" result="shape"/>
<feGaussianBlur stdDeviation="13.5024" result="effect1_foregroundBlur_73_2995"/>
</filter>
<linearGradient id="paint0_linear_73_2995" x1="267.082" y1="34.5268" x2="267.082" y2="407.351" gradientUnits="userSpaceOnUse">
<stop offset="0.02" stop-color="#1965F2"/>
<stop offset="0.28" stop-color="#1996F2"/>
<stop offset="0.84" stop-color="#03CCE0"/>
<stop offset="1" stop-color="#03DDE0"/>
</linearGradient>
<linearGradient id="paint1_linear_73_2995" x1="263.749" y1="302.109" x2="263.749" y2="407.351" gradientUnits="userSpaceOnUse">
<stop offset="0.3" stop-color="#27316F"/>
<stop offset="1" stop-color="#4C5F9B"/>
</linearGradient>
<linearGradient id="paint2_linear_73_2995" x1="239.768" y1="311.867" x2="286.407" y2="311.867" gradientUnits="userSpaceOnUse">
<stop stop-color="#4C5F9B"/>
<stop offset="0.76" stop-color="#27316F"/>
</linearGradient>
<linearGradient id="paint3_linear_73_2995" x1="280.572" y1="121.749" x2="276.441" y2="170.529" gradientUnits="userSpaceOnUse">
<stop offset="0.39" stop-color="#FFBD9F"/>
<stop offset="1" stop-color="#EF72A6"/>
</linearGradient>
<linearGradient id="paint4_linear_73_2995" x1="276.114" y1="114.293" x2="291.348" y2="161.079" gradientUnits="userSpaceOnUse">
<stop offset="0.39" stop-color="#FFBD9F"/>
<stop offset="1" stop-color="#EF72A6"/>
</linearGradient>
<linearGradient id="paint5_linear_73_2995" x1="261.703" y1="136.266" x2="271.417" y2="136.266" gradientUnits="userSpaceOnUse">
<stop offset="0.39" stop-color="#FFBD9F"/>
<stop offset="1" stop-color="#EF72A6"/>
</linearGradient>
<linearGradient id="paint6_linear_73_2995" x1="406.18" y1="126.806" x2="406.18" y2="192.674" gradientUnits="userSpaceOnUse">
<stop offset="0.39" stop-color="#FFBD9F"/>
<stop offset="1" stop-color="#EF72A6"/>
</linearGradient>
<linearGradient id="paint7_linear_73_2995" x1="178.024" y1="135.468" x2="223.954" y2="135.468" gradientUnits="userSpaceOnUse">
<stop offset="0.39" stop-color="#FFBD9F"/>
<stop offset="1" stop-color="#EF72A6"/>
</linearGradient>
<linearGradient id="paint8_linear_73_2995" x1="210.406" y1="166.854" x2="210.406" y2="220.319" gradientUnits="userSpaceOnUse">
<stop stop-color="#4C5F9B"/>
<stop offset="0.76" stop-color="#27316F"/>
</linearGradient>
<linearGradient id="paint9_linear_73_2995" x1="240.072" y1="235.156" x2="288.539" y2="235.156" gradientUnits="userSpaceOnUse">
<stop offset="0.02" stop-color="white"/>
<stop offset="1" stop-color="#CEEDE0"/>
</linearGradient>
<linearGradient id="paint10_linear_73_2995" x1="235.252" y1="153.733" x2="235.252" y2="350.6" gradientUnits="userSpaceOnUse">
<stop stop-color="#4C5F9B"/>
<stop offset="0.76" stop-color="#27316F"/>
</linearGradient>
<linearGradient id="paint11_linear_73_2995" x1="335.659" y1="153.734" x2="335.659" y2="349.651" gradientUnits="userSpaceOnUse">
<stop stop-color="#4C5F9B"/>
<stop offset="0.76" stop-color="#27316F"/>
</linearGradient>
<linearGradient id="paint12_linear_73_2995" x1="221.629" y1="244.641" x2="272.254" y2="244.641" gradientUnits="userSpaceOnUse">
<stop offset="0.02" stop-color="#FDB68B"/>
<stop offset="1" stop-color="#FB5C90"/>
</linearGradient>
<linearGradient id="paint13_linear_73_2995" x1="162.764" y1="149.027" x2="202.652" y2="218.114" gradientUnits="userSpaceOnUse">
<stop stop-color="#4C5F9B"/>
<stop offset="0.76" stop-color="#27316F"/>
</linearGradient>
<linearGradient id="paint14_linear_73_2995" x1="238.207" y1="118.613" x2="230.453" y2="114.521" gradientUnits="userSpaceOnUse">
<stop stop-color="#FB5C88"/>
<stop offset="0.98" stop-color="#FDB6A7"/>
</linearGradient>
<linearGradient id="paint15_linear_73_2995" x1="202.21" y1="117.368" x2="185.482" y2="149.042" gradientUnits="userSpaceOnUse">
<stop stop-color="#FB5C88"/>
<stop offset="0.98" stop-color="#FDB6A7"/>
</linearGradient>
<linearGradient id="paint16_linear_73_2995" x1="178.714" y1="134.441" x2="213.089" y2="134.441" gradientUnits="userSpaceOnUse">
<stop offset="0.02" stop-color="#FDE090"/>
<stop offset="1" stop-color="#FE9A81"/>
</linearGradient>
<linearGradient id="paint17_linear_73_2995" x1="213.418" y1="95.2778" x2="166.709" y2="70.6108" gradientUnits="userSpaceOnUse">
<stop offset="0.02" stop-color="white"/>
<stop offset="1" stop-color="#CEEDE0"/>
</linearGradient>
<linearGradient id="paint18_linear_73_2995" x1="213.437" y1="95.2814" x2="166.727" y2="70.6144" gradientUnits="userSpaceOnUse">
<stop stop-color="#27316F"/>
<stop offset="1" stop-color="#4C5F9B"/>
</linearGradient>
<linearGradient id="paint19_linear_73_2995" x1="155.298" y1="57.5157" x2="176.913" y2="79.2041" gradientUnits="userSpaceOnUse">
<stop offset="0.02" stop-color="#FDB6A7"/>
<stop offset="1" stop-color="#FB5C88"/>
</linearGradient>
<linearGradient id="paint20_linear_73_2995" x1="176.891" y1="73.581" x2="154.296" y2="61.649" gradientUnits="userSpaceOnUse">
<stop stop-color="#FB5C88"/>
<stop offset="0.98" stop-color="#FDB6A7"/>
</linearGradient>
<linearGradient id="paint21_linear_73_2995" x1="161.629" y1="73.299" x2="184.013" y2="73.299" gradientUnits="userSpaceOnUse">
<stop offset="0.02" stop-color="#FDE090"/>
<stop offset="1" stop-color="#FE9A81"/>
</linearGradient>
<linearGradient id="paint22_linear_73_2995" x1="160.975" y1="68.0046" x2="172.745" y2="68.0046" gradientUnits="userSpaceOnUse">
<stop stop-color="#FE9A81"/>
<stop offset="0.98" stop-color="#FDE090"/>
</linearGradient>
<linearGradient id="paint23_linear_73_2995" x1="181.421" y1="79.6364" x2="162.639" y2="69.718" gradientUnits="userSpaceOnUse">
<stop stop-color="#27316F"/>
<stop offset="1" stop-color="#4C5F9B"/>
</linearGradient>
<linearGradient id="paint24_linear_73_2995" x1="225.391" y1="89.5735" x2="207.295" y2="123.84" gradientUnits="userSpaceOnUse">
<stop offset="0.02" stop-color="#FDB6A7"/>
<stop offset="1" stop-color="#FB5C88"/>
</linearGradient>
<linearGradient id="paint25_linear_73_2995" x1="179.263" y1="125.177" x2="212.266" y2="125.177" gradientUnits="userSpaceOnUse">
<stop offset="0.39" stop-color="#FFBD9F"/>
<stop offset="1" stop-color="#EF72A6"/>
</linearGradient>
<linearGradient id="paint26_linear_73_2995" x1="252.545" y1="316.543" x2="263.446" y2="316.543" gradientUnits="userSpaceOnUse">
<stop offset="0.02" stop-color="white"/>
<stop offset="1" stop-color="#CEEDE0"/>
</linearGradient>
<linearGradient id="paint27_linear_73_2995" x1="266.815" y1="161.134" x2="275.521" y2="176.214" gradientUnits="userSpaceOnUse">
<stop offset="0.02" stop-color="#FDB68B"/>
<stop offset="1" stop-color="#FB5C90"/>
</linearGradient>
<linearGradient id="paint28_linear_73_2995" x1="263.986" y1="159.299" x2="294.549" y2="159.299" gradientUnits="userSpaceOnUse">
<stop offset="0.02" stop-color="white"/>
<stop offset="1" stop-color="#CEEDE0"/>
</linearGradient>
<linearGradient id="paint29_linear_73_2995" x1="439.143" y1="72.7361" x2="439.143" y2="115.867" gradientUnits="userSpaceOnUse">
<stop offset="0.02" stop-color="#FDE090"/>
<stop offset="1" stop-color="#FE9A81"/>
</linearGradient>
<linearGradient id="paint30_linear_73_2995" x1="111.982" y1="105.924" x2="111.982" y2="137.414" gradientUnits="userSpaceOnUse">
<stop offset="0.02" stop-color="#FDE090"/>
<stop offset="1" stop-color="#FE9A81"/>
</linearGradient>
<linearGradient id="paint31_linear_73_2995" x1="309.652" y1="251.555" x2="309.652" y2="275.093" gradientUnits="userSpaceOnUse">
<stop offset="0.02" stop-color="#FDE090"/>
<stop offset="1" stop-color="#FE9A81"/>
</linearGradient>
<linearGradient id="paint32_linear_73_2995" x1="242.319" y1="391.852" x2="261.056" y2="391.852" gradientUnits="userSpaceOnUse">
<stop offset="0.02" stop-color="white"/>
<stop offset="1" stop-color="#CEEDE0"/>
</linearGradient>
<linearGradient id="paint33_linear_73_2995" x1="266.071" y1="391.852" x2="284.808" y2="391.852" gradientUnits="userSpaceOnUse">
<stop offset="0.02" stop-color="white"/>
<stop offset="1" stop-color="#CEEDE0"/>
</linearGradient>
<linearGradient id="paint34_linear_73_2995" x1="255.844" y1="400.911" x2="289.868" y2="400.911" gradientUnits="userSpaceOnUse">
<stop offset="0.02" stop-color="#74D6A7"/>
<stop offset="1" stop-color="#1CB0BC"/>
</linearGradient>
<linearGradient id="paint35_linear_73_2995" x1="254.917" y1="412.524" x2="254.917" y2="427.573" gradientUnits="userSpaceOnUse">
<stop stop-color="#03CCE0"/>
<stop offset="1" stop-color="#74F195"/>
</linearGradient>
<linearGradient id="paint36_linear_73_2995" x1="251.731" y1="416.626" x2="255.844" y2="416.626" gradientUnits="userSpaceOnUse">
<stop offset="0.02" stop-color="white"/>
<stop offset="1" stop-color="#CEEDE0"/>
</linearGradient>
<linearGradient id="paint37_linear_73_2995" x1="276.402" y1="416.626" x2="280.512" y2="416.626" gradientUnits="userSpaceOnUse">
<stop offset="0.02" stop-color="white"/>
<stop offset="1" stop-color="#CEEDE0"/>
</linearGradient>
<linearGradient id="paint38_linear_73_2995" x1="250.512" y1="400.817" x2="256.549" y2="400.817" gradientUnits="userSpaceOnUse">
<stop offset="0.02" stop-color="white"/>
<stop offset="1" stop-color="#CEEDE0"/>
</linearGradient>
<linearGradient id="paint39_linear_73_2995" x1="275.441" y1="400.817" x2="281.478" y2="400.817" gradientUnits="userSpaceOnUse">
<stop offset="0.02" stop-color="white"/>
<stop offset="1" stop-color="#CEEDE0"/>
</linearGradient>
<linearGradient id="paint40_linear_73_2995" x1="256.547" y1="396.069" x2="271.034" y2="396.069" gradientUnits="userSpaceOnUse">
<stop offset="0.02" stop-color="white"/>
<stop offset="1" stop-color="#CEEDE0"/>
</linearGradient>
<linearGradient id="paint41_linear_73_2995" x1="309.031" y1="385.519" x2="364.523" y2="385.519" gradientUnits="userSpaceOnUse">
<stop offset="0.02" stop-color="#FDE090"/>
<stop offset="1" stop-color="#FE9A81"/>
</linearGradient>
<linearGradient id="paint42_linear_73_2995" x1="307.521" y1="391.479" x2="307.521" y2="430.811" gradientUnits="userSpaceOnUse">
<stop offset="0.02" stop-color="#FDE090"/>
<stop offset="1" stop-color="#FE9A81"/>
</linearGradient>
<linearGradient id="paint43_linear_73_2995" x1="483.097" y1="265.407" x2="483.108" y2="265.407" gradientUnits="userSpaceOnUse">
<stop offset="0.51" stop-color="#4A4ABC"/>
<stop offset="1" stop-color="#87BDF9"/>
</linearGradient>
<linearGradient id="paint44_linear_73_2995" x1="483.729" y1="263.028" x2="483.989" y2="263.028" gradientUnits="userSpaceOnUse">
<stop offset="0.51" stop-color="#4A4ABC"/>
<stop offset="1" stop-color="#87BDF9"/>
</linearGradient>
<linearGradient id="paint45_linear_73_2995" x1="127.259" y1="181.909" x2="124.887" y2="215.102" gradientUnits="userSpaceOnUse">
<stop stop-color="#74F195"/>
<stop offset="1" stop-color="#03CCE0"/>
</linearGradient>
<linearGradient id="paint46_linear_73_2995" x1="126.074" y1="179.057" x2="126.074" y2="246.786" gradientUnits="userSpaceOnUse">
<stop offset="0.34" stop-color="white"/>
<stop offset="1" stop-color="#CEEDE0"/>
</linearGradient>
<linearGradient id="paint47_linear_73_2995" x1="122.581" y1="192.997" x2="125.884" y2="207.809" gradientUnits="userSpaceOnUse">
<stop stop-color="#74F195"/>
<stop offset="1" stop-color="#03CCE0"/>
</linearGradient>
<linearGradient id="paint48_linear_73_2995" x1="340.725" y1="64.7905" x2="337.976" y2="101.114" gradientUnits="userSpaceOnUse">
<stop stop-color="#74F195"/>
<stop offset="1" stop-color="#03CCE0"/>
</linearGradient>
<linearGradient id="paint49_linear_73_2995" x1="339.351" y1="60.6896" x2="339.351" y2="134.684" gradientUnits="userSpaceOnUse">
<stop offset="0.34" stop-color="white"/>
<stop offset="1" stop-color="#CEEDE0"/>
</linearGradient>
<linearGradient id="paint50_linear_73_2995" x1="335.526" y1="75.9079" x2="339.135" y2="92.092" gradientUnits="userSpaceOnUse">
<stop stop-color="#03CCE0"/>
<stop offset="1" stop-color="#74F195"/>
</linearGradient>
<linearGradient id="paint51_linear_73_2995" x1="321.627" y1="294.756" x2="318.633" y2="334.346" gradientUnits="userSpaceOnUse">
<stop stop-color="#74F195"/>
<stop offset="1" stop-color="#03CCE0"/>
</linearGradient>
<linearGradient id="paint52_linear_73_2995" x1="320.126" y1="290.283" x2="320.126" y2="370.936" gradientUnits="userSpaceOnUse">
<stop offset="0.34" stop-color="white"/>
<stop offset="1" stop-color="#CEEDE0"/>
</linearGradient>
<linearGradient id="paint53_linear_73_2995" x1="315.969" y1="306.873" x2="319.903" y2="324.514" gradientUnits="userSpaceOnUse">
<stop stop-color="#03CCE0"/>
<stop offset="1" stop-color="#74F195"/>
</linearGradient>
</defs>
</svg>
