<svg width="412" height="359" viewBox="0 0 412 359" fill="none" xmlns="http://www.w3.org/2000/svg">
<path d="M40.7314 56.5L20.728 347.905H286.62L255.12 56.5H40.7314Z" fill="url(#paint0_linear_73_3796)"/>
<path opacity="0.48" d="M86.5048 75.6999C86.5048 76.5071 86.2655 77.2962 85.8172 77.9674C85.3689 78.6385 84.7317 79.1616 83.9862 79.4705C83.2406 79.7794 82.4203 79.8603 81.6289 79.7028C80.8374 79.5453 80.1104 79.1566 79.5398 78.5858C78.9693 78.0151 78.5807 77.2878 78.4232 76.4962C78.2658 75.7045 78.3466 74.8839 78.6554 74.1381C78.9642 73.3924 79.4872 72.755 80.1581 72.3065C80.8291 71.858 81.6179 71.6187 82.4248 71.6187C82.9612 71.6165 83.4927 71.7206 83.9887 71.9249C84.4847 72.1292 84.9354 72.4298 85.3147 72.8092C85.694 73.1886 85.9944 73.6394 86.1987 74.1355C86.4029 74.6317 86.507 75.1634 86.5048 75.6999Z" fill="black"/>
<path opacity="0.48" d="M209.269 75.6999C209.269 76.5078 209.029 77.2976 208.58 77.9691C208.131 78.6406 207.493 79.1637 206.746 79.4721C206 79.7805 205.179 79.8604 204.387 79.7015C203.595 79.5427 202.868 79.1524 202.298 78.5799C201.728 78.0075 201.341 77.2788 201.185 76.486C201.03 75.6932 201.113 74.8721 201.424 74.1266C201.736 73.3812 202.261 72.7449 202.934 72.2985C203.607 71.852 204.398 71.6154 205.205 71.6187C205.74 71.6187 206.27 71.7244 206.764 71.9297C207.258 72.135 207.707 72.4359 208.085 72.8151C208.462 73.1943 208.761 73.6443 208.964 74.1394C209.167 74.6344 209.271 75.1648 209.269 75.6999Z" fill="black"/>
<path d="M205.253 77.3361C205.022 77.3361 204.793 77.2902 204.579 77.2012C204.366 77.1121 204.172 76.9817 204.009 76.8173C203.846 76.6529 203.718 76.4578 203.631 76.2434C203.544 76.029 203.5 75.7995 203.502 75.5681V65.208C203.242 49.5447 196.839 34.6111 185.673 23.6265C174.508 12.6419 159.474 6.48602 143.814 6.48602C128.154 6.48602 113.12 12.6419 101.955 23.6265C90.7895 34.6111 84.3864 49.5447 84.1259 65.208V75.5681C84.1259 75.7981 84.0807 76.0258 83.9927 76.2383C83.9047 76.4508 83.7757 76.6439 83.6131 76.8066C83.4505 76.9692 83.2575 77.0982 83.0451 77.1862C82.8326 77.2742 82.605 77.3196 82.375 77.3196C82.1451 77.3196 81.9174 77.2742 81.705 77.1862C81.4925 77.0982 81.2995 76.9692 81.1369 76.8066C80.9743 76.6439 80.8454 76.4508 80.7574 76.2383C80.6694 76.0258 80.6241 75.7981 80.6241 75.5681V65.208C80.4885 56.8211 82.0228 48.4911 85.1376 40.7034C88.2523 32.9156 92.8852 25.8257 98.7664 19.8468C104.648 13.8678 111.659 9.11945 119.393 5.87823C127.127 2.63701 135.429 0.967773 143.814 0.967773C152.199 0.967773 160.501 2.63701 168.235 5.87823C175.969 9.11945 182.98 13.8678 188.862 19.8468C194.743 25.8257 199.376 32.9156 202.49 40.7034C205.605 48.4911 207.139 56.8211 207.004 65.208V75.5681C207.006 75.7995 206.962 76.029 206.875 76.2434C206.788 76.4578 206.66 76.6529 206.497 76.8173C206.334 76.9817 206.14 77.1121 205.927 77.2012C205.713 77.2902 205.484 77.3361 205.253 77.3361Z" fill="#C9B6D6"/>
<path d="M20.7134 56.5L0.726562 347.905H255.105L235.118 56.5H20.7134Z" fill="url(#paint1_linear_73_3796)"/>
<path opacity="0.48" d="M70.614 75.6999C70.614 76.5071 70.3747 77.2962 69.9264 77.9674C69.4781 78.6385 68.8409 79.1616 68.0954 79.4705C67.3499 79.7794 66.5295 79.8603 65.7381 79.7028C64.9467 79.5453 64.2197 79.1566 63.6491 78.5858C63.0785 78.0151 62.6899 77.2878 62.5325 76.4962C62.3751 75.7045 62.4559 74.8839 62.7647 74.1381C63.0735 73.3924 63.5964 72.755 64.2674 72.3065C64.9383 71.858 65.7271 71.6187 66.5341 71.6187C67.0705 71.6165 67.602 71.7206 68.098 71.9249C68.594 72.1292 69.0446 72.4298 69.4239 72.8092C69.8032 73.1886 70.1036 73.6394 70.3079 74.1355C70.5122 74.6317 70.6162 75.1634 70.614 75.6999Z" fill="black"/>
<path opacity="0.48" d="M193.376 75.6999C193.376 76.5071 193.137 77.2962 192.688 77.9674C192.24 78.6385 191.603 79.1616 190.857 79.4705C190.112 79.7794 189.292 79.8603 188.5 79.7028C187.709 79.5453 186.982 79.1566 186.411 78.5858C185.84 78.0151 185.452 77.2878 185.294 76.4962C185.137 75.7045 185.218 74.8839 185.527 74.1381C185.835 73.3924 186.358 72.755 187.029 72.3065C187.7 71.858 188.489 71.6187 189.296 71.6187C189.832 71.6165 190.364 71.7206 190.86 71.9249C191.356 72.1292 191.807 72.4298 192.186 72.8092C192.565 73.1886 192.866 73.6394 193.07 74.1355C193.274 74.6317 193.378 75.1634 193.376 75.6999Z" fill="black"/>
<path d="M189.361 77.336C188.892 77.336 188.443 77.1498 188.111 76.8182C187.78 76.4866 187.594 76.0369 187.594 75.568V65.2079C187.594 49.3748 181.306 34.1902 170.114 22.9946C158.922 11.7989 143.742 5.50921 127.914 5.50921C112.086 5.50921 96.9061 11.7989 85.7139 22.9946C74.5218 34.1902 68.2341 49.3748 68.2341 65.2079V75.568C68.2579 75.8135 68.2301 76.0611 68.1526 76.2952C68.075 76.5292 67.9493 76.7445 67.7837 76.927C67.618 77.1096 67.416 77.2555 67.1906 77.3553C66.9652 77.4552 66.7214 77.5068 66.475 77.5068C66.2285 77.5068 65.9847 77.4552 65.7593 77.3553C65.5339 77.2555 65.3319 77.1096 65.1662 76.927C65.0006 76.7445 64.8749 76.5292 64.7973 76.2952C64.7198 76.0611 64.692 75.8135 64.7158 75.568V65.2079C64.7158 48.4414 71.3741 32.3616 83.2261 20.5059C95.078 8.65021 111.153 1.98975 127.914 1.98975C144.675 1.98975 160.75 8.65021 172.602 20.5059C184.454 32.3616 191.112 48.4414 191.112 65.2079V75.568C191.112 76.0341 190.928 76.4813 190.6 76.8124C190.272 77.1435 189.827 77.3317 189.361 77.336Z" fill="white"/>
<path opacity="0.42" d="M162.372 171.436C142.55 163.39 127.915 186.043 127.915 186.043C127.915 186.043 113.247 163.39 93.4581 171.436C75.2882 178.806 73.6364 204.665 85.7607 222.295C99.8341 242.701 115.196 246.403 127.915 256.961C140.65 246.403 155.996 242.701 170.069 222.262C182.193 204.665 180.459 178.789 162.372 171.436Z" fill="white"/>
<g style="mix-blend-mode:overlay" opacity="0.3">
<path d="M357.111 200.017C378.108 179.014 378.108 144.96 357.111 123.956C336.114 102.953 302.071 102.953 281.074 123.956C260.077 144.96 260.077 179.014 281.074 200.017C302.071 221.021 336.114 221.021 357.111 200.017Z" fill="black"/>
</g>
<path d="M367.283 181.511C378.065 154.885 365.227 124.558 338.609 113.773C311.992 102.989 281.674 115.831 270.892 142.457C260.111 169.083 272.949 199.41 299.567 210.195C326.184 220.98 356.502 208.138 367.283 181.511Z" fill="#F5B811"/>
<path d="M350.358 193.264C367.627 175.99 367.627 147.983 350.358 130.709C333.09 113.435 305.092 113.435 287.823 130.709C270.555 147.983 270.555 175.99 287.823 193.264C305.092 210.538 333.09 210.538 350.358 193.264Z" fill="url(#paint2_linear_73_3796)"/>
<path d="M338.157 167.769C336.902 165.762 335.207 164.067 333.202 162.812C329.585 160.656 325.761 158.868 321.788 157.475V145.33C326.332 145.707 330.79 146.788 335.002 148.535L338.851 138.902V136.093L334.061 137.167C330.089 135.972 325.982 135.284 321.837 135.119V129.005H316.221V135.284C311.519 135.514 306.993 137.142 303.222 139.96C301.734 141.117 300.537 142.605 299.725 144.306C298.914 146.007 298.51 147.874 298.547 149.758C298.451 153.182 299.662 156.514 301.933 159.077C304.196 161.589 308.045 163.902 313.496 166.05L316.238 167.124V179.864C313.195 179.612 310.185 179.059 307.252 178.211C304.29 177.447 301.409 176.401 298.646 175.088V185.944C304.21 188.289 310.184 189.508 316.221 189.53V197.791H321.854V189.365C326.641 189.166 331.253 187.505 335.068 184.606C336.605 183.334 337.83 181.727 338.649 179.909C339.468 178.09 339.859 176.107 339.793 174.114C339.826 171.89 339.262 169.698 338.157 167.769ZM316.221 155.145C314.753 154.568 313.386 153.759 312.174 152.749C311.767 152.366 311.445 151.902 311.228 151.387C311.012 150.872 310.907 150.317 310.919 149.758C310.919 147.428 312.686 146.007 316.221 145.479V155.145ZM321.854 179.583V169.338C323.357 169.965 324.769 170.793 326.049 171.8C326.489 172.15 326.844 172.595 327.087 173.101C327.33 173.608 327.456 174.163 327.454 174.725C327.371 177.336 325.504 178.938 321.771 179.583H321.854Z" fill="url(#paint3_linear_73_3796)"/>
<path d="M339.744 171.287C339.812 173.283 339.421 175.268 338.602 177.09C337.783 178.912 336.558 180.522 335.02 181.796C331.2 184.687 326.591 186.347 321.805 186.554V194.981H316.222V186.72C310.183 186.707 304.206 185.506 298.631 183.184V172.328C301.393 173.641 304.275 174.687 307.237 175.451C310.17 176.298 313.18 176.851 316.222 177.103V164.298L313.48 163.24C308.046 161.092 304.197 158.779 301.918 156.267C299.647 153.704 298.436 150.372 298.532 146.948C298.495 145.064 298.898 143.197 299.71 141.496C300.521 139.795 301.719 138.306 303.206 137.15C306.984 134.339 311.519 132.727 316.222 132.523V126.178H321.855V132.308C327.713 132.491 333.485 133.774 338.869 136.092L334.937 145.742C330.72 144.01 326.265 142.93 321.723 142.536V154.681C325.696 156.074 329.52 157.862 333.137 160.018C335.143 161.274 336.837 162.969 338.092 164.975C339.2 166.892 339.77 169.073 339.744 171.287ZM310.837 146.948C310.825 147.507 310.931 148.062 311.147 148.577C311.363 149.092 311.686 149.556 312.093 149.939C313.333 150.956 314.727 151.771 316.222 152.351V142.668C312.605 143.197 310.837 144.618 310.837 146.948ZM327.356 171.915C327.358 171.353 327.232 170.798 326.989 170.291C326.746 169.785 326.391 169.34 325.952 168.99C324.671 167.983 323.26 167.155 321.756 166.528V176.756C325.5 176.128 327.372 174.514 327.372 171.915H327.356Z" fill="url(#paint4_linear_73_3796)"/>
<path d="M319.098 119.305C330.691 119.307 341.82 123.862 350.09 131.99C358.36 140.117 363.109 151.167 363.317 162.761C363.317 162.497 363.317 162.249 363.317 161.985C363.093 150.399 358.335 139.364 350.066 131.25C341.796 123.136 330.674 118.59 319.09 118.59C307.506 118.59 296.384 123.136 288.115 131.25C279.845 139.364 275.087 150.399 274.863 161.985C274.863 162.249 274.863 162.497 274.863 162.761C275.067 151.162 279.817 140.107 288.092 131.979C296.366 123.85 307.501 119.299 319.098 119.305Z" fill="url(#paint5_linear_73_3796)"/>
<path opacity="0.2" d="M273.375 186.786C277.679 194.662 283.936 201.297 291.545 206.053L355.107 124.411C348.633 118.21 340.667 113.787 331.981 111.572L273.375 186.786Z" fill="url(#paint6_linear_73_3796)"/>
<path opacity="0.2" d="M363.297 134.589C361.964 132.432 360.474 130.378 358.837 128.442L296.299 208.746C298.581 209.864 300.945 210.809 303.369 211.571L363.297 134.589Z" fill="url(#paint7_linear_73_3796)"/>
<path opacity="0.2" d="M368.402 145.445C367.956 144.091 367.444 142.752 366.882 141.447L310.903 213.356C312.29 213.588 313.711 213.736 315.148 213.852L368.402 145.445Z" fill="url(#paint8_linear_73_3796)"/>
<path d="M245.014 179.467C245.014 179.467 268.139 156.549 266.223 102.947C269.487 104.269 272.411 106.31 274.776 108.919C277.141 111.528 278.887 114.638 279.883 118.017C286.276 106.797 294.171 102.452 294.171 102.452C294.171 102.452 298.317 141.992 258.608 181.251L245.014 179.467Z" fill="url(#paint9_linear_73_3796)"/>
<path d="M239.461 185.084C239.461 185.084 233.762 154.037 186.851 123.948C190.052 122.226 193.582 121.205 197.207 120.951C200.832 120.697 204.47 121.218 207.879 122.478C202.13 111.027 203.154 102.484 203.154 102.484C203.154 102.484 239.494 122.659 249.124 175.881L239.461 185.084Z" fill="url(#paint10_linear_73_3796)"/>
<path d="M338.539 144.569C331.188 162.447 298.4 182.193 258.955 181.251L247.789 178.029C247.789 178.029 309.236 173.072 325.424 121.139L338.539 144.569Z" fill="url(#paint11_linear_73_3796)"/>
<path d="M247.789 178.029C247.789 178.029 278.727 132.97 325.424 121.139C331.975 127.527 336.56 135.657 338.638 144.569C338.638 144.569 298.119 146.635 259.054 181.251L247.789 178.029Z" fill="url(#paint12_linear_73_3796)"/>
<path d="M157.796 144.569C165.147 162.447 197.935 182.193 237.38 181.251L248.546 178.029C248.546 178.029 187.099 173.072 170.994 121.139L157.796 144.569Z" fill="url(#paint13_linear_73_3796)"/>
<path d="M248.498 178.029C248.498 178.029 217.609 132.97 170.995 121.139C164.444 127.527 159.859 135.657 157.781 144.569C157.781 144.569 198.3 146.635 237.365 181.251L248.498 178.029Z" fill="url(#paint14_linear_73_3796)"/>
<path d="M335.814 191.281H160.507V358.348H335.814V191.281Z" fill="url(#paint15_linear_73_3796)"/>
<path d="M213.446 358.331H216.237L335.828 247.344V244.733L213.446 358.331Z" fill="#7DCFFF"/>
<path d="M183.251 358.331H186.042L335.828 219.321V216.71L183.251 358.331Z" fill="#7DCFFF"/>
<path d="M228.526 358.331H231.335L335.828 261.356V258.745L228.526 358.331Z" fill="#7DCFFF"/>
<path d="M243.627 358.332H246.435L335.831 275.368V272.757L243.627 358.332Z" fill="#7DCFFF"/>
<path d="M198.349 358.331H201.141L335.829 233.332V230.722L198.349 358.331Z" fill="#7DCFFF"/>
<path d="M288.918 358.332H291.71L335.83 317.404V314.793L288.918 358.332Z" fill="#7DCFFF"/>
<path d="M258.721 358.332H261.529L335.828 289.38V286.77L258.721 358.332Z" fill="#7DCFFF"/>
<path d="M321.904 358.332L335.828 345.411V342.817L319.095 358.332H321.904Z" fill="#7DCFFF"/>
<path d="M304.015 358.332H306.806L335.828 331.415V328.805L304.015 358.332Z" fill="#7DCFFF"/>
<path d="M168.152 358.331H170.96L335.827 205.309V202.698L168.152 358.331Z" fill="#7DCFFF"/>
<path d="M273.82 358.332H276.611L335.829 303.392V300.781L273.82 358.332Z" fill="#7DCFFF"/>
<path d="M160.507 323.401V325.995L305.652 191.281H302.86L160.507 323.401Z" fill="#7DCFFF"/>
<path d="M160.507 239.331V241.925L215.083 191.281H212.292L160.507 239.331Z" fill="#7DCFFF"/>
<path d="M160.507 253.342V255.936L230.181 191.281H227.373L160.507 253.342Z" fill="#7DCFFF"/>
<path d="M333.039 191.281L160.507 351.425V354.019L335.83 191.297V191.281H333.039Z" fill="#7DCFFF"/>
<path d="M160.507 225.319V227.913L199.986 191.281H197.194L160.507 225.319Z" fill="#7DCFFF"/>
<path d="M160.507 267.354V269.948L245.278 191.281H242.47L160.507 267.354Z" fill="#7DCFFF"/>
<path d="M160.507 211.307V213.901L184.888 191.281H182.096L160.507 211.307Z" fill="#7DCFFF"/>
<path d="M160.507 281.366V283.96L260.376 191.281H257.568L160.507 281.366Z" fill="#7DCFFF"/>
<path d="M160.507 337.413V340.007L320.749 191.281H317.941L160.507 337.413Z" fill="#7DCFFF"/>
<path d="M160.507 309.389V311.984L290.554 191.281H287.763L160.507 309.389Z" fill="#7DCFFF"/>
<path d="M160.507 295.378V297.972L275.457 191.281H272.665L160.507 295.378Z" fill="#7DCFFF"/>
<g style="mix-blend-mode:overlay" opacity="0.3">
<path d="M335.828 191.281H309.631V358.348H335.828V191.281Z" fill="black"/>
</g>
<g style="mix-blend-mode:overlay" opacity="0.3">
<path d="M335.83 211.786L160.507 204.169V191.281H335.83V211.786Z" fill="black"/>
</g>
<path d="M339.694 174.559H156.641V202.583H339.694V174.559Z" fill="url(#paint16_linear_73_3796)"/>
<g style="mix-blend-mode:overlay" opacity="0.3">
<path d="M339.694 174.559H311.679V202.583H339.694V174.559Z" fill="black"/>
</g>
<path opacity="0.34" d="M339.694 201.013H156.641V202.748H339.694V201.013Z" fill="#D6E1FF"/>
<g style="mix-blend-mode:overlay" opacity="0.3">
<path d="M251.521 174.559H221.326V358.348H251.521V174.559Z" fill="black"/>
</g>
<path d="M250.168 174.559H219.973V358.348H250.168V174.559Z" fill="url(#paint17_linear_73_3796)"/>
<path d="M250.168 202.814H219.973V358.348H250.168V202.814Z" fill="url(#paint18_linear_73_3796)"/>
<g style="mix-blend-mode:overlay" opacity="0.3">
<path d="M346.203 344.484C382.292 344.484 411.548 315.219 411.548 279.118C411.548 243.017 382.292 213.752 346.203 213.752C310.114 213.752 280.857 243.017 280.857 279.118C280.857 315.219 310.114 344.484 346.203 344.484Z" fill="black"/>
</g>
<path d="M346.204 342.353C381.117 342.353 409.419 314.042 409.419 279.118C409.419 244.194 381.117 215.883 346.204 215.883C311.292 215.883 282.99 244.194 282.99 279.118C282.99 314.042 311.292 342.353 346.204 342.353Z" fill="#F5B811"/>
<path d="M346.201 332.902C375.895 332.902 399.967 308.823 399.967 279.119C399.967 249.415 375.895 225.335 346.201 225.335C316.507 225.335 292.435 249.415 292.435 279.119C292.435 308.823 316.507 332.902 346.201 332.902Z" fill="url(#paint19_linear_73_3796)"/>
<path d="M369.362 286.191C367.828 283.744 365.762 281.677 363.316 280.143C358.926 277.52 354.283 275.344 349.457 273.65V258.894C354.954 259.377 360.345 260.692 365.447 262.794L370.138 251.095V247.691L364.307 248.98C359.474 247.537 354.48 246.704 349.441 246.502V239.05H342.652V246.7C335.89 247.372 330.621 249.267 326.844 252.384C325.037 253.792 323.583 255.602 322.597 257.67C321.611 259.738 321.119 262.007 321.162 264.297C321.044 268.459 322.521 272.509 325.291 275.616C328.033 278.678 332.702 281.504 339.299 284.092L342.602 285.398V300.88C338.907 300.597 335.249 299.944 331.684 298.93C328.068 297.998 324.55 296.72 321.178 295.113V308.332C327.979 311.179 335.28 312.639 342.652 312.628V322.674H349.507V312.43C356.389 311.802 361.752 309.88 365.595 306.663C367.468 305.117 368.96 303.161 369.957 300.947C370.954 298.732 371.428 296.318 371.344 293.891C371.394 291.192 370.709 288.53 369.362 286.191ZM342.652 270.808C340.853 270.107 339.179 269.12 337.696 267.883C337.2 267.423 336.807 266.862 336.545 266.238C336.283 265.614 336.157 264.941 336.177 264.264C336.177 261.444 338.324 259.709 342.619 259.06L342.652 270.808ZM349.507 300.55V288.108C351.315 288.891 353.009 289.913 354.545 291.148C355.07 291.573 355.492 292.113 355.778 292.726C356.064 293.338 356.207 294.008 356.197 294.684C356.23 297.834 353.983 299.773 349.457 300.5L349.507 300.55Z" fill="url(#paint20_linear_73_3796)"/>
<path d="M371.294 290.438C371.379 292.865 370.904 295.279 369.907 297.494C368.911 299.709 367.418 301.665 365.546 303.21C361.714 306.427 356.351 308.349 349.457 308.977V319.238H342.652V309.192C335.279 309.189 327.981 307.723 321.178 304.879V291.661C324.543 293.252 328.049 294.525 331.651 295.461C335.218 296.466 338.875 297.119 342.569 297.411V281.912L339.266 280.607C332.658 278.018 327.989 275.192 325.258 272.13C322.488 269.023 321.011 264.973 321.129 260.812C321.086 258.521 321.578 256.252 322.564 254.184C323.55 252.116 325.004 250.306 326.811 248.898C330.588 245.781 335.857 243.886 342.619 243.214V235.581H349.474V243.016C356.596 243.234 363.613 244.798 370.154 247.626L365.463 259.308C360.363 257.205 354.971 255.896 349.474 255.425V270.164C354.299 271.859 358.942 274.034 363.332 276.658C365.778 278.191 367.845 280.259 369.378 282.705C370.703 285.062 371.365 287.735 371.294 290.438ZM336.16 260.845C336.143 261.524 336.269 262.199 336.531 262.825C336.793 263.452 337.184 264.016 337.68 264.48C339.171 265.705 340.843 266.691 342.635 267.404V255.656C338.319 256.284 336.16 258.014 336.16 260.845ZM356.246 291.148C356.257 290.472 356.114 289.803 355.827 289.19C355.541 288.578 355.12 288.038 354.594 287.612C353.042 286.386 351.33 285.374 349.507 284.605V297.047C354 296.309 356.246 294.343 356.246 291.148Z" fill="url(#paint21_linear_73_3796)"/>
<path d="M346.201 227.235C360.302 227.234 373.838 232.776 383.89 242.668C393.942 252.559 399.705 266.007 399.935 280.11C399.935 279.796 399.935 279.499 399.935 279.168C399.935 264.904 394.27 251.224 384.187 241.138C374.104 231.051 360.428 225.385 346.168 225.385C331.908 225.385 318.233 231.051 308.15 241.138C298.067 251.224 292.402 264.904 292.402 279.168C292.402 279.499 292.402 279.796 292.402 280.11C292.632 265.995 298.403 252.538 308.47 242.644C318.536 232.751 332.089 227.216 346.201 227.235Z" fill="url(#paint22_linear_73_3796)"/>
<path opacity="0.2" d="M290.619 309.323C295.828 318.893 303.411 326.961 312.638 332.753L389.893 233.514C382.04 225.964 372.365 220.579 361.812 217.883L290.619 309.323Z" fill="url(#paint23_linear_73_3796)"/>
<path opacity="0.2" d="M399.937 245.825C398.304 243.205 396.488 240.704 394.502 238.34L318.519 335.976C321.296 337.325 324.167 338.474 327.108 339.413L399.937 245.825Z" fill="url(#paint24_linear_73_3796)"/>
<path opacity="0.2" d="M406.13 259.01C405.584 257.357 404.973 255.705 404.28 254.152L336.225 341.577C337.877 341.841 339.661 342.023 341.395 342.155L406.13 259.01Z" fill="url(#paint25_linear_73_3796)"/>
<path d="M281.287 58.3669C260.061 61.1263 257.864 63.357 255.106 84.6059C252.347 63.4065 250.151 61.1759 228.925 58.4165C250.117 55.6736 252.347 53.4595 255.106 32.2271C257.864 53.3769 260.061 55.6241 281.287 58.3669Z" fill="white"/>
<path d="M399.67 204.566C385.117 206.449 383.581 207.986 381.698 222.543C379.798 207.986 378.279 206.449 363.726 204.566C378.279 202.665 379.798 201.129 381.698 186.572C383.581 201.129 385.117 202.665 399.67 204.566Z" fill="white"/>
<path d="M118.387 168.396C103.834 170.296 102.298 171.817 100.415 186.374C98.5156 171.817 96.9794 170.296 82.427 168.396C96.9794 166.513 98.5156 164.976 100.415 150.419C102.298 164.976 103.834 166.513 118.387 168.396Z" fill="white"/>
<defs>
<linearGradient id="paint0_linear_73_3796" x1="153.682" y1="-23.9685" x2="153.682" y2="284.571" gradientUnits="userSpaceOnUse">
<stop offset="0.07" stop-color="#6423C9"/>
<stop offset="1" stop-color="#30198F"/>
</linearGradient>
<linearGradient id="paint1_linear_73_3796" x1="127.916" y1="48.6845" x2="127.916" y2="357.208" gradientUnits="userSpaceOnUse">
<stop offset="0.07" stop-color="#6423C9"/>
<stop offset="1" stop-color="#30198F"/>
</linearGradient>
<linearGradient id="paint2_linear_73_3796" x1="319.086" y1="101.03" x2="319.086" y2="214.182" gradientUnits="userSpaceOnUse">
<stop stop-color="#F07D11"/>
<stop offset="0.51" stop-color="#F5B811"/>
<stop offset="1" stop-color="#F07D11"/>
</linearGradient>
<linearGradient id="paint3_linear_73_3796" x1="298.464" y1="163.39" x2="339.743" y2="163.39" gradientUnits="userSpaceOnUse">
<stop offset="0.07" stop-color="#E38124"/>
<stop offset="1" stop-color="#C77120"/>
</linearGradient>
<linearGradient id="paint4_linear_73_3796" x1="298.465" y1="160.58" x2="339.744" y2="160.58" gradientUnits="userSpaceOnUse">
<stop stop-color="#F5B64B"/>
<stop offset="0.5" stop-color="#F5C889"/>
<stop offset="1" stop-color="#F5B64B"/>
</linearGradient>
<linearGradient id="paint5_linear_73_3796" x1="319.098" y1="125.865" x2="319.098" y2="183.432" gradientUnits="userSpaceOnUse">
<stop stop-color="#F07D11"/>
<stop offset="0.51" stop-color="#F5B811"/>
<stop offset="1" stop-color="#F07D11"/>
</linearGradient>
<linearGradient id="paint6_linear_73_3796" x1="335.962" y1="132.689" x2="281.269" y2="191.594" gradientUnits="userSpaceOnUse">
<stop stop-color="white"/>
<stop offset="1" stop-color="#FEFAF3" stop-opacity="0"/>
</linearGradient>
<linearGradient id="paint7_linear_73_3796" x1="352.015" y1="147.461" x2="298.693" y2="204.895" gradientUnits="userSpaceOnUse">
<stop stop-color="white"/>
<stop offset="1" stop-color="#FEFAF3" stop-opacity="0"/>
</linearGradient>
<linearGradient id="paint8_linear_73_3796" x1="359.714" y1="157.491" x2="311.977" y2="208.913" gradientUnits="userSpaceOnUse">
<stop stop-color="white"/>
<stop offset="1" stop-color="#FEFAF3" stop-opacity="0"/>
</linearGradient>
<linearGradient id="paint9_linear_73_3796" x1="277.867" y1="118.094" x2="264.487" y2="162.135" gradientUnits="userSpaceOnUse">
<stop stop-color="white"/>
<stop offset="0.3" stop-color="#FFFBFC"/>
<stop offset="0.56" stop-color="#FFF1F2"/>
<stop offset="0.82" stop-color="#FFDEE2"/>
<stop offset="1" stop-color="#FFCCD2"/>
</linearGradient>
<linearGradient id="paint10_linear_73_3796" x1="207.757" y1="123.965" x2="235.29" y2="161.078" gradientUnits="userSpaceOnUse">
<stop stop-color="white"/>
<stop offset="0.28" stop-color="#FFFBFC"/>
<stop offset="0.52" stop-color="#FFF1F2"/>
<stop offset="0.76" stop-color="#FFDEE2"/>
<stop offset="0.93" stop-color="#FFCCD2"/>
</linearGradient>
<linearGradient id="paint11_linear_73_3796" x1="321.394" y1="141.005" x2="267.726" y2="182.218" gradientUnits="userSpaceOnUse">
<stop stop-color="#FFCCD2"/>
<stop offset="0.32" stop-color="#FFB3BC"/>
<stop offset="0.92" stop-color="#FF7A8A"/>
</linearGradient>
<linearGradient id="paint12_linear_73_3796" x1="318.217" y1="136.069" x2="264.234" y2="177.542" gradientUnits="userSpaceOnUse">
<stop offset="0.47" stop-color="white"/>
<stop offset="0.63" stop-color="#FFFBFC"/>
<stop offset="0.77" stop-color="#FFF1F2"/>
<stop offset="0.9" stop-color="#FFDEE2"/>
<stop offset="1" stop-color="#FFCCD2"/>
</linearGradient>
<linearGradient id="paint13_linear_73_3796" x1="175.258" y1="140.92" x2="228.926" y2="182.133" gradientUnits="userSpaceOnUse">
<stop stop-color="#FFCCD2"/>
<stop offset="0.32" stop-color="#FFB3BC"/>
<stop offset="0.92" stop-color="#FF7A8A"/>
</linearGradient>
<linearGradient id="paint14_linear_73_3796" x1="178.436" y1="135.984" x2="232.432" y2="177.438" gradientUnits="userSpaceOnUse">
<stop offset="0.47" stop-color="white"/>
<stop offset="0.63" stop-color="#FFFBFC"/>
<stop offset="0.77" stop-color="#FFF1F2"/>
<stop offset="0.9" stop-color="#FFDEE2"/>
<stop offset="1" stop-color="#FFCCD2"/>
</linearGradient>
<linearGradient id="paint15_linear_73_3796" x1="248.169" y1="191.281" x2="248.169" y2="394.798" gradientUnits="userSpaceOnUse">
<stop stop-color="#6E96FF"/>
<stop offset="0.17" stop-color="#7FA2FF"/>
<stop offset="0.44" stop-color="#92B0FF"/>
<stop offset="0.71" stop-color="#9DB8FF"/>
<stop offset="1" stop-color="#A1BBFF"/>
</linearGradient>
<linearGradient id="paint16_linear_73_3796" x1="248.168" y1="207.986" x2="248.168" y2="167.371" gradientUnits="userSpaceOnUse">
<stop stop-color="#6E96FF"/>
<stop offset="0.17" stop-color="#7FA2FF"/>
<stop offset="0.44" stop-color="#92B0FF"/>
<stop offset="0.71" stop-color="#9DB8FF"/>
<stop offset="1" stop-color="#A1BBFF"/>
</linearGradient>
<linearGradient id="paint17_linear_73_3796" x1="235.07" y1="198.997" x2="235.07" y2="157.54" gradientUnits="userSpaceOnUse">
<stop offset="0.47" stop-color="white"/>
<stop offset="0.63" stop-color="#FFFBFC"/>
<stop offset="0.77" stop-color="#FFF1F2"/>
<stop offset="0.9" stop-color="#FFDEE2"/>
<stop offset="1" stop-color="#FFCCD2"/>
</linearGradient>
<linearGradient id="paint18_linear_73_3796" x1="235.07" y1="262.001" x2="235.07" y2="196.205" gradientUnits="userSpaceOnUse">
<stop offset="0.47" stop-color="white"/>
<stop offset="0.63" stop-color="#FFFBFC"/>
<stop offset="0.77" stop-color="#FFF1F2"/>
<stop offset="0.9" stop-color="#FFDEE2"/>
<stop offset="1" stop-color="#FFCCD2"/>
</linearGradient>
<linearGradient id="paint19_linear_73_3796" x1="346.201" y1="205.028" x2="346.201" y2="342.585" gradientUnits="userSpaceOnUse">
<stop stop-color="#F07D11"/>
<stop offset="0.51" stop-color="#F5B811"/>
<stop offset="1" stop-color="#F07D11"/>
</linearGradient>
<linearGradient id="paint20_linear_73_3796" x1="321.112" y1="280.837" x2="371.294" y2="280.837" gradientUnits="userSpaceOnUse">
<stop offset="0.07" stop-color="#E38124"/>
<stop offset="1" stop-color="#C77120"/>
</linearGradient>
<linearGradient id="paint21_linear_73_3796" x1="321.112" y1="277.418" x2="371.294" y2="277.418" gradientUnits="userSpaceOnUse">
<stop stop-color="#F5B64B"/>
<stop offset="0.5" stop-color="#F5C889"/>
<stop offset="1" stop-color="#F5B64B"/>
</linearGradient>
<linearGradient id="paint22_linear_73_3796" x1="346.201" y1="235.216" x2="346.201" y2="305.192" gradientUnits="userSpaceOnUse">
<stop stop-color="#F07D11"/>
<stop offset="0.51" stop-color="#F5B811"/>
<stop offset="1" stop-color="#F07D11"/>
</linearGradient>
<linearGradient id="paint23_linear_73_3796" x1="366.685" y1="243.51" x2="300.227" y2="315.102" gradientUnits="userSpaceOnUse">
<stop stop-color="white"/>
<stop offset="1" stop-color="#FEFAF3" stop-opacity="0"/>
</linearGradient>
<linearGradient id="paint24_linear_73_3796" x1="386.21" y1="261.472" x2="321.404" y2="331.28" gradientUnits="userSpaceOnUse">
<stop stop-color="white"/>
<stop offset="1" stop-color="#FEFAF3" stop-opacity="0"/>
</linearGradient>
<linearGradient id="paint25_linear_73_3796" x1="395.575" y1="273.666" x2="337.543" y2="336.172" gradientUnits="userSpaceOnUse">
<stop stop-color="white"/>
<stop offset="1" stop-color="#FEFAF3" stop-opacity="0"/>
</linearGradient>
</defs>
</svg>
