<svg width="178" height="120" viewBox="0 0 178 120" fill="none" xmlns="http://www.w3.org/2000/svg">
<path d="M43.304 28V19.136L41.464 19.568V18L44.168 16.8H45.432V28H43.304ZM52.1956 28.192C51.161 28.192 50.2756 27.952 49.5396 27.472C48.8036 26.9813 48.233 26.304 47.8276 25.44C47.433 24.5653 47.2356 23.552 47.2356 22.4C47.2356 21.2587 47.433 20.2507 47.8276 19.376C48.233 18.5013 48.8036 17.824 49.5396 17.344C50.2756 16.8533 51.161 16.608 52.1956 16.608C53.2303 16.608 54.1156 16.8533 54.8516 17.344C55.5876 17.824 56.153 18.5013 56.5476 19.376C56.953 20.2507 57.1556 21.2587 57.1556 22.4C57.1556 23.552 56.953 24.5653 56.5476 25.44C56.153 26.304 55.5876 26.9813 54.8516 27.472C54.1156 27.952 53.2303 28.192 52.1956 28.192ZM52.1956 26.352C53.0383 26.352 53.7263 26 54.2596 25.296C54.793 24.592 55.0596 23.6267 55.0596 22.4C55.0596 21.1733 54.793 20.208 54.2596 19.504C53.7263 18.8 53.0383 18.448 52.1956 18.448C51.3423 18.448 50.649 18.8 50.1156 19.504C49.593 20.208 49.3316 21.1733 49.3316 22.4C49.3316 23.6267 49.593 24.592 50.1156 25.296C50.649 26 51.3423 26.352 52.1956 26.352ZM63.555 28.192C62.5203 28.192 61.635 27.952 60.899 27.472C60.163 26.9813 59.5923 26.304 59.187 25.44C58.7923 24.5653 58.595 23.552 58.595 22.4C58.595 21.2587 58.7923 20.2507 59.187 19.376C59.5923 18.5013 60.163 17.824 60.899 17.344C61.635 16.8533 62.5203 16.608 63.555 16.608C64.5897 16.608 65.475 16.8533 66.211 17.344C66.947 17.824 67.5123 18.5013 67.907 19.376C68.3123 20.2507 68.515 21.2587 68.515 22.4C68.515 23.552 68.3123 24.5653 67.907 25.44C67.5123 26.304 66.947 26.9813 66.211 27.472C65.475 27.952 64.5897 28.192 63.555 28.192ZM63.555 26.352C64.3977 26.352 65.0857 26 65.619 25.296C66.1523 24.592 66.419 23.6267 66.419 22.4C66.419 21.1733 66.1523 20.208 65.619 19.504C65.0857 18.8 64.3977 18.448 63.555 18.448C62.7017 18.448 62.0083 18.8 61.475 19.504C60.9523 20.208 60.691 21.1733 60.691 22.4C60.691 23.6267 60.9523 24.592 61.475 25.296C62.0083 26 62.7017 26.352 63.555 26.352ZM72.6264 22.304C72.1144 22.304 71.6504 22.192 71.2344 21.968C70.8184 21.7333 70.4877 21.4027 70.2424 20.976C69.997 20.5493 69.8744 20.0427 69.8744 19.456C69.8744 18.8693 69.997 18.3627 70.2424 17.936C70.4877 17.5093 70.8184 17.184 71.2344 16.96C71.6504 16.7253 72.1197 16.608 72.6424 16.608C73.1544 16.608 73.613 16.7253 74.0184 16.96C74.4344 17.184 74.765 17.5093 75.0104 17.936C75.2557 18.3627 75.3784 18.8693 75.3784 19.456C75.3784 20.0427 75.2557 20.5493 75.0104 20.976C74.765 21.4027 74.4344 21.7333 74.0184 21.968C73.6024 22.192 73.1384 22.304 72.6264 22.304ZM72.0184 28L78.3384 16.8H80.3384L74.0184 28H72.0184ZM72.6264 20.88C72.9357 20.88 73.2024 20.7627 73.4264 20.528C73.6504 20.2827 73.7624 19.9253 73.7624 19.456C73.7624 18.9867 73.6504 18.6293 73.4264 18.384C73.213 18.1387 72.9464 18.016 72.6264 18.016C72.3064 18.016 72.0344 18.1387 71.8104 18.384C71.597 18.6293 71.4904 18.9867 71.4904 19.456C71.4904 19.9253 71.597 20.2827 71.8104 20.528C72.0344 20.7627 72.3064 20.88 72.6264 20.88ZM79.7944 28.192C79.2824 28.192 78.8184 28.08 78.4024 27.856C77.9864 27.6213 77.6557 27.2907 77.4104 26.864C77.165 26.4373 77.0424 25.9307 77.0424 25.344C77.0424 24.7573 77.165 24.256 77.4104 23.84C77.6557 23.4133 77.9864 23.088 78.4024 22.864C78.8184 22.6293 79.2877 22.512 79.8104 22.512C80.3224 22.512 80.781 22.6293 81.1864 22.864C81.6024 23.088 81.933 23.4133 82.1784 23.84C82.4237 24.256 82.5464 24.7573 82.5464 25.344C82.5464 25.9307 82.4237 26.4373 82.1784 26.864C81.933 27.2907 81.6024 27.6213 81.1864 27.856C80.781 28.08 80.317 28.192 79.7944 28.192ZM79.7944 26.768C80.1144 26.768 80.381 26.6507 80.5944 26.416C80.8184 26.1707 80.9304 25.8133 80.9304 25.344C80.9304 24.8747 80.8184 24.5173 80.5944 24.272C80.381 24.0267 80.1144 23.904 79.7944 23.904C79.4744 23.904 79.2024 24.0267 78.9784 24.272C78.765 24.5173 78.6584 24.8747 78.6584 25.344C78.6584 25.8133 78.765 26.1707 78.9784 26.416C79.2024 26.6507 79.4744 26.768 79.7944 26.768ZM88.0995 28.192C87.2782 28.192 86.5528 28.0533 85.9235 27.776C85.2942 27.488 84.7982 27.0827 84.4355 26.56C84.0728 26.0267 83.8862 25.3813 83.8755 24.624H86.0355C86.0568 25.1467 86.2435 25.5893 86.5955 25.952C86.9582 26.304 87.4542 26.48 88.0835 26.48C88.6275 26.48 89.0595 26.352 89.3795 26.096C89.6995 25.8293 89.8595 25.4773 89.8595 25.04C89.8595 24.5813 89.7155 24.224 89.4275 23.968C89.1502 23.712 88.7768 23.504 88.3075 23.344C87.8382 23.184 87.3368 23.0133 86.8035 22.832C85.9395 22.5333 85.2782 22.1493 84.8195 21.68C84.3715 21.2107 84.1475 20.5867 84.1475 19.808C84.1368 19.1467 84.2915 18.5813 84.6115 18.112C84.9422 17.632 85.3902 17.264 85.9555 17.008C86.5208 16.7413 87.1715 16.608 87.9075 16.608C88.6542 16.608 89.3102 16.7413 89.8755 17.008C90.4515 17.2747 90.8995 17.648 91.2195 18.128C91.5502 18.608 91.7262 19.1787 91.7475 19.84H89.5555C89.5448 19.4453 89.3902 19.0987 89.0915 18.8C88.8035 18.4907 88.3982 18.336 87.8755 18.336C87.4275 18.3253 87.0488 18.4373 86.7395 18.672C86.4408 18.896 86.2915 19.2267 86.2915 19.664C86.2915 20.0373 86.4088 20.336 86.6435 20.56C86.8782 20.7733 87.1982 20.9547 87.6035 21.104C88.0088 21.2533 88.4728 21.4133 88.9955 21.584C89.5502 21.776 90.0568 22 90.5155 22.256C90.9742 22.512 91.3422 22.8533 91.6195 23.28C91.8968 23.696 92.0355 24.2347 92.0355 24.896C92.0355 25.4827 91.8862 26.0267 91.5875 26.528C91.2888 27.0293 90.8462 27.4347 90.2595 27.744C89.6728 28.0427 88.9528 28.192 88.0995 28.192ZM97.6304 28.192C96.8304 28.192 96.121 28.0213 95.5024 27.68C94.8837 27.3387 94.3984 26.8587 94.0464 26.24C93.6944 25.6213 93.5184 24.9067 93.5184 24.096C93.5184 23.2747 93.689 22.544 94.0304 21.904C94.3824 21.264 94.8624 20.768 95.4704 20.416C96.089 20.0533 96.8144 19.872 97.6464 19.872C98.425 19.872 99.113 20.0427 99.7104 20.384C100.308 20.7253 100.772 21.1947 101.102 21.792C101.444 22.3787 101.614 23.0347 101.614 23.76C101.614 23.8773 101.609 24 101.598 24.128C101.598 24.256 101.593 24.3893 101.582 24.528H95.5504C95.593 25.1467 95.8064 25.632 96.1904 25.984C96.585 26.336 97.0597 26.512 97.6144 26.512C98.0304 26.512 98.377 26.4213 98.6544 26.24C98.9424 26.048 99.1557 25.8027 99.2944 25.504H101.374C101.225 26.0053 100.974 26.464 100.622 26.88C100.281 27.2853 99.8544 27.6053 99.3424 27.84C98.841 28.0747 98.2704 28.192 97.6304 28.192ZM97.6464 21.536C97.145 21.536 96.7024 21.68 96.3184 21.968C95.9344 22.2453 95.689 22.672 95.5824 23.248H99.5344C99.5024 22.7253 99.3104 22.3093 98.9584 22C98.6064 21.6907 98.169 21.536 97.6464 21.536ZM107.225 28.192C106.414 28.192 105.7 28.016 105.081 27.664C104.462 27.312 103.972 26.8213 103.609 26.192C103.257 25.5627 103.081 24.8427 103.081 24.032C103.081 23.2213 103.257 22.5013 103.609 21.872C103.972 21.2427 104.462 20.752 105.081 20.4C105.7 20.048 106.414 19.872 107.225 19.872C108.238 19.872 109.092 20.1387 109.785 20.672C110.478 21.1947 110.921 21.92 111.113 22.848H108.953C108.846 22.464 108.633 22.1653 108.313 21.952C108.004 21.728 107.636 21.616 107.209 21.616C106.644 21.616 106.164 21.8293 105.769 22.256C105.374 22.6827 105.177 23.2747 105.177 24.032C105.177 24.7893 105.374 25.3813 105.769 25.808C106.164 26.2347 106.644 26.448 107.209 26.448C107.636 26.448 108.004 26.3413 108.313 26.128C108.633 25.9147 108.846 25.6107 108.953 25.216H111.113C110.921 26.112 110.478 26.832 109.785 27.376C109.092 27.92 108.238 28.192 107.225 28.192ZM115.907 28.192C114.915 28.192 114.147 27.8827 113.603 27.264C113.069 26.6453 112.803 25.7387 112.803 24.544V20.064H114.835V24.352C114.835 25.0347 114.973 25.5573 115.251 25.92C115.528 26.2827 115.965 26.464 116.563 26.464C117.128 26.464 117.592 26.2613 117.955 25.856C118.328 25.4507 118.515 24.8853 118.515 24.16V20.064H120.563V28H118.755L118.595 26.656C118.349 27.1253 117.992 27.4987 117.523 27.776C117.064 28.0533 116.525 28.192 115.907 28.192ZM122.665 28V20.064H124.489L124.681 21.552C124.969 21.04 125.358 20.6347 125.849 20.336C126.35 20.0267 126.937 19.872 127.609 19.872V22.032H127.033C126.585 22.032 126.185 22.1013 125.833 22.24C125.481 22.3787 125.204 22.6187 125.001 22.96C124.809 23.3013 124.713 23.776 124.713 24.384V28H122.665ZM132.724 28.192C131.924 28.192 131.215 28.0213 130.596 27.68C129.977 27.3387 129.492 26.8587 129.14 26.24C128.788 25.6213 128.612 24.9067 128.612 24.096C128.612 23.2747 128.783 22.544 129.124 21.904C129.476 21.264 129.956 20.768 130.564 20.416C131.183 20.0533 131.908 19.872 132.74 19.872C133.519 19.872 134.207 20.0427 134.804 20.384C135.401 20.7253 135.865 21.1947 136.196 21.792C136.537 22.3787 136.708 23.0347 136.708 23.76C136.708 23.8773 136.703 24 136.692 24.128C136.692 24.256 136.687 24.3893 136.676 24.528H130.644C130.687 25.1467 130.9 25.632 131.284 25.984C131.679 26.336 132.153 26.512 132.708 26.512C133.124 26.512 133.471 26.4213 133.748 26.24C134.036 26.048 134.249 25.8027 134.388 25.504H136.468C136.319 26.0053 136.068 26.464 135.716 26.88C135.375 27.2853 134.948 27.6053 134.436 27.84C133.935 28.0747 133.364 28.192 132.724 28.192ZM132.74 21.536C132.239 21.536 131.796 21.68 131.412 21.968C131.028 22.2453 130.783 22.672 130.676 23.248H134.628C134.596 22.7253 134.404 22.3093 134.052 22C133.7 21.6907 133.263 21.536 132.74 21.536Z" fill="#222739"/>
<path d="M117.84 105.684L110.791 100.966L111.887 98.8734C112.082 98.501 112.031 98.0475 111.758 97.7277C111.674 97.629 109.766 95.429 105.419 93.2025C106.974 89.8176 108.225 86.1159 109.16 82.1278C111.973 70.1264 110.959 59.8215 110.914 59.3888C110.864 58.9037 110.481 58.5202 109.996 58.4702C101.802 57.625 95.1244 54.8925 90.9652 52.7493C86.444 50.4194 83.8339 48.2605 83.8086 48.2395C83.4264 47.9202 82.8702 47.9202 82.4882 48.2395C82.3854 48.3255 72.0307 56.8477 56.3009 58.4704C55.8158 58.5205 55.4325 58.9038 55.3825 59.3889C55.3625 59.5832 54.8988 64.2222 55.4211 70.9082C55.4654 71.4749 55.9594 71.8992 56.5274 71.8543C57.0943 71.8101 57.5179 71.3146 57.4737 70.7479C57.0917 65.8573 57.2585 62.03 57.3656 60.4232C65.5169 59.4467 72.1511 56.7108 76.3343 54.5488C79.7436 52.7867 82.0788 51.1431 83.1483 50.3366C84.2176 51.1431 86.553 52.7867 89.9623 54.5488C94.1456 56.7108 100.78 59.4466 108.931 60.4232C109.108 63.0921 109.445 71.892 107.156 81.6583C106.164 85.8891 104.806 89.7789 103.1 93.2899C103.052 93.3882 103.003 93.4851 102.955 93.5826C102.85 93.7954 102.743 94.007 102.635 94.217C102.575 94.3354 102.514 94.4536 102.452 94.5711C102.338 94.7893 102.221 95.0055 102.104 95.2205C102.006 95.3999 101.907 95.5777 101.807 95.7548C101.718 95.9138 101.628 96.0723 101.537 96.2294C101.445 96.3873 101.353 96.5442 101.26 96.7003C101.193 96.8131 101.125 96.9245 101.057 97.0362C100.837 97.3969 100.614 97.7533 100.385 98.1042C100.368 98.1299 100.352 98.156 100.336 98.1816C100.217 98.3634 100.096 98.5429 99.9751 98.7219C99.9232 98.7987 99.871 98.8753 99.8186 98.9515C99.103 99.9947 98.349 100.992 97.5573 101.94C97.5528 101.946 97.5482 101.951 97.5437 101.957C97.3903 102.14 97.2353 102.321 97.0792 102.501C96.9562 102.642 96.832 102.782 96.7072 102.921C96.682 102.949 96.6572 102.977 96.6321 103.005C96.4911 103.162 96.3489 103.316 96.2056 103.47C96.1983 103.478 96.1911 103.486 96.1836 103.493C92.5499 107.379 88.1839 110.378 83.1485 112.441C78.2184 110.419 72.6992 106.96 68.0179 101.047C68.0029 101.028 67.9879 101.009 67.973 100.99C67.8786 100.87 67.7851 100.749 67.6916 100.627C65.9841 98.3932 64.4686 95.918 63.1671 93.2297C63.1368 93.167 63.1007 93.1088 63.0601 93.0552C60.7021 88.1486 58.8712 82.1614 57.9041 74.8516C57.8296 74.288 57.3107 73.8914 56.7486 73.9662C56.185 74.0407 55.7885 74.5582 55.8631 75.1217C56.7504 81.8281 58.4344 87.8894 60.8778 93.2025C56.5303 95.4292 54.6228 97.6293 54.5387 97.7279C54.2659 98.0476 54.2149 98.5011 54.4096 98.8735L55.5053 100.966L48.4568 105.684C48.1582 105.884 47.9853 106.225 48.001 106.584C48.0166 106.943 48.2183 107.268 48.5334 107.441L54.2924 110.609V116.97C54.2924 117.34 54.4905 117.681 54.8114 117.864C54.9697 117.955 55.1457 118 55.3218 118C55.5028 118 55.6839 117.952 55.8452 117.857L67.2835 111.104C67.2906 111.1 67.2969 111.095 67.3039 111.091C67.3156 111.083 67.327 111.076 67.3384 111.068C67.3588 111.054 67.3786 111.04 67.3978 111.025C67.4072 111.017 67.4166 111.01 67.4257 111.002C67.4499 110.982 67.4728 110.96 67.4948 110.938C67.4983 110.935 67.502 110.931 67.5055 110.928C67.5321 110.9 67.5568 110.871 67.5799 110.84C67.5806 110.839 67.5815 110.838 67.5824 110.837C67.5841 110.835 67.5855 110.832 67.5873 110.83C67.6109 110.798 67.6323 110.765 67.652 110.73C67.6561 110.723 67.6605 110.716 67.6645 110.709C67.6844 110.672 67.7024 110.634 67.7176 110.595C67.7202 110.589 67.7223 110.582 67.7247 110.575C67.7371 110.542 67.7477 110.508 67.7566 110.473C67.7589 110.464 67.7615 110.455 67.7636 110.446C67.7728 110.406 67.7798 110.365 67.7842 110.324C67.7847 110.318 67.7849 110.313 67.7853 110.307C67.7886 110.27 67.7897 110.233 67.7889 110.196C67.7887 110.187 67.7886 110.179 67.7883 110.17C67.7864 110.128 67.7824 110.086 67.7753 110.044C67.7747 110.041 67.7739 110.038 67.7733 110.035C67.7665 109.997 67.7569 109.959 67.7455 109.921C67.7424 109.911 67.7394 109.901 67.7363 109.892C67.7228 109.851 67.7077 109.811 67.6889 109.772L66.2787 106.83C67.1252 106.408 68.113 105.975 69.2498 105.568C73.0495 109.446 77.5686 112.439 82.7683 114.508C82.8906 114.556 83.0195 114.581 83.1487 114.581C83.2779 114.581 83.407 114.556 83.5292 114.508C88.7197 112.443 93.2457 109.447 97.0481 105.568C98.1848 105.975 99.1725 106.408 100.019 106.83L98.6086 109.772C98.5898 109.812 98.5747 109.852 98.5612 109.892C98.5579 109.902 98.5549 109.911 98.552 109.921C98.5406 109.959 98.531 109.997 98.5241 110.035C98.5236 110.038 98.5228 110.041 98.5224 110.044C98.5152 110.086 98.5112 110.128 98.5093 110.17C98.5089 110.179 98.5089 110.188 98.5088 110.196C98.5081 110.233 98.509 110.271 98.5123 110.308C98.5129 110.313 98.5129 110.319 98.5134 110.324C98.5177 110.365 98.5248 110.406 98.534 110.446C98.5361 110.456 98.5387 110.465 98.5412 110.474C98.55 110.508 98.5605 110.542 98.5729 110.575C98.5754 110.582 98.5774 110.589 98.58 110.596C98.5953 110.635 98.6131 110.672 98.633 110.709C98.637 110.716 98.6414 110.723 98.6457 110.731C98.6653 110.765 98.6866 110.798 98.71 110.83C98.712 110.832 98.7132 110.835 98.7151 110.837C98.716 110.838 98.7168 110.839 98.7176 110.84C98.7407 110.871 98.7654 110.9 98.792 110.928C98.7955 110.932 98.7992 110.935 98.8027 110.938C98.8246 110.96 98.8476 110.982 98.8718 111.002C98.8808 111.01 98.8903 111.017 98.8997 111.025C98.9189 111.04 98.9386 111.054 98.9591 111.068C98.9705 111.076 98.9819 111.084 98.9934 111.091C99.0004 111.095 99.0068 111.1 99.0139 111.104L110.452 117.857C110.613 117.952 110.794 118 110.975 118C111.151 118 111.328 117.955 111.486 117.864C111.807 117.681 112.005 117.34 112.005 116.971V110.609L117.764 107.441C118.079 107.268 118.281 106.943 118.296 106.584C118.311 106.225 118.138 105.884 117.84 105.684ZM56.3516 115.167V110C56.3514 109.624 56.147 109.279 55.818 109.098L51.009 106.453L56.4661 102.801L60.0867 109.717C60.1066 109.755 60.1289 109.791 60.153 109.826C60.1625 109.84 60.1736 109.852 60.1837 109.865C60.1996 109.886 60.2152 109.907 60.2327 109.926C60.25 109.945 60.2689 109.963 60.2875 109.981C60.2991 109.992 60.3101 110.004 60.3223 110.014C60.3451 110.034 60.3694 110.052 60.394 110.07C60.4029 110.076 60.4116 110.083 60.4206 110.089C60.4481 110.108 60.4768 110.125 60.506 110.141C60.5129 110.145 60.5196 110.149 60.5266 110.152C60.5579 110.168 60.5901 110.183 60.6232 110.195C60.6286 110.198 60.6341 110.2 60.6398 110.202C60.674 110.215 60.7088 110.226 60.7445 110.235C60.7495 110.236 60.7545 110.237 60.7596 110.238C60.782 110.244 60.8038 110.251 60.8268 110.254L63.8141 110.761L56.3516 115.167ZM63.3362 108.592C63.3602 108.574 63.3854 108.556 63.4103 108.539C63.4636 108.5 63.5167 108.462 63.5727 108.423C63.607 108.399 63.6437 108.374 63.6791 108.349C63.7365 108.31 63.7934 108.271 63.8534 108.23C63.8896 108.206 63.9282 108.181 63.9655 108.156C64.0285 108.114 64.0909 108.073 64.1568 108.03C64.1804 108.015 64.2059 107.999 64.23 107.984C64.3041 107.936 64.3789 107.889 64.4565 107.84C64.4624 107.837 64.4689 107.833 64.4748 107.829L64.9734 108.87L63.3362 108.592ZM64.4186 105.479C64.4157 105.48 64.4126 105.481 64.4097 105.483C64.4009 105.488 64.3925 105.492 64.3837 105.497L64.3835 105.497C64.38 105.499 64.3767 105.501 64.3732 105.503C64.3295 105.527 64.2868 105.551 64.244 105.576C64.1642 105.62 64.0861 105.665 64.0091 105.709C63.9632 105.736 63.9172 105.762 63.8723 105.789C63.8672 105.792 63.8623 105.795 63.8572 105.798C63.8502 105.802 63.8435 105.806 63.8365 105.81C63.7128 105.883 63.593 105.954 63.4761 106.026C63.4581 106.037 63.4394 106.048 63.4216 106.059C63.3506 106.103 63.2815 106.146 63.213 106.19C63.1983 106.199 63.184 106.208 63.1695 106.217C63.1677 106.218 63.166 106.219 63.1643 106.221C62.3726 106.724 61.7495 107.19 61.2871 107.572L57.9192 101.138L56.5811 98.5817C57.3306 97.8745 58.9941 96.4849 61.776 95.0555C61.8827 95.2643 61.9906 95.4718 62.0999 95.6782C62.1554 95.7829 62.2121 95.8864 62.2683 95.9907C62.4104 96.2543 62.5541 96.5162 62.7005 96.7756C62.733 96.8334 62.7639 96.8927 62.7966 96.9502C63.8963 98.8827 65.1091 100.685 66.4291 102.359C66.4595 102.397 66.49 102.436 66.5206 102.475C66.6279 102.61 66.7356 102.744 66.8444 102.877C66.9003 102.946 66.9566 103.014 67.0127 103.082C67.1084 103.197 67.2038 103.313 67.3004 103.428C67.4444 103.598 67.5895 103.768 67.7359 103.935C66.4516 104.436 65.352 104.964 64.4186 105.479ZM98.5615 103.935C98.5633 103.932 98.5656 103.93 98.5679 103.927C98.6568 103.826 98.7441 103.722 98.8317 103.62C98.8851 103.558 98.9389 103.496 98.9921 103.433C99.1262 103.275 99.2588 103.114 99.3909 102.954C99.3954 102.948 99.4 102.943 99.4044 102.937C100.049 102.15 100.669 101.334 101.263 100.488C101.342 100.376 101.418 100.26 101.496 100.147C101.59 100.009 101.685 99.8716 101.778 99.7326C101.882 99.5766 101.986 99.4197 102.088 99.2618C102.171 99.1346 102.253 99.0064 102.335 98.878C102.471 98.6642 102.606 98.4494 102.739 98.2323C102.829 98.0853 102.918 97.9375 103.007 97.7891C103.111 97.615 103.215 97.4404 103.317 97.2642C103.431 97.0664 103.545 96.8674 103.657 96.6671C103.719 96.5569 103.781 96.447 103.842 96.336C103.989 96.0686 104.133 95.7987 104.276 95.527C104.324 95.4346 104.372 95.3419 104.42 95.2491C104.454 95.1846 104.488 95.1206 104.521 95.0558C107.283 96.4772 108.959 97.8748 109.715 98.5842L105.01 107.572C104.547 107.19 103.924 106.724 103.132 106.22C103.13 106.219 103.129 106.218 103.127 106.217C103.113 106.208 103.098 106.199 103.084 106.19C103.015 106.146 102.946 106.103 102.876 106.06C102.853 106.046 102.83 106.032 102.807 106.018C102.694 105.949 102.579 105.88 102.46 105.81C102.453 105.806 102.447 105.802 102.44 105.798C102.435 105.795 102.43 105.792 102.424 105.789C102.38 105.762 102.333 105.736 102.288 105.709C102.211 105.665 102.132 105.62 102.053 105.576C102.01 105.552 101.967 105.527 101.924 105.503C101.92 105.501 101.917 105.499 101.913 105.497L101.913 105.497C101.904 105.492 101.896 105.488 101.887 105.483C101.884 105.481 101.881 105.48 101.878 105.478C100.945 104.964 99.8458 104.436 98.5615 103.935ZM101.619 108.254L101.823 107.829C101.829 107.833 101.835 107.837 101.841 107.841C101.918 107.889 101.993 107.936 102.066 107.983C102.091 107.999 102.117 108.015 102.141 108.03C102.207 108.073 102.269 108.115 102.333 108.157C102.369 108.181 102.408 108.206 102.444 108.23C102.504 108.271 102.561 108.31 102.618 108.35C102.654 108.374 102.69 108.399 102.725 108.423C102.78 108.462 102.832 108.499 102.884 108.537C102.91 108.555 102.936 108.574 102.961 108.593L101.324 108.87L101.619 108.254ZM110.479 109.098C110.15 109.279 109.945 109.624 109.945 110V115.167L102.483 110.761L105.47 110.254C105.481 110.252 105.491 110.249 105.502 110.247C105.528 110.241 105.553 110.235 105.578 110.228C105.596 110.223 105.613 110.218 105.631 110.212C105.655 110.204 105.678 110.194 105.701 110.184C105.719 110.177 105.736 110.17 105.752 110.162C105.775 110.15 105.797 110.138 105.818 110.125C105.834 110.116 105.85 110.107 105.865 110.097C105.887 110.083 105.907 110.067 105.928 110.051C105.942 110.04 105.956 110.031 105.969 110.019C105.99 110.001 106.01 109.981 106.03 109.961C106.04 109.95 106.052 109.94 106.062 109.929C106.085 109.903 106.106 109.876 106.127 109.847C106.132 109.84 106.138 109.834 106.143 109.827C106.168 109.792 106.19 109.755 106.21 109.717L109.831 102.8L115.288 106.452L110.479 109.098Z" fill="black"/>
<path d="M104.544 64.5803C104.494 64.0952 104.11 63.7119 103.625 63.6618C91.7494 62.4367 83.8858 55.9882 83.8085 55.9238C83.4268 55.6049 82.871 55.6049 82.4888 55.9233C82.4108 55.9884 74.5472 62.4368 62.6713 63.6618C62.1862 63.7119 61.8029 64.0952 61.7529 64.5803C61.7333 64.7712 61.2799 69.3255 61.9871 75.5439C62.6424 81.3045 64.4686 89.6117 69.4466 96.4732C69.6479 96.7507 69.9622 96.8981 70.2806 96.8981C70.4901 96.8981 70.7017 96.8343 70.8843 96.7018C71.3444 96.3679 71.4469 95.7241 71.1129 95.264C66.4081 88.779 64.669 80.8612 64.0383 75.3609C63.5213 70.8508 63.6442 67.1805 63.7394 65.6121C73.9317 64.3449 81.0159 59.6075 83.1481 58.0179C85.2805 59.6077 92.3639 64.3453 102.557 65.6121C102.628 66.7583 102.713 69.0279 102.55 71.9329C102.518 72.5006 102.952 72.9865 103.52 73.0184C104.089 73.0491 104.574 72.6163 104.605 72.0486C104.852 67.6565 104.556 64.704 104.544 64.5803Z" fill="black"/>
<path d="M103.328 75.1411C102.764 75.0697 102.249 75.4689 102.177 76.033C99.8858 94.1383 90.6514 101.647 83.1481 104.755C79.5222 103.255 76.3426 101.101 73.6926 98.3504C73.2984 97.9411 72.6465 97.9286 72.2371 98.3232C71.8277 98.7177 71.8155 99.3694 72.2099 99.7788C75.1571 102.838 78.7093 105.208 82.768 106.822C82.8903 106.871 83.0192 106.895 83.1484 106.895C83.2776 106.895 83.4067 106.871 83.5289 106.822C90.1656 104.182 95.3598 99.5855 98.9672 93.1601C101.638 88.4029 103.405 82.7276 104.22 76.2915C104.291 75.7276 103.891 75.2125 103.328 75.1411Z" fill="black"/>
<path d="M94.6594 72.6421C93.2535 71.2363 90.9664 71.2366 89.5605 72.6422L80.3916 81.8111L77.0819 78.5013C75.676 77.0955 73.3889 77.0956 71.983 78.5014C70.5773 79.9074 70.5773 82.1946 71.983 83.6004L77.8424 89.4597C78.5231 90.1407 79.4286 90.5155 80.3916 90.5155C81.3549 90.5155 82.2602 90.1404 82.9411 89.4596L94.6596 77.7412C96.0652 76.3354 96.0652 74.048 94.6594 72.6421ZM93.2039 76.2854L81.4855 88.0038C81.1934 88.2958 80.805 88.4567 80.3919 88.4567C79.9787 88.4567 79.5903 88.2958 79.2983 88.0038L73.4391 82.1446C72.836 81.5415 72.836 80.5603 73.4389 79.9572C73.7404 79.6557 74.1365 79.5049 74.5327 79.5049C74.9287 79.5049 75.3248 79.6558 75.6263 79.9572L79.6638 83.995C79.857 84.1882 80.1187 84.2965 80.3917 84.2965C80.6647 84.2965 80.9265 84.188 81.1197 83.995L91.0164 74.0982C91.6197 73.4949 92.6007 73.4947 93.2039 74.0979C93.8069 74.7012 93.8069 75.6824 93.2039 76.2854Z" fill="black"/>
<path d="M0 0H178V120H0V0Z" fill="white" fill-opacity="0.1"/>
</svg>
