<svg width="183" height="364" viewBox="0 0 183 364" fill="none" xmlns="http://www.w3.org/2000/svg">
<g opacity="0.3">
<path d="M29.5767 42.4155C91.9336 53.364 141.744 30.7087 161.574 16.1599C163.081 15.0544 165.134 15.0642 166.626 16.1886C211.228 49.7886 270.096 48.3139 298.11 42.6601C300.39 42.2 302.628 43.7426 302.987 46.0404C330.758 224.073 224.542 322.197 165.847 350.134C164.718 350.672 163.416 350.596 162.317 350C11.8934 268.495 7.64022 115.412 24.9757 45.2908C25.4801 43.2505 27.5067 42.052 29.5767 42.4155Z" fill="url(#paint0_radial_2060_69796)"/>
<path d="M13.581 28.6137C82.9115 40.9736 138.258 15.5165 160.026 -0.653809C161.532 -1.77238 163.598 -1.7633 165.091 -0.627713C214.623 37.0468 280.207 35.2226 311.028 28.8631C313.309 28.3925 315.549 29.9397 315.909 32.2404C346.87 230.331 229.162 339.413 164.311 370.333C163.177 370.874 161.871 370.797 160.768 370.197C-5.85105 279.599 -10.2964 109.166 8.9718 31.4819C9.47855 29.4389 11.5087 28.2442 13.581 28.6137Z" stroke="url(#paint1_radial_2060_69796)"/>
</g>
<defs>
<radialGradient id="paint0_radial_2060_69796" cx="0" cy="0" r="1" gradientUnits="userSpaceOnUse" gradientTransform="translate(28.7517 46.6065) rotate(64.4061) scale(332.674 285.973)">
<stop stop-color="#BADBFF" stop-opacity="0.3"/>
<stop offset="1" stop-color="#5CAAFF" stop-opacity="0.7"/>
</radialGradient>
<radialGradient id="paint1_radial_2060_69796" cx="0" cy="0" r="1" gradientUnits="userSpaceOnUse" gradientTransform="translate(13.0465 33.3326) rotate(64.5138) scale(368.937 316.184)">
<stop stop-color="#BADBFF" stop-opacity="0.3"/>
<stop offset="1" stop-color="#5CAAFF" stop-opacity="0.7"/>
</radialGradient>
</defs>
</svg>
