<svg width="276" height="223" viewBox="0 0 276 223" fill="none" xmlns="http://www.w3.org/2000/svg">
<g clip-path="url(#clip0_872_121549)">
<path d="M138.014 222.784V89.3899L98.0605 71.332V222.784H138.014Z" fill="#83C8FD"/>
<path d="M177.968 222.784V71.332L138.014 89.3899V222.784H177.968Z" fill="#045EC5"/>
<path d="M138.205 89.3917L98.0605 71.3339L139.155 54.168L177.968 71.3339L138.205 89.3917Z" fill="#2C9CF5"/>
<path d="M236.046 222.786V150.956L196.092 132.898V222.786H236.046Z" fill="#83C8FD"/>
<path d="M276.001 222.786V132.898L236.047 150.956V222.786H276.001Z" fill="#045EC5"/>
<path d="M236.236 150.954L196.092 132.896L237.194 115.723L276 132.896L236.236 150.954Z" fill="#2C9CF5"/>
<path d="M39.9539 222.786V118.343L0 100.285V222.786H39.9539Z" fill="#83C8FD"/>
<path d="M79.907 222.786V100.285L39.9531 118.343V222.786H79.907Z" fill="#045EC5"/>
<path d="M40.144 118.341L0 100.283L41.0944 83.1172L79.9078 100.283L40.144 118.341Z" fill="#2C9CF5"/>
<path d="M161.891 74.3794H158.404L150.859 42.2262L154.047 41.4805L161.891 74.3794Z" fill="#1A1745"/>
<path d="M118.377 74.3794H121.777L129.329 42.2262L126.141 41.4805L118.377 74.3794Z" fill="#1A1745"/>
<path d="M141.947 42.4531H138.672V73.4147H141.947V42.4531Z" fill="#1A1745"/>
<path d="M165.957 26.4201C165.957 31.4809 164.457 36.4281 161.645 40.636C158.833 44.844 154.837 48.1237 150.161 50.0604C145.486 51.9971 140.341 52.5038 135.377 51.5165C130.414 50.5291 125.854 48.0921 122.276 44.5136C118.697 40.935 116.26 36.3757 115.273 31.4121C114.286 26.4485 114.792 21.3036 116.729 16.628C118.666 11.9524 121.945 7.95605 126.153 5.1444C130.361 2.33274 135.308 0.832031 140.369 0.832031C147.156 0.832031 153.664 3.52791 158.463 8.3266C163.261 13.1253 165.957 19.6337 165.957 26.4201Z" fill="#EE5A63"/>
<path d="M161.892 26.4215C161.892 30.69 160.626 34.8626 158.255 38.4117C155.883 41.9608 152.513 44.7269 148.569 46.3604C144.626 47.9939 140.286 48.4213 136.1 47.5885C131.913 46.7558 128.068 44.7004 125.05 41.6821C122.031 38.6638 119.976 34.8184 119.143 30.6319C118.31 26.4455 118.738 22.1061 120.371 18.1626C122.005 14.219 124.771 10.8484 128.32 8.47701C131.869 6.10559 136.042 4.83984 140.31 4.83984C143.144 4.83984 145.951 5.39807 148.569 6.48265C151.188 7.56723 153.567 9.15693 155.571 11.161C157.575 13.165 159.165 15.5442 160.249 18.1626C161.334 20.781 161.892 23.5874 161.892 26.4215Z" fill="white"/>
<path d="M158.134 26.4216C158.134 29.9468 157.089 33.3929 155.13 36.324C153.172 39.2551 150.388 41.5397 147.131 42.8887C143.874 44.2378 140.29 44.5907 136.833 43.903C133.375 43.2152 130.2 41.5177 127.707 39.025C125.214 36.5322 123.517 33.3563 122.829 29.8988C122.141 26.4413 122.494 22.8575 123.843 19.6006C125.192 16.3438 127.477 13.56 130.408 11.6015C133.339 9.64301 136.785 8.59766 140.31 8.59766C145.037 8.59766 149.571 10.4755 152.914 13.8182C156.256 17.1608 158.134 21.6944 158.134 26.4216Z" fill="#EE5A63"/>
<path d="M153.997 26.4203C153.997 29.1271 153.194 31.7732 151.69 34.0238C150.187 36.2745 148.049 38.0286 145.548 39.0645C143.048 40.1003 140.296 40.3714 137.641 39.8433C134.986 39.3152 132.548 38.0118 130.634 36.0978C128.72 34.1837 127.416 31.7451 126.888 29.0903C126.36 26.4355 126.631 23.6837 127.667 21.1829C128.703 18.6822 130.457 16.5447 132.707 15.0409C134.958 13.537 137.604 12.7344 140.311 12.7344C143.941 12.7344 147.422 14.1763 149.988 16.7429C152.555 19.3095 153.997 22.7906 153.997 26.4203Z" fill="white"/>
<path d="M150.37 26.423C150.37 28.4127 149.78 30.3576 148.674 32.0119C147.569 33.6663 145.998 34.9556 144.159 35.717C142.321 36.4784 140.299 36.6777 138.347 36.2895C136.396 35.9013 134.603 34.9432 133.196 33.5364C131.79 32.1295 130.831 30.337 130.443 28.3856C130.055 26.4342 130.254 24.4115 131.016 22.5733C131.777 20.7352 133.067 19.164 134.721 18.0587C136.375 16.9533 138.32 16.3633 140.31 16.3633C142.978 16.3633 145.537 17.4231 147.423 19.3097C149.31 21.1963 150.37 23.755 150.37 26.423Z" fill="#EE5A63"/>
<path d="M177.222 0L177.339 4.48156L172.324 7.43516L172.148 2.99746L177.222 0Z" fill="#1A1745"/>
<path d="M181.645 7.49293L177.785 5.22656L172.77 8.18015L176.564 10.4904L181.645 7.49293Z" fill="#1A1745"/>
<path d="M178.1 5.40931L144.222 25.3826L143.469 24.1032L177.333 4.14453L177.523 4.91948L178.1 5.40931Z" fill="#83C8FD"/>
<path d="M143.593 18.832L148.887 27.8317L137.811 28.2557L143.593 18.832Z" fill="#1A1745"/>
<path d="M28.3946 65.1406H20.6816L21.1422 100.101H24.4906C24.2201 95.4954 25.3533 73.0144 25.3533 73.0144L28.3946 65.1406Z" fill="#0C0635"/>
<path d="M35.2235 66.7394C35.1202 66.4028 35.1051 66.0454 35.1797 65.7013L34.8945 64.9702L36.2324 64.4219L36.5102 65.153C36.5907 65.153 37.0366 65.6574 37.2413 65.8109C37.5398 66.0854 37.8206 66.3784 38.0821 66.6882C38.1186 66.7296 38.1387 66.7829 38.1387 66.8381C38.1387 66.8933 38.1186 66.9466 38.0821 66.988C37.9943 67.0684 37.8847 66.988 37.7823 66.9222L37.468 66.6151L37.2852 66.5932L38.0163 68.1797C38.0674 68.2966 38.0748 68.5306 37.8262 68.5013C37.5776 68.4721 37.0951 67.1488 37.0074 67.0392H36.9196L37.5411 68.6037C37.5922 68.7353 37.6142 68.8449 37.5411 68.8961H37.468C37.351 68.9473 37.2633 68.8523 37.2121 68.7207L36.5322 67.1781H36.4737C36.4737 67.2731 37.2048 68.7572 36.8758 68.8303C36.8497 68.8527 36.8183 68.8678 36.7846 68.8743C36.7509 68.8807 36.7161 68.8783 36.6837 68.8673C36.6512 68.8562 36.6222 68.8368 36.5994 68.8111C36.5767 68.7854 36.5611 68.7543 36.5541 68.7207L35.9546 67.2H35.8961C35.8961 67.2658 36.4591 68.5452 36.152 68.6622C36.0423 68.6622 35.9765 68.6622 35.8961 68.4355C35.8157 68.2089 35.4867 67.4193 35.4867 67.4047C35.4867 67.3901 35.2893 66.9368 35.2235 66.7394Z" fill="#D4D8EE"/>
<path d="M26.3198 41.1367H24.1484V43.5932H26.3198V41.1367Z" fill="#D4D8EE"/>
<path d="M22.3777 34.8516C21.8795 35.6587 21.6515 36.6037 21.7271 37.5493L21.866 39.8303C22.195 41.0073 24.6295 42.4841 25.1632 42.4841C25.6969 42.4841 27.8755 41.2851 28.0875 40.8684C28.4342 39.5264 28.6086 38.1457 28.6066 36.7597C28.6066 36.2479 28.6505 36.0286 27.8755 34.8516H22.3777Z" fill="#D4D8EE"/>
<path d="M27.5619 36.4136L28.8559 35.8214L26.9259 33.7305H23.3216L21.7132 35.3754C21.6373 36.7391 21.6373 38.1059 21.7132 39.4695C21.8448 40.4419 23.402 41.575 23.8407 41.9113H26.5896L26.436 39.835L27.2914 38.5118L27.5619 36.4136Z" fill="#1A1745"/>
<path d="M29.2207 65.1416L29.6301 45.3291L26.3183 43.4648H24.147L21.0326 45.1317L20.6816 65.1416H29.2207Z" fill="#83C8FD"/>
<path d="M29.1856 65.1406H22.8105L25.1573 71.8301L25.8811 80.2888L26.02 100.109H29.171L30.2311 80.2083L29.1856 65.1406Z" fill="#1A1745"/>
<path d="M23.739 100.109C23.739 100.109 25.6691 100.782 26.8754 101.367C26.9422 101.41 26.9931 101.474 27.0204 101.548C27.0477 101.623 27.05 101.704 27.0268 101.78C27.0037 101.856 26.9564 101.923 26.8922 101.97C26.8279 102.016 26.7501 102.041 26.6707 102.039H21.4727V100.109H23.739Z" fill="#0C0635"/>
<path d="M28.7683 100.109C28.7683 100.109 30.6984 100.782 31.8974 101.367C31.9636 101.41 32.0142 101.473 32.0417 101.547C32.0691 101.62 32.072 101.701 32.0498 101.777C32.0276 101.852 31.9815 101.919 31.9185 101.966C31.8555 102.014 31.7788 102.039 31.7 102.039H26.502V100.109H28.7683Z" fill="#0C0635"/>
<path d="M30.9753 46.6646L33.1174 56.8998L36.6558 64.8833L34.7989 65.6583L30.5951 57.0241C30.076 55.2549 29.8202 52.7692 29.5131 51.1169L28.3945 46.6646L29.6666 45.3633L30.9753 46.6646Z" fill="#83C8FD"/>
<path d="M16.4488 66.2148C16.5073 65.9077 16.807 65.3009 16.9167 65.2936L17.0044 64.5625L18.4666 64.7307L18.3715 65.4617C18.5001 65.7627 18.6052 66.0731 18.6859 66.3902C18.8142 66.7753 18.9168 67.1685 18.993 67.5673C19.0119 67.6196 19.0095 67.6774 18.9863 67.728C18.963 67.7786 18.9208 67.8181 18.8687 67.8378H18.8248C18.7078 67.8378 18.6274 67.7647 18.5909 67.6331C18.5543 67.5015 18.4593 67.209 18.4593 67.209L18.3642 67.0994L18.2034 68.8174C18.2034 68.9417 18.0791 69.1537 17.8744 69.0075C17.6697 68.8613 17.8744 67.4503 17.8744 67.3479L17.8159 67.2895L17.5454 68.9636C17.5454 69.1026 17.4942 69.2122 17.3699 69.1976H17.2968C17.1725 69.1976 17.1433 69.0587 17.1579 68.9125L17.3188 67.2602L17.2749 67.2163C17.231 67.2968 17.1214 68.9344 16.8216 68.854C16.7952 68.8487 16.7701 68.8383 16.7477 68.8234C16.7253 68.8084 16.7061 68.7892 16.6911 68.7667C16.6762 68.7443 16.6658 68.7192 16.6606 68.6928C16.6554 68.6663 16.6555 68.6391 16.6608 68.6127L16.8801 66.997H16.8216C16.7851 67.0555 16.6608 68.4592 16.3464 68.3861C16.2368 68.3861 16.2075 68.2691 16.2294 68.0644C16.2514 67.8597 16.3683 66.9751 16.3683 66.9605C16.3683 66.9458 16.4122 66.4268 16.4488 66.2148Z" fill="#D4D8EE"/>
<path d="M22.4888 46.6072L19.4036 56.572L18.614 65.2719L16.6035 65.0672L17.0129 55.2268C17.8311 51.9326 18.9017 48.7063 20.2151 45.5764L21.9331 44.6406L22.4888 46.6072Z" fill="#83C8FD"/>
<path d="M27.4006 38.8121C27.4418 38.9468 27.428 39.0924 27.3623 39.217C27.2965 39.3417 27.1841 39.4352 27.0497 39.4773C26.8011 39.5212 26.5598 39.2946 26.5087 38.9802C26.4693 38.8493 26.4823 38.7082 26.5451 38.5868C26.6079 38.4654 26.7154 38.3731 26.845 38.3295C27.1009 38.271 27.3421 38.4977 27.4006 38.8121Z" fill="#D4D8EE"/>
<path d="M29.2207 64.5469H20.6816V65.4096H29.2207V64.5469Z" fill="#0C0635"/>
<path d="M227.675 97.6364C227.609 97.3001 227.295 96.6568 227.178 96.6568L227.09 95.8672L225.57 96.0426L225.665 96.8249C225.533 97.146 225.423 97.4758 225.336 97.8119C225.199 98.2185 225.089 98.6337 225.007 99.0547C224.989 99.1101 224.993 99.1699 225.018 99.2226C225.042 99.2753 225.085 99.3171 225.138 99.3399H225.19C225.314 99.3399 225.394 99.2667 225.438 99.1278C225.482 98.9889 225.57 98.6746 225.57 98.6746L225.679 98.5576L225.848 100.378C225.848 100.51 225.979 100.736 226.198 100.583C226.418 100.429 226.198 98.9304 226.198 98.8281L226.264 98.755L226.498 100.524C226.498 100.67 226.549 100.787 226.681 100.773H226.761C226.893 100.773 226.922 100.627 226.908 100.473L226.739 98.6965L226.783 98.6526C226.827 98.7404 226.944 100.473 227.266 100.385C227.322 100.373 227.371 100.339 227.402 100.292C227.433 100.244 227.445 100.186 227.434 100.129L227.2 98.4187H227.259C227.31 98.4772 227.434 99.9466 227.77 99.8808C227.88 99.8808 227.916 99.7639 227.887 99.5446C227.858 99.3252 227.748 98.3894 227.741 98.3748C227.734 98.3602 227.712 97.8484 227.675 97.6364Z" fill="#D4D8EE"/>
<path d="M224.342 76.4575C224.547 76.9034 225.483 81.1145 226.535 85.6399L227.457 96.46L225.373 96.7013L224.445 86.9266L223.041 81.1511C222.002 79.3148 221.669 77.1621 222.105 75.0977C222.897 75.4709 223.646 75.9267 224.342 76.4575Z" fill="#83C8FD"/>
<path d="M209.463 97.7618C209.565 97.4474 209.602 96.7382 209.5 96.6797L209.807 95.9487L208.403 95.3711L208.11 96.1022C208.023 96.1022 207.555 96.6359 207.379 96.7967C207.068 97.0853 206.775 97.3929 206.502 97.7179C206.463 97.7609 206.441 97.817 206.441 97.8751C206.441 97.9332 206.463 97.9892 206.502 98.0323H206.539C206.634 98.12 206.751 98.0323 206.853 97.9665L207.189 97.6448L207.336 97.5936L206.604 99.2532C206.553 99.3774 206.546 99.626 206.809 99.5895C207.072 99.5529 207.606 98.1712 207.664 98.0834H207.752L207.109 99.7211C207.05 99.86 207.028 99.9843 207.109 100.028H207.182C207.306 100.079 207.394 99.9843 207.452 99.8454L208.184 98.2223H208.242C208.242 98.3174 207.511 99.8746 207.825 99.955C207.853 99.9639 207.882 99.9672 207.91 99.9646C207.939 99.9621 207.967 99.9537 207.992 99.94C208.017 99.9263 208.04 99.9076 208.057 99.8851C208.075 99.8625 208.088 99.8366 208.096 99.8088L208.717 98.2223H208.783C208.783 98.2881 208.198 99.626 208.52 99.7357C208.63 99.7357 208.703 99.6991 208.783 99.5017C208.863 99.3043 209.214 98.427 209.214 98.4124C209.214 98.3978 209.39 97.9665 209.463 97.7618Z" fill="#D4D8EE"/>
<path d="M214.325 76.4643L211.671 87.4306L207.965 95.7723L209.902 96.6057L214.289 87.5476C214.837 85.6979 215.268 83.161 215.59 81.443L216.599 76.6836L215.671 75.0898L214.325 76.4643Z" fill="#83C8FD"/>
<path d="M218.2 114.694L218.821 133.586H216.555L214.135 115.243C214.135 115.243 214.244 104.021 214.244 100.197C214.244 96.0444 214.595 92.3086 214.595 92.3086H221.987L219.377 102.354L218.2 114.694Z" fill="#D4D8EE"/>
<path d="M216.548 133.586C215.415 133.963 214.302 134.4 213.214 134.895C213.054 134.975 212.834 135.458 213.419 135.553H218.822V133.586H216.548Z" fill="#1A1745"/>
<path d="M221.402 133.586C220.268 133.963 219.156 134.4 218.068 134.895C217.907 134.975 217.688 135.458 218.273 135.553H223.712V133.586H221.402Z" fill="#1A1745"/>
<path d="M223.713 133.585H221.432L219.75 115.652C219.75 115.652 219.129 104.02 219.129 100.197C219.141 97.556 219.32 94.9189 219.663 92.3008H224.239V102.375L223.837 115.513L223.713 133.585Z" fill="#D4D8EE"/>
<path d="M214.113 92.1156C214.113 92.1156 216.343 84.4172 215.378 79.285C215.137 77.9983 215.692 75.1178 215.692 75.1178L217.886 74.3867H220.518L222.492 75.0593C222.492 75.0593 224.144 78.2249 223.698 79.5482C222.316 83.635 224.224 92.1375 224.224 92.1375L214.113 92.1156Z" fill="#83C8FD"/>
<path d="M220.503 71.7852H217.871V74.344H220.503V71.7852Z" fill="#D4D8EE"/>
<path d="M222.162 66.6913C222.366 67.1649 222.532 67.6538 222.659 68.1535L222.513 70.5295C222.177 71.7577 220.364 73.293 219.084 73.293C217.966 73.293 216.737 72.7739 216.467 71.5677C216.323 70.3545 216.252 69.1338 216.255 67.9122C216.228 67.4827 216.264 67.0515 216.364 66.6328L222.162 66.6913Z" fill="#D4D8EE"/>
<path d="M223.968 113.071H214.113C214.113 113.071 213.469 106.491 213.447 100.372C213.455 97.5931 213.678 94.8189 214.113 92.0742H224.209C224.946 94.4409 225.318 96.9062 225.313 99.3851C225.101 104.261 223.968 113.071 223.968 113.071Z" fill="#1A1745"/>
<path d="M216.117 67.9399C216.117 67.9399 215.927 68.8903 218.113 68.4444C219.224 68.2177 218.844 70.5206 218.844 72.7285C218.844 73.7374 220.898 73.328 221.161 73.2549C221.161 73.2549 222.945 72.1948 222.945 68.6344C222.945 67.048 222.47 64.8986 219.202 64.8986C218.789 64.8491 218.37 64.8933 217.976 65.028C217.582 65.1626 217.224 65.3843 216.927 65.6765C216.631 65.9687 216.404 66.3239 216.264 66.7157C216.123 67.1076 216.073 67.526 216.117 67.9399Z" fill="#1A1745"/>
<path d="M218.829 69.1447C218.829 69.1447 219.078 73.6336 217.988 76.6018C217.988 76.6018 223.566 77.7131 224.064 75.9511C224.064 75.9511 223.296 74.043 222.894 68.1797L218.829 69.1447Z" fill="#1A1745"/>
<path d="M219.238 70.2511C219.227 70.3908 219.162 70.5206 219.057 70.6133C218.952 70.706 218.815 70.7544 218.676 70.7483C218.545 70.6973 218.439 70.5989 218.378 70.4728C218.317 70.3468 218.306 70.2023 218.347 70.0684C218.344 69.9978 218.358 69.9276 218.387 69.8631C218.416 69.7986 218.459 69.7414 218.513 69.6959C218.567 69.6504 218.631 69.6178 218.699 69.6004C218.767 69.583 218.839 69.5813 218.908 69.5955C218.977 69.6096 219.042 69.6393 219.099 69.6822C219.155 69.7252 219.2 69.7802 219.232 69.8433C219.264 69.9064 219.281 69.9759 219.282 70.0465C219.283 70.1171 219.268 70.1871 219.238 70.2511Z" fill="#D4D8EE"/>
<path d="M254.126 95.277C254.06 94.9481 253.746 94.3047 253.629 94.2974L253.541 93.5078L252.021 93.6906L252.123 94.4728C251.983 94.7919 251.871 95.122 251.787 95.4598C251.652 95.8639 251.544 96.2767 251.465 96.6953C251.445 96.7508 251.447 96.8117 251.47 96.8659C251.493 96.9201 251.535 96.9636 251.589 96.9878H251.64C251.765 96.9878 251.845 96.9147 251.889 96.7685C251.933 96.6222 252.028 96.3225 252.028 96.3225L252.13 96.2055L252.298 98.0259C252.298 98.1575 252.437 98.3842 252.649 98.2233C252.861 98.0625 252.649 96.5784 252.649 96.4687L252.715 96.4029L252.949 98.1721C252.949 98.3184 253 98.4353 253.132 98.4207H253.212C253.344 98.4207 253.373 98.2745 253.358 98.1283L253.19 96.3517L253.234 96.3079C253.278 96.3883 253.395 98.121 253.717 98.0406C253.773 98.0283 253.821 97.9946 253.853 97.9468C253.884 97.899 253.896 97.8408 253.885 97.7847L253.658 96.0739H253.717C253.761 96.1324 253.885 97.6019 254.221 97.5361C254.338 97.5361 254.367 97.4191 254.338 97.2071C254.309 96.9951 254.199 96.052 254.192 96.0374C254.185 96.0228 254.17 95.4964 254.126 95.277Z" fill="#D4D8EE"/>
<path d="M250.764 74.1015C250.968 74.5402 251.904 78.7585 252.957 83.284L253.871 94.1041L251.787 94.3453L250.815 84.5707L249.426 78.7878C248.412 76.9418 248.108 74.789 248.57 72.7344C248.57 72.7344 250.661 73.7945 250.764 74.1015Z" fill="#1A1745"/>
<path d="M235.914 95.3985C236.024 95.0482 236.04 94.6746 235.958 94.3165L236.257 93.5854L234.854 93.0078L234.561 93.7389C234.481 93.7389 234.006 94.2726 233.83 94.4334C233.518 94.7181 233.224 95.0234 232.953 95.3473C232.915 95.391 232.895 95.4468 232.895 95.5045C232.895 95.5621 232.915 95.6179 232.953 95.6617L232.997 95.6982C233.084 95.7786 233.201 95.6982 233.304 95.6324L233.64 95.3107L233.794 95.2522L233.062 96.9191C233.011 97.0361 233.004 97.2847 233.267 97.2554C233.53 97.2262 234.064 95.8298 234.122 95.7421H234.21L233.567 97.387C233.508 97.5259 233.486 97.6429 233.603 97.6941H233.677C233.801 97.7453 233.889 97.6429 233.947 97.504L234.678 95.8883H234.744C234.744 95.9906 234.013 97.5479 234.32 97.621C234.347 97.6311 234.375 97.6356 234.404 97.634C234.433 97.6324 234.461 97.6248 234.486 97.6117C234.512 97.5986 234.534 97.5803 234.552 97.558C234.57 97.5356 234.583 97.5098 234.59 97.4821L235.212 95.8883H235.278C235.278 95.9614 234.693 97.292 235.014 97.4016C235.124 97.4016 235.197 97.4016 235.278 97.1677C235.358 96.9338 235.709 96.1003 235.709 96.0857C235.709 96.0711 235.841 95.6105 235.914 95.3985Z" fill="#D4D8EE"/>
<path d="M240.776 74.102L238.123 85.0683L234.416 93.4466L236.353 94.28L240.74 85.2218C241.288 83.3649 241.72 80.8353 242.041 79.1173L243.057 74.3579L242.122 72.7422L240.776 74.102Z" fill="#1A1745"/>
<path d="M244.651 112.339L245.28 131.23H243.013L240.586 112.887C240.586 112.887 240.696 101.665 240.696 97.8342C240.696 93.689 241.054 89.9531 241.054 89.9531H248.445L245.828 100.013L244.651 112.339Z" fill="#D4D8EE"/>
<path d="M242.999 131.23C242.999 131.23 240.923 131.925 239.666 132.532C239.505 132.612 239.285 133.102 239.87 133.197H245.28V131.23H242.999Z" fill="#1A1745"/>
<path d="M247.839 131.23C247.839 131.23 245.763 131.925 244.505 132.532C244.345 132.612 244.125 133.102 244.71 133.197H250.113V131.23H247.839Z" fill="#1A1745"/>
<path d="M250.142 131.228H247.839L246.172 113.317C246.172 113.317 245.551 101.692 245.551 97.8615C245.561 95.2064 245.74 92.5545 246.084 89.9219H250.661V99.9889L250.259 113.097L250.142 131.228Z" fill="#D4D8EE"/>
<path d="M240.564 89.7255C240.564 89.7255 242.794 82.0344 241.837 76.9022C241.588 75.6082 242.144 72.735 242.144 72.735L244.337 72.0039H246.969L248.943 72.6838C248.943 72.6838 250.595 75.8494 250.149 77.1654C248.775 81.2522 250.675 89.7547 250.675 89.7547L240.564 89.7255Z" fill="#1A1745"/>
<path d="M246.954 69.4258H244.322V71.9846H246.954V69.4258Z" fill="#D4D8EE"/>
<path d="M248.613 64.3353C248.817 64.8089 248.983 65.2978 249.11 65.7975L248.964 68.1735C248.628 69.3944 246.815 70.937 245.535 70.937C244.424 70.937 243.188 70.4107 242.918 69.2044C242.775 67.9912 242.707 66.7704 242.713 65.5489C242.68 65.1197 242.715 64.6881 242.816 64.2695L248.613 64.3353Z" fill="#D4D8EE"/>
<path d="M250.763 105.853H240.323C240.323 105.853 240.147 103.865 240.133 97.8115C240.13 95.1252 240.272 92.4407 240.557 89.7695H250.653C251.394 92.1505 251.766 94.6308 251.757 97.1243C251.623 100.053 251.291 102.969 250.763 105.853Z" fill="#83C8FD"/>
<path d="M245.697 67.8955C245.699 67.9661 245.686 68.0363 245.657 68.1008C245.628 68.1653 245.585 68.2224 245.531 68.2679C245.477 68.3134 245.413 68.3461 245.345 68.3635C245.276 68.3809 245.205 68.3826 245.136 68.3684C245.066 68.3542 245.001 68.3245 244.945 68.2816C244.889 68.2387 244.844 68.1836 244.812 68.1205C244.78 68.0574 244.763 67.988 244.762 67.9173C244.761 67.8467 244.776 67.7767 244.805 67.7127C244.799 67.6389 244.81 67.5646 244.837 67.4958C244.864 67.4269 244.907 67.3653 244.962 67.316C245.017 67.2667 245.083 67.231 245.155 67.2117C245.227 67.1924 245.302 67.1901 245.374 67.205C245.447 67.2199 245.515 67.2515 245.573 67.2973C245.631 67.3432 245.678 67.402 245.709 67.4691C245.74 67.5361 245.756 67.6096 245.754 67.6837C245.752 67.7577 245.732 67.8302 245.697 67.8955Z" fill="#D4D8EE"/>
<path d="M244.321 71.0845C244.482 69.4415 244.423 67.7844 244.146 66.157C243.963 65.2431 242.684 65.3747 242.684 65.0749C242.684 62.8817 244.204 62.2383 246.134 62.2456C246.955 62.1939 247.77 62.4165 248.45 62.8784C249.13 63.3403 249.637 64.0153 249.892 64.7971C251.267 68.0066 250.192 69.3079 251.442 70.7774C251.996 71.3627 252.322 72.1276 252.359 72.9327C252.397 73.7378 252.144 74.5296 251.647 75.1639C250.733 76.5896 250.696 77.1159 251.135 78.2491C251.574 79.3823 251.727 82.4967 249.132 81.2758C246.536 80.0549 245.696 75.5149 245.696 75.5149C245.696 75.5149 244.226 74.4475 244.321 71.0845Z" fill="#83C8FD"/>
<path d="M56.293 65.8789H48.5801L49.0407 100.839H52.389C52.1185 96.2336 53.2517 73.7893 53.2517 73.7893L56.293 65.8789Z" fill="#0C0635"/>
<path d="M63.122 67.4802C63.0149 67.1443 62.9997 66.7858 63.0781 66.4421L62.793 65.7475L64.1309 65.1992L64.4087 65.8937C64.4891 65.8937 64.9351 66.3982 65.1398 66.5517C65.4382 66.8262 65.719 67.1192 65.9805 67.429C66.0185 67.4697 66.0397 67.5232 66.0397 67.5789C66.0397 67.6346 66.0185 67.6881 65.9805 67.7288C65.8928 67.8092 65.7831 67.7288 65.6808 67.663L65.3664 67.3559L65.2202 67.3047L65.9147 68.8912C65.9659 69.0082 65.9732 69.2494 65.7246 69.2129C65.4761 69.1763 64.9935 67.8604 64.9058 67.7507H64.8181L65.4395 69.3152C65.4907 69.4468 65.5126 69.5565 65.3956 69.6077H65.3298C65.2129 69.6515 65.1251 69.5565 65.074 69.4249L64.3941 67.8823H64.3356C64.3356 67.9773 65.0667 69.4615 64.7377 69.5346C64.7123 69.5448 64.6851 69.5494 64.6578 69.5482C64.6306 69.5469 64.6039 69.5398 64.5796 69.5273C64.5553 69.5148 64.534 69.4973 64.5171 69.4758C64.5003 69.4543 64.4882 69.4295 64.4818 69.403L63.8823 67.8896H63.8238C63.8238 67.9627 64.3794 69.2348 64.0797 69.3518C63.97 69.3518 63.9042 69.3518 63.8238 69.1252C63.7434 68.8985 63.4144 68.1089 63.4144 68.0943C63.4144 68.0797 63.1878 67.6776 63.122 67.4802Z" fill="#D4D8EE"/>
<path d="M54.1597 42.25H52.0176V44.6699H54.1597V42.25Z" fill="#D4D8EE"/>
<path d="M50.241 36.298C49.7711 36.9303 49.5313 37.704 49.5611 38.4912L49.7146 40.743C50.0363 41.9054 52.4416 43.2506 52.9606 43.2506C53.6928 43.2424 54.4076 43.0269 55.0223 42.6292C55.4171 42.1613 56.3456 41.613 56.3456 38.2426C56.3768 37.8463 56.3211 37.4478 56.1822 37.0753C56.0432 36.7027 55.8245 36.3651 55.5414 36.0859L50.241 36.298Z" fill="#D4D8EE"/>
<path d="M55.3065 37.1914L49.509 37.4107C49.4371 38.4135 49.4371 39.4201 49.509 40.4228C49.7675 41.4161 50.3916 42.2752 51.2563 42.8281C51.7682 43.1595 52.3645 43.3371 52.9744 43.3398C53.4914 43.3779 54.0062 43.2414 54.4365 42.9524V40.145C54.7133 39.9817 54.9488 39.7571 55.125 39.4883C55.3012 39.2196 55.4133 38.914 55.4527 38.5951C55.5482 38.1232 55.4972 37.6335 55.3065 37.1914Z" fill="#1A1745"/>
<path d="M57.1192 65.8799L57.5286 46.0747L54.2168 44.2031H52.0454L48.931 45.87L48.5801 65.8799H57.1192Z" fill="#1A1745"/>
<path d="M57.0841 65.8789H50.709L53.0558 72.5684L53.7795 81.027L53.9185 100.847H57.0694L58.1295 80.9466L57.0841 65.8789Z" fill="#1A1745"/>
<path d="M51.6375 100.848C51.6375 100.848 53.5675 101.52 54.7665 102.112C54.8347 102.153 54.8874 102.216 54.9162 102.29C54.9451 102.364 54.9485 102.445 54.9258 102.522C54.9032 102.598 54.8559 102.664 54.7913 102.711C54.7267 102.757 54.6486 102.781 54.5691 102.778H49.3711V100.848H51.6375Z" fill="#0C0635"/>
<path d="M56.6668 100.848C56.6668 100.848 58.5968 101.52 59.7958 102.112C59.864 102.153 59.9167 102.216 59.9455 102.29C59.9744 102.364 59.9778 102.445 59.9551 102.522C59.9325 102.598 59.8852 102.664 59.8206 102.711C59.756 102.757 59.6779 102.781 59.5984 102.778H54.4004V100.848H56.6668Z" fill="#0C0635"/>
<path d="M58.8737 47.4029L61.0158 57.6381L64.5543 65.5997L62.6973 66.3965L58.4862 57.7551C57.9672 55.9859 57.704 53.5002 57.4042 51.8479L56.293 47.4029L57.5651 46.1016L58.8737 47.4029Z" fill="#1A1745"/>
<path d="M44.3473 66.953C44.4058 66.646 44.7055 66.0392 44.8152 66.0319L44.9029 65.3008L46.3651 65.4689L46.27 66.2C46.3996 66.5031 46.5047 66.816 46.5844 67.1358C46.7133 67.5183 46.8159 67.9091 46.8914 68.3055C46.9104 68.3579 46.908 68.4157 46.8848 68.4663C46.8615 68.5169 46.8193 68.5563 46.7672 68.5761H46.7233C46.6063 68.5761 46.5259 68.5029 46.4894 68.3713C46.4528 68.2397 46.3578 67.9473 46.3578 67.9473L46.2627 67.8377L46.058 69.563C46.058 69.6873 45.9264 69.8993 45.729 69.7531C45.5316 69.6069 45.729 68.1959 45.729 68.0935L45.6705 68.035L45.4512 69.7019C45.4512 69.8408 45.4 69.9505 45.2757 69.9359H45.2026C45.0784 69.9359 45.0491 69.797 45.0637 69.6507L45.2173 67.9912L45.1734 67.9473C45.1295 68.0277 45.0199 69.6654 44.7201 69.585C44.6937 69.5797 44.6686 69.5693 44.6462 69.5543C44.6238 69.5394 44.6046 69.5201 44.5896 69.4977C44.5747 69.4753 44.5643 69.4502 44.5591 69.4237C44.5539 69.3973 44.554 69.3701 44.5593 69.3437L44.7786 67.728H44.7201C44.6763 67.7865 44.5593 69.1902 44.2376 69.1171C44.1353 69.1171 44.106 69.0074 44.1279 68.7954C44.1499 68.5834 44.2668 67.7061 44.2742 67.6914C44.2815 67.6768 44.3107 67.1651 44.3473 66.953Z" fill="#D4D8EE"/>
<path d="M50.3872 47.345L47.302 57.3097L46.5124 66.0097L44.502 65.7977L44.9114 55.9645C45.7287 52.6677 46.7993 49.4389 48.1135 46.3069L49.8535 45.3711L50.3872 47.345Z" fill="#1A1745"/>
<path d="M55.1539 39.7418C55.1908 39.8727 55.1756 40.0128 55.1116 40.1327C55.0475 40.2526 54.9395 40.3431 54.8103 40.3852C54.569 40.4291 54.3351 40.2097 54.2766 39.8954C54.2471 39.8313 54.2327 39.7614 54.2345 39.6909C54.2363 39.6204 54.2543 39.5513 54.2871 39.4888C54.3198 39.4264 54.3665 39.3723 54.4234 39.3307C54.4804 39.2892 54.5461 39.2612 54.6156 39.2491C54.685 39.2369 54.7563 39.2409 54.824 39.2606C54.8917 39.2804 54.9539 39.3154 55.006 39.363C55.058 39.4106 55.0983 39.4696 55.124 39.5352C55.1496 39.6009 55.1599 39.6716 55.1539 39.7418Z" fill="#D4D8EE"/>
<path d="M57.1192 65.2852H48.5801V66.1478H57.1192V65.2852Z" fill="#0C0635"/>
<path d="M49.502 37.6589C49.502 37.6589 50.9641 38.39 53.7276 37.8636C55.1898 37.5785 55.358 36.9498 56.652 37.0667C56.2863 36.4305 55.7506 35.9087 55.1049 35.5601C54.4592 35.2114 53.7291 35.0496 52.9965 35.0928C51.2712 35.0928 49.5458 35.9189 49.502 37.6589Z" fill="#1A1745"/>
</g>
<defs>
<clipPath id="clip0_872_121549">
<rect width="276" height="222.784" fill="white"/>
</clipPath>
</defs>
</svg>
