<svg width="18" height="13" viewBox="0 0 18 13" fill="none" xmlns="http://www.w3.org/2000/svg">
<path fill-rule="evenodd" clip-rule="evenodd" d="M8.84339 2.90023C11.3885 2.90034 13.8363 3.87189 15.6808 5.61408C15.8197 5.74858 16.0417 5.74688 16.1785 5.61027L17.5062 4.27902C17.5755 4.20973 17.6141 4.11588 17.6136 4.01823C17.613 3.92057 17.5733 3.82717 17.5032 3.75869C12.6619 -0.850717 5.02415 -0.850717 0.182841 3.75869C0.112711 3.82712 0.0729203 3.92049 0.0722736 4.01815C0.071627 4.1158 0.110178 4.20968 0.179395 4.27902L1.50752 5.61027C1.64423 5.74709 1.86641 5.74879 2.00523 5.61408C3.85 3.87178 6.29805 2.90022 8.84339 2.90023ZM8.84391 7.2313C10.2423 7.23121 11.5907 7.74759 12.6273 8.68008C12.7675 8.81242 12.9883 8.80955 13.125 8.67361L14.4512 7.34236C14.5211 7.27254 14.5598 7.17781 14.5588 7.07937C14.5578 6.98094 14.5171 6.88701 14.4458 6.81861C11.2894 3.9016 6.40114 3.9016 3.24465 6.81861C3.17335 6.88701 3.13267 6.98099 3.13173 7.07945C3.1308 7.17792 3.16969 7.27264 3.23967 7.34236L4.5655 8.67361C4.70217 8.80955 4.92302 8.81242 5.06321 8.68008C6.09907 7.7482 7.44647 7.23187 8.84391 7.2313ZM11.5001 10.1452C11.5021 10.2439 11.463 10.3391 11.3921 10.4082L9.09804 12.7082C9.03079 12.7758 8.9391 12.8139 8.84344 12.8139C8.74777 12.8139 8.65609 12.7758 8.58884 12.7082L6.29438 10.4082C6.2235 10.339 6.18451 10.2438 6.18661 10.1451C6.18871 10.0464 6.23172 9.95292 6.30548 9.88676C7.77057 8.65567 9.91631 8.65567 11.3814 9.88676C11.4551 9.95298 11.498 10.0465 11.5001 10.1452Z" fill="white"/>
</svg>
