<?xml version="1.0" encoding="utf-8"?>
<!-- Generator: Adobe Illustrator 26.3.1, SVG Export Plug-In . SVG Version: 6.00 Build 0)  -->
<svg version="1.1" id="Layer_1" xmlns="http://www.w3.org/2000/svg" xmlns:xlink="http://www.w3.org/1999/xlink" x="0px" y="0px"
	 viewBox="0 0 132.5 23" style="enable-background:new 0 0 132.5 23;" xml:space="preserve">
<style type="text/css">
	.st0{clip-path:url(#SVGID_00000105396866236667698080000006117951549970320524_);}
	.st1{clip-path:url(#SVGID_00000089569875651607987240000011103262734976934551_);}
	.st2{fill:#FFFFFF;}
	.st3{clip-path:url(#SVGID_00000164471941456594837670000004940456965935027883_);}
</style>
<g transform="translate(-130.83 -90.133)">
	<g transform="matrix(0 .35278 .35278 0 14.497 -95.562)">
		<g>
			<defs>
				<polyline id="SVGID_1_" points="526.4,329.8 591.7,329.8 591.7,705.5 526.4,705.5 				"/>
			</defs>
			<clipPath id="SVGID_00000015351308474600682280000013969076894479294356_">
				<use xlink:href="#SVGID_1_"  style="overflow:visible;"/>
			</clipPath>
			<g style="clip-path:url(#SVGID_00000015351308474600682280000013969076894479294356_);">
				<g>
					<defs>
						<rect id="SVGID_00000139283274332666330040000017109636208499838619_" x="-494.3" y="211.6" width="792" height="612"/>
					</defs>
					<clipPath id="SVGID_00000136393158822779198470000005129637407202868866_">
						<use xlink:href="#SVGID_00000139283274332666330040000017109636208499838619_"  style="overflow:visible;"/>
					</clipPath>
					<g style="clip-path:url(#SVGID_00000136393158822779198470000005129637407202868866_);">
						<g transform="translate(526.8,329.76)">
							<path class="st2" d="M63.4,0H0.8v3.4h62.6V0z"/>
						</g>
					</g>
				</g>
			</g>
		</g>
	</g>
	<g transform="matrix(0 .35278 .35278 0 132.46 90.281)">
		<path class="st2" d="M63.4,8.5H0.8v4.4h62.6V8.5z"/>
	</g>
	<g transform="matrix(0 .35278 .35278 0 133.9 90.281)">
		<path class="st2" d="M63.4,16H0.8v6h62.6V16z"/>
	</g>
	<g transform="matrix(0 .35278 .35278 0 135.32 90.281)">
		<path class="st2" d="M63.4,23.4H0.8v8.5h62.6V23.4z"/>
	</g>
	<g transform="matrix(0 .35278 .35278 0 136.84 90.281)">
		<path class="st2" d="M63.4,31.3H0.8v12.4h62.6V31.3z"/>
	</g>
	<g transform="matrix(0 .35278 .35278 0 145.75 95.805)">
		<path class="st2" d="M29.5,77.6c-12.8-0.2-15.6-9.9-15.6-9.9c-1.9,7.5-12.2,7-12.2,7c-14.8,0-16.5-10.2-16.5-19.6V22h62.6v19.4
			l-0.2,11.9c0,9.7-3.4,15.6-3.4,15.6C39.7,77.4,29.5,77.6,29.5,77.6z M33.2,55.1V41.4H-0.3v11.2c0,5.4,4.9,5.1,4.9,5.1
			c4.1,0,4.8-4.8,4.8-4.8v-9.4h11.7v10.2c0,4.8,2.4,6.6,6.8,6.6C33.1,60.4,33.2,55.1,33.2,55.1"/>
	</g>
	<g transform="matrix(0 .35278 .35278 0 152.86 96.652)">
		<path class="st2" d="M33.9,114.6c-10.5,0.3-13.3-2.7-13.3-2.7c-2.4-1.7-4.8-6-4.8-6c-1.2,2.7-2.6,4.1-2.6,4.1
			c-4.4,5.6-12.8,5.3-12.8,5.3c-9.5,0-13.3-6.5-13.3-6.5c-4.6-5.1-4.6-16.5-4.6-16.5V60h62.6v19H-2.5v13.3c1,5.3,6.1,4.8,6.1,4.8
			c3.7,0.2,5.4-2.7,6.3-4.8V81.9h12.9v8.8c1.7,6.3,11.9,5.6,11.9,5.6c6.1,0.3,10.5,2.6,10.5,2.6v18.5
			C42.9,115.1,33.9,114.6,33.9,114.6"/>
	</g>
	<g transform="matrix(0 .35278 .35278 0 153.41 90.281)">
		<path class="st2" d="M63.4,117.4H0.8v18.4h62.6V117.4z"/>
	</g>
	<g transform="matrix(0 .35278 .35278 0 160.89 90.281)">
		<path class="st2" d="M0.8,156.3h31.6L0.8,138.1v-18h62.6v18H32.1l31.3,18.2v19.6H0.8V156.3"/>
	</g>
	<g transform="matrix(0 .35278 .35278 0 163.95 90.281)">
		<path class="st2" d="M63.4,172.2H0.8v19.4h62.6V172.2z"/>
	</g>
	<g transform="matrix(0 .35278 .35278 0 168.76 90.281)">
		<path class="st2" d="M0.8,197.3l30.4-20.4l32.1,20.4v24.2L30,199L0.8,219.7V197.3"/>
	</g>
	<g transform="matrix(0 .35278 .35278 0 14.497 -95.562)">
		<g>
			<defs>
				<polyline id="SVGID_00000155140550631981237140000015514699481947325079_" points="526.4,329.8 591.7,329.8 591.7,705.5 
					526.4,705.5 				"/>
			</defs>
			<clipPath id="SVGID_00000080912363386061880520000015395926691240150948_">
				<use xlink:href="#SVGID_00000155140550631981237140000015514699481947325079_"  style="overflow:visible;"/>
			</clipPath>
			<g style="clip-path:url(#SVGID_00000080912363386061880520000015395926691240150948_);">
				<g transform="translate(545.34,444.3)">
					<path class="st2" d="M34.8,210.1c0,0,7.8,4.1,10.2,14.1c0,0,2.7,10.7-0.3,21.3c0,0-2.6,10.7-12.1,14.1c0,0-9.9,3.9-17.5-1.7
						c0,0-5.3-3.7-8.2-13.8c0,0-1.9-7-2.9-11.1c0,0-1-5.3-3.6-6.6c-0.7-0.3-1.2-0.7-2-0.5c0,0-3.7,0.3-3.9,4.8c0,0-0.7,5.4,1,8.2
						c0,0,1.5,3.6,5.8,3.2V259c-1.7,0.2-9.9,0.3-15.5-7.7c0,0-4.6-5.3-4.8-17.7c0,0-0.2-12.8,7.8-20.2c0,0,7.8-7.7,18.9-2.7
						c0,0,7.7,2.9,10.9,16.2c0,0,2.7,11.7,4.9,15c0,0,0.5,0.7,1.4,1.4c0.7,0.7,1.9,1.4,3.4,0.9c0,0,2.9-0.7,3.9-4.6
						c0,0,2.2-7.7-1.7-12.6c0,0-2-2.6-7.5-2.7v-16.8C24.4,207.2,30.9,207.4,34.8,210.1"/>
				</g>
			</g>
		</g>
	</g>
</g>
</svg>
