<svg width="42" height="38" viewBox="0 0 42 38" fill="none" xmlns="http://www.w3.org/2000/svg">
<path d="M9.30773 24.2026L10.3277 32.0969L0.427734 27.3826L2.75059 20.9883L9.30773 24.2026Z" fill="#FFCC00"/>
<path opacity="0.4" d="M5.57154 29.8249L3.5144 28.8477L1.54297 24.3134L2.28011 22.2734L5.57154 29.8249Z" fill="white"/>
<path opacity="0.4" d="M9.60773 31.7539L7.54202 30.7682L3.42773 21.3225L5.50202 22.3339L9.60773 31.7539Z" fill="white"/>
<path d="M31.1572 21.897L10.3286 32.1055L9.30859 24.2027L28.4229 15.1855L31.1572 21.897Z" fill="#FFBC00"/>
<path d="M28.4214 15.1853L9.30714 24.2025L2.75 20.9882L20.9814 12.4082L28.4214 15.1853Z" fill="#FDED04"/>
<path opacity="0.4" d="M25.132 13.9509L17.332 20.4137L22.4149 12.9395L25.132 13.9509Z" fill="white"/>
<path opacity="0.4" d="M18.9694 13.3418L12.6694 22.6075L9.45508 24.1247L15.7636 14.8504L18.9694 13.3418Z" fill="white"/>
<path opacity="0.4" d="M10.5514 17.3105L6.72852 22.9334L8.2628 18.382L10.5514 17.3105Z" fill="white"/>
<path d="M19.7218 29.1401L20.7418 37.0429L10.8418 32.3201L13.1647 25.9258L19.7218 29.1401Z" fill="#FFCC00"/>
<path opacity="0.4" d="M15.9856 34.7624L13.9285 33.7852L11.957 29.2509L12.6942 27.2109L15.9856 34.7624Z" fill="white"/>
<path opacity="0.4" d="M20.0218 36.6914L17.9561 35.7143L13.8418 26.26L15.9161 27.28L20.0218 36.6914Z" fill="white"/>
<path d="M41.5712 26.843L20.7427 37.043L19.7227 29.1402L38.8369 20.123L41.5712 26.843Z" fill="#FFBC00"/>
<path d="M38.8355 20.1228L19.7212 29.14L13.1641 25.9257L31.3955 17.3457L38.8355 20.1228Z" fill="#FDED04"/>
<path opacity="0.4" d="M35.5461 18.897L27.7461 25.3512L32.829 17.877L35.5461 18.897Z" fill="white"/>
<path opacity="0.4" d="M29.3834 18.2891L23.0834 27.5462L19.8691 29.0633L26.1777 19.7976L29.3834 18.2891Z" fill="white"/>
<path opacity="0.4" d="M20.9654 22.2578L17.1426 27.8721L18.6769 23.3292L20.9654 22.2578Z" fill="white"/>
<path d="M16.6613 18.6401L17.6812 26.5429L7.78125 21.8201L10.1041 15.4258L16.6613 18.6401Z" fill="#FFCC00"/>
<path opacity="0.4" d="M12.9251 24.2624L10.8765 23.2852L8.89648 18.7509L9.6422 16.7109L12.9251 24.2624Z" fill="white"/>
<path opacity="0.4" d="M16.9613 26.1914L14.8955 25.2143L10.7812 15.76L12.8641 16.7714L16.9613 26.1914Z" fill="white"/>
<path d="M38.5107 16.343L17.6907 26.543L16.6621 18.6402L35.7764 9.62305L38.5107 16.343Z" fill="#FFBC00"/>
<path d="M35.7761 9.62285L16.6619 18.64L10.1133 15.4257L28.3361 6.8457L35.7761 9.62285Z" fill="#FDED04"/>
<path opacity="0.4" d="M32.4836 8.39695L24.6836 14.8512L29.775 7.37695L32.4836 8.39695Z" fill="white"/>
<path opacity="0.4" d="M26.3229 7.78906L20.0229 17.0462L16.8086 18.5633L23.1172 9.29763L26.3229 7.78906Z" fill="white"/>
<path opacity="0.4" d="M17.9049 11.7578L14.082 17.3721L15.6163 12.8292L17.9049 11.7578Z" fill="white"/>
<path d="M10.4915 20.0887C9.33431 20.7573 8.94002 22.223 9.60002 23.3801C8.93145 22.223 7.46574 21.8287 6.30859 22.4887C7.46574 21.8201 7.86002 20.3544 7.20002 19.1973C7.86859 20.363 9.33431 20.7573 10.4915 20.0887Z" fill="white"/>
<path d="M10.467 23.337C9.61844 23.8255 9.32701 24.9055 9.81558 25.7541C9.32701 24.9055 8.24701 24.6141 7.39844 25.1027C8.24701 24.6141 8.53844 23.5341 8.04987 22.6855C8.52987 23.5341 9.61844 23.8255 10.467 23.337Z" fill="white"/>
<path d="M11.7768 19.9434C11.8025 20.9205 12.6254 21.6919 13.6025 21.6576C12.6254 21.6834 11.8539 22.5062 11.8882 23.4834C11.8625 22.5062 11.0396 21.7348 10.0625 21.7691C11.0396 21.7434 11.8025 20.9291 11.7768 19.9434Z" fill="white"/>
<path d="M31.6965 10.3504C30.5394 11.019 30.1451 12.4847 30.8051 13.6418C30.1365 12.4847 28.6708 12.0904 27.5137 12.7504C28.6708 12.0818 29.0651 10.6161 28.4051 9.45898C29.0651 10.6247 30.5394 11.019 31.6965 10.3504Z" fill="white"/>
<path d="M31.6623 13.5987C30.8137 14.0873 30.5223 15.1673 31.0109 16.0158C30.5223 15.1673 29.4423 14.8758 28.5938 15.3644C29.4423 14.8758 29.7337 13.7958 29.2452 12.9473C29.7337 13.7958 30.8137 14.0873 31.6623 13.5987Z" fill="white"/>
<path d="M32.9741 10.2051C32.9998 11.1822 33.8226 11.9536 34.7998 11.9194C33.8226 11.9451 33.0512 12.7679 33.0855 13.7451C33.0598 12.7679 32.2369 11.9965 31.2598 12.0308C32.2369 12.0051 33.0083 11.1822 32.9741 10.2051Z" fill="white"/>
<path d="M33.34 4.26562C33.34 4.26562 33.28 5.2342 33.0657 5.44848C32.8514 5.66277 31.8828 5.72277 31.8828 5.72277C31.8828 5.72277 32.8514 5.78277 33.0657 5.99705C33.28 6.21134 33.34 7.17991 33.34 7.17991C33.34 7.17991 33.4 6.21134 33.6142 5.99705C33.8285 5.78277 34.7971 5.72277 34.7971 5.72277C34.7971 5.72277 33.8285 5.66277 33.6142 5.44848C33.4 5.2342 33.34 4.26562 33.34 4.26562Z" fill="#FDED04"/>
<path d="M31.002 0.957031C31.002 0.957031 29.322 2.43132 28.6192 2.43132C27.9163 2.43132 26.2363 0.957031 26.2363 0.957031C26.2363 0.957031 27.7106 2.63703 27.7106 3.33989C27.7106 4.04275 26.2363 5.72275 26.2363 5.72275C26.2363 5.72275 27.9163 4.24846 28.6192 4.24846C29.322 4.24846 31.002 5.72275 31.002 5.72275C31.002 5.72275 29.5278 4.04275 29.5278 3.33989C29.5278 2.63703 31.002 0.957031 31.002 0.957031Z" fill="#FDED04"/>
<path d="M21.4355 5.38842C21.4355 5.38842 22.7898 5.47413 23.0898 5.77413C23.3898 6.07413 23.4755 7.42842 23.4755 7.42842C23.4755 7.42842 23.5613 6.07413 23.8613 5.77413C24.1613 5.47413 25.5155 5.38842 25.5155 5.38842C25.5155 5.38842 24.1613 5.3027 23.8613 5.0027C23.5698 4.69413 23.4841 3.33984 23.4841 3.33984C23.4841 3.33984 23.3984 4.69413 23.0984 4.99413C22.7898 5.3027 21.4355 5.38842 21.4355 5.38842Z" fill="#FDED04"/>
<path d="M4.62695 17.38C4.62695 17.38 5.58695 16.54 5.98981 16.54C6.39267 16.54 7.35267 17.38 7.35267 17.38C7.35267 17.38 6.51267 16.42 6.51267 16.0172C6.51267 15.6143 7.35267 14.6543 7.35267 14.6543C7.35267 14.6543 6.39267 15.4943 5.98981 15.4943C5.58695 15.4943 4.62695 14.6543 4.62695 14.6543C4.62695 14.6543 5.46695 15.6143 5.46695 16.0172C5.47552 16.42 4.62695 17.38 4.62695 17.38Z" fill="#FDED04"/>
<path d="M5.99023 12.9392C5.99023 12.9392 7.93595 13.0678 8.36452 13.4964C8.79309 13.925 8.92166 15.8707 8.92166 15.8707C8.92166 15.8707 9.05024 13.925 9.47881 13.4964C9.90738 13.0678 11.8531 12.9392 11.8531 12.9392C11.8531 12.9392 9.90738 12.8107 9.47881 12.3821C9.05024 11.9535 8.92166 10.0078 8.92166 10.0078C8.92166 10.0078 8.79309 11.9535 8.36452 12.3821C7.93595 12.8107 5.99023 12.9392 5.99023 12.9392Z" fill="#FDED04"/>
</svg>
