<svg width="34" height="34" viewBox="0 0 34 34" fill="none" xmlns="http://www.w3.org/2000/svg">
<g clip-path="url(#clip0_630_128888)">
<path d="M29.9681 31.1747H4.03197C2.64966 31.1747 1.52905 30.0541 1.52905 28.6718V7.07518C1.52905 5.69287 2.64966 4.57227 4.03197 4.57227H29.9681C31.3505 4.57227 32.4711 5.69287 32.4711 7.07518V28.6718C32.4711 30.0541 31.3505 31.1747 29.9681 31.1747Z" fill="url(#paint0_linear_630_128888)"/>
<path d="M29.3897 30.5811H4.61035C3.28966 30.5811 2.21899 29.5104 2.21899 28.1897V7.55639C2.21899 6.23571 3.2896 5.16504 4.61035 5.16504H29.3896C30.7103 5.16504 31.781 6.23564 31.781 7.55639V28.1898C31.7811 29.5105 30.7104 30.5811 29.3897 30.5811Z" fill="url(#paint1_linear_630_128888)"/>
<path d="M30.794 11.558L24.5555 0.752688C24.14 0.0329105 23.2195 -0.213722 22.4997 0.201914L2.83032 11.558H30.794Z" fill="url(#paint2_linear_630_128888)"/>
<path d="M1.52905 20.2548H32.4711V12.0594C32.4711 11.025 31.6325 10.1865 30.5981 10.1865H3.40198C2.36756 10.1865 1.52905 11.025 1.52905 12.0594V20.2548Z" fill="url(#paint3_linear_630_128888)"/>
<path d="M1.52905 17.1719V28.6715C1.52905 30.0538 2.64966 31.1745 4.03204 31.1745H29.9681C31.3505 31.1745 32.4711 30.0539 32.4711 28.6716V17.1719C32.4711 16.3181 31.7789 15.626 30.9251 15.626H3.07499C2.22121 15.626 1.52905 16.3181 1.52905 17.1719Z" fill="url(#paint4_linear_630_128888)"/>
<path d="M27.803 11.2412V31.1751H29.9682C31.3505 31.1751 32.4711 30.0545 32.4711 28.6722V15.9093L27.803 11.2412Z" fill="url(#paint5_linear_630_128888)"/>
<path d="M25.6924 33.9812L3.97181 31.4586C2.5794 31.2968 1.52905 30.1175 1.52905 28.7157V6.88867C1.52905 7.35777 1.88054 7.75235 2.34638 7.80647L26.3295 10.5919C27.7219 10.7537 28.7722 11.933 28.7722 13.3348V31.2384C28.7722 32.8896 27.3326 34.1718 25.6924 33.9812Z" fill="url(#paint6_linear_630_128888)"/>
<path d="M25.6924 29.621L3.97181 27.0983C2.5794 26.9365 1.52905 25.7572 1.52905 24.3555V28.7153C1.52905 30.1171 2.5794 31.2965 3.97181 31.4582L25.6924 33.9808C27.3326 34.1713 28.7723 32.8892 28.7723 31.2379V26.8781C28.7722 28.5294 27.3326 29.8114 25.6924 29.621Z" fill="url(#paint7_linear_630_128888)"/>
<path d="M3.47653 10.291C3.45833 10.291 3.43987 10.2899 3.42135 10.2879L2.42738 10.1786C2.15285 10.1484 1.95476 9.90149 1.98498 9.62704C2.01519 9.35258 2.26229 9.15469 2.53655 9.18464L3.53052 9.29394C3.80504 9.32416 4.00313 9.57106 3.97292 9.84551C3.94476 10.1015 3.72814 10.291 3.47653 10.291Z" fill="url(#paint8_linear_630_128888)"/>
<path d="M23.9006 32.3343C23.8796 32.3343 23.8582 32.3329 23.8368 32.3303L21.905 32.0846C21.6311 32.0498 21.4372 31.7995 21.4721 31.5255C21.507 31.2516 21.7572 31.0589 22.0312 31.0926L23.963 31.3382C24.2369 31.373 24.4309 31.6234 24.396 31.8974C24.3637 32.1499 24.1486 32.3343 23.9006 32.3343ZM25.802 32.0868C25.6145 32.0868 25.4346 31.9808 25.3494 31.7998C25.2317 31.55 25.3388 31.252 25.5886 31.1344C26.0959 30.8954 26.4774 30.4989 26.6354 30.0466C26.7264 29.786 27.0117 29.6485 27.2723 29.7394C27.5329 29.8304 27.6705 30.1156 27.5795 30.3763C27.33 31.0907 26.7744 31.6812 26.0148 32.039C25.9459 32.0714 25.8735 32.0868 25.802 32.0868ZM20.037 31.8431C20.016 31.8431 19.9946 31.8417 19.9732 31.839L18.0414 31.5934C17.7675 31.5586 17.5736 31.3082 17.6085 31.0342C17.6434 30.7604 17.8937 30.5675 18.1676 30.6013L20.0995 30.847C20.3733 30.8818 20.5673 31.1321 20.5324 31.4061C20.5002 31.6585 20.2849 31.8431 20.037 31.8431ZM16.1734 31.3517C16.1524 31.3517 16.1311 31.3503 16.1097 31.3477L14.1778 31.102C13.904 31.0672 13.71 30.8169 13.7449 30.5429C13.7798 30.269 14.0301 30.0753 14.3041 30.11L16.2359 30.3556C16.5097 30.3904 16.7037 30.6408 16.6688 30.9148C16.6366 31.1672 16.4213 31.3517 16.1734 31.3517ZM12.3097 30.8604C12.2887 30.8604 12.2674 30.859 12.2459 30.8563L10.314 30.6106C10.0401 30.5758 9.84621 30.3255 9.88114 30.0515C9.91601 29.7776 10.1664 29.5847 10.4403 29.6186L12.3722 29.8643C12.6461 29.8991 12.84 30.1494 12.8051 30.4234C12.773 30.676 12.5577 30.8604 12.3097 30.8604ZM8.4461 30.369C8.42512 30.369 8.4038 30.3676 8.38235 30.365L6.45046 30.1193C6.17654 30.0844 5.98263 29.8341 6.01756 29.5601C6.05242 29.2862 6.30284 29.0933 6.5767 29.1272L8.50859 29.3729C8.78252 29.4078 8.97642 29.6581 8.94149 29.9321C8.90935 30.1846 8.69413 30.369 8.4461 30.369ZM27.2196 28.7769C26.9434 28.7769 26.7196 28.5532 26.7196 28.277V26.3296C26.7196 26.0534 26.9434 25.8296 27.2196 25.8296C27.4958 25.8296 27.7196 26.0534 27.7196 26.3296V28.277C27.7197 28.5532 27.4959 28.7769 27.2196 28.7769ZM27.2196 24.8823C26.9434 24.8823 26.7196 24.6585 26.7196 24.3823V22.4349C26.7196 22.1588 26.9434 21.935 27.2196 21.935C27.4958 21.935 27.7196 22.1588 27.7196 22.4349V24.3823C27.7197 24.6584 27.4959 24.8823 27.2196 24.8823ZM27.2196 20.9876C26.9434 20.9876 26.7196 20.7638 26.7196 20.4876V18.5402C26.7196 18.264 26.9434 18.0402 27.2196 18.0402C27.4958 18.0402 27.7196 18.264 27.7196 18.5402V20.4876C27.7197 20.7637 27.4959 20.9876 27.2196 20.9876ZM27.2196 17.0928C26.9434 17.0928 26.7196 16.869 26.7196 16.5929V14.6455C26.7196 14.3693 26.9434 14.1455 27.2196 14.1455C27.4958 14.1455 27.7196 14.3693 27.7196 14.6455V16.5929C27.7197 16.869 27.4959 17.0928 27.2196 17.0928ZM26.5204 13.3977C26.3969 13.3977 26.2732 13.3522 26.1766 13.2606C25.806 12.9094 25.2916 12.6857 24.7282 12.6305L24.715 12.6291C24.4404 12.5996 24.2418 12.353 24.2714 12.0785C24.3009 11.8039 24.5474 11.6052 24.822 11.6349L24.8305 11.6358C25.6093 11.7121 26.3332 12.0315 26.8644 12.5347C27.0649 12.7246 27.0734 13.0411 26.8835 13.2416C26.7851 13.3453 26.6528 13.3977 26.5204 13.3977ZM22.8333 12.4192C22.8151 12.4192 22.7966 12.4182 22.7781 12.4162L20.8424 12.2033C20.568 12.1731 20.3698 11.9262 20.4 11.6518C20.4302 11.3773 20.6773 11.1798 20.9516 11.2094L22.8873 11.4222C23.1617 11.4524 23.3599 11.6993 23.3297 11.9738C23.3016 12.2297 23.0849 12.4192 22.8333 12.4192ZM18.962 11.9936C18.9438 11.9936 18.9253 11.9925 18.9068 11.9905L16.9711 11.7777C16.6966 11.7475 16.4985 11.5006 16.5287 11.2261C16.5588 10.9516 16.8063 10.7538 17.0802 10.7837L19.016 10.9965C19.2904 11.0268 19.4886 11.2736 19.4584 11.5481C19.4302 11.8041 19.2136 11.9936 18.962 11.9936ZM15.0905 11.568C15.0723 11.568 15.0539 11.5669 15.0353 11.5649L13.0997 11.3521C12.8252 11.3219 12.627 11.075 12.6573 10.8005C12.6874 10.526 12.9344 10.3283 13.2088 10.3581L15.1445 10.5709C15.419 10.6012 15.6171 10.8481 15.5869 11.1225C15.5588 11.3784 15.3422 11.568 15.0905 11.568ZM11.2191 11.1424C11.2009 11.1424 11.1824 11.1413 11.1639 11.1393L9.22824 10.9265C8.95371 10.8963 8.75562 10.6494 8.78584 10.3749C8.81599 10.1005 9.06269 9.90282 9.33741 9.93251L11.2731 10.1453C11.5475 10.1756 11.7457 10.4225 11.7155 10.6969C11.6875 10.9528 11.4708 11.1424 11.2191 11.1424ZM7.34768 10.7167C7.32948 10.7167 7.31102 10.7156 7.29249 10.7136L5.35682 10.5008C5.08236 10.4706 4.88421 10.2237 4.91442 9.94924C4.94464 9.67485 5.1914 9.47723 5.46599 9.50684L7.40167 9.71968C7.67619 9.74989 7.87428 9.99679 7.84407 10.2712C7.81598 10.5272 7.59929 10.7167 7.34768 10.7167Z" fill="url(#paint9_linear_630_128888)"/>
<path d="M4.57772 29.8762C4.55674 29.8762 4.53549 29.8749 4.51404 29.8722L3.522 29.7461C3.24807 29.7113 3.0541 29.4609 3.08903 29.187C3.12382 28.9131 3.37418 28.7193 3.6481 28.754L4.64014 28.8801C4.91407 28.9149 5.10804 29.1653 5.07311 29.4392C5.04097 29.6917 4.82568 29.8762 4.57772 29.8762Z" fill="url(#paint10_linear_630_128888)"/>
<path d="M22.9478 3.72344L19.7479 5.46474C19.331 5.69152 18.8093 5.53752 18.5824 5.12069C18.3557 4.70386 18.5097 4.18211 18.9265 3.95526L22.1265 2.21402C22.5434 1.98725 23.0651 2.14124 23.292 2.55807C23.5187 2.97484 23.3647 3.49666 22.9478 3.72344Z" fill="#61DB99"/>
<path d="M28.7722 24.1599L25.5966 20.9843C25.1486 20.4964 24.5056 20.1904 23.791 20.1904C22.4373 20.1904 21.3398 21.2879 21.3398 22.6416C21.3398 23.3562 21.6458 23.9992 22.1337 24.4472L28.7723 31.0858V24.1599H28.7722Z" fill="url(#paint11_linear_630_128888)"/>
<path d="M23.7905 25.0928C25.1443 25.0928 26.2417 23.9954 26.2417 22.6416C26.2417 21.2879 25.1443 20.1904 23.7905 20.1904C22.4368 20.1904 21.3394 21.2879 21.3394 22.6416C21.3394 23.9954 22.4368 25.0928 23.7905 25.0928Z" fill="url(#paint12_linear_630_128888)"/>
<path d="M23.7908 24.3335C24.725 24.3335 25.4824 23.5761 25.4824 22.6418C25.4824 21.7076 24.725 20.9502 23.7908 20.9502C22.8565 20.9502 22.0991 21.7076 22.0991 22.6418C22.0991 23.5761 22.8565 24.3335 23.7908 24.3335Z" fill="url(#paint13_linear_630_128888)"/>
<path d="M23.1479 22.3485C23.3412 22.3485 23.4979 22.1918 23.4979 21.9985C23.4979 21.8051 23.3412 21.6484 23.1479 21.6484C22.9546 21.6484 22.7979 21.8051 22.7979 21.9985C22.7979 22.1918 22.9546 22.3485 23.1479 22.3485Z" fill="url(#paint14_linear_630_128888)"/>
<path d="M24.4335 22.3485C24.6268 22.3485 24.7836 22.1918 24.7836 21.9985C24.7836 21.8051 24.6268 21.6484 24.4335 21.6484C24.2402 21.6484 24.0835 21.8051 24.0835 21.9985C24.0835 22.1918 24.2402 22.3485 24.4335 22.3485Z" fill="url(#paint15_linear_630_128888)"/>
<path d="M23.1481 23.6346C23.3414 23.6346 23.4981 23.4779 23.4981 23.2846C23.4981 23.0913 23.3414 22.9346 23.1481 22.9346C22.9548 22.9346 22.7981 23.0913 22.7981 23.2846C22.7981 23.4779 22.9548 23.6346 23.1481 23.6346Z" fill="url(#paint16_linear_630_128888)"/>
<path d="M24.4333 23.6346C24.6266 23.6346 24.7833 23.4779 24.7833 23.2846C24.7833 23.0913 24.6266 22.9346 24.4333 22.9346C24.24 22.9346 24.0833 23.0913 24.0833 23.2846C24.0833 23.4779 24.24 23.6346 24.4333 23.6346Z" fill="url(#paint17_linear_630_128888)"/>
</g>
<defs>
<linearGradient id="paint0_linear_630_128888" x1="17.5057" y1="3.0389" x2="17.325" y2="8.33585" gradientUnits="userSpaceOnUse">
<stop stop-color="#FFB92D"/>
<stop offset="1" stop-color="#F59500"/>
</linearGradient>
<linearGradient id="paint1_linear_630_128888" x1="18.3718" y1="6.55555" x2="17.8799" y2="10.6135" gradientUnits="userSpaceOnUse">
<stop stop-color="#FFB92D"/>
<stop offset="1" stop-color="#F59500"/>
</linearGradient>
<linearGradient id="paint2_linear_630_128888" x1="16.8118" y1="6.67593" x2="16.8118" y2="9.7672" gradientUnits="userSpaceOnUse">
<stop stop-color="#A7F3CE"/>
<stop offset="1" stop-color="#61DB99"/>
</linearGradient>
<linearGradient id="paint3_linear_630_128888" x1="16.9997" y1="12.0274" x2="16.9997" y2="20.7019" gradientUnits="userSpaceOnUse">
<stop stop-color="#FF4C54"/>
<stop offset="1" stop-color="#BE3F45"/>
</linearGradient>
<linearGradient id="paint4_linear_630_128888" x1="16.9997" y1="18.468" x2="16.9997" y2="31.865" gradientUnits="userSpaceOnUse">
<stop stop-color="#FF4C54"/>
<stop offset="1" stop-color="#BE3F45"/>
</linearGradient>
<linearGradient id="paint5_linear_630_128888" x1="30.7108" y1="21.2084" x2="28.4535" y2="21.2084" gradientUnits="userSpaceOnUse">
<stop stop-color="#BE3F45" stop-opacity="0"/>
<stop offset="1" stop-color="#BE3F45"/>
</linearGradient>
<linearGradient id="paint6_linear_630_128888" x1="10.5228" y1="18.8909" x2="22.0059" y2="24.1879" gradientUnits="userSpaceOnUse">
<stop stop-color="#FFB92D"/>
<stop offset="1" stop-color="#F59500"/>
</linearGradient>
<linearGradient id="paint7_linear_630_128888" x1="14.7845" y1="30.6844" x2="14.3099" y2="34.3123" gradientUnits="userSpaceOnUse">
<stop stop-color="#BE3F45" stop-opacity="0"/>
<stop offset="1" stop-color="#BE3F45"/>
</linearGradient>
<linearGradient id="paint8_linear_630_128888" x1="2.97885" y1="9.1821" x2="2.97885" y2="32.3823" gradientUnits="userSpaceOnUse">
<stop stop-color="#FFF465"/>
<stop offset="1" stop-color="#FFE600"/>
</linearGradient>
<linearGradient id="paint9_linear_630_128888" x1="16.3152" y1="9.18296" x2="16.3152" y2="32.3345" gradientUnits="userSpaceOnUse">
<stop stop-color="#FFF465"/>
<stop offset="1" stop-color="#FFE600"/>
</linearGradient>
<linearGradient id="paint10_linear_630_128888" x1="4.08094" y1="9.18081" x2="4.08094" y2="32.3803" gradientUnits="userSpaceOnUse">
<stop stop-color="#FFF465"/>
<stop offset="1" stop-color="#FFE600"/>
</linearGradient>
<linearGradient id="paint11_linear_630_128888" x1="27.0621" y1="25.9135" x2="20.1929" y2="19.0443" gradientUnits="userSpaceOnUse">
<stop stop-color="#BE3F45" stop-opacity="0"/>
<stop offset="1" stop-color="#BE3F45"/>
</linearGradient>
<linearGradient id="paint12_linear_630_128888" x1="23.79" y1="21.1033" x2="23.79" y2="24.6478" gradientUnits="userSpaceOnUse">
<stop stop-color="#FF4C54"/>
<stop offset="1" stop-color="#BE3F45"/>
</linearGradient>
<linearGradient id="paint13_linear_630_128888" x1="23.7902" y1="23.7041" x2="23.7902" y2="21.2581" gradientUnits="userSpaceOnUse">
<stop stop-color="#FF4C54"/>
<stop offset="1" stop-color="#BE3F45"/>
</linearGradient>
<linearGradient id="paint14_linear_630_128888" x1="19.8298" y1="7.34768" x2="20.5298" y2="10.4389" gradientUnits="userSpaceOnUse">
<stop stop-color="#A7F3CE"/>
<stop offset="1" stop-color="#61DB99"/>
</linearGradient>
<linearGradient id="paint15_linear_630_128888" x1="21.1154" y1="7.34782" x2="21.8154" y2="10.4391" gradientUnits="userSpaceOnUse">
<stop stop-color="#A7F3CE"/>
<stop offset="1" stop-color="#61DB99"/>
</linearGradient>
<linearGradient id="paint16_linear_630_128888" x1="19.5531" y1="7.41053" x2="20.253" y2="10.5018" gradientUnits="userSpaceOnUse">
<stop stop-color="#A7F3CE"/>
<stop offset="1" stop-color="#61DB99"/>
</linearGradient>
<linearGradient id="paint17_linear_630_128888" x1="20.8382" y1="7.41068" x2="21.5382" y2="10.502" gradientUnits="userSpaceOnUse">
<stop stop-color="#A7F3CE"/>
<stop offset="1" stop-color="#61DB99"/>
</linearGradient>
<clipPath id="clip0_630_128888">
<rect width="34" height="34" fill="white"/>
</clipPath>
</defs>
</svg>
