<svg id="Layer_2" height="512" viewBox="0 0 512 512" width="512" xmlns="http://www.w3.org/2000/svg" xmlns:xlink="http://www.w3.org/1999/xlink" data-name="Layer 2"><linearGradient id="linear-gradient" gradientUnits="userSpaceOnUse" x1="43.93" x2="468.07" y1="43.93" y2="468.07"><stop offset="0" stop-color="#64b5f6"/><stop offset="1" stop-color="#1976d2"/></linearGradient><linearGradient id="linear-gradient-2" gradientUnits="userSpaceOnUse" x1="167.78" x2="437.86" y1="228.18" y2="498.27"><stop offset="0" stop-opacity=".35"/><stop offset="1" stop-opacity="0"/></linearGradient><g id="Icon"><g id="UserInfoCircle"><rect fill="url(#linear-gradient)" height="512" rx="150" width="512"/><path d="m512 317.49v44.51c0 82.84-67.16 150-150 150h-165.32l-111.93-111.93 140.79-109.52-60.06-60.07 105.37-105.37 81.46 81.46 62.34 13.58z" fill="url(#linear-gradient-2)"/><path id="UserInfoCircle-2" d="m331.26 408.61h-225.99c-19.59 0-33.5-19.07-27.53-37.73l23.8-74.29c7.63-23.81 33.74-36.2 57.05-27.16 15.46 6 35.35 10.72 59.66 10.72s44.2-4.72 59.66-10.72c.9-.35 1.8-.66 2.71-.95-.01.59-.02 1.19-.02 1.78 0 42.69 31.72 78.1 72.81 83.91l5.35 16.7c5.98 18.66-7.93 37.73-27.53 37.73zm-112.99-305.22c-41.15 0-74.52 33.36-74.52 74.52s33.36 74.52 74.52 74.52 74.52-33.36 74.52-74.52-33.36-74.52-74.52-74.52zm217.39 166.88c0 38.82-31.47 70.3-70.3 70.3s-70.3-31.47-70.3-70.3 31.48-70.3 70.3-70.3 70.3 31.47 70.3 70.3zm-84.3-37.33c0 7.78 6.31 14.08 14.08 14.08s14.08-6.31 14.08-14.08-6.31-14.08-14.08-14.08-14.08 6.31-14.08 14.08zm28.9 72.71-2.9-39.57c-.46-6.29-5.7-11.15-12-11.15-6.3 0-11.54 4.86-12 11.15l-2.9 39.57c-.64 8.66 6.22 16.03 14.9 16.03 8.68 0 15.54-7.37 14.9-16.03z" fill="#fff" data-name="UserInfoCircle"/></g></g></svg>