<svg id="Capa_1" enable-background="new 0 0 512 512" height="512" viewBox="0 0 512 512" width="512" xmlns="http://www.w3.org/2000/svg" xmlns:xlink="http://www.w3.org/1999/xlink"><linearGradient id="lg1"><stop offset="0" stop-color="#ba5c25"/><stop offset=".2216" stop-color="#ffc538"/><stop offset=".3463" stop-color="#ffa538"/><stop offset=".465" stop-color="#fbc23c"/><stop offset=".584" stop-color="#f8d840"/><stop offset=".6602" stop-color="#f7e041"/><stop offset=".7525" stop-color="#f9d53f"/><stop offset=".9151" stop-color="#fdb73b"/><stop offset="1" stop-color="#ffa538"/></linearGradient><linearGradient id="SVGID_1_" gradientUnits="userSpaceOnUse" x1="69.885" x2="413.05" xlink:href="#lg1" y1="423.574" y2="423.574"/><linearGradient id="lg2"><stop offset="0" stop-color="#fff"/><stop offset="1" stop-color="#fff" stop-opacity="0"/></linearGradient><linearGradient id="SVGID_00000096047412322798551110000012859236903531694764_" gradientUnits="userSpaceOnUse" x1="439.775" x2="320.313" xlink:href="#lg2" y1="365.465" y2="434.436"/><linearGradient id="lg3"><stop offset="0" stop-color="#8b451c"/><stop offset="1" stop-color="#8b451c" stop-opacity="0"/></linearGradient><linearGradient id="SVGID_00000062873473420434381670000000338305796800242572_" gradientUnits="userSpaceOnUse" x1="102.989" x2="160.051" xlink:href="#lg3" y1="412.617" y2="511.451"/><linearGradient id="lg4"><stop offset="0" stop-color="#e37a34"/><stop offset=".5493" stop-color="#ffa538"/><stop offset=".9892" stop-color="#ffc538"/></linearGradient><linearGradient id="SVGID_00000026149259841307671450000006783517110443962006_" gradientUnits="userSpaceOnUse" x1="205.744" x2="437.546" xlink:href="#lg4" y1="323.354" y2="436.759"/><linearGradient id="SVGID_00000053538997432578841630000006542375931948583336_" gradientUnits="userSpaceOnUse" x1="447.736" x2="91.324" xlink:href="#lg4" y1="460.314" y2="250.427"/><linearGradient id="lg5"><stop offset="0" stop-color="#ba5c25"/><stop offset=".1991" stop-color="#ffc538"/><stop offset=".4091" stop-color="#ffa538"/><stop offset=".6212" stop-color="#f7e041"/><stop offset="1" stop-color="#ffa538"/></linearGradient><linearGradient id="SVGID_00000145039183261957285850000016905552863007794328_" gradientUnits="userSpaceOnUse" x1="372.456" x2="24.885" xlink:href="#lg5" y1="399.455" y2="194.774"/><linearGradient id="SVGID_00000026870946598697825220000009950385653204357310_" gradientUnits="userSpaceOnUse" x1="348.725" x2="53.689" xlink:href="#lg5" y1="420.585" y2="246.841"/><linearGradient id="SVGID_00000031918851221127179470000015380969994147501228_" gradientUnits="userSpaceOnUse" x1="135.609" x2="23.893" xlink:href="#lg3" y1="395.634" y2="460.134"/><linearGradient id="SVGID_00000134961244972148138230000008368572272728358810_" gradientUnits="userSpaceOnUse" x1="-14.522" x2="328.643" y1="363.55" y2="363.55"><stop offset="0" stop-color="#ba5c25"/><stop offset=".2216" stop-color="#ffc538"/><stop offset=".3463" stop-color="#ffa538"/><stop offset=".4273" stop-color="#fbc23c"/><stop offset=".5085" stop-color="#f8d840"/><stop offset=".5605" stop-color="#f7e041"/><stop offset=".6223" stop-color="#f9d53f"/><stop offset=".7311" stop-color="#fdb73b"/><stop offset=".7879" stop-color="#ffa538"/><stop offset="1" stop-color="#ffc538"/></linearGradient><linearGradient id="SVGID_00000027572950244567553070000012283197989377574792_" gradientUnits="userSpaceOnUse" x1="404.244" x2="304.434" xlink:href="#lg2" y1="306.272" y2="363.897"/><linearGradient id="SVGID_00000142856386613855798990000003615279304356502670_" gradientUnits="userSpaceOnUse" x1="66.821" x2="128.935" xlink:href="#lg3" y1="319.014" y2="426.598"/><linearGradient id="SVGID_00000082330820278217505520000004339432404618780824_" gradientUnits="userSpaceOnUse" x1="179.822" x2="411.625" xlink:href="#lg4" y1="263.33" y2="376.735"/><linearGradient id="lg6"><stop offset=".0223" stop-color="#ffc538"/><stop offset=".2633" stop-color="#ffa538"/><stop offset=".6212" stop-color="#f7e041"/><stop offset="1" stop-color="#ffa538"/></linearGradient><linearGradient id="SVGID_00000057144542734442741630000014202905102997165460_" gradientUnits="userSpaceOnUse" x1="421.814" x2="65.402" xlink:href="#lg6" y1="400.291" y2="190.403"/><linearGradient id="SVGID_00000179620110349457211590000003327071051008407183_" gradientUnits="userSpaceOnUse" x1="346.534" x2="-1.037" xlink:href="#lg5" y1="339.432" y2="134.751"/><linearGradient id="SVGID_00000061447174002773529610000003353181087038684851_" gradientUnits="userSpaceOnUse" x1="322.803" x2="27.767" xlink:href="#lg5" y1="360.561" y2="186.818"/><linearGradient id="SVGID_00000029004833523415716390000008556581837768016804_" gradientUnits="userSpaceOnUse" x1="145.868" x2="-37.353" xlink:href="#lg3" y1="320.63" y2="426.412"/><linearGradient id="SVGID_00000095300609745032831170000018309581334241065144_" gradientUnits="userSpaceOnUse" x1="63.891" x2="407.055" y1="306.809" y2="306.809"><stop offset="0" stop-color="#ba5c25"/><stop offset=".2216" stop-color="#ffc538"/><stop offset=".3463" stop-color="#ffa538"/><stop offset=".403" stop-color="#fbc23c"/><stop offset=".4598" stop-color="#f8d840"/><stop offset=".4962" stop-color="#f7e041"/><stop offset=".6331" stop-color="#f9d53f"/><stop offset=".8742" stop-color="#fdb73b"/><stop offset="1" stop-color="#ffa538"/></linearGradient><linearGradient id="SVGID_00000020357630301234170790000012136714300793020343_" gradientUnits="userSpaceOnUse" x1="423.538" x2="336.877" xlink:href="#lg2" y1="249.73" y2="299.764"/><linearGradient id="SVGID_00000137095114265220460420000006191888485232943540_" gradientUnits="userSpaceOnUse" x1="61.781" x2="154.328" xlink:href="#lg3" y1="206.613" y2="366.91"/><linearGradient id="SVGID_00000107561266812853292020000000604740747983754662_" gradientUnits="userSpaceOnUse" x1="199.749" x2="431.552" xlink:href="#lg4" y1="206.589" y2="319.994"/><linearGradient id="SVGID_00000129190561663440796130000009227162377321763214_" gradientUnits="userSpaceOnUse" x1="441.742" x2="85.33" xlink:href="#lg6" y1="343.55" y2="133.662"/><linearGradient id="SVGID_00000037682137339305801610000008397020623507862439_" gradientUnits="userSpaceOnUse" x1="366.461" x2="18.891" xlink:href="#lg5" y1="282.691" y2="78.01"/><linearGradient id="SVGID_00000124849951598264729560000014806545354274913425_" gradientUnits="userSpaceOnUse" x1="342.73" x2="47.694" xlink:href="#lg5" y1="303.82" y2="130.077"/><linearGradient id="SVGID_00000092447225205475801550000006623331639678469031_" gradientUnits="userSpaceOnUse" x1="222.908" x2="-59.331" xlink:href="#lg3" y1="231.912" y2="394.863"/><linearGradient id="SVGID_00000052806648820290894130000017339441154440210094_" gradientUnits="userSpaceOnUse" x1="100.147" x2="443.312" y1="246.52" y2="246.52"><stop offset="0" stop-color="#ba5c25"/><stop offset=".2216" stop-color="#ffc538"/><stop offset=".3463" stop-color="#ffa538"/><stop offset=".4967" stop-color="#fbc23c"/><stop offset=".6474" stop-color="#f8d840"/><stop offset=".7439" stop-color="#f7e041"/><stop offset=".8135" stop-color="#f9d53f"/><stop offset=".936" stop-color="#fdb73b"/><stop offset="1" stop-color="#ffa538"/></linearGradient><linearGradient id="SVGID_00000068639722111433271800000015532459830933841592_" gradientUnits="userSpaceOnUse" x1="447.516" x2="358.351" xlink:href="#lg2" y1="192.691" y2="244.171"/><linearGradient id="SVGID_00000116945935878489407580000000308583950112658845_" gradientUnits="userSpaceOnUse" x1="93.961" x2="144.909" xlink:href="#lg3" y1="205.762" y2="294.005"/><linearGradient id="SVGID_00000049218336153116781820000010118234370167806353_" gradientUnits="userSpaceOnUse" x1="221.027" x2="452.83" y1="146.3" y2="259.705"><stop offset="0" stop-color="#ffa538"/><stop offset="1" stop-color="#f7e041"/></linearGradient><linearGradient id="SVGID_00000116219542713695974330000008218578166502516656_" gradientUnits="userSpaceOnUse" x1="463.02" x2="106.608" xlink:href="#lg4" y1="283.26" y2="73.373"/><linearGradient id="SVGID_00000128486621420205695320000001244029005272981894_" gradientUnits="userSpaceOnUse" x1="387.739" x2="40.169" xlink:href="#lg5" y1="222.401" y2="17.721"/><linearGradient id="SVGID_00000008122628584395875090000011117951915531557010_" gradientUnits="userSpaceOnUse" x1="364.008" x2="68.972" xlink:href="#lg5" y1="243.531" y2="69.787"/><linearGradient id="SVGID_00000127017885348767181390000004867090756917198522_" gradientUnits="userSpaceOnUse" x1="183.93" x2="80.279" xlink:href="#lg3" y1="213.562" y2="273.405"/><linearGradient id="SVGID_00000146495436947122861550000006083597369277197451_" gradientUnits="userSpaceOnUse" x1="133.788" x2="476.953" xlink:href="#lg1" y1="181.506" y2="181.506"/><linearGradient id="SVGID_00000118369353110226648960000014008777793172089489_" gradientUnits="userSpaceOnUse" x1="418.304" x2="314.177" xlink:href="#lg2" y1="130.296" y2="190.414"/><linearGradient id="SVGID_00000062172766898760560440000012167128321519477376_" gradientTransform="matrix(.866 .5 -1 .577 -400.912 -305.345)" gradientUnits="userSpaceOnUse" x1="792.796" x2="792.796" y1="179.116" y2="-99.397"><stop offset="0" stop-color="#ffc538"/><stop offset="1" stop-color="#f7e041"/></linearGradient><linearGradient id="SVGID_00000101808581024757522900000016930772961215120270_" gradientUnits="userSpaceOnUse" x1="284.129" x2="232.884" xlink:href="#lg2" y1="169.379" y2="80.619"/><linearGradient id="SVGID_00000067948175047792081420000013711225727753703358_" gradientUnits="userSpaceOnUse" x1="361.842" x2="169.479" xlink:href="#lg4" y1="171.195" y2="57.914"/><linearGradient id="SVGID_00000034802045289887029650000012788996928423343030_" gradientUnits="userSpaceOnUse" x1="441.742" x2="104.975" xlink:href="#lg4" y1="218.247" y2="19.928"/><linearGradient id="SVGID_00000100347144102411609160000000149644622779402135_" gradientUnits="userSpaceOnUse" x1="366.461" x2="18.891" xlink:href="#lg5" y1="157.388" y2="-47.293"/><linearGradient id="SVGID_00000050643511522678180360000005993148902437244329_" gradientUnits="userSpaceOnUse" x1="342.73" x2="47.694" xlink:href="#lg5" y1="178.517" y2="4.774"/><g><g><g><g><g><g><path d="m449.35 387.713h.004v-52.565l-375.902 30.42v53.203c-.001.168-.001.336 0 .504v.275h.006c.207 24.729 15.291 48.313 45.866 65.965 67.955 39.234 186.654 34.313 265.121-10.99 43.023-24.842 65.015-56.664 64.905-86.812z" fill="url(#SVGID_1_)"/><path d="m433.805 336.406-89.857 7.272v149.509c14.282-5.173 27.908-11.396 40.496-18.663 22.012-12.708 38.503-27.246 49.361-42.451z" fill="url(#SVGID_00000096047412322798551110000012859236903531694764_)"/><path d="m73.368 419.034c-.001.168-.001.336 0 .504v.275h.006c.197 23.504 13.845 45.97 41.447 63.295l53.92-31.13-62.82-88.779-32.553 2.634z" fill="url(#SVGID_00000062873473420434381670000000338305796800242572_)"/><path d="m384.444 421.622c78.467-45.303 86.99-113.834 19.035-153.068s-186.654-34.313-265.121 10.99-86.99 113.834-19.035 153.068 186.653 34.313 265.121-10.99z" fill="url(#SVGID_00000026149259841307671450000006783517110443962006_)"/><path d="m388.759 277.053c-60.914-35.169-167.315-30.758-237.653 9.851-70.338 40.61-77.977 102.04-17.063 137.209s167.315 30.759 237.653-9.851 77.977-102.04 17.063-137.209zm-33.796 127.548c-59.667 34.449-149.926 38.19-201.599 8.357s-45.193-81.944 14.474-116.393 149.926-38.19 201.599-8.357c51.674 29.834 45.193 81.945-14.474 116.393z" fill="url(#SVGID_00000053538997432578841630000006542375931948583336_)"/><g><path d="m151.106 291.634c70.338-40.609 176.739-45.02 237.653-9.851 26.625 15.372 40.151 35.761 41.072 57.235.99-23.194-12.499-45.469-41.072-61.965-60.914-35.169-167.315-30.758-237.653 9.851-39.595 22.86-59.32 52.317-58.135 79.974 1.12-26.252 20.79-53.683 58.135-75.244z" fill="url(#SVGID_00000145039183261957285850000016905552863007794328_)"/><path d="m153.364 417.689c51.673 29.833 141.932 26.092 201.599-8.357 33.759-19.491 50.485-44.635 49.293-68.2-1.113 22.161-17.784 45.277-49.293 63.469-59.667 34.449-149.926 38.19-201.599 8.357-22.437-12.954-33.903-30.109-34.818-48.194-.995 19.804 10.433 38.845 34.818 52.925z" fill="url(#SVGID_00000026870946598697825220000009950385653204357310_)"/></g></g></g></g></g></g><path d="m119.239 432.876c14.486 8.364 31.284 14.714 49.501 19.101h38.489v-125.377h-121.258c-24.174 37.843-13.817 79.091 33.268 106.276z" fill="url(#SVGID_00000031918851221127179470000015380969994147501228_)"/><g><g><g><g><path d="m423.429 327.689h.004v-52.565l-375.903 30.42v53.203c-.001.168-.001.336 0 .504v.275h.006c.207 24.729 15.291 48.313 45.866 65.965 67.955 39.234 186.654 34.313 265.121-10.99 43.023-24.841 65.015-56.664 64.906-86.812z" fill="url(#SVGID_00000134961244972148138230000008368572272728358810_)"/><path d="m299.019 439.322c21.226-6.103 41.433-14.389 59.503-24.822 11.68-6.743 21.796-14.004 30.354-21.604v-114.976l-89.857 7.272z" fill="url(#SVGID_00000027572950244567553070000012283197989377574792_)"/><path d="m47.362 358.747c-.001.168-.001.336 0 .504v.275h.006c.207 24.729 15.291 48.313 45.866 65.965 2.115 1.221 4.279 2.399 6.489 3.534l58.98-34.052-50.399-94.359-60.941 4.932v53.201z" fill="url(#SVGID_00000142856386613855798990000003615279304356502670_)"/><path d="m358.522 361.599c78.467-45.303 86.99-113.834 19.035-153.068s-186.654-34.314-265.121 10.99c-78.468 45.303-86.99 113.834-19.035 153.068 67.955 39.233 186.654 34.313 265.121-10.99z" fill="url(#SVGID_00000082330820278217505520000004339432404618780824_)"/><path d="m362.837 217.029c-60.914-35.169-167.315-30.758-237.653 9.851-70.338 40.61-77.977 102.04-17.063 137.209s167.315 30.759 237.653-9.851c70.338-40.609 77.977-102.04 17.063-137.209zm-33.795 127.549c-59.667 34.449-149.926 38.19-201.599 8.357s-45.193-81.945 14.474-116.393c59.667-34.449 149.926-38.19 201.599-8.357s45.192 81.944-14.474 116.393z" fill="url(#SVGID_00000057144542734442741630000014202905102997165460_)"/><g><path d="m125.184 231.611c70.338-40.61 176.739-45.02 237.653-9.851 26.624 15.372 40.151 35.76 41.072 57.235.99-23.194-12.499-45.469-41.072-61.965-60.915-35.169-167.315-30.758-237.653 9.851-39.595 22.86-59.32 52.317-58.135 79.974 1.12-26.253 20.79-53.683 58.135-75.244z" fill="url(#SVGID_00000179620110349457211590000003327071051008407183_)"/><path d="m127.442 357.665c51.673 29.833 141.932 26.092 201.599-8.357 33.759-19.491 50.485-44.635 49.293-68.2-1.113 22.161-17.784 45.277-49.293 63.469-59.667 34.449-149.926 38.19-201.599 8.357-22.437-12.954-33.903-30.109-34.818-48.194-.995 19.805 10.433 38.846 34.818 52.925z" fill="url(#SVGID_00000061447174002773529610000003353181087038684851_)"/></g></g></g></g></g><path d="m216.977 221.987s-57.846.347-109.616.464c-73.877 45.283-80.635 111.74-14.128 150.138 18.632 10.757 41.083 18.187 65.469 22.383h66.961z" fill="url(#SVGID_00000029004833523415716390000008556581837768016804_)"/><g><g><g><path d="m443.356 270.948h.004v-52.565l-375.903 30.42v53.203c-.001.168-.001.336 0 .504v.275h.006c.207 24.729 15.291 48.313 45.866 65.965 67.955 39.234 186.654 34.313 265.121-10.99 43.024-24.841 65.015-56.664 64.906-86.812z" fill="url(#SVGID_00000095300609745032831170000018309581334241065144_)"/><path d="m318.277 382.776c21.472-6.121 41.912-14.474 60.173-25.017 11.377-6.569 21.268-13.629 29.685-21.014v-115.512l-89.857 7.272v154.271z" fill="url(#SVGID_00000020357630301234170790000012136714300793020343_)"/><path d="m67.457 302.006c-.001.168-.001.336 0 .504v.275h.006c.197 23.504 13.844 45.97 41.447 63.294l53.92-31.13-21.063-92.159-74.31 6.014z" fill="url(#SVGID_00000137095114265220460420000006191888485232943540_)"/><path d="m378.449 304.858c78.467-45.303 86.99-113.834 19.035-153.068s-186.654-34.313-265.121 10.99-86.99 113.834-19.035 153.068c67.955 39.233 186.654 34.313 265.121-10.99z" fill="url(#SVGID_00000107561266812853292020000000604740747983754662_)"/><path d="m382.764 160.288c-60.914-35.169-167.315-30.758-237.653 9.851-70.338 40.61-77.977 102.04-17.063 137.209s167.315 30.759 237.653-9.851c70.338-40.609 77.978-102.04 17.063-137.209zm-33.795 127.549c-59.667 34.449-149.926 38.19-201.599 8.357s-45.193-81.945 14.474-116.393c59.667-34.449 149.926-38.19 201.599-8.357s45.193 81.944-14.474 116.393z" fill="url(#SVGID_00000129190561663440796130000009227162377321763214_)"/><g><path d="m145.111 174.87c70.338-40.61 176.739-45.02 237.653-9.851 26.625 15.372 40.151 35.761 41.072 57.235.99-23.194-12.499-45.469-41.072-61.965-60.914-35.169-167.315-30.758-237.653 9.851-39.595 22.86-59.32 52.317-58.135 79.974 1.121-26.253 20.791-53.683 58.135-75.244z" fill="url(#SVGID_00000037682137339305801610000008397020623507862439_)"/><path d="m147.37 300.924c51.673 29.833 141.932 26.092 201.599-8.357 33.759-19.491 50.485-44.635 49.292-68.2-1.113 22.161-17.784 45.277-49.292 63.469-59.667 34.449-149.926 38.19-201.599 8.357-22.437-12.954-33.903-30.109-34.818-48.194-.996 19.805 10.432 38.846 34.818 52.925z" fill="url(#SVGID_00000124849951598264729560000014806545354274913425_)"/></g></g></g></g><path d="m211.13 186.575-99.598-10.013c-58.561 44.533-59.571 103.854 1.797 139.285 14.486 8.364 31.284 14.714 49.501 19.101h88.858z" fill="url(#SVGID_00000092447225205475801550000006623331639678469031_)"/><g><g><path d="m464.634 210.659h.004v-52.565l-375.903 30.42v53.203c-.001.168-.001.336 0 .504v.275l.006-.001c.207 24.729 15.291 48.313 45.865 65.965 67.955 39.234 186.654 34.313 265.121-10.99 43.025-24.84 65.016-56.663 64.907-86.811z" fill="url(#SVGID_00000052806648820290894130000017339441154440210094_)"/><path d="m448.789 159.376-89.857 7.272v149.592c14.391-5.195 28.121-11.452 40.796-18.771 21.807-12.59 38.2-26.976 49.061-42.026z" fill="url(#SVGID_00000068639722111433271800000015532459830933841592_)"/><path d="m88.735 241.719c-.001.168-.001.336 0 .504v.275h.006c.166 19.888 9.964 39.032 29.694 54.949l48.11-27.777-57.984-82.757-19.827 1.604v53.202z" fill="url(#SVGID_00000116945935878489407580000000308583950112658845_)"/><path d="m399.728 244.568c78.467-45.303 86.99-113.834 19.035-153.068s-186.654-34.313-265.121 10.99-86.99 113.834-19.035 153.068c67.954 39.234 186.653 34.313 265.121-10.99z" fill="url(#SVGID_00000049218336153116781820000010118234370167806353_)"/><path d="m404.042 99.999c-60.914-35.169-167.315-30.758-237.653 9.851-70.338 40.61-77.977 102.04-17.063 137.209s167.315 30.758 237.653-9.851 77.978-102.04 17.063-137.209zm-33.795 127.549c-59.667 34.449-149.926 38.19-201.599 8.357s-45.193-81.944 14.474-116.393 149.926-38.19 201.599-8.357 45.193 81.944-14.474 116.393z" fill="url(#SVGID_00000116219542713695974330000008218578166502516656_)"/><g><path d="m166.389 114.581c70.338-40.61 176.739-45.02 237.653-9.851 26.625 15.372 40.151 35.76 41.072 57.235.99-23.194-12.499-45.469-41.072-61.965-60.914-35.169-167.315-30.758-237.653 9.851-39.595 22.86-59.32 52.317-58.135 79.974 1.121-26.253 20.791-53.683 58.135-75.244z" fill="url(#SVGID_00000128486621420205695320000001244029005272981894_)"/><path d="m168.648 240.635c51.673 29.833 141.932 26.092 201.599-8.357 33.759-19.491 50.485-44.635 49.292-68.2-1.113 22.161-17.784 45.277-49.292 63.469-59.667 34.449-149.926 38.19-201.599 8.357-22.437-12.954-33.903-30.109-34.818-48.194-.995 19.805 10.432 38.845 34.818 52.925z" fill="url(#SVGID_00000008122628584395875090000011117951915531557010_)"/></g></g></g><path d="m134.606 255.56c9.7 5.6 20.436 10.297 31.939 14.109h59.118l-136.917-81.354c-.312 25.194 14.759 49.289 45.86 67.245z" fill="url(#SVGID_00000127017885348767181390000004867090756917198522_)"/><g><path d="m443.356 145.645h.004v-52.565l-375.903 30.42v53.203c-.001.168-.001.336 0 .504v.275h.006c.207 24.729 15.291 48.313 45.866 65.965 67.955 39.234 186.654 34.313 265.121-10.99 43.024-24.841 65.015-56.664 64.906-86.812z" fill="url(#SVGID_00000146495436947122861550000006083597369277197451_)"/><path d="m419.606 95.002-89.857 7.272v151.679c17.277-5.679 33.723-12.85 48.701-21.497 17.048-9.842 30.779-20.783 41.156-32.28z" fill="url(#SVGID_00000118369353110226648960000014008777793172089489_)"/><path d="m378.45 179.555c78.467-45.303 86.99-113.834 19.035-153.068-67.955-39.234-186.654-34.314-265.122 10.99s-86.99 113.834-19.035 153.068c67.955 39.233 186.654 34.313 265.122-10.99z" fill="url(#SVGID_00000062172766898760560440000012167128321519477376_)"/><path d="m397.484 26.487c-67.954-39.234-186.653-34.314-265.121 10.99s-86.99 113.834-19.035 153.068c2.267 1.309 4.594 2.565 6.97 3.775l283.725-163.809c-2.097-1.372-4.272-2.715-6.539-4.024z" fill="url(#SVGID_00000101808581024757522900000016930772961215120270_)"/><path d="m328.154 66.515c-2.772-1.6-5.709-3.057-8.788-4.371-7.473-3.189-16.146-1.442-21.891 4.303l-7.529 7.529c-3.983 3.983-2.977 10.582 1.909 13.383.033.019.065.037.098.056 17.48 10.092 15.288 27.721-4.896 39.374-20.185 11.654-50.718 12.919-68.198 2.827s-15.288-27.721 4.896-39.374c.028-.016.057-.033.085-.049 4.23-2.432 5.083-8.159 1.633-11.61l-7.669-7.669c-4.559-4.559-11.51-5.806-17.325-3.02-2.771 1.327-5.467 2.742-8.075 4.248-40.177 23.196-44.541 58.286-9.746 78.375s95.572 17.569 135.749-5.627c40.178-23.197 44.542-58.287 9.747-78.375z" fill="url(#SVGID_00000067948175047792081420000013711225727753703358_)"/><path d="m382.764 34.985c-60.914-35.168-167.315-30.758-237.653 9.852s-77.977 102.04-17.063 137.209 167.315 30.758 237.653-9.851c70.339-40.61 77.978-102.041 17.063-137.21zm-33.795 127.549c-59.667 34.449-149.926 38.19-201.599 8.357s-45.193-81.944 14.474-116.393 149.926-38.19 201.599-8.357 45.193 81.944-14.474 116.393z" fill="url(#SVGID_00000034802045289887029650000012788996928423343030_)"/><g><path d="m145.111 49.567c70.338-40.61 176.739-45.02 237.653-9.851 26.625 15.372 40.151 35.761 41.072 57.235.99-23.194-12.499-45.469-41.072-61.965-60.914-35.169-167.315-30.759-237.653 9.851-39.595 22.86-59.32 52.317-58.135 79.974 1.121-26.253 20.791-53.683 58.135-75.244z" fill="url(#SVGID_00000100347144102411609160000000149644622779402135_)"/><path d="m147.37 175.621c51.673 29.833 141.932 26.092 201.599-8.357 33.759-19.491 50.485-44.635 49.293-68.199-1.113 22.161-17.784 45.277-49.293 63.469-59.667 34.449-149.926 38.19-201.599 8.357-22.437-12.954-33.903-30.109-34.818-48.194-.996 19.804 10.432 38.845 34.818 52.924z" fill="url(#SVGID_00000050643511522678180360000005993148902437244329_)"/></g></g></g></svg>