<svg id="Layer_1" height="512" viewBox="0 0 512 512" width="512" xmlns="http://www.w3.org/2000/svg" xmlns:xlink="http://www.w3.org/1999/xlink" data-name="Layer 1"><linearGradient id="GradientFill_1" gradientUnits="userSpaceOnUse" x1="-.031" x2="512.031" y1="256" y2="256"><stop offset="0" stop-color="#617fc0"/><stop offset="1" stop-color="#20c4f4"/></linearGradient><path d="m59.884 18.067 12.1-3.816a41.688 41.688 0 0 1 12.492-1.933 39.738 39.738 0 0 1 30.454 14.251l50.11 58.83a40.181 40.181 0 0 1 1.637 50.308l-9.154 12.3a854.774 854.774 0 0 1 -108.697-124.578 42.3 42.3 0 0 1 11.058-5.362zm304.871 492.694c19.662 5.333 56.618-6.566 109.843-35.347a46.027 46.027 0 0 0 5.295-3.358 866.507 866.507 0 0 1 -125.857-110.219l-5.754 4.28a51.877 51.877 0 0 1 -61.814.8 450.526 450.526 0 0 1 -141.418-141.417 51.869 51.869 0 0 1 .8-61.815l4.29-5.754a864.906 864.906 0 0 1 -110.222-125.855 41.524 41.524 0 0 0 -3.357 5.314c-28.792 53.21-40.695 90.158-35.347 109.81a5.269 5.269 0 0 1 .121.584c26.656 156.47 206.381 336.2 362.841 362.837.193.034.386.083.579.136zm132.954-70.776-3.831 12.091a41.256 41.256 0 0 1 -5.333 11.072 854.329 854.329 0 0 1 -124.586-108.7l12.3-9.16a40.2 40.2 0 0 1 50.308 1.652l58.834 50.11a39.793 39.793 0 0 1 12.309 42.937zm-92.486-439.985a107.183 107.183 0 0 1 76.308 31.449c40.559 40.568 40.68 106.05.284 152.334l-71.964 82.447a6.129 6.129 0 0 1 -9.256 0l-71.974-82.447c-40.38-46.284-40.26-111.766.29-152.334a107.177 107.177 0 0 1 76.312-31.449zm0 56.085a50.859 50.859 0 1 1 -50.859 50.859 50.914 50.914 0 0 1 50.859-50.859zm0 89.433a38.574 38.574 0 1 1 38.565-38.574 38.616 38.616 0 0 1 -38.565 38.574z" fill="url(#GradientFill_1)" fill-rule="evenodd"/></svg>