<svg id="Layer_1" height="512" viewBox="0 0 512 512" width="512" xmlns="http://www.w3.org/2000/svg" xmlns:xlink="http://www.w3.org/1999/xlink" data-name="Layer 1"><linearGradient id="GradientFill_1" gradientUnits="userSpaceOnUse" x1="255.998" x2="256.002" y1="512"><stop offset="0" stop-color="#4764af"/><stop offset="1" stop-color="#1fbbee"/></linearGradient><path d="m256 0c141.385 0 256 114.615 256 256s-114.615 256-256 256-256-114.615-256-256 114.615-256 256-256zm-40.378 211.218a4.62 4.62 0 1 0 4.619 4.619 4.626 4.626 0 0 0 -4.619-4.619zm68.744 39.688a4.624 4.624 0 1 0 4.628 4.62 4.624 4.624 0 0 0 -4.628-4.62zm39.7-68.748a4.621 4.621 0 1 0 4.619 4.623 4.629 4.629 0 0 0 -4.619-4.623zm-151.833 108.823a7.371 7.371 0 0 0 10.087-2.707l30.731-53.221a19.8 19.8 0 0 0 2.571.171 19.249 19.249 0 0 0 11.818-4.039l37.715 21.778a19.736 19.736 0 0 0 -.171 2.563 19.389 19.389 0 1 0 34.734-11.819l21.774-37.715a19.812 19.812 0 0 0 2.571.172 19.416 19.416 0 1 0 -15.352-7.56l-21.774 37.715a18.287 18.287 0 0 0 -2.571-.18 19.236 19.236 0 0 0 -11.814 4.039l-37.715-21.778a19.81 19.81 0 0 0 .172-2.567 19.389 19.389 0 1 0 -34.74 11.819l-30.734 53.238a7.39 7.39 0 0 0 2.7 10.087zm-58.97-154.142v185.681a8.869 8.869 0 0 0 8.861 8.857h267.747a8.871 8.871 0 0 0 8.861-8.857v-185.681a8.871 8.871 0 0 0 -8.861-8.856h-267.747a8.868 8.868 0 0 0 -8.861 8.856zm162.576 209.661c-.035-.119-.061-.238-.092-.352h-39.5c-.031.114-.053.233-.092.352l-4.193 13.48h48.078l-4.2-13.48zm22.117 32.884a4.7 4.7 0 0 0 -4.637-4.641h-74.647a4.7 4.7 0 0 0 -4.637 4.641v4.637h83.921v-4.641zm-175.832-33.24h98.676l-4.352 13.956a19.432 19.432 0 0 0 -17.181 19.277v12.023a7.383 7.383 0 0 0 7.384 7.384h98.693a7.383 7.383 0 0 0 7.38-7.384v-12.02a19.432 19.432 0 0 0 -17.177-19.28l-4.347-13.956h98.675a23.656 23.656 0 0 0 23.625-23.624v-185.681a23.656 23.656 0 0 0 -23.628-23.623h-267.748a23.655 23.655 0 0 0 -23.624 23.623v185.681a23.655 23.655 0 0 0 23.624 23.624z" fill="url(#GradientFill_1)" fill-rule="evenodd"/></svg>