<svg id="Layer_1" height="512" viewBox="0 0 512 512" width="512" xmlns="http://www.w3.org/2000/svg" xmlns:xlink="http://www.w3.org/1999/xlink" data-name="Layer 1"><linearGradient id="GradientFill_1" gradientUnits="userSpaceOnUse" x1="88.349" x2="430.493" y1="435.975" y2="68.676"><stop offset="0" stop-color="#667abc"/><stop offset=".206" stop-color="#5e82c2"/><stop offset=".528" stop-color="#4998d3"/><stop offset=".924" stop-color="#27bcee"/><stop offset="1" stop-color="#20c4f4"/></linearGradient><path d="m256-.006c141.381 0 256 114.623 256 256.006s-114.619 256-256 256-256-114.623-256-256 114.614-256.006 256-256.006zm4.469 343.34a9.842 9.842 0 0 0 -9.846-9.841h-35.423a9.844 9.844 0 0 0 0 19.687h35.428a9.849 9.849 0 0 0 9.846-9.846zm-62.3 15.082h115.666v-21.745h-3.935a26.38 26.38 0 1 1 0-52.76h3.938v-21.745h-115.667v96.25zm115.664-41.433v-13.383h-3.933a6.692 6.692 0 1 0 0 13.384zm5.24-74.5h-123.073a17.534 17.534 0 0 0 -17.517 17.517v100.6a17.53 17.53 0 0 0 17.517 17.5h123.08a14.459 14.459 0 0 0 14.448-14.439v-106.734a14.461 14.461 0 0 0 -14.448-14.448zm-190.963-14.853a10.57 10.57 0 0 0 14.752 2.33l107.352-77.99a9.836 9.836 0 0 1 11.574 0l107.356 77.99a10.565 10.565 0 0 0 14.747-2.33l.546-.751a10.6 10.6 0 0 0 -2.339-14.752l-126.098-91.616-126.1 91.616a10.575 10.575 0 0 0 -2.338 14.752l.545.751zm213.149 166.178a8.415 8.415 0 0 0 8.4-8.4v-145.263l-93.659-68.045-93.665 68.048v145.252a8.415 8.415 0 0 0 8.4 8.4zm-170.517 19.692h170.517a28.124 28.124 0 0 0 28.092-28.1v-134.342a30.294 30.294 0 0 0 30.474-11.858l.541-.743a30.287 30.287 0 0 0 -6.694-42.254l-131.884-95.824a9.836 9.836 0 0 0 -11.574 0l-131.884 95.821a30.279 30.279 0 0 0 -6.694 42.246l.549.755a30.326 30.326 0 0 0 30.47 11.864v134.335a28.118 28.118 0 0 0 28.087 28.1z" fill="url(#GradientFill_1)" fill-rule="evenodd"/></svg>