<svg height="512" viewBox="0 0 152 152" width="512" xmlns="http://www.w3.org/2000/svg" xmlns:xlink="http://www.w3.org/1999/xlink"><linearGradient id="linear-gradient" gradientUnits="userSpaceOnUse" x1="22.26" x2="129.74" y1="22.26" y2="129.74"><stop offset="0" stop-color="#00bde2"/><stop offset="1" stop-color="#001761"/></linearGradient><g id="Layer_2" data-name="Layer 2"><g id="_31.user_cowboy" data-name="31.user_cowboy"><rect id="background" fill="url(#linear-gradient)" height="152" rx="76" width="152"/><g id="icon" fill="#fff"><path d="m78.22 81.07h-4.44a26.52 26.52 0 0 0 -26.52 26.53 6.4 6.4 0 0 0 6.4 6.4h44.68a6.4 6.4 0 0 0 6.4-6.4 26.52 26.52 0 0 0 -26.52-26.53z"/><path d="m61.63 61.05a14.37 14.37 0 0 0 28.74 0c0-.28 0-.55 0-.82a19.68 19.68 0 0 0 4.85-9 1.22 1.22 0 0 0 -1.96-1.23 24.83 24.83 0 0 1 -5.21 3.2 29.62 29.62 0 0 1 -24.09 0 25.07 25.07 0 0 1 -5.22-3.2 1.22 1.22 0 0 0 -2 1.23 19.71 19.71 0 0 0 4.86 9c.03.27.03.54.03.82z"/><path d="m88.29 49.1c-.55.32-1.13.62-1.72.89a26.11 26.11 0 0 1 -21.14 0c-.6-.27-1.17-.56-1.73-.88.62-6.32 3.65-11.11 7.3-11.11 1.94 0 3.7 1.36 5 3.57 1.32-2.21 3.08-3.57 5-3.57 3.65 0 6.67 4.79 7.29 11.1z"/></g></g></g></svg>