<svg id="Capa_1" enable-background="new 0 0 512 512" height="512" viewBox="0 0 512 512" width="512" xmlns="http://www.w3.org/2000/svg" xmlns:xlink="http://www.w3.org/1999/xlink"><linearGradient id="SVGID_1_" gradientUnits="userSpaceOnUse" x1="256" x2="256" y1="496" y2="16"><stop offset="0" stop-color="#fd5900"/><stop offset="1" stop-color="#ffde00"/></linearGradient><linearGradient id="SVGID_2_" gradientUnits="userSpaceOnUse" x1="226" x2="226" y1="496" y2="76"><stop offset="0" stop-color="#ffe59a"/><stop offset="1" stop-color="#ffffd5"/></linearGradient><g><g><g><path d="m467 16h-422c-24.902 0-45 20.099-45 45v75l30 15-30 15v150l30 18.6-30 11.4v75c0 24.901 20.098 45 45 45h15l15 30 15-30h332l15 30 15-30h15c24.902 0 45-20.099 45-45v-360c0-24.901-20.098-45-45-45z" fill="url(#SVGID_1_)"/></g></g><g><g><path d="m60 481c0 8.401 6.599 15 15 15s15-6.599 15-15v-15h-30zm362 0c0 8.401 6.599 15 15 15s15-6.599 15-15v-15h-30zm15-405h-362c-8.291 0-15 6.709-15 15v45h-60v30h60v150h-60v30h60v45c0 8.291 6.709 15 15 15h362c8.291 0 15-6.709 15-15v-300c0-8.291-6.709-15-15-15zm-211 240c-41.4 0-75-33.6-75-75 0-36.301 25.8-66.599 60-73.5v73.5c0 8.401 6.599 15 15 15s15-6.599 15-15v-73.5c34.2 6.901 60 37.2 60 73.5 0 41.4-33.6 75-75 75zm165-15c0 24.814-20.186 45-45 45-8.291 0-15-6.709-15-15s6.709-15 15-15c8.276 0 15-6.724 15-15v-120c0-8.276-6.724-15-15-15-8.291 0-15-6.709-15-15s6.709-15 15-15c24.814 0 45 20.186 45 45z" fill="url(#SVGID_2_)"/></g></g></g></svg>